<?xml version="1.0" encoding="UTF-8" standalone="no"?>
<!DOCTYPE svg PUBLIC "-//W3C//DTD SVG 1.1//EN"
 "http://www.w3.org/Graphics/SVG/1.1/DTD/svg11.dtd">
<!-- Generated by graphviz version 3.0.0 (20220413.0242)
 -->
<!-- Title: PlottingFramework::Plot Pages: 1 -->
<svg width="559pt" height="244pt"
 viewBox="0.00 0.00 559.00 244.00" xmlns="http://www.w3.org/2000/svg" xmlns:xlink="http://www.w3.org/1999/xlink">
<g id="graph0" class="graph" transform="scale(1 1) rotate(0) translate(4 240)">
<title>PlottingFramework::Plot</title>
<polygon fill="white" stroke="transparent" points="-4,4 -4,-240 555,-240 555,4 -4,4"/>
<!-- Node1 -->
<g id="node1" class="node">
<title>Node1</title>
<g id="a_node1"><a xlink:title="Class for internal representation of a plot.">
<polygon fill="#bfbfbf" stroke="black" points="431,-114.5 431,-133.5 551,-133.5 551,-114.5 431,-114.5"/>
<text text-anchor="middle" x="491" y="-121.5" font-family="Helvetica,sans-Serif" font-size="10.00">PlottingFramework::Plot</text>
</a>
</g>
</g>
<!-- Node2 -->
<g id="node2" class="node">
<title>Node2</title>
<g id="a_node2"><a xlink:title=" ">
<polygon fill="white" stroke="black" points="220,-199.5 220,-218.5 279,-218.5 279,-199.5 220,-199.5"/>
<text text-anchor="middle" x="249.5" y="-206.5" font-family="Helvetica,sans-Serif" font-size="10.00">std::string</text>
</a>
</g>
</g>
<!-- Node2&#45;&gt;Node1 -->
<g id="edge1" class="edge">
<title>Node2&#45;&gt;Node1</title>
<path fill="none" stroke="#9a32cd" stroke-dasharray="5,2" d="M289.63,-207.34C323.47,-204.73 373.1,-198.06 413,-181 439.92,-169.49 466.22,-146.87 480.03,-133.85"/>
<polygon fill="#9a32cd" stroke="#9a32cd" points="288.96,-203.88 279.23,-208.05 289.44,-210.86 288.96,-203.88"/>
<text text-anchor="middle" x="366.5" y="-228" font-family="Helvetica,sans-Serif" font-size="10.00"> mFigureGroup</text>
<text text-anchor="middle" x="366.5" y="-217" font-family="Helvetica,sans-Serif" font-size="10.00">mName</text>
<text text-anchor="middle" x="366.5" y="-206" font-family="Helvetica,sans-Serif" font-size="10.00">mUniqueName</text>
</g>
<!-- Node3 -->
<g id="node3" class="node">
<title>Node3</title>
<g id="a_node3"><a xlink:title=" ">
<polygon fill="white" stroke="black" points="1.5,-194 1.5,-224 94.5,-224 94.5,-194 1.5,-194"/>
<text text-anchor="start" x="9.5" y="-212" font-family="Helvetica,sans-Serif" font-size="10.00">std::basic_string&lt;</text>
<text text-anchor="middle" x="48" y="-201" font-family="Helvetica,sans-Serif" font-size="10.00"> char &gt;</text>
</a>
</g>
</g>
<!-- Node3&#45;&gt;Node2 -->
<g id="edge2" class="edge">
<title>Node3&#45;&gt;Node2</title>
<path fill="none" stroke="midnightblue" d="M105.02,-209C142.42,-209 190.04,-209 219.9,-209"/>
<polygon fill="midnightblue" stroke="midnightblue" points="104.77,-205.5 94.77,-209 104.77,-212.5 104.77,-205.5"/>
</g>
<!-- Node4 -->
<g id="node4" class="node">
<title>Node4</title>
<g id="a_node4"><a xlink:title=" ">
<polygon fill="white" stroke="black" points="204,-158.5 204,-177.5 295,-177.5 295,-158.5 204,-158.5"/>
<text text-anchor="middle" x="249.5" y="-165.5" font-family="Helvetica,sans-Serif" font-size="10.00">optional&lt; string &gt;</text>
</a>
</g>
</g>
<!-- Node4&#45;&gt;Node1 -->
<g id="edge3" class="edge">
<title>Node4&#45;&gt;Node1</title>
<path fill="none" stroke="#9a32cd" stroke-dasharray="5,2" d="M304.94,-158.51C336.52,-152.94 377.03,-145.71 413,-139 422.24,-137.28 432.09,-135.39 441.55,-133.56"/>
<polygon fill="#9a32cd" stroke="#9a32cd" points="304.26,-155.07 295.02,-160.25 305.48,-161.97 304.26,-155.07"/>
<text text-anchor="middle" x="366.5" y="-169" font-family="Helvetica,sans-Serif" font-size="10.00"> mFigureCategory</text>
<text text-anchor="middle" x="366.5" y="-158" font-family="Helvetica,sans-Serif" font-size="10.00">mPlotTemplateName</text>
</g>
<!-- Node5 -->
<g id="node5" class="node">
<title>Node5</title>
<g id="a_node5"><a xlink:href="structPlottingFramework_1_1Plot_1_1dimension__t.html" target="_top" xlink:title=" ">
<polygon fill="white" stroke="black" points="198,-109 198,-139 301,-139 301,-109 198,-109"/>
<text text-anchor="start" x="206" y="-127" font-family="Helvetica,sans-Serif" font-size="10.00">PlottingFramework::</text>
<text text-anchor="middle" x="249.5" y="-116" font-family="Helvetica,sans-Serif" font-size="10.00">Plot::dimension_t</text>
</a>
</g>
</g>
<!-- Node5&#45;&gt;Node1 -->
<g id="edge4" class="edge">
<title>Node5&#45;&gt;Node1</title>
<path fill="none" stroke="#9a32cd" stroke-dasharray="5,2" d="M311.36,-124C348.02,-124 394.48,-124 430.84,-124"/>
<polygon fill="#9a32cd" stroke="#9a32cd" points="311.29,-120.5 301.29,-124 311.29,-127.5 311.29,-120.5"/>
<text text-anchor="middle" x="366.5" y="-127" font-family="Helvetica,sans-Serif" font-size="10.00"> mPlotDimensions</text>
</g>
<!-- Node6 -->
<g id="node6" class="node">
<title>Node6</title>
<g id="a_node6"><a xlink:title=" ">
<polygon fill="white" stroke="black" points="0,-151.5 0,-170.5 96,-170.5 96,-151.5 0,-151.5"/>
<text text-anchor="middle" x="48" y="-158.5" font-family="Helvetica,sans-Serif" font-size="10.00">optional&lt; int32_t &gt;</text>
</a>
</g>
</g>
<!-- Node6&#45;&gt;Node5 -->
<g id="edge5" class="edge">
<title>Node6&#45;&gt;Node5</title>
<path fill="none" stroke="#9a32cd" stroke-dasharray="5,2" d="M106.42,-151.14C129.05,-147.18 155.27,-142.49 179,-138 185.05,-136.86 191.38,-135.63 197.66,-134.38"/>
<polygon fill="#9a32cd" stroke="#9a32cd" points="105.54,-147.74 96.29,-152.91 106.74,-154.64 105.54,-147.74"/>
<text text-anchor="middle" x="146.5" y="-163" font-family="Helvetica,sans-Serif" font-size="10.00"> height</text>
<text text-anchor="middle" x="146.5" y="-152" font-family="Helvetica,sans-Serif" font-size="10.00">width</text>
</g>
<!-- Node7 -->
<g id="node7" class="node">
<title>Node7</title>
<g id="a_node7"><a xlink:title=" ">
<polygon fill="white" stroke="black" points="5.5,-113.5 5.5,-132.5 90.5,-132.5 90.5,-113.5 5.5,-113.5"/>
<text text-anchor="middle" x="48" y="-120.5" font-family="Helvetica,sans-Serif" font-size="10.00">optional&lt; bool &gt;</text>
</a>
</g>
</g>
<!-- Node7&#45;&gt;Node5 -->
<g id="edge6" class="edge">
<title>Node7&#45;&gt;Node5</title>
<path fill="none" stroke="#9a32cd" stroke-dasharray="5,2" d="M101.05,-123.26C130.93,-123.41 168.26,-123.6 197.89,-123.75"/>
<polygon fill="#9a32cd" stroke="#9a32cd" points="100.84,-119.76 90.82,-123.21 100.8,-126.76 100.84,-119.76"/>
<text text-anchor="middle" x="146.5" y="-126" font-family="Helvetica,sans-Serif" font-size="10.00"> fixAspectRatio</text>
</g>
<!-- Node8 -->
<g id="node8" class="node">
<title>Node8</title>
<g id="a_node8"><a xlink:href="structPlottingFramework_1_1Plot_1_1layout__t.html" target="_top" xlink:title=" ">
<polygon fill="white" stroke="black" points="198,-60 198,-90 301,-90 301,-60 198,-60"/>
<text text-anchor="start" x="206" y="-78" font-family="Helvetica,sans-Serif" font-size="10.00">PlottingFramework::</text>
<text text-anchor="middle" x="249.5" y="-67" font-family="Helvetica,sans-Serif" font-size="10.00">Plot::layout_t</text>
</a>
</g>
</g>
<!-- Node8&#45;&gt;Node1 -->
<g id="edge7" class="edge">
<title>Node8&#45;&gt;Node1</title>
<path fill="none" stroke="#9a32cd" stroke-dasharray="5,2" d="M311.18,-87.41C352.22,-95.81 405.62,-106.74 443.34,-114.45"/>
<polygon fill="#9a32cd" stroke="#9a32cd" points="311.79,-83.97 301.29,-85.39 310.39,-90.83 311.79,-83.97"/>
<text text-anchor="middle" x="366.5" y="-111" font-family="Helvetica,sans-Serif" font-size="10.00"> mFill</text>
</g>
<!-- Node9 -->
<g id="node9" class="node">
<title>Node9</title>
<g id="a_node9"><a xlink:title=" ">
<polygon fill="white" stroke="black" points="0,-66.5 0,-85.5 96,-85.5 96,-66.5 0,-66.5"/>
<text text-anchor="middle" x="48" y="-73.5" font-family="Helvetica,sans-Serif" font-size="10.00">optional&lt; int16_t &gt;</text>
</a>
</g>
</g>
<!-- Node9&#45;&gt;Node8 -->
<g id="edge8" class="edge">
<title>Node9&#45;&gt;Node8</title>
<path fill="none" stroke="#9a32cd" stroke-dasharray="5,2" d="M106.39,-75.71C135.31,-75.57 170.05,-75.39 197.95,-75.25"/>
<polygon fill="#9a32cd" stroke="#9a32cd" points="106.01,-72.21 96.03,-75.76 106.04,-79.21 106.01,-72.21"/>
<text text-anchor="middle" x="146.5" y="-89" font-family="Helvetica,sans-Serif" font-size="10.00"> color</text>
<text text-anchor="middle" x="146.5" y="-78" font-family="Helvetica,sans-Serif" font-size="10.00">style</text>
</g>
<!-- Node10 -->
<g id="node10" class="node">
<title>Node10</title>
<g id="a_node10"><a xlink:title=" ">
<polygon fill="white" stroke="black" points="1.5,-28.5 1.5,-47.5 94.5,-47.5 94.5,-28.5 1.5,-28.5"/>
<text text-anchor="middle" x="48" y="-35.5" font-family="Helvetica,sans-Serif" font-size="10.00">optional&lt; float_t &gt;</text>
</a>
</g>
</g>
<!-- Node10&#45;&gt;Node8 -->
<g id="edge9" class="edge">
<title>Node10&#45;&gt;Node8</title>
<path fill="none" stroke="#9a32cd" stroke-dasharray="5,2" d="M104.48,-46.83C127.57,-50.64 154.62,-55.31 179,-60 185.06,-61.17 191.41,-62.45 197.69,-63.76"/>
<polygon fill="#9a32cd" stroke="#9a32cd" points="104.95,-43.36 94.51,-45.19 103.81,-50.26 104.95,-43.36"/>
<text text-anchor="middle" x="146.5" y="-63" font-family="Helvetica,sans-Serif" font-size="10.00"> scale</text>
</g>
<!-- Node11 -->
<g id="node11" class="node">
<title>Node11</title>
<g id="a_node11"><a xlink:title=" ">
<polygon fill="white" stroke="black" points="197,-0.5 197,-41.5 302,-41.5 302,-0.5 197,-0.5"/>
<text text-anchor="start" x="205" y="-29.5" font-family="Helvetica,sans-Serif" font-size="10.00">std::map&lt; uint8_t,</text>
<text text-anchor="start" x="205" y="-18.5" font-family="Helvetica,sans-Serif" font-size="10.00"> PlottingFramework::</text>
<text text-anchor="middle" x="249.5" y="-7.5" font-family="Helvetica,sans-Serif" font-size="10.00">Plot::Pad &gt;</text>
</a>
</g>
</g>
<!-- Node11&#45;&gt;Node1 -->
<g id="edge10" class="edge">
<title>Node11&#45;&gt;Node1</title>
<path fill="none" stroke="#9a32cd" stroke-dasharray="5,2" d="M312.14,-36.98C343.15,-46.05 380.86,-58.65 413,-74 437.16,-85.54 462.77,-103.47 477.53,-114.43"/>
<polygon fill="#9a32cd" stroke="#9a32cd" points="312.91,-33.56 302.33,-34.17 310.97,-40.29 312.91,-33.56"/>
<text text-anchor="middle" x="366.5" y="-77" font-family="Helvetica,sans-Serif" font-size="10.00"> mPads</text>
</g>
</g>
</svg>
