<?xml version="1.0" encoding="UTF-8" standalone="no"?>
<!DOCTYPE svg PUBLIC "-//W3C//DTD SVG 1.1//EN"
 "http://www.w3.org/Graphics/SVG/1.1/DTD/svg11.dtd">
<!-- Generated by graphviz version 3.0.0 (20220413.0242)
 -->
<!-- Title: PlottingFramework::Plot::Pad::LegendBox::LegendEntry Pages: 1 -->
<svg width="272pt" height="239pt"
 viewBox="0.00 0.00 272.00 239.00" xmlns="http://www.w3.org/2000/svg" xmlns:xlink="http://www.w3.org/1999/xlink">
<g id="graph0" class="graph" transform="scale(1 1) rotate(0) translate(4 235)">
<title>PlottingFramework::Plot::Pad::LegendBox::LegendEntry</title>
<polygon fill="white" stroke="transparent" points="-4,4 -4,-235 268,-235 268,4 -4,4"/>
<!-- Node1 -->
<g id="node1" class="node">
<title>Node1</title>
<g id="a_node1"><a xlink:title="Representation of a legend box entry.">
<polygon fill="#bfbfbf" stroke="black" points="37,-0.5 37,-41.5 146,-41.5 146,-0.5 37,-0.5"/>
<text text-anchor="start" x="45" y="-29.5" font-family="Helvetica,sans-Serif" font-size="10.00">PlottingFramework::</text>
<text text-anchor="start" x="45" y="-18.5" font-family="Helvetica,sans-Serif" font-size="10.00">Plot::Pad::LegendBox</text>
<text text-anchor="middle" x="91.5" y="-7.5" font-family="Helvetica,sans-Serif" font-size="10.00">::LegendEntry</text>
</a>
</g>
</g>
<!-- Node2 -->
<g id="node2" class="node">
<title>Node2</title>
<g id="a_node2"><a xlink:title=" ">
<polygon fill="white" stroke="black" points="0,-128 0,-147 91,-147 91,-128 0,-128"/>
<text text-anchor="middle" x="45.5" y="-135" font-family="Helvetica,sans-Serif" font-size="10.00">optional&lt; string &gt;</text>
</a>
</g>
</g>
<!-- Node2&#45;&gt;Node1 -->
<g id="edge1" class="edge">
<title>Node2&#45;&gt;Node1</title>
<path fill="none" stroke="#9a32cd" stroke-dasharray="5,2" d="M45.53,-117.28C46.24,-101.25 48.88,-78.18 57.5,-60 60.61,-53.44 65.22,-47.18 70.04,-41.71"/>
<polygon fill="#9a32cd" stroke="#9a32cd" points="42.02,-117.46 45.3,-127.54 49.02,-117.62 42.02,-117.46"/>
<text text-anchor="middle" x="92.5" y="-90.5" font-family="Helvetica,sans-Serif" font-size="10.00"> mDrawStyle</text>
<text text-anchor="middle" x="92.5" y="-79.5" font-family="Helvetica,sans-Serif" font-size="10.00">mLabel</text>
<text text-anchor="middle" x="92.5" y="-68.5" font-family="Helvetica,sans-Serif" font-size="10.00">mRefDataName</text>
</g>
<!-- Node3 -->
<g id="node3" class="node">
<title>Node3</title>
<g id="a_node3"><a xlink:href="structPlottingFramework_1_1Plot_1_1layout__t.html" target="_top" xlink:title=" ">
<polygon fill="white" stroke="black" points="109,-122.5 109,-152.5 212,-152.5 212,-122.5 109,-122.5"/>
<text text-anchor="start" x="117" y="-140.5" font-family="Helvetica,sans-Serif" font-size="10.00">PlottingFramework::</text>
<text text-anchor="middle" x="160.5" y="-129.5" font-family="Helvetica,sans-Serif" font-size="10.00">Plot::layout_t</text>
</a>
</g>
</g>
<!-- Node3&#45;&gt;Node1 -->
<g id="edge2" class="edge">
<title>Node3&#45;&gt;Node1</title>
<path fill="none" stroke="#9a32cd" stroke-dasharray="5,2" d="M152.7,-112.72C146.99,-97.04 138.34,-76.44 127.5,-60 123.3,-53.63 117.98,-47.34 112.73,-41.78"/>
<polygon fill="#9a32cd" stroke="#9a32cd" points="149.42,-113.94 156.03,-122.22 156.03,-111.62 149.42,-113.94"/>
<text text-anchor="middle" x="169" y="-96" font-family="Helvetica,sans-Serif" font-size="10.00"> mFill</text>
<text text-anchor="middle" x="169" y="-85" font-family="Helvetica,sans-Serif" font-size="10.00">mLine</text>
<text text-anchor="middle" x="169" y="-74" font-family="Helvetica,sans-Serif" font-size="10.00">mMarker</text>
<text text-anchor="middle" x="169" y="-63" font-family="Helvetica,sans-Serif" font-size="10.00">mText</text>
</g>
<!-- Node4 -->
<g id="node4" class="node">
<title>Node4</title>
<g id="a_node4"><a xlink:title=" ">
<polygon fill="white" stroke="black" points="56.5,-211.5 56.5,-230.5 152.5,-230.5 152.5,-211.5 56.5,-211.5"/>
<text text-anchor="middle" x="104.5" y="-218.5" font-family="Helvetica,sans-Serif" font-size="10.00">optional&lt; int16_t &gt;</text>
</a>
</g>
</g>
<!-- Node4&#45;&gt;Node3 -->
<g id="edge3" class="edge">
<title>Node4&#45;&gt;Node3</title>
<path fill="none" stroke="#9a32cd" stroke-dasharray="5,2" d="M116.22,-202.95C126.48,-188.01 141.21,-166.58 150.81,-152.6"/>
<polygon fill="#9a32cd" stroke="#9a32cd" points="113.27,-201.05 110.49,-211.28 119.04,-205.02 113.27,-201.05"/>
<text text-anchor="middle" x="150.5" y="-185" font-family="Helvetica,sans-Serif" font-size="10.00"> color</text>
<text text-anchor="middle" x="150.5" y="-174" font-family="Helvetica,sans-Serif" font-size="10.00">style</text>
</g>
<!-- Node5 -->
<g id="node5" class="node">
<title>Node5</title>
<g id="a_node5"><a xlink:title=" ">
<polygon fill="white" stroke="black" points="171,-211.5 171,-230.5 264,-230.5 264,-211.5 171,-211.5"/>
<text text-anchor="middle" x="217.5" y="-218.5" font-family="Helvetica,sans-Serif" font-size="10.00">optional&lt; float_t &gt;</text>
</a>
</g>
</g>
<!-- Node5&#45;&gt;Node3 -->
<g id="edge4" class="edge">
<title>Node5&#45;&gt;Node3</title>
<path fill="none" stroke="#9a32cd" stroke-dasharray="5,2" d="M205.57,-202.95C195.13,-188.01 180.14,-166.58 170.36,-152.6"/>
<polygon fill="#9a32cd" stroke="#9a32cd" points="202.8,-205.09 211.4,-211.28 208.54,-201.08 202.8,-205.09"/>
<text text-anchor="middle" x="209.5" y="-179.5" font-family="Helvetica,sans-Serif" font-size="10.00"> scale</text>
</g>
</g>
</svg>
