<?xml version="1.0" encoding="UTF-8" standalone="no"?>
<!DOCTYPE svg PUBLIC "-//W3C//DTD SVG 1.1//EN"
 "http://www.w3.org/Graphics/SVG/1.1/DTD/svg11.dtd">
<!-- Generated by graphviz version 3.0.0 (20220413.0242)
 -->
<!-- Title: PlottingFramework::Plot::Pad::Box&lt; BoxType &gt; Pages: 1 -->
<svg width="534pt" height="167pt"
 viewBox="0.00 0.00 534.00 167.00" xmlns="http://www.w3.org/2000/svg" xmlns:xlink="http://www.w3.org/1999/xlink">
<g id="graph0" class="graph" transform="scale(1 1) rotate(0) translate(4 163)">
<title>PlottingFramework::Plot::Pad::Box&lt; BoxType &gt;</title>
<polygon fill="white" stroke="transparent" points="-4,4 -4,-163 530,-163 530,4 -4,4"/>
<!-- Node1 -->
<g id="node1" class="node">
<title>Node1</title>
<g id="a_node1"><a xlink:title="Representation of a box.">
<polygon fill="#bfbfbf" stroke="black" points="395,-86 395,-116 526,-116 526,-86 395,-86"/>
<text text-anchor="start" x="403" y="-104" font-family="Helvetica,sans-Serif" font-size="10.00">PlottingFramework::</text>
<text text-anchor="middle" x="460.5" y="-93" font-family="Helvetica,sans-Serif" font-size="10.00">Plot::Pad::Box&lt; BoxType &gt;</text>
</a>
</g>
</g>
<!-- Node2 -->
<g id="node2" class="node">
<title>Node2</title>
<g id="a_node2"><a xlink:href="classfriend.html" target="_top" xlink:title=" ">
<polygon fill="white" stroke="black" points="237.5,-139.5 237.5,-158.5 278.5,-158.5 278.5,-139.5 237.5,-139.5"/>
<text text-anchor="middle" x="258" y="-146.5" font-family="Helvetica,sans-Serif" font-size="10.00">friend</text>
</a>
</g>
</g>
<!-- Node2&#45;&gt;Node1 -->
<g id="edge1" class="edge">
<title>Node2&#45;&gt;Node1</title>
<path fill="none" stroke="#9a32cd" stroke-dasharray="5,2" d="M288.64,-141.9C316.93,-135.13 360.47,-124.71 396.52,-116.08"/>
<polygon fill="#9a32cd" stroke="#9a32cd" points="287.5,-138.58 278.59,-144.31 289.13,-145.39 287.5,-138.58"/>
<text text-anchor="middle" x="357" y="-132" font-family="Helvetica,sans-Serif" font-size="10.00"> BoxType</text>
</g>
<!-- Node3 -->
<g id="node3" class="node">
<title>Node3</title>
<g id="a_node3"><a xlink:href="structPlottingFramework_1_1Plot_1_1Pad_1_1Box_1_1position__t.html" target="_top" xlink:title=" ">
<polygon fill="white" stroke="black" points="197,-79.5 197,-120.5 319,-120.5 319,-79.5 197,-79.5"/>
<text text-anchor="start" x="205" y="-108.5" font-family="Helvetica,sans-Serif" font-size="10.00">PlottingFramework::</text>
<text text-anchor="start" x="205" y="-97.5" font-family="Helvetica,sans-Serif" font-size="10.00">Plot::Pad::Box&lt; BoxType</text>
<text text-anchor="middle" x="258" y="-86.5" font-family="Helvetica,sans-Serif" font-size="10.00"> &gt;::position_t</text>
</a>
</g>
</g>
<!-- Node3&#45;&gt;Node1 -->
<g id="edge2" class="edge">
<title>Node3&#45;&gt;Node1</title>
<path fill="none" stroke="#9a32cd" stroke-dasharray="5,2" d="M329.43,-100.35C350.71,-100.46 373.96,-100.57 394.85,-100.68"/>
<polygon fill="#9a32cd" stroke="#9a32cd" points="329.17,-96.85 319.16,-100.3 329.14,-103.85 329.17,-96.85"/>
<text text-anchor="middle" x="357" y="-103" font-family="Helvetica,sans-Serif" font-size="10.00"> mPos</text>
</g>
<!-- Node4 -->
<g id="node4" class="node">
<title>Node4</title>
<g id="a_node4"><a xlink:title=" ">
<polygon fill="white" stroke="black" points="0,-123.5 0,-142.5 104,-142.5 104,-123.5 0,-123.5"/>
<text text-anchor="middle" x="52" y="-130.5" font-family="Helvetica,sans-Serif" font-size="10.00">optional&lt; double_t &gt;</text>
</a>
</g>
</g>
<!-- Node4&#45;&gt;Node3 -->
<g id="edge3" class="edge">
<title>Node4&#45;&gt;Node3</title>
<path fill="none" stroke="#9a32cd" stroke-dasharray="5,2" d="M114.35,-123.08C140.43,-118.86 170.74,-113.95 196.7,-109.75"/>
<polygon fill="#9a32cd" stroke="#9a32cd" points="113.53,-119.66 104.21,-124.72 114.65,-126.57 113.53,-119.66"/>
<text text-anchor="middle" x="150.5" y="-135" font-family="Helvetica,sans-Serif" font-size="10.00"> x</text>
<text text-anchor="middle" x="150.5" y="-124" font-family="Helvetica,sans-Serif" font-size="10.00">y</text>
</g>
<!-- Node5 -->
<g id="node5" class="node">
<title>Node5</title>
<g id="a_node5"><a xlink:title=" ">
<polygon fill="white" stroke="black" points="9.5,-85.5 9.5,-104.5 94.5,-104.5 94.5,-85.5 9.5,-85.5"/>
<text text-anchor="middle" x="52" y="-92.5" font-family="Helvetica,sans-Serif" font-size="10.00">optional&lt; bool &gt;</text>
</a>
</g>
</g>
<!-- Node5&#45;&gt;Node3 -->
<g id="edge4" class="edge">
<title>Node5&#45;&gt;Node3</title>
<path fill="none" stroke="#9a32cd" stroke-dasharray="5,2" d="M105.13,-96.28C133.07,-96.96 167.62,-97.81 196.71,-98.52"/>
<polygon fill="#9a32cd" stroke="#9a32cd" points="104.86,-92.77 94.77,-96.02 104.69,-99.77 104.86,-92.77"/>
<text text-anchor="middle" x="150.5" y="-100" font-family="Helvetica,sans-Serif" font-size="10.00"> isUserCoord</text>
</g>
<!-- Node6 -->
<g id="node6" class="node">
<title>Node6</title>
<g id="a_node6"><a xlink:href="structPlottingFramework_1_1Plot_1_1layout__t.html" target="_top" xlink:title=" ">
<polygon fill="white" stroke="black" points="206.5,-30 206.5,-60 309.5,-60 309.5,-30 206.5,-30"/>
<text text-anchor="start" x="214.5" y="-48" font-family="Helvetica,sans-Serif" font-size="10.00">PlottingFramework::</text>
<text text-anchor="middle" x="258" y="-37" font-family="Helvetica,sans-Serif" font-size="10.00">Plot::layout_t</text>
</a>
</g>
</g>
<!-- Node6&#45;&gt;Node1 -->
<g id="edge5" class="edge">
<title>Node6&#45;&gt;Node1</title>
<path fill="none" stroke="#9a32cd" stroke-dasharray="5,2" d="M319.77,-50.95C338.38,-53.66 358.75,-57.52 377,-63 396.03,-68.71 416.31,-78.01 432.01,-85.97"/>
<polygon fill="#9a32cd" stroke="#9a32cd" points="320.02,-47.46 309.64,-49.57 319.07,-54.39 320.02,-47.46"/>
<text text-anchor="middle" x="357" y="-88" font-family="Helvetica,sans-Serif" font-size="10.00"> mBorder</text>
<text text-anchor="middle" x="357" y="-77" font-family="Helvetica,sans-Serif" font-size="10.00">mFill</text>
<text text-anchor="middle" x="357" y="-66" font-family="Helvetica,sans-Serif" font-size="10.00">mText</text>
</g>
<!-- Node7 -->
<g id="node7" class="node">
<title>Node7</title>
<g id="a_node7"><a xlink:title=" ">
<polygon fill="white" stroke="black" points="4,-38.5 4,-57.5 100,-57.5 100,-38.5 4,-38.5"/>
<text text-anchor="middle" x="52" y="-45.5" font-family="Helvetica,sans-Serif" font-size="10.00">optional&lt; int16_t &gt;</text>
</a>
</g>
</g>
<!-- Node7&#45;&gt;Node6 -->
<g id="edge6" class="edge">
<title>Node7&#45;&gt;Node6</title>
<path fill="none" stroke="#9a32cd" stroke-dasharray="5,2" d="M110.43,-47.16C140.56,-46.71 177.16,-46.17 206.25,-45.75"/>
<polygon fill="#9a32cd" stroke="#9a32cd" points="110.01,-43.66 100.06,-47.31 110.11,-50.66 110.01,-43.66"/>
<text text-anchor="middle" x="150.5" y="-60" font-family="Helvetica,sans-Serif" font-size="10.00"> color</text>
<text text-anchor="middle" x="150.5" y="-49" font-family="Helvetica,sans-Serif" font-size="10.00">style</text>
</g>
<!-- Node8 -->
<g id="node8" class="node">
<title>Node8</title>
<g id="a_node8"><a xlink:title=" ">
<polygon fill="white" stroke="black" points="5.5,-0.5 5.5,-19.5 98.5,-19.5 98.5,-0.5 5.5,-0.5"/>
<text text-anchor="middle" x="52" y="-7.5" font-family="Helvetica,sans-Serif" font-size="10.00">optional&lt; float_t &gt;</text>
</a>
</g>
</g>
<!-- Node8&#45;&gt;Node6 -->
<g id="edge7" class="edge">
<title>Node8&#45;&gt;Node6</title>
<path fill="none" stroke="#9a32cd" stroke-dasharray="5,2" d="M108.65,-19.12C130.58,-22.76 155.99,-27.02 179,-31 187.81,-32.53 197.18,-34.18 206.25,-35.8"/>
<polygon fill="#9a32cd" stroke="#9a32cd" points="108.95,-15.62 98.51,-17.45 107.81,-22.53 108.95,-15.62"/>
<text text-anchor="middle" x="150.5" y="-34" font-family="Helvetica,sans-Serif" font-size="10.00"> scale</text>
</g>
</g>
</svg>
