<?xml version="1.0" encoding="UTF-8" standalone="no"?>
<!DOCTYPE svg PUBLIC "-//W3C//DTD SVG 1.1//EN"
 "http://www.w3.org/Graphics/SVG/1.1/DTD/svg11.dtd">
<!-- Generated by graphviz version 3.0.0 (20220413.0242)
 -->
<!-- Title: PlottingFramework::Plot::Pad::Data Pages: 1 -->
<svg width="584pt" height="516pt"
 viewBox="0.00 0.00 584.00 516.00" xmlns="http://www.w3.org/2000/svg" xmlns:xlink="http://www.w3.org/1999/xlink">
<g id="graph0" class="graph" transform="scale(1 1) rotate(0) translate(4 512)">
<title>PlottingFramework::Plot::Pad::Data</title>
<polygon fill="white" stroke="transparent" points="-4,4 -4,-512 580,-512 580,4 -4,4"/>
<!-- Node1 -->
<g id="node1" class="node">
<title>Node1</title>
<g id="a_node1"><a xlink:title="Representation of drawable data.">
<polygon fill="#bfbfbf" stroke="black" points="473,-228 473,-258 576,-258 576,-228 473,-228"/>
<text text-anchor="start" x="481" y="-246" font-family="Helvetica,sans-Serif" font-size="10.00">PlottingFramework::</text>
<text text-anchor="middle" x="524.5" y="-235" font-family="Helvetica,sans-Serif" font-size="10.00">Plot::Pad::Data</text>
</a>
</g>
</g>
<!-- Node2 -->
<g id="node2" class="node">
<title>Node2</title>
<g id="a_node2"><a xlink:title=" ">
<polygon fill="white" stroke="black" points="249.5,-479.5 249.5,-498.5 284.5,-498.5 284.5,-479.5 249.5,-479.5"/>
<text text-anchor="middle" x="267" y="-486.5" font-family="Helvetica,sans-Serif" font-size="10.00">bool</text>
</a>
</g>
</g>
<!-- Node2&#45;&gt;Node1 -->
<g id="edge1" class="edge">
<title>Node2&#45;&gt;Node1</title>
<path fill="none" stroke="#9a32cd" stroke-dasharray="5,2" d="M294.51,-494.12C334.22,-500.17 409.37,-505.09 455,-467 519.78,-412.93 524.55,-299.35 524.03,-258.25"/>
<polygon fill="#9a32cd" stroke="#9a32cd" points="294.96,-490.65 284.52,-492.46 293.82,-497.56 294.96,-490.65"/>
<text text-anchor="middle" x="406.5" y="-500" font-family="Helvetica,sans-Serif" font-size="10.00"> mDefinesFrame</text>
</g>
<!-- Node3 -->
<g id="node3" class="node">
<title>Node3</title>
<g id="a_node3"><a xlink:title=" ">
<polygon fill="white" stroke="black" points="237.5,-440.5 237.5,-459.5 296.5,-459.5 296.5,-440.5 237.5,-440.5"/>
<text text-anchor="middle" x="267" y="-447.5" font-family="Helvetica,sans-Serif" font-size="10.00">std::string</text>
</a>
</g>
</g>
<!-- Node3&#45;&gt;Node1 -->
<g id="edge2" class="edge">
<title>Node3&#45;&gt;Node1</title>
<path fill="none" stroke="#9a32cd" stroke-dasharray="5,2" d="M306.97,-442.84C360.08,-432.94 449.3,-415.75 455,-411 503.28,-370.78 517.91,-291.22 522.02,-258.06"/>
<polygon fill="#9a32cd" stroke="#9a32cd" points="306.06,-439.45 296.87,-444.71 307.34,-446.33 306.06,-439.45"/>
<text text-anchor="middle" x="406.5" y="-458" font-family="Helvetica,sans-Serif" font-size="10.00"> mInputIdentifier</text>
<text text-anchor="middle" x="406.5" y="-447" font-family="Helvetica,sans-Serif" font-size="10.00">mName</text>
<text text-anchor="middle" x="406.5" y="-436" font-family="Helvetica,sans-Serif" font-size="10.00">mType</text>
</g>
<!-- Node4 -->
<g id="node4" class="node">
<title>Node4</title>
<g id="a_node4"><a xlink:title=" ">
<polygon fill="white" stroke="black" points="5.5,-435 5.5,-465 98.5,-465 98.5,-435 5.5,-435"/>
<text text-anchor="start" x="13.5" y="-453" font-family="Helvetica,sans-Serif" font-size="10.00">std::basic_string&lt;</text>
<text text-anchor="middle" x="52" y="-442" font-family="Helvetica,sans-Serif" font-size="10.00"> char &gt;</text>
</a>
</g>
</g>
<!-- Node4&#45;&gt;Node3 -->
<g id="edge3" class="edge">
<title>Node4&#45;&gt;Node3</title>
<path fill="none" stroke="midnightblue" d="M108.88,-450C150.13,-450 204.59,-450 237.36,-450"/>
<polygon fill="midnightblue" stroke="midnightblue" points="108.69,-446.5 98.69,-450 108.69,-453.5 108.69,-446.5"/>
</g>
<!-- Node5 -->
<g id="node5" class="node">
<title>Node5</title>
<g id="a_node5"><a xlink:title=" ">
<polygon fill="white" stroke="black" points="6.5,-377.5 6.5,-396.5 97.5,-396.5 97.5,-377.5 6.5,-377.5"/>
<text text-anchor="middle" x="52" y="-384.5" font-family="Helvetica,sans-Serif" font-size="10.00">optional&lt; string &gt;</text>
</a>
</g>
</g>
<!-- Node5&#45;&gt;Node1 -->
<g id="edge4" class="edge">
<title>Node5&#45;&gt;Node1</title>
<path fill="none" stroke="#9a32cd" stroke-dasharray="5,2" d="M107.64,-397.94C190.44,-411.35 349.2,-424.3 455,-353 489.51,-329.74 509.92,-282.65 518.58,-258.32"/>
<polygon fill="#9a32cd" stroke="#9a32cd" points="108.13,-394.48 97.69,-396.27 106.97,-401.38 108.13,-394.48"/>
<text text-anchor="middle" x="267" y="-422" font-family="Helvetica,sans-Serif" font-size="10.00"> mDrawingOptions</text>
<text text-anchor="middle" x="267" y="-411" font-family="Helvetica,sans-Serif" font-size="10.00">mTextFormat</text>
</g>
<!-- Node8 -->
<g id="node8" class="node">
<title>Node8</title>
<g id="a_node8"><a xlink:href="structPlottingFramework_1_1Plot_1_1Pad_1_1Data_1_1legend__t.html" target="_top" xlink:title=" ">
<polygon fill="white" stroke="black" points="206,-333 206,-363 328,-363 328,-333 206,-333"/>
<text text-anchor="start" x="214" y="-351" font-family="Helvetica,sans-Serif" font-size="10.00">PlottingFramework::</text>
<text text-anchor="middle" x="267" y="-340" font-family="Helvetica,sans-Serif" font-size="10.00">Plot::Pad::Data::legend_t</text>
</a>
</g>
</g>
<!-- Node5&#45;&gt;Node8 -->
<g id="edge8" class="edge">
<title>Node5&#45;&gt;Node8</title>
<path fill="none" stroke="#9a32cd" stroke-dasharray="5,2" d="M107.52,-377.02C137.51,-371.53 174.79,-364.7 205.65,-359.05"/>
<polygon fill="#9a32cd" stroke="#9a32cd" points="106.86,-373.58 97.65,-378.82 108.12,-380.47 106.86,-373.58"/>
<text text-anchor="middle" x="149" y="-376" font-family="Helvetica,sans-Serif" font-size="10.00"> label</text>
</g>
<!-- Node6 -->
<g id="node6" class="node">
<title>Node6</title>
<g id="a_node6"><a xlink:title=" ">
<polygon fill="white" stroke="black" points="194,-196.5 194,-215.5 340,-215.5 340,-196.5 194,-196.5"/>
<text text-anchor="middle" x="267" y="-203.5" font-family="Helvetica,sans-Serif" font-size="10.00">optional&lt; drawing_options_t &gt;</text>
</a>
</g>
</g>
<!-- Node6&#45;&gt;Node1 -->
<g id="edge5" class="edge">
<title>Node6&#45;&gt;Node1</title>
<path fill="none" stroke="#9a32cd" stroke-dasharray="5,2" d="M350.19,-213.12C382.92,-216.51 420.86,-221.12 455,-227 460.78,-228 466.8,-229.18 472.76,-230.45"/>
<polygon fill="#9a32cd" stroke="#9a32cd" points="350.51,-209.63 340.21,-212.11 349.8,-216.6 350.51,-209.63"/>
<text text-anchor="middle" x="406.5" y="-230" font-family="Helvetica,sans-Serif" font-size="10.00"> mDrawingOptionAlias</text>
</g>
<!-- Node7 -->
<g id="node7" class="node">
<title>Node7</title>
<g id="a_node7"><a xlink:title=" ">
<polygon fill="white" stroke="black" points="197,-136.5 197,-177.5 337,-177.5 337,-136.5 197,-136.5"/>
<text text-anchor="start" x="205" y="-165.5" font-family="Helvetica,sans-Serif" font-size="10.00">optional&lt; PlottingFramework</text>
<text text-anchor="start" x="205" y="-154.5" font-family="Helvetica,sans-Serif" font-size="10.00">::Plot::Pad::Data::proj</text>
<text text-anchor="middle" x="267" y="-143.5" font-family="Helvetica,sans-Serif" font-size="10.00">_info_t &gt;</text>
</a>
</g>
</g>
<!-- Node7&#45;&gt;Node1 -->
<g id="edge6" class="edge">
<title>Node7&#45;&gt;Node1</title>
<path fill="none" stroke="#9a32cd" stroke-dasharray="5,2" d="M347.26,-167.77C381.3,-174.07 420.99,-183.68 455,-198 473.1,-205.62 491.59,-218.1 504.79,-227.99"/>
<polygon fill="#9a32cd" stroke="#9a32cd" points="347.81,-164.32 337.35,-166.01 346.58,-171.21 347.81,-164.32"/>
<text text-anchor="middle" x="406.5" y="-201" font-family="Helvetica,sans-Serif" font-size="10.00"> mProjInfo</text>
</g>
<!-- Node8&#45;&gt;Node1 -->
<g id="edge7" class="edge">
<title>Node8&#45;&gt;Node1</title>
<path fill="none" stroke="#9a32cd" stroke-dasharray="5,2" d="M338.23,-342.73C374.73,-337.73 419.09,-327.98 455,-309 478.65,-296.5 499.8,-273.39 512.14,-258.1"/>
<polygon fill="#9a32cd" stroke="#9a32cd" points="337.64,-339.28 328.16,-344.02 338.52,-346.22 337.64,-339.28"/>
<text text-anchor="middle" x="406.5" y="-341" font-family="Helvetica,sans-Serif" font-size="10.00"> mLegend</text>
</g>
<!-- Node9 -->
<g id="node9" class="node">
<title>Node9</title>
<g id="a_node9"><a xlink:title=" ">
<polygon fill="white" stroke="black" points="4,-313.5 4,-332.5 100,-332.5 100,-313.5 4,-313.5"/>
<text text-anchor="middle" x="52" y="-320.5" font-family="Helvetica,sans-Serif" font-size="10.00">optional&lt; uint8_t &gt;</text>
</a>
</g>
</g>
<!-- Node9&#45;&gt;Node8 -->
<g id="edge9" class="edge">
<title>Node9&#45;&gt;Node8</title>
<path fill="none" stroke="#9a32cd" stroke-dasharray="5,2" d="M110.17,-329.71C139.71,-333.18 175.76,-337.41 205.74,-340.93"/>
<polygon fill="#9a32cd" stroke="#9a32cd" points="110.35,-326.21 100.01,-328.52 109.53,-333.16 110.35,-326.21"/>
<text text-anchor="middle" x="149" y="-339" font-family="Helvetica,sans-Serif" font-size="10.00"> identifier</text>
</g>
<!-- Node15 -->
<g id="node15" class="node">
<title>Node15</title>
<g id="a_node15"><a xlink:href="structPlottingFramework_1_1Plot_1_1Pad_1_1Data_1_1modify__t.html" target="_top" xlink:title=" ">
<polygon fill="white" stroke="black" points="206,-284 206,-314 328,-314 328,-284 206,-284"/>
<text text-anchor="start" x="214" y="-302" font-family="Helvetica,sans-Serif" font-size="10.00">PlottingFramework::</text>
<text text-anchor="middle" x="267" y="-291" font-family="Helvetica,sans-Serif" font-size="10.00">Plot::Pad::Data::modify_t</text>
</a>
</g>
</g>
<!-- Node9&#45;&gt;Node15 -->
<g id="edge16" class="edge">
<title>Node9&#45;&gt;Node15</title>
<path fill="none" stroke="#9a32cd" stroke-dasharray="5,2" d="M98.86,-311.21C106.54,-309.56 114.47,-308.07 122,-307 149.39,-303.09 179.96,-301.07 205.87,-300.03"/>
<polygon fill="#9a32cd" stroke="#9a32cd" points="97.94,-307.83 88.95,-313.43 99.47,-314.66 97.94,-307.83"/>
<text text-anchor="middle" x="149" y="-310" font-family="Helvetica,sans-Serif" font-size="10.00"> normMode</text>
</g>
<!-- Node10 -->
<g id="node10" class="node">
<title>Node10</title>
<g id="a_node10"><a xlink:href="structPlottingFramework_1_1Plot_1_1layout__t.html" target="_top" xlink:title=" ">
<polygon fill="white" stroke="black" points="215.5,-88 215.5,-118 318.5,-118 318.5,-88 215.5,-88"/>
<text text-anchor="start" x="223.5" y="-106" font-family="Helvetica,sans-Serif" font-size="10.00">PlottingFramework::</text>
<text text-anchor="middle" x="267" y="-95" font-family="Helvetica,sans-Serif" font-size="10.00">Plot::layout_t</text>
</a>
</g>
</g>
<!-- Node10&#45;&gt;Node1 -->
<g id="edge10" class="edge">
<title>Node10&#45;&gt;Node1</title>
<path fill="none" stroke="#9a32cd" stroke-dasharray="5,2" d="M328.71,-100.3C367.75,-101.39 417.92,-108.36 455,-133 489.67,-156.03 510,-203.22 518.62,-227.62"/>
<polygon fill="#9a32cd" stroke="#9a32cd" points="328.59,-96.79 318.53,-100.14 328.47,-103.79 328.59,-96.79"/>
<text text-anchor="middle" x="406.5" y="-158" font-family="Helvetica,sans-Serif" font-size="10.00"> mFill</text>
<text text-anchor="middle" x="406.5" y="-147" font-family="Helvetica,sans-Serif" font-size="10.00">mLine</text>
<text text-anchor="middle" x="406.5" y="-136" font-family="Helvetica,sans-Serif" font-size="10.00">mMarker</text>
</g>
<!-- Node11 -->
<g id="node11" class="node">
<title>Node11</title>
<g id="a_node11"><a xlink:title=" ">
<polygon fill="white" stroke="black" points="4,-112.5 4,-131.5 100,-131.5 100,-112.5 4,-112.5"/>
<text text-anchor="middle" x="52" y="-119.5" font-family="Helvetica,sans-Serif" font-size="10.00">optional&lt; int16_t &gt;</text>
</a>
</g>
</g>
<!-- Node11&#45;&gt;Node10 -->
<g id="edge11" class="edge">
<title>Node11&#45;&gt;Node10</title>
<path fill="none" stroke="#9a32cd" stroke-dasharray="5,2" d="M110.34,-116.88C143.11,-113.96 183.82,-110.33 215.39,-107.51"/>
<polygon fill="#9a32cd" stroke="#9a32cd" points="109.66,-113.43 100.01,-117.81 110.28,-120.4 109.66,-113.43"/>
<text text-anchor="middle" x="149" y="-129" font-family="Helvetica,sans-Serif" font-size="10.00"> color</text>
<text text-anchor="middle" x="149" y="-118" font-family="Helvetica,sans-Serif" font-size="10.00">style</text>
</g>
<!-- Node12 -->
<g id="node12" class="node">
<title>Node12</title>
<g id="a_node12"><a xlink:title=" ">
<polygon fill="white" stroke="black" points="5.5,-74.5 5.5,-93.5 98.5,-93.5 98.5,-74.5 5.5,-74.5"/>
<text text-anchor="middle" x="52" y="-81.5" font-family="Helvetica,sans-Serif" font-size="10.00">optional&lt; float_t &gt;</text>
</a>
</g>
</g>
<!-- Node12&#45;&gt;Node10 -->
<g id="edge12" class="edge">
<title>Node12&#45;&gt;Node10</title>
<path fill="none" stroke="#9a32cd" stroke-dasharray="5,2" d="M109.06,-89C141.96,-91.94 183.21,-95.61 215.16,-98.46"/>
<polygon fill="#9a32cd" stroke="#9a32cd" points="108.97,-85.48 98.69,-88.08 108.34,-92.45 108.97,-85.48"/>
<text text-anchor="middle" x="149" y="-97" font-family="Helvetica,sans-Serif" font-size="10.00"> scale</text>
</g>
<!-- Node13 -->
<g id="node13" class="node">
<title>Node13</title>
<g id="a_node13"><a xlink:href="structPlottingFramework_1_1Plot_1_1Pad_1_1Data_1_1dataRange__t.html" target="_top" xlink:title=" ">
<polygon fill="white" stroke="black" points="197,-235 197,-265 337,-265 337,-235 197,-235"/>
<text text-anchor="start" x="205" y="-253" font-family="Helvetica,sans-Serif" font-size="10.00">PlottingFramework::</text>
<text text-anchor="middle" x="267" y="-242" font-family="Helvetica,sans-Serif" font-size="10.00">Plot::Pad::Data::dataRange_t</text>
</a>
</g>
</g>
<!-- Node13&#45;&gt;Node1 -->
<g id="edge13" class="edge">
<title>Node13&#45;&gt;Node1</title>
<path fill="none" stroke="#9a32cd" stroke-dasharray="5,2" d="M347.41,-244.44C350.99,-244.28 354.53,-244.13 358,-244 396.48,-242.6 440.02,-242.39 472.78,-242.51"/>
<polygon fill="#9a32cd" stroke="#9a32cd" points="347.07,-240.96 337.26,-244.96 347.42,-247.95 347.07,-240.96"/>
<text text-anchor="middle" x="406.5" y="-269" font-family="Helvetica,sans-Serif" font-size="10.00"> mRangeX</text>
<text text-anchor="middle" x="406.5" y="-258" font-family="Helvetica,sans-Serif" font-size="10.00">mRangeY</text>
<text text-anchor="middle" x="406.5" y="-247" font-family="Helvetica,sans-Serif" font-size="10.00">mScaleRange</text>
</g>
<!-- Node14 -->
<g id="node14" class="node">
<title>Node14</title>
<g id="a_node14"><a xlink:title=" ">
<polygon fill="white" stroke="black" points="0,-239.5 0,-258.5 104,-258.5 104,-239.5 0,-239.5"/>
<text text-anchor="middle" x="52" y="-246.5" font-family="Helvetica,sans-Serif" font-size="10.00">optional&lt; double_t &gt;</text>
</a>
</g>
</g>
<!-- Node14&#45;&gt;Node13 -->
<g id="edge14" class="edge">
<title>Node14&#45;&gt;Node13</title>
<path fill="none" stroke="#9a32cd" stroke-dasharray="5,2" d="M87.42,-236.35C98.32,-232.93 110.53,-229.71 122,-228 153.27,-223.35 188.33,-228.48 216.03,-234.96"/>
<polygon fill="#9a32cd" stroke="#9a32cd" points="86.23,-233.05 77.82,-239.5 88.42,-239.7 86.23,-233.05"/>
<text text-anchor="middle" x="149" y="-242" font-family="Helvetica,sans-Serif" font-size="10.00"> max</text>
<text text-anchor="middle" x="149" y="-231" font-family="Helvetica,sans-Serif" font-size="10.00">min</text>
</g>
<!-- Node14&#45;&gt;Node15 -->
<g id="edge17" class="edge">
<title>Node14&#45;&gt;Node15</title>
<path fill="none" stroke="#9a32cd" stroke-dasharray="5,2" d="M103.61,-260.88C134.29,-268.08 173.59,-277.31 205.84,-284.88"/>
<polygon fill="#9a32cd" stroke="#9a32cd" points="104.1,-257.4 93.57,-258.52 102.5,-264.22 104.1,-257.4"/>
<text text-anchor="middle" x="149" y="-279" font-family="Helvetica,sans-Serif" font-size="10.00"> scaleFactor</text>
</g>
<!-- Node15&#45;&gt;Node1 -->
<g id="edge15" class="edge">
<title>Node15&#45;&gt;Node1</title>
<path fill="none" stroke="#9a32cd" stroke-dasharray="5,2" d="M338.29,-296.44C373.86,-293.72 417.35,-288.19 455,-277 470.02,-272.54 485.74,-264.96 498.34,-258.1"/>
<polygon fill="#9a32cd" stroke="#9a32cd" points="337.73,-292.97 328.01,-297.17 338.23,-299.96 337.73,-292.97"/>
<text text-anchor="middle" x="406.5" y="-297" font-family="Helvetica,sans-Serif" font-size="10.00"> mModify</text>
</g>
<!-- Node16 -->
<g id="node16" class="node">
<title>Node16</title>
<g id="a_node16"><a xlink:title=" ">
<polygon fill="white" stroke="black" points="206,-39 206,-69 328,-69 328,-39 206,-39"/>
<text text-anchor="start" x="214" y="-57" font-family="Helvetica,sans-Serif" font-size="10.00">optional&lt; vector&lt; double</text>
<text text-anchor="middle" x="267" y="-46" font-family="Helvetica,sans-Serif" font-size="10.00">_t &gt; &gt;</text>
</a>
</g>
</g>
<!-- Node16&#45;&gt;Node1 -->
<g id="edge18" class="edge">
<title>Node16&#45;&gt;Node1</title>
<path fill="none" stroke="#9a32cd" stroke-dasharray="5,2" d="M338.22,-51.03C376.36,-52.92 422.28,-61.3 455,-87 500.82,-123 516.69,-195.97 521.56,-227.7"/>
<polygon fill="#9a32cd" stroke="#9a32cd" points="338.32,-47.53 328.2,-50.67 338.06,-54.52 338.32,-47.53"/>
<text text-anchor="middle" x="406.5" y="-90" font-family="Helvetica,sans-Serif" font-size="10.00"> mContours</text>
</g>
<!-- Node17 -->
<g id="node17" class="node">
<title>Node17</title>
<g id="a_node17"><a xlink:title=" ">
<polygon fill="white" stroke="black" points="219,-0.5 219,-19.5 315,-19.5 315,-0.5 219,-0.5"/>
<text text-anchor="middle" x="267" y="-7.5" font-family="Helvetica,sans-Serif" font-size="10.00">optional&lt; int32_t &gt;</text>
</a>
</g>
</g>
<!-- Node17&#45;&gt;Node1 -->
<g id="edge19" class="edge">
<title>Node17&#45;&gt;Node1</title>
<path fill="none" stroke="#9a32cd" stroke-dasharray="5,2" d="M325.39,-3.5C366.02,-2.11 419.4,-7.22 455,-37 514.41,-86.69 522.58,-189.35 523.49,-227.92"/>
<polygon fill="#9a32cd" stroke="#9a32cd" points="325.18,-0.01 315.35,-3.98 325.51,-7 325.18,-0.01"/>
<text text-anchor="middle" x="406.5" y="-40" font-family="Helvetica,sans-Serif" font-size="10.00"> mNContours</text>
</g>
</g>
</svg>
