<?xml version="1.0" encoding="UTF-8" standalone="no"?>
<!DOCTYPE svg PUBLIC "-//W3C//DTD SVG 1.1//EN"
 "http://www.w3.org/Graphics/SVG/1.1/DTD/svg11.dtd">
<!-- Generated by graphviz version 3.0.0 (20220413.0242)
 -->
<!-- Title: PlottingFramework::Plot::Pad::Axis Pages: 1 -->
<!--zoomable 393 -->
<svg id="main" version="1.1" xmlns="http://www.w3.org/2000/svg" xmlns:xlink="http://www.w3.org/1999/xlink" xml:space="preserve" onload="init(evt)">
<style type="text/css"><![CDATA[
.edge:hover path { stroke: red; }
.edge:hover polygon { stroke: red; fill: red; }
]]></style>
<script type="text/javascript"><![CDATA[
var edges = document.getElementsByTagName('g');
if (edges && edges.length) {
  for (var i=0;i<edges.length;i++) {
    if (edges[i].id.substr(0,4)=='edge') {
      edges[i].setAttribute('class','edge');
    }
  }
}
]]></script>
        <defs>
                <circle id="rim" cx="0" cy="0" r="7"/>
                <circle id="rim2" cx="0" cy="0" r="3.5"/>
                <g id="zoomPlus">
                        <use xlink:href="#rim" fill="#404040">
                                <set attributeName="fill" to="#808080" begin="zoomplus.mouseover" end="zoomplus.mouseout"/>
                        </use>
                        <path d="M-4,0h8M0,-4v8" fill="none" stroke="white" stroke-width="1.5" pointer-events="none"/>
                </g>
                <g id="zoomMin">
                        <use xlink:href="#rim" fill="#404040">
                                <set attributeName="fill" to="#808080" begin="zoomminus.mouseover" end="zoomminus.mouseout"/>
                        </use>
                        <path d="M-4,0h8" fill="none" stroke="white" stroke-width="1.5" pointer-events="none"/>
                </g>
                <g id="dirArrow">
                        <path fill="none" stroke="white" stroke-width="1.5" d="M0,-3.0v7 M-2.5,-0.5L0,-3.0L2.5,-0.5"/>
                </g>
               <g id="resetDef">
                       <use xlink:href="#rim2" fill="#404040">
                               <set attributeName="fill" to="#808080" begin="reset.mouseover" end="reset.mouseout"/>
                       </use>
               </g>
        </defs>

<script type="text/javascript">
var viewWidth = 568;
var viewHeight = 393;
var sectionId = 'dynsection-0';
</script>
<script xlink:href="svgpan.js"/>
<svg id="graph" class="graph">
<g id="viewport">
<title>PlottingFramework::Plot::Pad::Axis</title>
<polygon fill="white" stroke="transparent" points="-4,4 -4,-389.38 564,-389.38 564,4 -4,4"/>
<!-- Node1 -->
<g id="node1" class="node">
<title>Node1</title>
<g id="a_node1"><a xlink:title="Representation of an axis.">
<polygon fill="#bfbfbf" stroke="black" points="457,-201.38 457,-231.38 560,-231.38 560,-201.38 457,-201.38"/>
<text text-anchor="start" x="465" y="-219.38" font-family="Helvetica,sans-Serif" font-size="10.00">PlottingFramework::</text>
<text text-anchor="middle" x="508.5" y="-208.38" font-family="Helvetica,sans-Serif" font-size="10.00">Plot::Pad::Axis</text>
</a>
</g>
</g>
<!-- Node2 -->
<g id="node2" class="node">
<title>Node2</title>
<g id="a_node2"><a xlink:title=" ">
<polygon fill="white" stroke="black" points="238.5,-363.88 238.5,-382.88 273.5,-382.88 273.5,-363.88 238.5,-363.88"/>
<text text-anchor="middle" x="256" y="-370.88" font-family="Helvetica,sans-Serif" font-size="10.00">char</text>
</a>
</g>
</g>
<!-- Node2&#45;&gt;Node1 -->
<g id="edge1" class="edge">
<title>Node2&#45;&gt;Node1</title>
<path fill="none" stroke="#9a32cd" stroke-dasharray="5,2" d="M283.93,-376.51C322.08,-379.47 392.39,-379.42 439,-346.38 478.96,-318.06 497.51,-259.1 504.29,-231.39"/>
<polygon fill="#9a32cd" stroke="#9a32cd" points="283.9,-372.99 273.63,-375.57 283.27,-379.96 283.9,-372.99"/>
<text text-anchor="middle" x="399.5" y="-377.38" font-family="Helvetica,sans-Serif" font-size="10.00"> mName</text>
</g>
<!-- Node3 -->
<g id="node3" class="node">
<title>Node3</title>
<g id="a_node3"><a xlink:href="structPlottingFramework_1_1Plot_1_1Pad_1_1Axis_1_1axisRange__t.html" target="_top" xlink:title=" ">
<polygon fill="white" stroke="black" points="187.5,-314.38 187.5,-344.38 324.5,-344.38 324.5,-314.38 187.5,-314.38"/>
<text text-anchor="start" x="195.5" y="-332.38" font-family="Helvetica,sans-Serif" font-size="10.00">PlottingFramework::</text>
<text text-anchor="middle" x="256" y="-321.38" font-family="Helvetica,sans-Serif" font-size="10.00">Plot::Pad::Axis::axisRange_t</text>
</a>
</g>
</g>
<!-- Node3&#45;&gt;Node1 -->
<g id="edge2" class="edge">
<title>Node3&#45;&gt;Node1</title>
<path fill="none" stroke="#9a32cd" stroke-dasharray="5,2" d="M334.93,-333.84C368.87,-332.51 407.91,-326.3 439,-308.38 469.88,-290.59 491.07,-252.7 501.02,-231.52"/>
<polygon fill="#9a32cd" stroke="#9a32cd" points="334.48,-330.35 324.57,-334.11 334.66,-337.35 334.48,-330.35"/>
<text text-anchor="middle" x="399.5" y="-334.38" font-family="Helvetica,sans-Serif" font-size="10.00"> mRange</text>
</g>
<!-- Node4 -->
<g id="node4" class="node">
<title>Node4</title>
<g id="a_node4"><a xlink:title=" ">
<polygon fill="white" stroke="black" points="0,-319.88 0,-338.88 104,-338.88 104,-319.88 0,-319.88"/>
<text text-anchor="middle" x="52" y="-326.88" font-family="Helvetica,sans-Serif" font-size="10.00">optional&lt; double_t &gt;</text>
</a>
</g>
</g>
<!-- Node4&#45;&gt;Node3 -->
<g id="edge3" class="edge">
<title>Node4&#45;&gt;Node3</title>
<path fill="none" stroke="#9a32cd" stroke-dasharray="5,2" d="M114.25,-329.38C137.36,-329.38 163.76,-329.38 187.41,-329.38"/>
<polygon fill="#9a32cd" stroke="#9a32cd" points="114.23,-325.88 104.23,-329.38 114.23,-332.88 114.23,-325.88"/>
<text text-anchor="middle" x="137" y="-343.38" font-family="Helvetica,sans-Serif" font-size="10.00"> max</text>
<text text-anchor="middle" x="137" y="-332.38" font-family="Helvetica,sans-Serif" font-size="10.00">min</text>
</g>
<!-- Node5 -->
<g id="node5" class="node">
<title>Node5</title>
<g id="a_node5"><a xlink:title=" ">
<polygon fill="white" stroke="black" points="210.5,-268.88 210.5,-287.88 301.5,-287.88 301.5,-268.88 210.5,-268.88"/>
<text text-anchor="middle" x="256" y="-275.88" font-family="Helvetica,sans-Serif" font-size="10.00">optional&lt; string &gt;</text>
</a>
</g>
</g>
<!-- Node5&#45;&gt;Node1 -->
<g id="edge4" class="edge">
<title>Node5&#45;&gt;Node1</title>
<path fill="none" stroke="#9a32cd" stroke-dasharray="5,2" d="M311.82,-276.5C348.58,-273.95 397.64,-268.03 439,-254.38 455.4,-248.97 472.39,-239.58 485.34,-231.48"/>
<polygon fill="#9a32cd" stroke="#9a32cd" points="311.56,-273.01 301.8,-277.13 312,-280 311.56,-273.01"/>
<text text-anchor="middle" x="399.5" y="-296.38" font-family="Helvetica,sans-Serif" font-size="10.00"> mTickOrientation</text>
<text text-anchor="middle" x="399.5" y="-285.38" font-family="Helvetica,sans-Serif" font-size="10.00">mTimeFormat</text>
<text text-anchor="middle" x="399.5" y="-274.38" font-family="Helvetica,sans-Serif" font-size="10.00">mTitle</text>
</g>
<!-- Node6 -->
<g id="node6" class="node">
<title>Node6</title>
<g id="a_node6"><a xlink:title=" ">
<polygon fill="white" stroke="black" points="208,-229.88 208,-248.88 304,-248.88 304,-229.88 208,-229.88"/>
<text text-anchor="middle" x="256" y="-236.88" font-family="Helvetica,sans-Serif" font-size="10.00">optional&lt; int32_t &gt;</text>
</a>
</g>
</g>
<!-- Node6&#45;&gt;Node1 -->
<g id="edge5" class="edge">
<title>Node6&#45;&gt;Node1</title>
<path fill="none" stroke="#9a32cd" stroke-dasharray="5,2" d="M314.13,-234.14C357.09,-230.19 415.39,-224.84 456.72,-221.05"/>
<polygon fill="#9a32cd" stroke="#9a32cd" points="313.76,-230.66 304.12,-235.06 314.4,-237.63 313.76,-230.66"/>
<text text-anchor="middle" x="399.5" y="-242.38" font-family="Helvetica,sans-Serif" font-size="10.00"> mMaxDigits</text>
<text text-anchor="middle" x="399.5" y="-231.38" font-family="Helvetica,sans-Serif" font-size="10.00">mNumDivisions</text>
</g>
<!-- Node7 -->
<g id="node7" class="node">
<title>Node7</title>
<g id="a_node7"><a xlink:title=" ">
<polygon fill="white" stroke="black" points="5.5,-169.88 5.5,-188.88 98.5,-188.88 98.5,-169.88 5.5,-169.88"/>
<text text-anchor="middle" x="52" y="-176.88" font-family="Helvetica,sans-Serif" font-size="10.00">optional&lt; float_t &gt;</text>
</a>
</g>
</g>
<!-- Node7&#45;&gt;Node1 -->
<g id="edge6" class="edge">
<title>Node7&#45;&gt;Node1</title>
<path fill="none" stroke="#9a32cd" stroke-dasharray="5,2" d="M108.84,-183.93C197.92,-191.18 370.89,-205.26 456.69,-212.25"/>
<polygon fill="#9a32cd" stroke="#9a32cd" points="108.91,-180.42 98.66,-183.1 108.34,-187.4 108.91,-180.42"/>
<text text-anchor="middle" x="256" y="-205.38" font-family="Helvetica,sans-Serif" font-size="10.00"> mTickLength</text>
</g>
<!-- Node10 -->
<g id="node10" class="node">
<title>Node10</title>
<g id="a_node10"><a xlink:href="structPlottingFramework_1_1Plot_1_1Pad_1_1Axis_1_1axisTextProperties__t.html" target="_top" xlink:title=" ">
<polygon fill="white" stroke="black" points="170,-53.38 170,-83.38 342,-83.38 342,-53.38 170,-53.38"/>
<text text-anchor="start" x="178" y="-71.38" font-family="Helvetica,sans-Serif" font-size="10.00">PlottingFramework::</text>
<text text-anchor="middle" x="256" y="-60.38" font-family="Helvetica,sans-Serif" font-size="10.00">Plot::Pad::Axis::axisTextProperties_t</text>
</a>
</g>
</g>
<!-- Node7&#45;&gt;Node10 -->
<g id="edge11" class="edge">
<title>Node7&#45;&gt;Node10</title>
<path fill="none" stroke="#9a32cd" stroke-dasharray="5,2" d="M75.09,-163.62C106.15,-141.52 160.09,-103.45 170,-98.38 181.01,-92.76 193.32,-87.75 205.08,-83.51"/>
<polygon fill="#9a32cd" stroke="#9a32cd" points="72.73,-161 66.62,-169.65 76.79,-166.7 72.73,-161"/>
<text text-anchor="middle" x="137" y="-144.38" font-family="Helvetica,sans-Serif" font-size="10.00"> offset</text>
<text text-anchor="middle" x="137" y="-133.38" font-family="Helvetica,sans-Serif" font-size="10.00">size</text>
</g>
<!-- Node8 -->
<g id="node8" class="node">
<title>Node8</title>
<g id="a_node8"><a xlink:title=" ">
<polygon fill="white" stroke="black" points="4,-23.88 4,-42.88 100,-42.88 100,-23.88 4,-23.88"/>
<text text-anchor="middle" x="52" y="-30.88" font-family="Helvetica,sans-Serif" font-size="10.00">optional&lt; int16_t &gt;</text>
</a>
</g>
</g>
<!-- Node8&#45;&gt;Node1 -->
<g id="edge7" class="edge">
<title>Node8&#45;&gt;Node1</title>
<path fill="none" stroke="#9a32cd" stroke-dasharray="5,2" d="M95.04,-21.29C172.97,-1.68 340.84,27.04 439,-56.38 484.36,-94.93 500.47,-168.9 505.49,-200.95"/>
<polygon fill="#9a32cd" stroke="#9a32cd" points="93.9,-17.97 85.1,-23.87 95.66,-24.75 93.9,-17.97"/>
<text text-anchor="middle" x="256" y="-12.38" font-family="Helvetica,sans-Serif" font-size="10.00"> mAxisColor</text>
</g>
<!-- Node8&#45;&gt;Node10 -->
<g id="edge10" class="edge">
<title>Node8&#45;&gt;Node10</title>
<path fill="none" stroke="#9a32cd" stroke-dasharray="5,2" d="M110.33,-43.2C123.99,-45.55 138.51,-48.05 152,-50.38 157.81,-51.39 163.81,-52.43 169.85,-53.48"/>
<polygon fill="#9a32cd" stroke="#9a32cd" points="110.54,-39.68 100.09,-41.44 109.35,-46.58 110.54,-39.68"/>
<text text-anchor="middle" x="137" y="-64.38" font-family="Helvetica,sans-Serif" font-size="10.00"> color</text>
<text text-anchor="middle" x="137" y="-53.38" font-family="Helvetica,sans-Serif" font-size="10.00">font</text>
</g>
<!-- Node9 -->
<g id="node9" class="node">
<title>Node9</title>
<g id="a_node9"><a xlink:title=" ">
<polygon fill="white" stroke="black" points="9.5,-97.88 9.5,-116.88 94.5,-116.88 94.5,-97.88 9.5,-97.88"/>
<text text-anchor="middle" x="52" y="-104.88" font-family="Helvetica,sans-Serif" font-size="10.00">optional&lt; bool &gt;</text>
</a>
</g>
</g>
<!-- Node9&#45;&gt;Node1 -->
<g id="edge8" class="edge">
<title>Node9&#45;&gt;Node1</title>
<path fill="none" stroke="#9a32cd" stroke-dasharray="5,2" d="M105.05,-108.7C163.64,-111.28 261.19,-118.91 342,-141.38 393.36,-155.67 449.04,-183.78 480.94,-201.24"/>
<polygon fill="#9a32cd" stroke="#9a32cd" points="105.07,-105.2 94.93,-108.29 104.78,-112.19 105.07,-105.2"/>
<text text-anchor="middle" x="256" y="-177.38" font-family="Helvetica,sans-Serif" font-size="10.00"> mIsGrid</text>
<text text-anchor="middle" x="256" y="-166.38" font-family="Helvetica,sans-Serif" font-size="10.00">mIsLog</text>
<text text-anchor="middle" x="256" y="-155.38" font-family="Helvetica,sans-Serif" font-size="10.00">mIsNoExponent</text>
<text text-anchor="middle" x="256" y="-144.38" font-family="Helvetica,sans-Serif" font-size="10.00">mIsOppositeTicks</text>
</g>
<!-- Node9&#45;&gt;Node10 -->
<g id="edge12" class="edge">
<title>Node9&#45;&gt;Node10</title>
<path fill="none" stroke="#9a32cd" stroke-dasharray="5,2" d="M104.68,-97.41C126.74,-93.15 152.96,-88.09 177.28,-83.39"/>
<polygon fill="#9a32cd" stroke="#9a32cd" points="104.01,-93.97 94.85,-99.3 105.34,-100.84 104.01,-93.97"/>
<text text-anchor="middle" x="137" y="-97.38" font-family="Helvetica,sans-Serif" font-size="10.00"> center</text>
</g>
<!-- Node10&#45;&gt;Node1 -->
<g id="edge9" class="edge">
<title>Node10&#45;&gt;Node1</title>
<path fill="none" stroke="#9a32cd" stroke-dasharray="5,2" d="M352.48,-59.51C382.28,-61.06 413.9,-67.58 439,-84.38 480.41,-112.1 498.31,-173.05 504.62,-201.37"/>
<polygon fill="#9a32cd" stroke="#9a32cd" points="352.57,-56.01 342.45,-59.16 352.33,-63 352.57,-56.01"/>
<text text-anchor="middle" x="399.5" y="-98.38" font-family="Helvetica,sans-Serif" font-size="10.00"> mLabelProperties</text>
<text text-anchor="middle" x="399.5" y="-87.38" font-family="Helvetica,sans-Serif" font-size="10.00">mTitleProperties</text>
</g>
</g>
</svg>
        <g id="navigator" transform="translate(0 0)" fill="#404254">
                <rect fill="#f2f5e9" fill-opacity="0.5" stroke="#606060" stroke-width=".5" x="0" y="0" width="60" height="60"/>
                <use id="zoomplus" xlink:href="#zoomPlus" x="17" y="9" onmousedown="handleZoom(evt,'in')"/>
                <use id="zoomminus" xlink:href="#zoomMin" x="42" y="9" onmousedown="handleZoom(evt,'out')"/>
                <use id="reset" xlink:href="#resetDef" x="30" y="36" onmousedown="handleReset()"/>
                <g id="arrowUp" xlink:href="#dirArrow" transform="translate(30 24)" onmousedown="handlePan(0,-1)">
                  <use xlink:href="#rim" fill="#404040">
                        <set attributeName="fill" to="#808080" begin="arrowUp.mouseover" end="arrowUp.mouseout"/>
                  </use>
                  <path fill="none" stroke="white" stroke-width="1.5" d="M0,-3.0v7 M-2.5,-0.5L0,-3.0L2.5,-0.5"/>
                </g>
                <g id="arrowRight" xlink:href="#dirArrow" transform="rotate(90) translate(36 -43)" onmousedown="handlePan(1,0)">
                  <use xlink:href="#rim" fill="#404040">
                        <set attributeName="fill" to="#808080" begin="arrowRight.mouseover" end="arrowRight.mouseout"/>
                  </use>
                  <path fill="none" stroke="white" stroke-width="1.5" d="M0,-3.0v7 M-2.5,-0.5L0,-3.0L2.5,-0.5"/>
                </g>
                <g id="arrowDown" xlink:href="#dirArrow" transform="rotate(180) translate(-30 -48)" onmousedown="handlePan(0,1)">
                  <use xlink:href="#rim" fill="#404040">
                        <set attributeName="fill" to="#808080" begin="arrowDown.mouseover" end="arrowDown.mouseout"/>
                  </use>
                  <path fill="none" stroke="white" stroke-width="1.5" d="M0,-3.0v7 M-2.5,-0.5L0,-3.0L2.5,-0.5"/>
                </g>
                <g id="arrowLeft" xlink:href="#dirArrow" transform="rotate(270) translate(-36 17)" onmousedown="handlePan(-1,0)">
                  <use xlink:href="#rim" fill="#404040">
                        <set attributeName="fill" to="#808080" begin="arrowLeft.mouseover" end="arrowLeft.mouseout"/>
                  </use>
                  <path fill="none" stroke="white" stroke-width="1.5" d="M0,-3.0v7 M-2.5,-0.5L0,-3.0L2.5,-0.5"/>
                </g>
        </g>
        <svg viewBox="0 0 15 15" width="100%" height="30px" preserveAspectRatio="xMaxYMin meet">
         <g id="arrow_out" transform="scale(0.3 0.3)">
          <a xlink:href="classPlottingFramework_1_1Plot_1_1Pad_1_1Axis__coll__graph_org.svg" target="_base">
           <rect id="button" ry="5" rx="5" y="6" x="6" height="38" width="38"
                fill="#f2f5e9" fill-opacity="0.5" stroke="#606060" stroke-width="1.0"/>
           <path id="arrow"
             d="M 11.500037,31.436501 C 11.940474,20.09759 22.043105,11.32322 32.158766,21.979434 L 37.068811,17.246167 C 37.068811,17.246167 37.088388,32 37.088388,32 L 22.160133,31.978069 C 22.160133,31.978069 26.997745,27.140456 26.997745,27.140456 C 18.528582,18.264221 13.291696,25.230495 11.500037,31.436501 z"
             style="fill:#404040;"/>
          </a>
         </g>
        </svg>
</svg>
