<?xml version="1.0" encoding="UTF-8" standalone="no"?>
<!DOCTYPE svg PUBLIC "-//W3C//DTD SVG 1.1//EN"
 "http://www.w3.org/Graphics/SVG/1.1/DTD/svg11.dtd">
<!-- Generated by graphviz version 3.0.0 (20220413.0242)
 -->
<!-- Title: PlottingFramework::PlotManager Pages: 1 -->
<!--zoomable 466 -->
<svg id="main" version="1.1" xmlns="http://www.w3.org/2000/svg" xmlns:xlink="http://www.w3.org/1999/xlink" xml:space="preserve" onload="init(evt)">
<style type="text/css"><![CDATA[
.edge:hover path { stroke: red; }
.edge:hover polygon { stroke: red; fill: red; }
]]></style>
<script type="text/javascript"><![CDATA[
var edges = document.getElementsByTagName('g');
if (edges && edges.length) {
  for (var i=0;i<edges.length;i++) {
    if (edges[i].id.substr(0,4)=='edge') {
      edges[i].setAttribute('class','edge');
    }
  }
}
]]></script>
        <defs>
                <circle id="rim" cx="0" cy="0" r="7"/>
                <circle id="rim2" cx="0" cy="0" r="3.5"/>
                <g id="zoomPlus">
                        <use xlink:href="#rim" fill="#404040">
                                <set attributeName="fill" to="#808080" begin="zoomplus.mouseover" end="zoomplus.mouseout"/>
                        </use>
                        <path d="M-4,0h8M0,-4v8" fill="none" stroke="white" stroke-width="1.5" pointer-events="none"/>
                </g>
                <g id="zoomMin">
                        <use xlink:href="#rim" fill="#404040">
                                <set attributeName="fill" to="#808080" begin="zoomminus.mouseover" end="zoomminus.mouseout"/>
                        </use>
                        <path d="M-4,0h8" fill="none" stroke="white" stroke-width="1.5" pointer-events="none"/>
                </g>
                <g id="dirArrow">
                        <path fill="none" stroke="white" stroke-width="1.5" d="M0,-3.0v7 M-2.5,-0.5L0,-3.0L2.5,-0.5"/>
                </g>
               <g id="resetDef">
                       <use xlink:href="#rim2" fill="#404040">
                               <set attributeName="fill" to="#808080" begin="reset.mouseover" end="reset.mouseout"/>
                       </use>
               </g>
        </defs>

<script type="text/javascript">
var viewWidth = 535;
var viewHeight = 466;
var sectionId = 'dynsection-0';
</script>
<script xlink:href="svgpan.js"/>
<svg id="graph" class="graph">
<g id="viewport">
<title>PlottingFramework::PlotManager</title>
<polygon fill="white" stroke="transparent" points="-4,4 -4,-461.5 531,-461.5 531,4 -4,4"/>
<!-- Node1 -->
<g id="node1" class="node">
<title>Node1</title>
<g id="a_node1"><a xlink:title="Central manager class.">
<polygon fill="#bfbfbf" stroke="black" points="424,-225.5 424,-255.5 527,-255.5 527,-225.5 424,-225.5"/>
<text text-anchor="start" x="432" y="-243.5" font-family="Helvetica,sans-Serif" font-size="10.00">PlottingFramework::</text>
<text text-anchor="middle" x="475.5" y="-232.5" font-family="Helvetica,sans-Serif" font-size="10.00">PlotManager</text>
</a>
</g>
</g>
<!-- Node2 -->
<g id="node2" class="node">
<title>Node2</title>
<g id="a_node2"><a xlink:title=" ">
<polygon fill="white" stroke="black" points="131,-428 131,-447 281,-447 281,-428 131,-428"/>
<text text-anchor="middle" x="206" y="-435" font-family="Helvetica,sans-Serif" font-size="10.00">std::unique_ptr&lt; TApplication &gt;</text>
</a>
</g>
</g>
<!-- Node2&#45;&gt;Node1 -->
<g id="edge1" class="edge">
<title>Node2&#45;&gt;Node1</title>
<path fill="none" stroke="#9a32cd" stroke-dasharray="5,2" d="M291.62,-446.96C330.04,-446.86 373.96,-440.05 406,-415.5 458.05,-375.61 470.59,-290.48 473.58,-255.74"/>
<polygon fill="#9a32cd" stroke="#9a32cd" points="291.5,-443.46 281.46,-446.84 291.41,-450.46 291.5,-443.46"/>
<text text-anchor="middle" x="353" y="-449.5" font-family="Helvetica,sans-Serif" font-size="10.00"> mApp</text>
</g>
<!-- Node3 -->
<g id="node3" class="node">
<title>Node3</title>
<g id="a_node3"><a xlink:title=" ">
<polygon fill="white" stroke="black" points="188.5,-384 188.5,-403 223.5,-403 223.5,-384 188.5,-384"/>
<text text-anchor="middle" x="206" y="-391" font-family="Helvetica,sans-Serif" font-size="10.00">bool</text>
</a>
</g>
</g>
<!-- Node3&#45;&gt;Node1 -->
<g id="edge2" class="edge">
<title>Node3&#45;&gt;Node1</title>
<path fill="none" stroke="#9a32cd" stroke-dasharray="5,2" d="M233.94,-393.28C281.67,-392.39 378.65,-388.27 406,-369.5 445.94,-342.1 464.41,-283.78 471.22,-255.93"/>
<polygon fill="#9a32cd" stroke="#9a32cd" points="233.68,-389.78 223.73,-393.43 233.79,-396.78 233.68,-389.78"/>
<text text-anchor="middle" x="353" y="-403.5" font-family="Helvetica,sans-Serif" font-size="10.00"> mSaveToRootFile</text>
<text text-anchor="middle" x="353" y="-392.5" font-family="Helvetica,sans-Serif" font-size="10.00">mUseUniquePlotNames</text>
</g>
<!-- Node4 -->
<g id="node4" class="node">
<title>Node4</title>
<g id="a_node4"><a xlink:title=" ">
<polygon fill="white" stroke="black" points="176.5,-346 176.5,-365 235.5,-365 235.5,-346 176.5,-346"/>
<text text-anchor="middle" x="206" y="-353" font-family="Helvetica,sans-Serif" font-size="10.00">std::string</text>
</a>
</g>
</g>
<!-- Node4&#45;&gt;Node1 -->
<g id="edge3" class="edge">
<title>Node4&#45;&gt;Node1</title>
<path fill="none" stroke="#9a32cd" stroke-dasharray="5,2" d="M245.69,-351.35C295.6,-345.48 379.19,-333.74 406,-318.5 432.79,-303.27 454.35,-273.58 465.72,-255.55"/>
<polygon fill="#9a32cd" stroke="#9a32cd" points="245.12,-347.89 235.58,-352.51 245.92,-354.84 245.12,-347.89"/>
<text text-anchor="middle" x="353" y="-357.5" font-family="Helvetica,sans-Serif" font-size="10.00"> mOutputDirectory</text>
<text text-anchor="middle" x="353" y="-346.5" font-family="Helvetica,sans-Serif" font-size="10.00">mOutputFileName</text>
</g>
<!-- Node5 -->
<g id="node5" class="node">
<title>Node5</title>
<g id="a_node5"><a xlink:title=" ">
<polygon fill="white" stroke="black" points="0,-340.5 0,-370.5 93,-370.5 93,-340.5 0,-340.5"/>
<text text-anchor="start" x="8" y="-358.5" font-family="Helvetica,sans-Serif" font-size="10.00">std::basic_string&lt;</text>
<text text-anchor="middle" x="46.5" y="-347.5" font-family="Helvetica,sans-Serif" font-size="10.00"> char &gt;</text>
</a>
</g>
</g>
<!-- Node5&#45;&gt;Node4 -->
<g id="edge4" class="edge">
<title>Node5&#45;&gt;Node4</title>
<path fill="none" stroke="midnightblue" d="M103.07,-355.5C127.84,-355.5 155.97,-355.5 176.4,-355.5"/>
<polygon fill="midnightblue" stroke="midnightblue" points="103.06,-352 93.06,-355.5 103.06,-359 103.06,-352"/>
</g>
<!-- Node6 -->
<g id="node6" class="node">
<title>Node6</title>
<g id="a_node6"><a xlink:title=" ">
<polygon fill="white" stroke="black" points="146,-296.5 146,-326.5 266,-326.5 266,-296.5 146,-296.5"/>
<text text-anchor="start" x="154" y="-314.5" font-family="Helvetica,sans-Serif" font-size="10.00">std::map&lt; string, shared</text>
<text text-anchor="middle" x="206" y="-303.5" font-family="Helvetica,sans-Serif" font-size="10.00">_ptr&lt; TCanvas &gt; &gt;</text>
</a>
</g>
</g>
<!-- Node6&#45;&gt;Node1 -->
<g id="edge5" class="edge">
<title>Node6&#45;&gt;Node1</title>
<path fill="none" stroke="#9a32cd" stroke-dasharray="5,2" d="M276.51,-307.07C315.46,-303.02 364.42,-295.28 406,-280.5 422.87,-274.5 440.27,-264.28 453.31,-255.67"/>
<polygon fill="#9a32cd" stroke="#9a32cd" points="275.93,-303.61 266.32,-308.07 276.62,-310.58 275.93,-303.61"/>
<text text-anchor="middle" x="353" y="-306.5" font-family="Helvetica,sans-Serif" font-size="10.00"> mPlotLedger</text>
</g>
<!-- Node7 -->
<g id="node7" class="node">
<title>Node7</title>
<g id="a_node7"><a xlink:title=" ">
<polygon fill="white" stroke="black" points="130,-247.5 130,-277.5 282,-277.5 282,-247.5 130,-247.5"/>
<text text-anchor="start" x="138" y="-265.5" font-family="Helvetica,sans-Serif" font-size="10.00">std::vector&lt; PlottingFramework</text>
<text text-anchor="middle" x="206" y="-254.5" font-family="Helvetica,sans-Serif" font-size="10.00">::Plot &gt;</text>
</a>
</g>
</g>
<!-- Node7&#45;&gt;Node1 -->
<g id="edge6" class="edge">
<title>Node7&#45;&gt;Node1</title>
<path fill="none" stroke="#9a32cd" stroke-dasharray="5,2" d="M292.21,-255.49C335.57,-251.93 386.82,-247.71 423.91,-244.66"/>
<polygon fill="#9a32cd" stroke="#9a32cd" points="291.9,-252.01 282.23,-256.31 292.48,-258.98 291.9,-252.01"/>
<text text-anchor="middle" x="353" y="-268.5" font-family="Helvetica,sans-Serif" font-size="10.00"> mPlotTemplates</text>
<text text-anchor="middle" x="353" y="-257.5" font-family="Helvetica,sans-Serif" font-size="10.00">mPlots</text>
</g>
<!-- Node8 -->
<g id="node8" class="node">
<title>Node8</title>
<g id="a_node8"><a xlink:title=" ">
<polygon fill="white" stroke="black" points="145.5,-209 145.5,-228 266.5,-228 266.5,-209 145.5,-209"/>
<text text-anchor="middle" x="206" y="-216" font-family="Helvetica,sans-Serif" font-size="10.00">std::map&lt; string, ptree &gt;</text>
</a>
</g>
</g>
<!-- Node8&#45;&gt;Node1 -->
<g id="edge7" class="edge">
<title>Node8&#45;&gt;Node1</title>
<path fill="none" stroke="#9a32cd" stroke-dasharray="5,2" d="M276.76,-221.26C314.99,-223.13 363.18,-226.09 406,-230.5 411.74,-231.09 417.73,-231.81 423.69,-232.59"/>
<polygon fill="#9a32cd" stroke="#9a32cd" points="276.91,-217.76 266.76,-220.78 276.58,-224.75 276.91,-217.76"/>
<text text-anchor="middle" x="353" y="-233.5" font-family="Helvetica,sans-Serif" font-size="10.00"> mPropertyTreeCache</text>
</g>
<!-- Node9 -->
<g id="node9" class="node">
<title>Node9</title>
<g id="a_node9"><a xlink:title=" ">
<polygon fill="white" stroke="black" points="159,-159.5 159,-189.5 253,-189.5 253,-159.5 159,-159.5"/>
<text text-anchor="start" x="167" y="-177.5" font-family="Helvetica,sans-Serif" font-size="10.00">std::vector&lt; const</text>
<text text-anchor="middle" x="206" y="-166.5" font-family="Helvetica,sans-Serif" font-size="10.00"> string * &gt;</text>
</a>
</g>
</g>
<!-- Node9&#45;&gt;Node1 -->
<g id="edge8" class="edge">
<title>Node9&#45;&gt;Node1</title>
<path fill="none" stroke="#9a32cd" stroke-dasharray="5,2" d="M263.51,-179.54C303.9,-184.18 359.16,-192.67 406,-207.5 420.35,-212.04 435.5,-219.08 447.9,-225.5"/>
<polygon fill="#9a32cd" stroke="#9a32cd" points="263.64,-176.03 253.31,-178.42 262.87,-182.99 263.64,-176.03"/>
<text text-anchor="middle" x="353" y="-210.5" font-family="Helvetica,sans-Serif" font-size="10.00"> mPlotViewHistory</text>
</g>
<!-- Node10 -->
<g id="node10" class="node">
<title>Node10</title>
<g id="a_node10"><a xlink:title=" ">
<polygon fill="white" stroke="black" points="183,-121 183,-140 229,-140 229,-121 183,-121"/>
<text text-anchor="middle" x="206" y="-128" font-family="Helvetica,sans-Serif" font-size="10.00">int32_t</text>
</a>
</g>
</g>
<!-- Node10&#45;&gt;Node1 -->
<g id="edge9" class="edge">
<title>Node10&#45;&gt;Node1</title>
<path fill="none" stroke="#9a32cd" stroke-dasharray="5,2" d="M239.29,-130.96C280.4,-132.81 352.49,-140.38 406,-169.5 430.97,-183.09 452.36,-208.91 464.31,-225.38"/>
<polygon fill="#9a32cd" stroke="#9a32cd" points="239.17,-127.45 229.05,-130.59 238.92,-134.45 239.17,-127.45"/>
<text text-anchor="middle" x="353" y="-172.5" font-family="Helvetica,sans-Serif" font-size="10.00"> mWindowOffsetY</text>
</g>
<!-- Node11 -->
<g id="node11" class="node">
<title>Node11</title>
<g id="a_node11"><a xlink:title=" ">
<polygon fill="white" stroke="black" points="143.5,-49.5 143.5,-101.5 268.5,-101.5 268.5,-49.5 143.5,-49.5"/>
<text text-anchor="start" x="151.5" y="-89.5" font-family="Helvetica,sans-Serif" font-size="10.00">std::unordered_map</text>
<text text-anchor="start" x="151.5" y="-78.5" font-family="Helvetica,sans-Serif" font-size="10.00">&lt; string, unordered</text>
<text text-anchor="start" x="151.5" y="-67.5" font-family="Helvetica,sans-Serif" font-size="10.00">_map&lt; string, std::unique</text>
<text text-anchor="middle" x="206" y="-56.5" font-family="Helvetica,sans-Serif" font-size="10.00">_ptr&lt; TObject &gt; &gt; &gt;</text>
</a>
</g>
</g>
<!-- Node11&#45;&gt;Node1 -->
<g id="edge10" class="edge">
<title>Node11&#45;&gt;Node1</title>
<path fill="none" stroke="#9a32cd" stroke-dasharray="5,2" d="M279.02,-78.21C319.68,-82.95 369.5,-94.44 406,-121.5 442,-148.19 462.07,-199.85 470.19,-225.42"/>
<polygon fill="#9a32cd" stroke="#9a32cd" points="279.2,-74.71 268.89,-77.15 278.47,-81.68 279.2,-74.71"/>
<text text-anchor="middle" x="353" y="-124.5" font-family="Helvetica,sans-Serif" font-size="10.00"> mDataBuffer</text>
</g>
<!-- Node12 -->
<g id="node12" class="node">
<title>Node12</title>
<g id="a_node12"><a xlink:title=" ">
<polygon fill="white" stroke="black" points="147,-0.5 147,-30.5 265,-30.5 265,-0.5 147,-0.5"/>
<text text-anchor="start" x="155" y="-18.5" font-family="Helvetica,sans-Serif" font-size="10.00">std::map&lt; string, vector</text>
<text text-anchor="middle" x="206" y="-7.5" font-family="Helvetica,sans-Serif" font-size="10.00">&lt; string &gt; &gt;</text>
</a>
</g>
</g>
<!-- Node12&#45;&gt;Node1 -->
<g id="edge11" class="edge">
<title>Node12&#45;&gt;Node1</title>
<path fill="none" stroke="#9a32cd" stroke-dasharray="5,2" d="M275.58,-17.71C317.73,-22.47 370.31,-34.99 406,-66.5 454.67,-109.48 469.1,-191.5 473.09,-225.33"/>
<polygon fill="#9a32cd" stroke="#9a32cd" points="275.68,-14.2 265.38,-16.68 274.98,-21.17 275.68,-14.2"/>
<text text-anchor="middle" x="353" y="-69.5" font-family="Helvetica,sans-Serif" font-size="10.00"> mInputFiles</text>
</g>
</g>
</svg>
        <g id="navigator" transform="translate(0 0)" fill="#404254">
                <rect fill="#f2f5e9" fill-opacity="0.5" stroke="#606060" stroke-width=".5" x="0" y="0" width="60" height="60"/>
                <use id="zoomplus" xlink:href="#zoomPlus" x="17" y="9" onmousedown="handleZoom(evt,'in')"/>
                <use id="zoomminus" xlink:href="#zoomMin" x="42" y="9" onmousedown="handleZoom(evt,'out')"/>
                <use id="reset" xlink:href="#resetDef" x="30" y="36" onmousedown="handleReset()"/>
                <g id="arrowUp" xlink:href="#dirArrow" transform="translate(30 24)" onmousedown="handlePan(0,-1)">
                  <use xlink:href="#rim" fill="#404040">
                        <set attributeName="fill" to="#808080" begin="arrowUp.mouseover" end="arrowUp.mouseout"/>
                  </use>
                  <path fill="none" stroke="white" stroke-width="1.5" d="M0,-3.0v7 M-2.5,-0.5L0,-3.0L2.5,-0.5"/>
                </g>
                <g id="arrowRight" xlink:href="#dirArrow" transform="rotate(90) translate(36 -43)" onmousedown="handlePan(1,0)">
                  <use xlink:href="#rim" fill="#404040">
                        <set attributeName="fill" to="#808080" begin="arrowRight.mouseover" end="arrowRight.mouseout"/>
                  </use>
                  <path fill="none" stroke="white" stroke-width="1.5" d="M0,-3.0v7 M-2.5,-0.5L0,-3.0L2.5,-0.5"/>
                </g>
                <g id="arrowDown" xlink:href="#dirArrow" transform="rotate(180) translate(-30 -48)" onmousedown="handlePan(0,1)">
                  <use xlink:href="#rim" fill="#404040">
                        <set attributeName="fill" to="#808080" begin="arrowDown.mouseover" end="arrowDown.mouseout"/>
                  </use>
                  <path fill="none" stroke="white" stroke-width="1.5" d="M0,-3.0v7 M-2.5,-0.5L0,-3.0L2.5,-0.5"/>
                </g>
                <g id="arrowLeft" xlink:href="#dirArrow" transform="rotate(270) translate(-36 17)" onmousedown="handlePan(-1,0)">
                  <use xlink:href="#rim" fill="#404040">
                        <set attributeName="fill" to="#808080" begin="arrowLeft.mouseover" end="arrowLeft.mouseout"/>
                  </use>
                  <path fill="none" stroke="white" stroke-width="1.5" d="M0,-3.0v7 M-2.5,-0.5L0,-3.0L2.5,-0.5"/>
                </g>
        </g>
        <svg viewBox="0 0 15 15" width="100%" height="30px" preserveAspectRatio="xMaxYMin meet">
         <g id="arrow_out" transform="scale(0.3 0.3)">
          <a xlink:href="classPlottingFramework_1_1PlotManager__coll__graph_org.svg" target="_base">
           <rect id="button" ry="5" rx="5" y="6" x="6" height="38" width="38"
                fill="#f2f5e9" fill-opacity="0.5" stroke="#606060" stroke-width="1.0"/>
           <path id="arrow"
             d="M 11.500037,31.436501 C 11.940474,20.09759 22.043105,11.32322 32.158766,21.979434 L 37.068811,17.246167 C 37.068811,17.246167 37.088388,32 37.088388,32 L 22.160133,31.978069 C 22.160133,31.978069 26.997745,27.140456 26.997745,27.140456 C 18.528582,18.264221 13.291696,25.230495 11.500037,31.436501 z"
             style="fill:#404040;"/>
          </a>
         </g>
        </svg>
</svg>
