<?xml version="1.0" encoding="UTF-8" standalone="no"?>
<!DOCTYPE svg PUBLIC "-//W3C//DTD SVG 1.1//EN"
 "http://www.w3.org/Graphics/SVG/1.1/DTD/svg11.dtd">
<!-- Generated by graphviz version 3.0.0 (20220413.0242)
 -->
<!-- Title: PlottingFramework::Plot::Pad::LegendBox Pages: 1 -->
<svg width="822pt" height="363pt"
 viewBox="0.00 0.00 822.00 362.50" xmlns="http://www.w3.org/2000/svg" xmlns:xlink="http://www.w3.org/1999/xlink">
<g id="graph0" class="graph" transform="scale(1 1) rotate(0) translate(4 358.5)">
<title>PlottingFramework::Plot::Pad::LegendBox</title>
<polygon fill="white" stroke="transparent" points="-4,4 -4,-358.5 818,-358.5 818,4 -4,4"/>
<!-- Node1 -->
<g id="node1" class="node">
<title>Node1</title>
<g id="a_node1"><a xlink:title="Representation of a legend box.">
<polygon fill="#bfbfbf" stroke="black" points="705,-134.5 705,-164.5 814,-164.5 814,-134.5 705,-134.5"/>
<text text-anchor="start" x="713" y="-152.5" font-family="Helvetica,sans-Serif" font-size="10.00">PlottingFramework::</text>
<text text-anchor="middle" x="759.5" y="-141.5" font-family="Helvetica,sans-Serif" font-size="10.00">Plot::Pad::LegendBox</text>
</a>
</g>
</g>
<!-- Node2 -->
<g id="node2" class="node">
<title>Node2</title>
<g id="a_node2"><a xlink:href="classPlottingFramework_1_1Plot_1_1Pad_1_1Box.html" target="_top" xlink:title=" ">
<polygon fill="white" stroke="black" points="414,-277.5 414,-307.5 556,-307.5 556,-277.5 414,-277.5"/>
<text text-anchor="start" x="422" y="-295.5" font-family="Helvetica,sans-Serif" font-size="10.00">PlottingFramework::</text>
<text text-anchor="middle" x="485" y="-284.5" font-family="Helvetica,sans-Serif" font-size="10.00">Plot::Pad::Box&lt; LegendBox &gt;</text>
</a>
</g>
</g>
<!-- Node2&#45;&gt;Node1 -->
<g id="edge1" class="edge">
<title>Node2&#45;&gt;Node1</title>
<path fill="none" stroke="midnightblue" d="M566.61,-277.13C605.15,-267.3 650.67,-251.87 687,-228.5 713.29,-211.58 736.03,-182.57 748.45,-164.81"/>
<polygon fill="midnightblue" stroke="midnightblue" points="565.33,-273.84 556.46,-279.64 567.01,-280.64 565.33,-273.84"/>
</g>
<!-- Node3 -->
<g id="node3" class="node">
<title>Node3</title>
<g id="a_node3"><a xlink:href="classfriend.html" target="_top" xlink:title=" ">
<polygon fill="white" stroke="black" points="237.5,-335 237.5,-354 278.5,-354 278.5,-335 237.5,-335"/>
<text text-anchor="middle" x="258" y="-342" font-family="Helvetica,sans-Serif" font-size="10.00">friend</text>
</a>
</g>
</g>
<!-- Node3&#45;&gt;Node2 -->
<g id="edge2" class="edge">
<title>Node3&#45;&gt;Node2</title>
<path fill="none" stroke="#9a32cd" stroke-dasharray="5,2" d="M288.46,-337.69C321.35,-330.09 375.6,-317.55 418.62,-307.61"/>
<polygon fill="#9a32cd" stroke="#9a32cd" points="287.53,-334.31 278.57,-339.98 289.1,-341.13 287.53,-334.31"/>
<text text-anchor="middle" x="357" y="-328.5" font-family="Helvetica,sans-Serif" font-size="10.00"> BoxType</text>
</g>
<!-- Node4 -->
<g id="node4" class="node">
<title>Node4</title>
<g id="a_node4"><a xlink:href="structPlottingFramework_1_1Plot_1_1Pad_1_1Box_1_1position__t.html" target="_top" xlink:title=" ">
<polygon fill="white" stroke="black" points="197,-275 197,-316 319,-316 319,-275 197,-275"/>
<text text-anchor="start" x="205" y="-304" font-family="Helvetica,sans-Serif" font-size="10.00">PlottingFramework::</text>
<text text-anchor="start" x="205" y="-293" font-family="Helvetica,sans-Serif" font-size="10.00">Plot::Pad::Box&lt; BoxType</text>
<text text-anchor="middle" x="258" y="-282" font-family="Helvetica,sans-Serif" font-size="10.00"> &gt;::position_t</text>
</a>
</g>
</g>
<!-- Node4&#45;&gt;Node2 -->
<g id="edge3" class="edge">
<title>Node4&#45;&gt;Node2</title>
<path fill="none" stroke="#9a32cd" stroke-dasharray="5,2" d="M329.13,-294.56C356.08,-294.21 386.83,-293.8 413.79,-293.44"/>
<polygon fill="#9a32cd" stroke="#9a32cd" points="328.95,-291.07 319,-294.7 329.05,-298.07 328.95,-291.07"/>
<text text-anchor="middle" x="357" y="-296.5" font-family="Helvetica,sans-Serif" font-size="10.00"> mPos</text>
</g>
<!-- Node5 -->
<g id="node5" class="node">
<title>Node5</title>
<g id="a_node5"><a xlink:title=" ">
<polygon fill="white" stroke="black" points="0,-318 0,-337 104,-337 104,-318 0,-318"/>
<text text-anchor="middle" x="52" y="-325" font-family="Helvetica,sans-Serif" font-size="10.00">optional&lt; double_t &gt;</text>
</a>
</g>
</g>
<!-- Node5&#45;&gt;Node4 -->
<g id="edge4" class="edge">
<title>Node5&#45;&gt;Node4</title>
<path fill="none" stroke="#9a32cd" stroke-dasharray="5,2" d="M114.35,-317.88C140.43,-313.79 170.74,-309.03 196.7,-304.96"/>
<polygon fill="#9a32cd" stroke="#9a32cd" points="113.55,-314.46 104.21,-319.47 114.64,-321.37 113.55,-314.46"/>
<text text-anchor="middle" x="150.5" y="-329.5" font-family="Helvetica,sans-Serif" font-size="10.00"> x</text>
<text text-anchor="middle" x="150.5" y="-318.5" font-family="Helvetica,sans-Serif" font-size="10.00">y</text>
</g>
<!-- Node6 -->
<g id="node6" class="node">
<title>Node6</title>
<g id="a_node6"><a xlink:title=" ">
<polygon fill="white" stroke="black" points="9.5,-280 9.5,-299 94.5,-299 94.5,-280 9.5,-280"/>
<text text-anchor="middle" x="52" y="-287" font-family="Helvetica,sans-Serif" font-size="10.00">optional&lt; bool &gt;</text>
</a>
</g>
</g>
<!-- Node6&#45;&gt;Node4 -->
<g id="edge5" class="edge">
<title>Node6&#45;&gt;Node4</title>
<path fill="none" stroke="#9a32cd" stroke-dasharray="5,2" d="M105.13,-291.03C133.07,-291.85 167.62,-292.87 196.71,-293.73"/>
<polygon fill="#9a32cd" stroke="#9a32cd" points="104.87,-287.52 94.77,-290.73 104.67,-294.52 104.87,-287.52"/>
<text text-anchor="middle" x="150.5" y="-295.5" font-family="Helvetica,sans-Serif" font-size="10.00"> isUserCoord</text>
</g>
<!-- Node7 -->
<g id="node7" class="node">
<title>Node7</title>
<g id="a_node7"><a xlink:href="structPlottingFramework_1_1Plot_1_1layout__t.html" target="_top" xlink:title=" ">
<polygon fill="white" stroke="black" points="206.5,-209.5 206.5,-239.5 309.5,-239.5 309.5,-209.5 206.5,-209.5"/>
<text text-anchor="start" x="214.5" y="-227.5" font-family="Helvetica,sans-Serif" font-size="10.00">PlottingFramework::</text>
<text text-anchor="middle" x="258" y="-216.5" font-family="Helvetica,sans-Serif" font-size="10.00">Plot::layout_t</text>
</a>
</g>
</g>
<!-- Node7&#45;&gt;Node1 -->
<g id="edge13" class="edge">
<title>Node7&#45;&gt;Node1</title>
<path fill="none" stroke="#9a32cd" stroke-dasharray="5,2" d="M319.74,-226.41C403.95,-227.43 560.13,-223.4 687,-186.5 703.91,-181.58 721.49,-172.54 734.99,-164.63"/>
<polygon fill="#9a32cd" stroke="#9a32cd" points="319.63,-222.91 309.58,-226.26 319.53,-229.91 319.63,-222.91"/>
<text text-anchor="middle" x="485" y="-250.5" font-family="Helvetica,sans-Serif" font-size="10.00"> mFillDefault</text>
<text text-anchor="middle" x="485" y="-239.5" font-family="Helvetica,sans-Serif" font-size="10.00">mLineDefault</text>
<text text-anchor="middle" x="485" y="-228.5" font-family="Helvetica,sans-Serif" font-size="10.00">mMarkerDefault</text>
</g>
<!-- Node7&#45;&gt;Node2 -->
<g id="edge6" class="edge">
<title>Node7&#45;&gt;Node2</title>
<path fill="none" stroke="#9a32cd" stroke-dasharray="5,2" d="M319.5,-240.16C338.02,-245.16 358.41,-250.86 377,-256.5 398.29,-262.96 421.73,-270.77 441.23,-277.46"/>
<polygon fill="#9a32cd" stroke="#9a32cd" points="320.29,-236.75 309.72,-237.54 318.47,-243.51 320.29,-236.75"/>
<text text-anchor="middle" x="357" y="-281.5" font-family="Helvetica,sans-Serif" font-size="10.00"> mBorder</text>
<text text-anchor="middle" x="357" y="-270.5" font-family="Helvetica,sans-Serif" font-size="10.00">mFill</text>
<text text-anchor="middle" x="357" y="-259.5" font-family="Helvetica,sans-Serif" font-size="10.00">mText</text>
</g>
<!-- Node8 -->
<g id="node8" class="node">
<title>Node8</title>
<g id="a_node8"><a xlink:title=" ">
<polygon fill="white" stroke="black" points="4,-222 4,-241 100,-241 100,-222 4,-222"/>
<text text-anchor="middle" x="52" y="-229" font-family="Helvetica,sans-Serif" font-size="10.00">optional&lt; int16_t &gt;</text>
</a>
</g>
</g>
<!-- Node8&#45;&gt;Node7 -->
<g id="edge7" class="edge">
<title>Node8&#45;&gt;Node7</title>
<path fill="none" stroke="#9a32cd" stroke-dasharray="5,2" d="M110.43,-229.53C140.56,-228.5 177.16,-227.24 206.25,-226.24"/>
<polygon fill="#9a32cd" stroke="#9a32cd" points="109.93,-226.04 100.06,-229.89 110.17,-233.04 109.93,-226.04"/>
<text text-anchor="middle" x="150.5" y="-242.5" font-family="Helvetica,sans-Serif" font-size="10.00"> color</text>
<text text-anchor="middle" x="150.5" y="-231.5" font-family="Helvetica,sans-Serif" font-size="10.00">style</text>
</g>
<!-- Node9 -->
<g id="node9" class="node">
<title>Node9</title>
<g id="a_node9"><a xlink:title=" ">
<polygon fill="white" stroke="black" points="5.5,-184 5.5,-203 98.5,-203 98.5,-184 5.5,-184"/>
<text text-anchor="middle" x="52" y="-191" font-family="Helvetica,sans-Serif" font-size="10.00">optional&lt; float_t &gt;</text>
</a>
</g>
</g>
<!-- Node9&#45;&gt;Node7 -->
<g id="edge8" class="edge">
<title>Node9&#45;&gt;Node7</title>
<path fill="none" stroke="#9a32cd" stroke-dasharray="5,2" d="M108.67,-201.17C130.6,-204.26 156,-207.94 179,-211.5 187.82,-212.86 197.19,-214.37 206.26,-215.87"/>
<polygon fill="#9a32cd" stroke="#9a32cd" points="108.92,-197.67 98.53,-199.74 107.94,-204.6 108.92,-197.67"/>
<text text-anchor="middle" x="150.5" y="-214.5" font-family="Helvetica,sans-Serif" font-size="10.00"> scale</text>
</g>
<!-- Node10 -->
<g id="node10" class="node">
<title>Node10</title>
<g id="a_node10"><a xlink:title=" ">
<polygon fill="white" stroke="black" points="439.5,-159 439.5,-178 530.5,-178 530.5,-159 439.5,-159"/>
<text text-anchor="middle" x="485" y="-166" font-family="Helvetica,sans-Serif" font-size="10.00">optional&lt; string &gt;</text>
</a>
</g>
</g>
<!-- Node10&#45;&gt;Node1 -->
<g id="edge9" class="edge">
<title>Node10&#45;&gt;Node1</title>
<path fill="none" stroke="#9a32cd" stroke-dasharray="5,2" d="M540.85,-164.68C588.63,-161.34 657.48,-156.54 704.88,-153.24"/>
<polygon fill="#9a32cd" stroke="#9a32cd" points="540.42,-161.2 530.69,-165.38 540.91,-168.18 540.42,-161.2"/>
<text text-anchor="middle" x="640" y="-174.5" font-family="Helvetica,sans-Serif" font-size="10.00"> mDrawStyleDefault</text>
<text text-anchor="middle" x="640" y="-163.5" font-family="Helvetica,sans-Serif" font-size="10.00">mTitle</text>
</g>
<!-- Node11 -->
<g id="node11" class="node">
<title>Node11</title>
<g id="a_node11"><a xlink:title=" ">
<polygon fill="white" stroke="black" points="437,-121 437,-140 533,-140 533,-121 437,-121"/>
<text text-anchor="middle" x="485" y="-128" font-family="Helvetica,sans-Serif" font-size="10.00">optional&lt; uint8_t &gt;</text>
</a>
</g>
</g>
<!-- Node11&#45;&gt;Node1 -->
<g id="edge10" class="edge">
<title>Node11&#45;&gt;Node1</title>
<path fill="none" stroke="#9a32cd" stroke-dasharray="5,2" d="M543.36,-131.63C583.62,-132.78 638.68,-135.05 687,-139.5 692.74,-140.03 698.73,-140.69 704.69,-141.42"/>
<polygon fill="#9a32cd" stroke="#9a32cd" points="543.29,-128.13 533.2,-131.36 543.1,-135.13 543.29,-128.13"/>
<text text-anchor="middle" x="640" y="-142.5" font-family="Helvetica,sans-Serif" font-size="10.00"> mNumColumns</text>
</g>
<!-- Node12 -->
<g id="node12" class="node">
<title>Node12</title>
<g id="a_node12"><a xlink:title=" ">
<polygon fill="white" stroke="black" points="395,-71.5 395,-101.5 575,-101.5 575,-71.5 395,-71.5"/>
<text text-anchor="start" x="403" y="-89.5" font-family="Helvetica,sans-Serif" font-size="10.00">std::vector&lt; PlottingFramework</text>
<text text-anchor="middle" x="485" y="-78.5" font-family="Helvetica,sans-Serif" font-size="10.00">::Plot::Pad::LegendBox::LegendEntry &gt;</text>
</a>
</g>
</g>
<!-- Node12&#45;&gt;Node1 -->
<g id="edge11" class="edge">
<title>Node12&#45;&gt;Node1</title>
<path fill="none" stroke="#9a32cd" stroke-dasharray="5,2" d="M585.24,-96.44C618.05,-101.14 654.47,-107.9 687,-117.5 701.48,-121.77 716.84,-128.36 729.6,-134.44"/>
<polygon fill="#9a32cd" stroke="#9a32cd" points="585.57,-92.95 575.18,-95.05 584.61,-99.89 585.57,-92.95"/>
<text text-anchor="middle" x="640" y="-120.5" font-family="Helvetica,sans-Serif" font-size="10.00"> mLegendEntries</text>
</g>
<!-- Node13 -->
<g id="node13" class="node">
<title>Node13</title>
<g id="a_node13"><a xlink:title=" ">
<polygon fill="white" stroke="black" points="430.5,-0.5 430.5,-52.5 539.5,-52.5 539.5,-0.5 430.5,-0.5"/>
<text text-anchor="start" x="438.5" y="-40.5" font-family="Helvetica,sans-Serif" font-size="10.00">std::map&lt; uint8_t,</text>
<text text-anchor="start" x="438.5" y="-29.5" font-family="Helvetica,sans-Serif" font-size="10.00"> PlottingFramework::</text>
<text text-anchor="start" x="438.5" y="-18.5" font-family="Helvetica,sans-Serif" font-size="10.00">Plot::Pad::LegendBox</text>
<text text-anchor="middle" x="485" y="-7.5" font-family="Helvetica,sans-Serif" font-size="10.00">::LegendEntry &gt;</text>
</a>
</g>
</g>
<!-- Node13&#45;&gt;Node1 -->
<g id="edge12" class="edge">
<title>Node13&#45;&gt;Node1</title>
<path fill="none" stroke="#9a32cd" stroke-dasharray="5,2" d="M549.81,-36.16C590.91,-44.29 644.41,-58.55 687,-82.5 711.02,-96.01 733.27,-119.25 746.37,-134.5"/>
<polygon fill="#9a32cd" stroke="#9a32cd" points="550.39,-32.71 539.91,-34.27 549.07,-39.58 550.39,-32.71"/>
<text text-anchor="middle" x="640" y="-85.5" font-family="Helvetica,sans-Serif" font-size="10.00"> mLegendEntriesUser</text>
</g>
</g>
</svg>
