<?xml version="1.0" encoding="UTF-8" standalone="no"?>
<!DOCTYPE svg PUBLIC "-//W3C//DTD SVG 1.1//EN"
 "http://www.w3.org/Graphics/SVG/1.1/DTD/svg11.dtd">
<!-- Generated by graphviz version 3.0.0 (20220413.0242)
 -->
<!-- Title: PlottingFramework::Plot::Pad::Ratio Pages: 1 -->
<!--zoomable 524 -->
<svg id="main" version="1.1" xmlns="http://www.w3.org/2000/svg" xmlns:xlink="http://www.w3.org/1999/xlink" xml:space="preserve" onload="init(evt)">
<style type="text/css"><![CDATA[
.edge:hover path { stroke: red; }
.edge:hover polygon { stroke: red; fill: red; }
]]></style>
<script type="text/javascript"><![CDATA[
var edges = document.getElementsByTagName('g');
if (edges && edges.length) {
  for (var i=0;i<edges.length;i++) {
    if (edges[i].id.substr(0,4)=='edge') {
      edges[i].setAttribute('class','edge');
    }
  }
}
]]></script>
        <defs>
                <circle id="rim" cx="0" cy="0" r="7"/>
                <circle id="rim2" cx="0" cy="0" r="3.5"/>
                <g id="zoomPlus">
                        <use xlink:href="#rim" fill="#404040">
                                <set attributeName="fill" to="#808080" begin="zoomplus.mouseover" end="zoomplus.mouseout"/>
                        </use>
                        <path d="M-4,0h8M0,-4v8" fill="none" stroke="white" stroke-width="1.5" pointer-events="none"/>
                </g>
                <g id="zoomMin">
                        <use xlink:href="#rim" fill="#404040">
                                <set attributeName="fill" to="#808080" begin="zoomminus.mouseover" end="zoomminus.mouseout"/>
                        </use>
                        <path d="M-4,0h8" fill="none" stroke="white" stroke-width="1.5" pointer-events="none"/>
                </g>
                <g id="dirArrow">
                        <path fill="none" stroke="white" stroke-width="1.5" d="M0,-3.0v7 M-2.5,-0.5L0,-3.0L2.5,-0.5"/>
                </g>
               <g id="resetDef">
                       <use xlink:href="#rim2" fill="#404040">
                               <set attributeName="fill" to="#808080" begin="reset.mouseover" end="reset.mouseout"/>
                       </use>
               </g>
        </defs>

<script type="text/javascript">
var viewWidth = 808;
var viewHeight = 524;
var sectionId = 'dynsection-1';
</script>
<script xlink:href="svgpan.js"/>
<svg id="graph" class="graph">
<g id="viewport">
<title>PlottingFramework::Plot::Pad::Ratio</title>
<polygon fill="white" stroke="transparent" points="-4,4 -4,-519.72 804,-519.72 804,4 -4,4"/>
<!-- Node1 -->
<g id="node1" class="node">
<title>Node1</title>
<g id="a_node1"><a xlink:title="Representation of a Ratio.">
<polygon fill="#bfbfbf" stroke="black" points="697,-405.72 697,-435.72 800,-435.72 800,-405.72 697,-405.72"/>
<text text-anchor="start" x="705" y="-423.72" font-family="Helvetica,sans-Serif" font-size="10.00">PlottingFramework::</text>
<text text-anchor="middle" x="748.5" y="-412.72" font-family="Helvetica,sans-Serif" font-size="10.00">Plot::Pad::Ratio</text>
</a>
</g>
</g>
<!-- Node2 -->
<g id="node2" class="node">
<title>Node2</title>
<g id="a_node2"><a xlink:href="classPlottingFramework_1_1Plot_1_1Pad_1_1Data.html" target="_top" xlink:title="Representation of drawable data.">
<polygon fill="white" stroke="black" points="477.5,-297.72 477.5,-327.72 580.5,-327.72 580.5,-297.72 477.5,-297.72"/>
<text text-anchor="start" x="485.5" y="-315.72" font-family="Helvetica,sans-Serif" font-size="10.00">PlottingFramework::</text>
<text text-anchor="middle" x="529" y="-304.72" font-family="Helvetica,sans-Serif" font-size="10.00">Plot::Pad::Data</text>
</a>
</g>
</g>
<!-- Node2&#45;&gt;Node1 -->
<g id="edge1" class="edge">
<title>Node2&#45;&gt;Node1</title>
<path fill="none" stroke="midnightblue" d="M569.44,-332.3C611.93,-353.4 678.6,-386.5 717.16,-405.66"/>
<polygon fill="midnightblue" stroke="midnightblue" points="570.76,-329.05 560.24,-327.74 567.64,-335.32 570.76,-329.05"/>
</g>
<!-- Node3 -->
<g id="node3" class="node">
<title>Node3</title>
<g id="a_node3"><a xlink:title=" ">
<polygon fill="white" stroke="black" points="249.5,-496.22 249.5,-515.22 284.5,-515.22 284.5,-496.22 249.5,-496.22"/>
<text text-anchor="middle" x="267" y="-503.22" font-family="Helvetica,sans-Serif" font-size="10.00">bool</text>
</a>
</g>
</g>
<!-- Node3&#45;&gt;Node1 -->
<g id="edge22" class="edge">
<title>Node3&#45;&gt;Node1</title>
<path fill="none" stroke="#9a32cd" stroke-dasharray="5,2" d="M294.9,-506.42C331.37,-506.99 398.44,-506.65 455,-498.72 556.73,-484.45 580.24,-469.98 679,-441.72 685.58,-439.84 692.49,-437.79 699.29,-435.75"/>
<polygon fill="#9a32cd" stroke="#9a32cd" points="294.68,-502.92 284.61,-506.23 294.54,-509.92 294.68,-502.92"/>
<text text-anchor="middle" x="529" y="-498.72" font-family="Helvetica,sans-Serif" font-size="10.00"> mIsCorrelated</text>
</g>
<!-- Node3&#45;&gt;Node2 -->
<g id="edge2" class="edge">
<title>Node3&#45;&gt;Node2</title>
<path fill="none" stroke="#9a32cd" stroke-dasharray="5,2" d="M294.72,-499.89C340.21,-489.55 430.18,-467.15 455,-446.72 494.06,-414.56 515.47,-355.79 523.83,-328.03"/>
<polygon fill="#9a32cd" stroke="#9a32cd" points="293.69,-496.53 284.69,-502.14 295.22,-503.36 293.69,-496.53"/>
<text text-anchor="middle" x="406.5" y="-486.72" font-family="Helvetica,sans-Serif" font-size="10.00"> mDefinesFrame</text>
</g>
<!-- Node4 -->
<g id="node4" class="node">
<title>Node4</title>
<g id="a_node4"><a xlink:title=" ">
<polygon fill="white" stroke="black" points="237.5,-447.22 237.5,-466.22 296.5,-466.22 296.5,-447.22 237.5,-447.22"/>
<text text-anchor="middle" x="267" y="-454.22" font-family="Helvetica,sans-Serif" font-size="10.00">std::string</text>
</a>
</g>
</g>
<!-- Node4&#45;&gt;Node1 -->
<g id="edge21" class="edge">
<title>Node4&#45;&gt;Node1</title>
<path fill="none" stroke="#9a32cd" stroke-dasharray="5,2" d="M306.58,-453.83C344.4,-451.01 403.66,-446.57 455,-442.72 539.81,-436.35 638.44,-428.93 696.77,-424.54"/>
<polygon fill="#9a32cd" stroke="#9a32cd" points="306.22,-450.35 296.51,-454.59 306.75,-457.33 306.22,-450.35"/>
<text text-anchor="middle" x="529" y="-454.72" font-family="Helvetica,sans-Serif" font-size="10.00"> mDenomInputIdentifier</text>
<text text-anchor="middle" x="529" y="-443.72" font-family="Helvetica,sans-Serif" font-size="10.00">mDenomName</text>
</g>
<!-- Node4&#45;&gt;Node2 -->
<g id="edge3" class="edge">
<title>Node4&#45;&gt;Node2</title>
<path fill="none" stroke="#9a32cd" stroke-dasharray="5,2" d="M306.58,-448.4C318,-444.77 330.09,-439.71 340,-432.72 350.61,-425.24 347.07,-416.72 358,-409.72 395.31,-385.82 416.39,-408.44 455,-386.72 481.27,-371.94 504.33,-344.95 517.19,-327.97"/>
<polygon fill="#9a32cd" stroke="#9a32cd" points="305.42,-445.09 296.78,-451.22 307.36,-451.81 305.42,-445.09"/>
<text text-anchor="middle" x="406.5" y="-434.72" font-family="Helvetica,sans-Serif" font-size="10.00"> mInputIdentifier</text>
<text text-anchor="middle" x="406.5" y="-423.72" font-family="Helvetica,sans-Serif" font-size="10.00">mName</text>
<text text-anchor="middle" x="406.5" y="-412.72" font-family="Helvetica,sans-Serif" font-size="10.00">mType</text>
</g>
<!-- Node5 -->
<g id="node5" class="node">
<title>Node5</title>
<g id="a_node5"><a xlink:title=" ">
<polygon fill="white" stroke="black" points="5.5,-441.72 5.5,-471.72 98.5,-471.72 98.5,-441.72 5.5,-441.72"/>
<text text-anchor="start" x="13.5" y="-459.72" font-family="Helvetica,sans-Serif" font-size="10.00">std::basic_string&lt;</text>
<text text-anchor="middle" x="52" y="-448.72" font-family="Helvetica,sans-Serif" font-size="10.00"> char &gt;</text>
</a>
</g>
</g>
<!-- Node5&#45;&gt;Node4 -->
<g id="edge4" class="edge">
<title>Node5&#45;&gt;Node4</title>
<path fill="none" stroke="midnightblue" d="M108.88,-456.72C150.13,-456.72 204.59,-456.72 237.36,-456.72"/>
<polygon fill="midnightblue" stroke="midnightblue" points="108.69,-453.22 98.69,-456.72 108.69,-460.22 108.69,-453.22"/>
</g>
<!-- Node6 -->
<g id="node6" class="node">
<title>Node6</title>
<g id="a_node6"><a xlink:title=" ">
<polygon fill="white" stroke="black" points="6.5,-384.22 6.5,-403.22 97.5,-403.22 97.5,-384.22 6.5,-384.22"/>
<text text-anchor="middle" x="52" y="-391.22" font-family="Helvetica,sans-Serif" font-size="10.00">optional&lt; string &gt;</text>
</a>
</g>
</g>
<!-- Node6&#45;&gt;Node2 -->
<g id="edge5" class="edge">
<title>Node6&#45;&gt;Node2</title>
<path fill="none" stroke="#9a32cd" stroke-dasharray="5,2" d="M107.85,-397.49C187.27,-400.96 337.6,-399.99 455,-354.72 473.01,-347.77 491.85,-336.82 505.89,-327.85"/>
<polygon fill="#9a32cd" stroke="#9a32cd" points="107.75,-393.98 97.6,-397 107.42,-400.97 107.75,-393.98"/>
<text text-anchor="middle" x="267" y="-411.72" font-family="Helvetica,sans-Serif" font-size="10.00"> mDrawingOptions</text>
<text text-anchor="middle" x="267" y="-400.72" font-family="Helvetica,sans-Serif" font-size="10.00">mTextFormat</text>
</g>
<!-- Node9 -->
<g id="node9" class="node">
<title>Node9</title>
<g id="a_node9"><a xlink:href="structPlottingFramework_1_1Plot_1_1Pad_1_1Data_1_1legend__t.html" target="_top" xlink:title=" ">
<polygon fill="white" stroke="black" points="206,-339.72 206,-369.72 328,-369.72 328,-339.72 206,-339.72"/>
<text text-anchor="start" x="214" y="-357.72" font-family="Helvetica,sans-Serif" font-size="10.00">PlottingFramework::</text>
<text text-anchor="middle" x="267" y="-346.72" font-family="Helvetica,sans-Serif" font-size="10.00">Plot::Pad::Data::legend_t</text>
</a>
</g>
</g>
<!-- Node6&#45;&gt;Node9 -->
<g id="edge9" class="edge">
<title>Node6&#45;&gt;Node9</title>
<path fill="none" stroke="#9a32cd" stroke-dasharray="5,2" d="M107.52,-383.74C137.51,-378.24 174.79,-371.42 205.65,-365.77"/>
<polygon fill="#9a32cd" stroke="#9a32cd" points="106.86,-380.3 97.65,-385.54 108.12,-387.18 106.86,-380.3"/>
<text text-anchor="middle" x="149" y="-382.72" font-family="Helvetica,sans-Serif" font-size="10.00"> label</text>
</g>
<!-- Node7 -->
<g id="node7" class="node">
<title>Node7</title>
<g id="a_node7"><a xlink:title=" ">
<polygon fill="white" stroke="black" points="194,-203.22 194,-222.22 340,-222.22 340,-203.22 194,-203.22"/>
<text text-anchor="middle" x="267" y="-210.22" font-family="Helvetica,sans-Serif" font-size="10.00">optional&lt; drawing_options_t &gt;</text>
</a>
</g>
</g>
<!-- Node7&#45;&gt;Node2 -->
<g id="edge6" class="edge">
<title>Node7&#45;&gt;Node2</title>
<path fill="none" stroke="#9a32cd" stroke-dasharray="5,2" d="M350.66,-204.47C386.23,-205.23 426.18,-212.41 455,-235.72 474.02,-251.1 456.53,-269.64 473,-287.72 476.46,-291.52 480.61,-294.78 485.06,-297.57"/>
<polygon fill="#9a32cd" stroke="#9a32cd" points="350.28,-200.97 340.27,-204.42 350.25,-207.97 350.28,-200.97"/>
<text text-anchor="middle" x="406.5" y="-238.72" font-family="Helvetica,sans-Serif" font-size="10.00"> mDrawingOptionAlias</text>
</g>
<!-- Node8 -->
<g id="node8" class="node">
<title>Node8</title>
<g id="a_node8"><a xlink:title=" ">
<polygon fill="white" stroke="black" points="197,-143.22 197,-184.22 337,-184.22 337,-143.22 197,-143.22"/>
<text text-anchor="start" x="205" y="-172.22" font-family="Helvetica,sans-Serif" font-size="10.00">optional&lt; PlottingFramework</text>
<text text-anchor="start" x="205" y="-161.22" font-family="Helvetica,sans-Serif" font-size="10.00">::Plot::Pad::Data::proj</text>
<text text-anchor="middle" x="267" y="-150.22" font-family="Helvetica,sans-Serif" font-size="10.00">_info_t &gt;</text>
</a>
</g>
</g>
<!-- Node8&#45;&gt;Node2 -->
<g id="edge7" class="edge">
<title>Node8&#45;&gt;Node2</title>
<path fill="none" stroke="#9a32cd" stroke-dasharray="5,2" d="M347.75,-155.41C384.91,-156.02 427,-163.82 455,-190.72 486.62,-221.1 445.98,-253.18 473,-287.72 476.04,-291.6 479.81,-294.9 483.95,-297.7"/>
<polygon fill="#9a32cd" stroke="#9a32cd" points="347.41,-151.91 337.42,-155.42 347.42,-158.91 347.41,-151.91"/>
<text text-anchor="middle" x="406.5" y="-193.72" font-family="Helvetica,sans-Serif" font-size="10.00"> mProjInfo</text>
</g>
<!-- Node9&#45;&gt;Node2 -->
<g id="edge8" class="edge">
<title>Node9&#45;&gt;Node2</title>
<path fill="none" stroke="#9a32cd" stroke-dasharray="5,2" d="M338.36,-343.5C373.42,-337.89 416.45,-330.98 455,-324.72 462.23,-323.54 469.85,-322.3 477.35,-321.07"/>
<polygon fill="#9a32cd" stroke="#9a32cd" points="337.55,-340.08 328.22,-345.12 338.65,-346.99 337.55,-340.08"/>
<text text-anchor="middle" x="406.5" y="-342.72" font-family="Helvetica,sans-Serif" font-size="10.00"> mLegend</text>
</g>
<!-- Node10 -->
<g id="node10" class="node">
<title>Node10</title>
<g id="a_node10"><a xlink:title=" ">
<polygon fill="white" stroke="black" points="4,-320.22 4,-339.22 100,-339.22 100,-320.22 4,-320.22"/>
<text text-anchor="middle" x="52" y="-327.22" font-family="Helvetica,sans-Serif" font-size="10.00">optional&lt; uint8_t &gt;</text>
</a>
</g>
</g>
<!-- Node10&#45;&gt;Node9 -->
<g id="edge10" class="edge">
<title>Node10&#45;&gt;Node9</title>
<path fill="none" stroke="#9a32cd" stroke-dasharray="5,2" d="M110.17,-336.43C139.71,-339.9 175.76,-344.13 205.74,-347.65"/>
<polygon fill="#9a32cd" stroke="#9a32cd" points="110.35,-332.93 100.01,-335.24 109.53,-339.88 110.35,-332.93"/>
<text text-anchor="middle" x="149" y="-345.72" font-family="Helvetica,sans-Serif" font-size="10.00"> identifier</text>
</g>
<!-- Node16 -->
<g id="node16" class="node">
<title>Node16</title>
<g id="a_node16"><a xlink:href="structPlottingFramework_1_1Plot_1_1Pad_1_1Data_1_1modify__t.html" target="_top" xlink:title=" ">
<polygon fill="white" stroke="black" points="206,-290.72 206,-320.72 328,-320.72 328,-290.72 206,-290.72"/>
<text text-anchor="start" x="214" y="-308.72" font-family="Helvetica,sans-Serif" font-size="10.00">PlottingFramework::</text>
<text text-anchor="middle" x="267" y="-297.72" font-family="Helvetica,sans-Serif" font-size="10.00">Plot::Pad::Data::modify_t</text>
</a>
</g>
</g>
<!-- Node10&#45;&gt;Node16 -->
<g id="edge17" class="edge">
<title>Node10&#45;&gt;Node16</title>
<path fill="none" stroke="#9a32cd" stroke-dasharray="5,2" d="M98.86,-317.92C106.54,-316.28 114.47,-314.79 122,-313.72 149.39,-309.81 179.96,-307.79 205.87,-306.75"/>
<polygon fill="#9a32cd" stroke="#9a32cd" points="97.94,-314.54 88.95,-320.15 99.47,-321.37 97.94,-314.54"/>
<text text-anchor="middle" x="149" y="-316.72" font-family="Helvetica,sans-Serif" font-size="10.00"> normMode</text>
</g>
<!-- Node11 -->
<g id="node11" class="node">
<title>Node11</title>
<g id="a_node11"><a xlink:href="structPlottingFramework_1_1Plot_1_1layout__t.html" target="_top" xlink:title=" ">
<polygon fill="white" stroke="black" points="215.5,-94.72 215.5,-124.72 318.5,-124.72 318.5,-94.72 215.5,-94.72"/>
<text text-anchor="start" x="223.5" y="-112.72" font-family="Helvetica,sans-Serif" font-size="10.00">PlottingFramework::</text>
<text text-anchor="middle" x="267" y="-101.72" font-family="Helvetica,sans-Serif" font-size="10.00">Plot::layout_t</text>
</a>
</g>
</g>
<!-- Node11&#45;&gt;Node2 -->
<g id="edge11" class="edge">
<title>Node11&#45;&gt;Node2</title>
<path fill="none" stroke="#9a32cd" stroke-dasharray="5,2" d="M328.49,-94.66C369.52,-88.35 422.09,-88.51 455,-119.72 482.25,-145.55 451.02,-257.28 473,-287.72 475.76,-291.54 479.25,-294.8 483.13,-297.56"/>
<polygon fill="#9a32cd" stroke="#9a32cd" points="327.86,-91.22 318.59,-96.34 329.03,-98.12 327.86,-91.22"/>
<text text-anchor="middle" x="406.5" y="-144.72" font-family="Helvetica,sans-Serif" font-size="10.00"> mFill</text>
<text text-anchor="middle" x="406.5" y="-133.72" font-family="Helvetica,sans-Serif" font-size="10.00">mLine</text>
<text text-anchor="middle" x="406.5" y="-122.72" font-family="Helvetica,sans-Serif" font-size="10.00">mMarker</text>
</g>
<!-- Node12 -->
<g id="node12" class="node">
<title>Node12</title>
<g id="a_node12"><a xlink:title=" ">
<polygon fill="white" stroke="black" points="4,-119.22 4,-138.22 100,-138.22 100,-119.22 4,-119.22"/>
<text text-anchor="middle" x="52" y="-126.22" font-family="Helvetica,sans-Serif" font-size="10.00">optional&lt; int16_t &gt;</text>
</a>
</g>
</g>
<!-- Node12&#45;&gt;Node11 -->
<g id="edge12" class="edge">
<title>Node12&#45;&gt;Node11</title>
<path fill="none" stroke="#9a32cd" stroke-dasharray="5,2" d="M110.34,-123.6C143.11,-120.68 183.82,-117.05 215.39,-114.23"/>
<polygon fill="#9a32cd" stroke="#9a32cd" points="109.66,-120.15 100.01,-124.53 110.28,-127.12 109.66,-120.15"/>
<text text-anchor="middle" x="149" y="-136.72" font-family="Helvetica,sans-Serif" font-size="10.00"> color</text>
<text text-anchor="middle" x="149" y="-125.72" font-family="Helvetica,sans-Serif" font-size="10.00">style</text>
</g>
<!-- Node13 -->
<g id="node13" class="node">
<title>Node13</title>
<g id="a_node13"><a xlink:title=" ">
<polygon fill="white" stroke="black" points="5.5,-81.22 5.5,-100.22 98.5,-100.22 98.5,-81.22 5.5,-81.22"/>
<text text-anchor="middle" x="52" y="-88.22" font-family="Helvetica,sans-Serif" font-size="10.00">optional&lt; float_t &gt;</text>
</a>
</g>
</g>
<!-- Node13&#45;&gt;Node11 -->
<g id="edge13" class="edge">
<title>Node13&#45;&gt;Node11</title>
<path fill="none" stroke="#9a32cd" stroke-dasharray="5,2" d="M109.06,-95.72C141.96,-98.65 183.21,-102.33 215.16,-105.18"/>
<polygon fill="#9a32cd" stroke="#9a32cd" points="108.97,-92.2 98.69,-94.79 108.34,-99.17 108.97,-92.2"/>
<text text-anchor="middle" x="149" y="-104.72" font-family="Helvetica,sans-Serif" font-size="10.00"> scale</text>
</g>
<!-- Node14 -->
<g id="node14" class="node">
<title>Node14</title>
<g id="a_node14"><a xlink:href="structPlottingFramework_1_1Plot_1_1Pad_1_1Data_1_1dataRange__t.html" target="_top" xlink:title=" ">
<polygon fill="white" stroke="black" points="197,-241.72 197,-271.72 337,-271.72 337,-241.72 197,-241.72"/>
<text text-anchor="start" x="205" y="-259.72" font-family="Helvetica,sans-Serif" font-size="10.00">PlottingFramework::</text>
<text text-anchor="middle" x="267" y="-248.72" font-family="Helvetica,sans-Serif" font-size="10.00">Plot::Pad::Data::dataRange_t</text>
</a>
</g>
</g>
<!-- Node14&#45;&gt;Node2 -->
<g id="edge14" class="edge">
<title>Node14&#45;&gt;Node2</title>
<path fill="none" stroke="#9a32cd" stroke-dasharray="5,2" d="M347.32,-251.04C381.72,-251.47 421.66,-256 455,-270.72 465.07,-275.16 463.87,-281.58 473,-287.72 478.4,-291.35 484.41,-294.68 490.41,-297.66"/>
<polygon fill="#9a32cd" stroke="#9a32cd" points="347.32,-247.55 337.31,-251.03 347.31,-254.55 347.32,-247.55"/>
<text text-anchor="middle" x="406.5" y="-295.72" font-family="Helvetica,sans-Serif" font-size="10.00"> mRangeX</text>
<text text-anchor="middle" x="406.5" y="-284.72" font-family="Helvetica,sans-Serif" font-size="10.00">mRangeY</text>
<text text-anchor="middle" x="406.5" y="-273.72" font-family="Helvetica,sans-Serif" font-size="10.00">mScaleRange</text>
</g>
<!-- Node15 -->
<g id="node15" class="node">
<title>Node15</title>
<g id="a_node15"><a xlink:title=" ">
<polygon fill="white" stroke="black" points="0,-246.22 0,-265.22 104,-265.22 104,-246.22 0,-246.22"/>
<text text-anchor="middle" x="52" y="-253.22" font-family="Helvetica,sans-Serif" font-size="10.00">optional&lt; double_t &gt;</text>
</a>
</g>
</g>
<!-- Node15&#45;&gt;Node14 -->
<g id="edge15" class="edge">
<title>Node15&#45;&gt;Node14</title>
<path fill="none" stroke="#9a32cd" stroke-dasharray="5,2" d="M87.42,-243.06C98.32,-239.65 110.53,-236.43 122,-234.72 153.27,-230.07 188.33,-235.2 216.03,-241.68"/>
<polygon fill="#9a32cd" stroke="#9a32cd" points="86.23,-239.77 77.82,-246.22 88.42,-246.42 86.23,-239.77"/>
<text text-anchor="middle" x="149" y="-248.72" font-family="Helvetica,sans-Serif" font-size="10.00"> max</text>
<text text-anchor="middle" x="149" y="-237.72" font-family="Helvetica,sans-Serif" font-size="10.00">min</text>
</g>
<!-- Node15&#45;&gt;Node16 -->
<g id="edge18" class="edge">
<title>Node15&#45;&gt;Node16</title>
<path fill="none" stroke="#9a32cd" stroke-dasharray="5,2" d="M103.61,-267.6C134.29,-274.8 173.59,-284.03 205.84,-291.6"/>
<polygon fill="#9a32cd" stroke="#9a32cd" points="104.1,-264.12 93.57,-265.24 102.5,-270.93 104.1,-264.12"/>
<text text-anchor="middle" x="149" y="-285.72" font-family="Helvetica,sans-Serif" font-size="10.00"> scaleFactor</text>
</g>
<!-- Node16&#45;&gt;Node2 -->
<g id="edge16" class="edge">
<title>Node16&#45;&gt;Node2</title>
<path fill="none" stroke="#9a32cd" stroke-dasharray="5,2" d="M338.33,-307.61C382.19,-308.79 437.62,-310.29 477.21,-311.35"/>
<polygon fill="#9a32cd" stroke="#9a32cd" points="338.39,-304.11 328.3,-307.34 338.2,-311.11 338.39,-304.11"/>
<text text-anchor="middle" x="406.5" y="-312.72" font-family="Helvetica,sans-Serif" font-size="10.00"> mModify</text>
</g>
<!-- Node17 -->
<g id="node17" class="node">
<title>Node17</title>
<g id="a_node17"><a xlink:title=" ">
<polygon fill="white" stroke="black" points="206,-45.72 206,-75.72 328,-75.72 328,-45.72 206,-45.72"/>
<text text-anchor="start" x="214" y="-63.72" font-family="Helvetica,sans-Serif" font-size="10.00">optional&lt; vector&lt; double</text>
<text text-anchor="middle" x="267" y="-52.72" font-family="Helvetica,sans-Serif" font-size="10.00">_t &gt; &gt;</text>
</a>
</g>
</g>
<!-- Node17&#45;&gt;Node2 -->
<g id="edge19" class="edge">
<title>Node17&#45;&gt;Node2</title>
<path fill="none" stroke="#9a32cd" stroke-dasharray="5,2" d="M338.23,-46.7C377.85,-43.15 425.22,-46.94 455,-76.72 488.27,-110 445.86,-249.27 473,-287.72 475.72,-291.57 479.19,-294.85 483.05,-297.62"/>
<polygon fill="#9a32cd" stroke="#9a32cd" points="337.65,-43.24 328.08,-47.78 338.4,-50.2 337.65,-43.24"/>
<text text-anchor="middle" x="406.5" y="-79.72" font-family="Helvetica,sans-Serif" font-size="10.00"> mContours</text>
</g>
<!-- Node18 -->
<g id="node18" class="node">
<title>Node18</title>
<g id="a_node18"><a xlink:title=" ">
<polygon fill="white" stroke="black" points="219,-7.22 219,-26.22 315,-26.22 315,-7.22 219,-7.22"/>
<text text-anchor="middle" x="267" y="-14.22" font-family="Helvetica,sans-Serif" font-size="10.00">optional&lt; int32_t &gt;</text>
</a>
</g>
</g>
<!-- Node18&#45;&gt;Node2 -->
<g id="edge20" class="edge">
<title>Node18&#45;&gt;Node2</title>
<path fill="none" stroke="#9a32cd" stroke-dasharray="5,2" d="M313.4,-5.25C356.11,2.54 418.75,5.71 455,-30.72 495.39,-71.3 440.34,-240.7 473,-287.72 475.69,-291.59 479.14,-294.88 482.99,-297.66"/>
<polygon fill="#9a32cd" stroke="#9a32cd" points="312.68,-1.83 303.54,-7.19 314.03,-8.69 312.68,-1.83"/>
<text text-anchor="middle" x="406.5" y="-33.72" font-family="Helvetica,sans-Serif" font-size="10.00"> mNContours</text>
</g>
<!-- Node19 -->
<g id="node19" class="node">
<title>Node19</title>
<g id="a_node19"><a xlink:title=" ">
<polygon fill="white" stroke="black" points="473,-259.22 473,-278.22 585,-278.22 585,-259.22 473,-259.22"/>
<text text-anchor="middle" x="529" y="-266.22" font-family="Helvetica,sans-Serif" font-size="10.00">optional&lt; proj_info_t &gt;</text>
</a>
</g>
</g>
<!-- Node19&#45;&gt;Node1 -->
<g id="edge23" class="edge">
<title>Node19&#45;&gt;Node1</title>
<path fill="none" stroke="#9a32cd" stroke-dasharray="5,2" d="M573.29,-281.58C604.88,-292.46 647.51,-310.35 679,-335.72 704.24,-356.05 726.32,-387.14 738.21,-405.55"/>
<polygon fill="#9a32cd" stroke="#9a32cd" points="574.04,-278.14 563.44,-278.3 571.82,-284.78 574.04,-278.14"/>
<text text-anchor="middle" x="641" y="-338.72" font-family="Helvetica,sans-Serif" font-size="10.00"> mProjInfoDenom</text>
</g>
</g>
</svg>
        <g id="navigator" transform="translate(0 0)" fill="#404254">
                <rect fill="#f2f5e9" fill-opacity="0.5" stroke="#606060" stroke-width=".5" x="0" y="0" width="60" height="60"/>
                <use id="zoomplus" xlink:href="#zoomPlus" x="17" y="9" onmousedown="handleZoom(evt,'in')"/>
                <use id="zoomminus" xlink:href="#zoomMin" x="42" y="9" onmousedown="handleZoom(evt,'out')"/>
                <use id="reset" xlink:href="#resetDef" x="30" y="36" onmousedown="handleReset()"/>
                <g id="arrowUp" xlink:href="#dirArrow" transform="translate(30 24)" onmousedown="handlePan(0,-1)">
                  <use xlink:href="#rim" fill="#404040">
                        <set attributeName="fill" to="#808080" begin="arrowUp.mouseover" end="arrowUp.mouseout"/>
                  </use>
                  <path fill="none" stroke="white" stroke-width="1.5" d="M0,-3.0v7 M-2.5,-0.5L0,-3.0L2.5,-0.5"/>
                </g>
                <g id="arrowRight" xlink:href="#dirArrow" transform="rotate(90) translate(36 -43)" onmousedown="handlePan(1,0)">
                  <use xlink:href="#rim" fill="#404040">
                        <set attributeName="fill" to="#808080" begin="arrowRight.mouseover" end="arrowRight.mouseout"/>
                  </use>
                  <path fill="none" stroke="white" stroke-width="1.5" d="M0,-3.0v7 M-2.5,-0.5L0,-3.0L2.5,-0.5"/>
                </g>
                <g id="arrowDown" xlink:href="#dirArrow" transform="rotate(180) translate(-30 -48)" onmousedown="handlePan(0,1)">
                  <use xlink:href="#rim" fill="#404040">
                        <set attributeName="fill" to="#808080" begin="arrowDown.mouseover" end="arrowDown.mouseout"/>
                  </use>
                  <path fill="none" stroke="white" stroke-width="1.5" d="M0,-3.0v7 M-2.5,-0.5L0,-3.0L2.5,-0.5"/>
                </g>
                <g id="arrowLeft" xlink:href="#dirArrow" transform="rotate(270) translate(-36 17)" onmousedown="handlePan(-1,0)">
                  <use xlink:href="#rim" fill="#404040">
                        <set attributeName="fill" to="#808080" begin="arrowLeft.mouseover" end="arrowLeft.mouseout"/>
                  </use>
                  <path fill="none" stroke="white" stroke-width="1.5" d="M0,-3.0v7 M-2.5,-0.5L0,-3.0L2.5,-0.5"/>
                </g>
        </g>
        <svg viewBox="0 0 15 15" width="100%" height="30px" preserveAspectRatio="xMaxYMin meet">
         <g id="arrow_out" transform="scale(0.3 0.3)">
          <a xlink:href="classPlottingFramework_1_1Plot_1_1Pad_1_1Ratio__coll__graph_org.svg" target="_base">
           <rect id="button" ry="5" rx="5" y="6" x="6" height="38" width="38"
                fill="#f2f5e9" fill-opacity="0.5" stroke="#606060" stroke-width="1.0"/>
           <path id="arrow"
             d="M 11.500037,31.436501 C 11.940474,20.09759 22.043105,11.32322 32.158766,21.979434 L 37.068811,17.246167 C 37.068811,17.246167 37.088388,32 37.088388,32 L 22.160133,31.978069 C 22.160133,31.978069 26.997745,27.140456 26.997745,27.140456 C 18.528582,18.264221 13.291696,25.230495 11.500037,31.436501 z"
             style="fill:#404040;"/>
          </a>
         </g>
        </svg>
</svg>
