<?xml version="1.0" encoding="UTF-8" standalone="no"?>
<!DOCTYPE svg PUBLIC "-//W3C//DTD SVG 1.1//EN"
 "http://www.w3.org/Graphics/SVG/1.1/DTD/svg11.dtd">
<!-- Generated by graphviz version 3.0.0 (20220413.0242)
 -->
<!-- Title: PlottingFramework::Plot::Pad Pages: 1 -->
<svg width="906pt" height="699pt"
 viewBox="0.00 0.00 906.00 699.00" xmlns="http://www.w3.org/2000/svg" xmlns:xlink="http://www.w3.org/1999/xlink">
<g id="graph0" class="graph" transform="scale(1 1) rotate(0) translate(4 695)">
<title>PlottingFramework::Plot::Pad</title>
<polygon fill="white" stroke="transparent" points="-4,4 -4,-695 902,-695 902,4 -4,4"/>
<!-- Node1 -->
<g id="node1" class="node">
<title>Node1</title>
<g id="a_node1"><a xlink:title="Representation of a pad.">
<polygon fill="#bfbfbf" stroke="black" points="795,-323 795,-353 898,-353 898,-323 795,-323"/>
<text text-anchor="start" x="803" y="-341" font-family="Helvetica,sans-Serif" font-size="10.00">PlottingFramework::</text>
<text text-anchor="middle" x="846.5" y="-330" font-family="Helvetica,sans-Serif" font-size="10.00">Plot::Pad</text>
</a>
</g>
</g>
<!-- Node2 -->
<g id="node2" class="node">
<title>Node2</title>
<g id="a_node2"><a xlink:title=" ">
<polygon fill="white" stroke="black" points="534,-653.5 534,-672.5 625,-672.5 625,-653.5 534,-653.5"/>
<text text-anchor="middle" x="579.5" y="-660.5" font-family="Helvetica,sans-Serif" font-size="10.00">optional&lt; string &gt;</text>
</a>
</g>
</g>
<!-- Node2&#45;&gt;Node1 -->
<g id="edge1" class="edge">
<title>Node2&#45;&gt;Node1</title>
<path fill="none" stroke="#9a32cd" stroke-dasharray="5,2" d="M635.4,-669.67C679.27,-671.77 739.42,-666.95 777,-632 818.73,-593.18 839,-408.11 844.15,-353.31"/>
<polygon fill="#9a32cd" stroke="#9a32cd" points="635.38,-666.16 625.19,-669.04 634.96,-673.14 635.38,-666.16"/>
<text text-anchor="middle" x="721.5" y="-683" font-family="Helvetica,sans-Serif" font-size="10.00"> mOptions</text>
<text text-anchor="middle" x="721.5" y="-672" font-family="Helvetica,sans-Serif" font-size="10.00">mRefFunc</text>
</g>
<!-- Node3 -->
<g id="node3" class="node">
<title>Node3</title>
<g id="a_node3"><a xlink:href="structPlottingFramework_1_1Plot_1_1Pad_1_1pad__position__t.html" target="_top" xlink:title=" ">
<polygon fill="white" stroke="black" points="518,-555 518,-585 641,-585 641,-555 518,-555"/>
<text text-anchor="start" x="526" y="-573" font-family="Helvetica,sans-Serif" font-size="10.00">PlottingFramework::</text>
<text text-anchor="middle" x="579.5" y="-562" font-family="Helvetica,sans-Serif" font-size="10.00">Plot::Pad::pad_position_t</text>
</a>
</g>
</g>
<!-- Node3&#45;&gt;Node1 -->
<g id="edge2" class="edge">
<title>Node3&#45;&gt;Node1</title>
<path fill="none" stroke="#9a32cd" stroke-dasharray="5,2" d="M651.38,-561.88C692.51,-553.84 742.78,-537.83 777,-506 822.66,-463.52 838.67,-386.25 843.58,-353.42"/>
<polygon fill="#9a32cd" stroke="#9a32cd" points="650.61,-558.47 641.41,-563.72 651.88,-565.35 650.61,-558.47"/>
<text text-anchor="middle" x="721.5" y="-561" font-family="Helvetica,sans-Serif" font-size="10.00"> mPosition</text>
</g>
<!-- Node4 -->
<g id="node4" class="node">
<title>Node4</title>
<g id="a_node4"><a xlink:title=" ">
<polygon fill="white" stroke="black" points="231,-591.5 231,-610.5 335,-610.5 335,-591.5 231,-591.5"/>
<text text-anchor="middle" x="283" y="-598.5" font-family="Helvetica,sans-Serif" font-size="10.00">optional&lt; double_t &gt;</text>
</a>
</g>
</g>
<!-- Node4&#45;&gt;Node3 -->
<g id="edge3" class="edge">
<title>Node4&#45;&gt;Node3</title>
<path fill="none" stroke="#9a32cd" stroke-dasharray="5,2" d="M312.15,-586.78C336.05,-574.83 367.48,-559.48 374,-558 421.52,-547.23 476.74,-551.43 517.82,-557.65"/>
<polygon fill="#9a32cd" stroke="#9a32cd" points="310.48,-583.7 303.11,-591.31 313.62,-589.96 310.48,-583.7"/>
<text text-anchor="middle" x="433.5" y="-594" font-family="Helvetica,sans-Serif" font-size="10.00"> xlow</text>
<text text-anchor="middle" x="433.5" y="-583" font-family="Helvetica,sans-Serif" font-size="10.00">xup</text>
<text text-anchor="middle" x="433.5" y="-572" font-family="Helvetica,sans-Serif" font-size="10.00">ylow</text>
<text text-anchor="middle" x="433.5" y="-561" font-family="Helvetica,sans-Serif" font-size="10.00">yup</text>
</g>
<!-- Node16 -->
<g id="node16" class="node">
<title>Node16</title>
<g id="a_node16"><a xlink:href="structPlottingFramework_1_1Plot_1_1Pad_1_1candle__defaults__t.html" target="_top" xlink:title=" ">
<polygon fill="white" stroke="black" points="511,-604 511,-634 648,-634 648,-604 511,-604"/>
<text text-anchor="start" x="519" y="-622" font-family="Helvetica,sans-Serif" font-size="10.00">PlottingFramework::</text>
<text text-anchor="middle" x="579.5" y="-611" font-family="Helvetica,sans-Serif" font-size="10.00">Plot::Pad::candle_defaults_t</text>
</a>
</g>
</g>
<!-- Node4&#45;&gt;Node16 -->
<g id="edge19" class="edge">
<title>Node4&#45;&gt;Node16</title>
<path fill="none" stroke="#9a32cd" stroke-dasharray="5,2" d="M345.31,-604.75C393.67,-607.7 461.04,-611.82 510.94,-614.87"/>
<polygon fill="#9a32cd" stroke="#9a32cd" points="345.49,-601.25 335.3,-604.14 345.07,-608.24 345.49,-601.25"/>
<text text-anchor="middle" x="433.5" y="-627" font-family="Helvetica,sans-Serif" font-size="10.00"> boxRange</text>
<text text-anchor="middle" x="433.5" y="-616" font-family="Helvetica,sans-Serif" font-size="10.00">whiskerRange</text>
</g>
<!-- Node5 -->
<g id="node5" class="node">
<title>Node5</title>
<g id="a_node5"><a xlink:href="structPlottingFramework_1_1Plot_1_1Pad_1_1pad__margin__t.html" target="_top" xlink:title=" ">
<polygon fill="white" stroke="black" points="374,-448 374,-478 493,-478 493,-448 374,-448"/>
<text text-anchor="start" x="382" y="-466" font-family="Helvetica,sans-Serif" font-size="10.00">PlottingFramework::</text>
<text text-anchor="middle" x="433.5" y="-455" font-family="Helvetica,sans-Serif" font-size="10.00">Plot::Pad::pad_margin_t</text>
</a>
</g>
</g>
<!-- Node5&#45;&gt;Node1 -->
<g id="edge4" class="edge">
<title>Node5&#45;&gt;Node1</title>
<path fill="none" stroke="#9a32cd" stroke-dasharray="5,2" d="M503.5,-456.51C589.38,-447.58 730.41,-429.86 777,-406 801.46,-393.47 822.69,-369.09 834.8,-353.18"/>
<polygon fill="#9a32cd" stroke="#9a32cd" points="502.9,-453.06 493.31,-457.56 503.62,-460.02 502.9,-453.06"/>
<text text-anchor="middle" x="579.5" y="-458" font-family="Helvetica,sans-Serif" font-size="10.00"> mMargins</text>
</g>
<!-- Node6 -->
<g id="node6" class="node">
<title>Node6</title>
<g id="a_node6"><a xlink:title=" ">
<polygon fill="white" stroke="black" points="11,-443.5 11,-462.5 104,-462.5 104,-443.5 11,-443.5"/>
<text text-anchor="middle" x="57.5" y="-450.5" font-family="Helvetica,sans-Serif" font-size="10.00">optional&lt; float_t &gt;</text>
</a>
</g>
</g>
<!-- Node6&#45;&gt;Node5 -->
<g id="edge5" class="edge">
<title>Node6&#45;&gt;Node5</title>
<path fill="none" stroke="#9a32cd" stroke-dasharray="5,2" d="M114.71,-454.5C184.54,-456.37 303.08,-459.54 373.96,-461.43"/>
<polygon fill="#9a32cd" stroke="#9a32cd" points="114.45,-450.99 104.36,-454.23 114.26,-457.99 114.45,-450.99"/>
<text text-anchor="middle" x="162.5" y="-492" font-family="Helvetica,sans-Serif" font-size="10.00"> bottom</text>
<text text-anchor="middle" x="162.5" y="-481" font-family="Helvetica,sans-Serif" font-size="10.00">left</text>
<text text-anchor="middle" x="162.5" y="-470" font-family="Helvetica,sans-Serif" font-size="10.00">right</text>
<text text-anchor="middle" x="162.5" y="-459" font-family="Helvetica,sans-Serif" font-size="10.00">top</text>
</g>
<!-- Node7 -->
<g id="node7" class="node">
<title>Node7</title>
<g id="a_node7"><a xlink:href="structPlottingFramework_1_1Plot_1_1layout__t.html" target="_top" xlink:title=" ">
<polygon fill="white" stroke="black" points="231.5,-525 231.5,-555 334.5,-555 334.5,-525 231.5,-525"/>
<text text-anchor="start" x="239.5" y="-543" font-family="Helvetica,sans-Serif" font-size="10.00">PlottingFramework::</text>
<text text-anchor="middle" x="283" y="-532" font-family="Helvetica,sans-Serif" font-size="10.00">Plot::layout_t</text>
</a>
</g>
</g>
<!-- Node6&#45;&gt;Node7 -->
<g id="edge8" class="edge">
<title>Node6&#45;&gt;Node7</title>
<path fill="none" stroke="#9a32cd" stroke-dasharray="5,2" d="M73.24,-470.59C87.04,-485.78 109.06,-506.96 133,-518 163.75,-532.18 201.52,-537.64 231.34,-539.58"/>
<polygon fill="#9a32cd" stroke="#9a32cd" points="75.69,-468.08 66.46,-462.87 70.43,-472.7 75.69,-468.08"/>
<text text-anchor="middle" x="162.5" y="-538" font-family="Helvetica,sans-Serif" font-size="10.00"> scale</text>
</g>
<!-- Node9 -->
<g id="node9" class="node">
<title>Node9</title>
<g id="a_node9"><a xlink:href="structPlottingFramework_1_1Plot_1_1Pad_1_1view__defaults__t.html" target="_top" xlink:title=" ">
<polygon fill="white" stroke="black" points="515.5,-367 515.5,-397 643.5,-397 643.5,-367 515.5,-367"/>
<text text-anchor="start" x="523.5" y="-385" font-family="Helvetica,sans-Serif" font-size="10.00">PlottingFramework::</text>
<text text-anchor="middle" x="579.5" y="-374" font-family="Helvetica,sans-Serif" font-size="10.00">Plot::Pad::view_defaults_t</text>
</a>
</g>
</g>
<!-- Node6&#45;&gt;Node9 -->
<g id="edge10" class="edge">
<title>Node6&#45;&gt;Node9</title>
<path fill="none" stroke="#9a32cd" stroke-dasharray="5,2" d="M114.59,-448.54C215.1,-440.33 422.01,-422.33 493,-408 506.69,-405.24 521.32,-401.2 534.54,-397.13"/>
<polygon fill="#9a32cd" stroke="#9a32cd" points="114.02,-445.08 104.33,-449.38 114.58,-452.05 114.02,-445.08"/>
<text text-anchor="middle" x="283" y="-443" font-family="Helvetica,sans-Serif" font-size="10.00"> scale</text>
</g>
<!-- Node11 -->
<g id="node11" class="node">
<title>Node11</title>
<g id="a_node11"><a xlink:href="structPlottingFramework_1_1Plot_1_1Pad_1_1gradient__color__t.html" target="_top" xlink:title=" ">
<polygon fill="white" stroke="black" points="231.5,-307.5 231.5,-348.5 334.5,-348.5 334.5,-307.5 231.5,-307.5"/>
<text text-anchor="start" x="239.5" y="-336.5" font-family="Helvetica,sans-Serif" font-size="10.00">PlottingFramework::</text>
<text text-anchor="start" x="239.5" y="-325.5" font-family="Helvetica,sans-Serif" font-size="10.00">Plot::Pad::gradient</text>
<text text-anchor="middle" x="283" y="-314.5" font-family="Helvetica,sans-Serif" font-size="10.00">_color_t</text>
</a>
</g>
</g>
<!-- Node6&#45;&gt;Node11 -->
<g id="edge14" class="edge">
<title>Node6&#45;&gt;Node11</title>
<path fill="none" stroke="#9a32cd" stroke-dasharray="5,2" d="M80.78,-437.39C109.73,-417.49 162.23,-382.71 210,-358 216.74,-354.52 223.97,-351.12 231.16,-347.94"/>
<polygon fill="#9a32cd" stroke="#9a32cd" points="78.48,-434.72 72.25,-443.29 82.46,-440.48 78.48,-434.72"/>
<text text-anchor="middle" x="162.5" y="-405" font-family="Helvetica,sans-Serif" font-size="10.00"> alpha</text>
</g>
<!-- Node7&#45;&gt;Node1 -->
<g id="edge6" class="edge">
<title>Node7&#45;&gt;Node1</title>
<path fill="none" stroke="#9a32cd" stroke-dasharray="5,2" d="M344.93,-529.64C468.89,-508.16 741.71,-458.75 777,-434 807.01,-412.96 828.54,-374.41 838.78,-353.12"/>
<polygon fill="#9a32cd" stroke="#9a32cd" points="344.1,-526.23 334.84,-531.38 345.29,-533.13 344.1,-526.23"/>
<text text-anchor="middle" x="579.5" y="-535" font-family="Helvetica,sans-Serif" font-size="10.00"> mFill</text>
<text text-anchor="middle" x="579.5" y="-524" font-family="Helvetica,sans-Serif" font-size="10.00">mFrameBorder</text>
<text text-anchor="middle" x="579.5" y="-513" font-family="Helvetica,sans-Serif" font-size="10.00">mFrameFill</text>
<text text-anchor="middle" x="579.5" y="-502" font-family="Helvetica,sans-Serif" font-size="10.00">mText</text>
</g>
<!-- Node8 -->
<g id="node8" class="node">
<title>Node8</title>
<g id="a_node8"><a xlink:title=" ">
<polygon fill="white" stroke="black" points="9.5,-564.5 9.5,-583.5 105.5,-583.5 105.5,-564.5 9.5,-564.5"/>
<text text-anchor="middle" x="57.5" y="-571.5" font-family="Helvetica,sans-Serif" font-size="10.00">optional&lt; int16_t &gt;</text>
</a>
</g>
</g>
<!-- Node8&#45;&gt;Node7 -->
<g id="edge7" class="edge">
<title>Node8&#45;&gt;Node7</title>
<path fill="none" stroke="#9a32cd" stroke-dasharray="5,2" d="M115.89,-565.27C151.6,-559.84 197.1,-552.92 231.44,-547.69"/>
<polygon fill="#9a32cd" stroke="#9a32cd" points="114.99,-561.87 105.63,-566.83 116.04,-568.79 114.99,-561.87"/>
<text text-anchor="middle" x="162.5" y="-576" font-family="Helvetica,sans-Serif" font-size="10.00"> color</text>
<text text-anchor="middle" x="162.5" y="-565" font-family="Helvetica,sans-Serif" font-size="10.00">style</text>
</g>
<!-- Node9&#45;&gt;Node1 -->
<g id="edge9" class="edge">
<title>Node9&#45;&gt;Node1</title>
<path fill="none" stroke="#9a32cd" stroke-dasharray="5,2" d="M654.09,-371.66C691.05,-366.24 736.47,-359.23 777,-352 782.74,-350.98 788.73,-349.84 794.68,-348.68"/>
<polygon fill="#9a32cd" stroke="#9a32cd" points="653.3,-368.24 643.91,-373.14 654.31,-375.16 653.3,-368.24"/>
<text text-anchor="middle" x="721.5" y="-394" font-family="Helvetica,sans-Serif" font-size="10.00"> mFillDefaults</text>
<text text-anchor="middle" x="721.5" y="-383" font-family="Helvetica,sans-Serif" font-size="10.00">mLineDefaults</text>
<text text-anchor="middle" x="721.5" y="-372" font-family="Helvetica,sans-Serif" font-size="10.00">mMarkerDefaults</text>
</g>
<!-- Node10 -->
<g id="node10" class="node">
<title>Node10</title>
<g id="a_node10"><a xlink:title=" ">
<polygon fill="white" stroke="black" points="225.5,-367 225.5,-397 340.5,-397 340.5,-367 225.5,-367"/>
<text text-anchor="start" x="233.5" y="-385" font-family="Helvetica,sans-Serif" font-size="10.00">optional&lt; vector&lt; int16</text>
<text text-anchor="middle" x="283" y="-374" font-family="Helvetica,sans-Serif" font-size="10.00">_t &gt; &gt;</text>
</a>
</g>
</g>
<!-- Node10&#45;&gt;Node9 -->
<g id="edge11" class="edge">
<title>Node10&#45;&gt;Node9</title>
<path fill="none" stroke="#9a32cd" stroke-dasharray="5,2" d="M351.03,-382C400.32,-382 466.88,-382 515.25,-382"/>
<polygon fill="#9a32cd" stroke="#9a32cd" points="350.78,-378.5 340.78,-382 350.78,-385.5 350.78,-378.5"/>
<text text-anchor="middle" x="433.5" y="-396" font-family="Helvetica,sans-Serif" font-size="10.00"> colors</text>
<text text-anchor="middle" x="433.5" y="-385" font-family="Helvetica,sans-Serif" font-size="10.00">styles</text>
</g>
<!-- Node11&#45;&gt;Node9 -->
<g id="edge12" class="edge">
<title>Node11&#45;&gt;Node9</title>
<path fill="none" stroke="#9a32cd" stroke-dasharray="5,2" d="M344.63,-339.12C394.51,-348.26 464.95,-361.18 515.48,-370.44"/>
<polygon fill="#9a32cd" stroke="#9a32cd" points="345.09,-335.64 334.63,-337.28 343.83,-342.53 345.09,-335.64"/>
<text text-anchor="middle" x="433.5" y="-369" font-family="Helvetica,sans-Serif" font-size="10.00"> colorGradient</text>
</g>
<!-- Node12 -->
<g id="node12" class="node">
<title>Node12</title>
<g id="a_node12"><a xlink:title=" ">
<polygon fill="white" stroke="black" points="0,-325.5 0,-366.5 115,-366.5 115,-325.5 0,-325.5"/>
<text text-anchor="start" x="8" y="-354.5" font-family="Helvetica,sans-Serif" font-size="10.00">optional&lt; vector&lt; tuple</text>
<text text-anchor="start" x="8" y="-343.5" font-family="Helvetica,sans-Serif" font-size="10.00">&lt; float_t, float_t, float</text>
<text text-anchor="middle" x="57.5" y="-332.5" font-family="Helvetica,sans-Serif" font-size="10.00">_t, float_t &gt; &gt; &gt;</text>
</a>
</g>
</g>
<!-- Node12&#45;&gt;Node11 -->
<g id="edge13" class="edge">
<title>Node12&#45;&gt;Node11</title>
<path fill="none" stroke="#9a32cd" stroke-dasharray="5,2" d="M125.51,-340.6C159.51,-337.86 200.14,-334.59 231.47,-332.07"/>
<polygon fill="#9a32cd" stroke="#9a32cd" points="124.87,-337.14 115.19,-341.43 125.44,-344.12 124.87,-337.14"/>
<text text-anchor="middle" x="162.5" y="-342" font-family="Helvetica,sans-Serif" font-size="10.00"> rgbEndpoints</text>
</g>
<!-- Node13 -->
<g id="node13" class="node">
<title>Node13</title>
<g id="a_node13"><a xlink:title=" ">
<polygon fill="white" stroke="black" points="9.5,-278.5 9.5,-297.5 105.5,-297.5 105.5,-278.5 9.5,-278.5"/>
<text text-anchor="middle" x="57.5" y="-285.5" font-family="Helvetica,sans-Serif" font-size="10.00">optional&lt; int32_t &gt;</text>
</a>
</g>
</g>
<!-- Node13&#45;&gt;Node1 -->
<g id="edge20" class="edge">
<title>Node13&#45;&gt;Node1</title>
<path fill="none" stroke="#9a32cd" stroke-dasharray="5,2" d="M115.76,-288.21C175.74,-288.83 272.64,-290.97 356,-298 425.27,-303.84 441.8,-312.36 511,-319 611.46,-328.64 729.39,-333.94 794.97,-336.36"/>
<polygon fill="#9a32cd" stroke="#9a32cd" points="115.76,-284.71 105.73,-288.12 115.7,-291.71 115.76,-284.71"/>
<text text-anchor="middle" x="433.5" y="-319" font-family="Helvetica,sans-Serif" font-size="10.00"> mPalette</text>
</g>
<!-- Node13&#45;&gt;Node11 -->
<g id="edge15" class="edge">
<title>Node13&#45;&gt;Node11</title>
<path fill="none" stroke="#9a32cd" stroke-dasharray="5,2" d="M115.89,-298.27C151.6,-304.66 197.1,-312.8 231.44,-318.95"/>
<polygon fill="#9a32cd" stroke="#9a32cd" points="116.09,-294.75 105.63,-296.43 114.85,-301.64 116.09,-294.75"/>
<text text-anchor="middle" x="162.5" y="-314" font-family="Helvetica,sans-Serif" font-size="10.00"> nColors</text>
</g>
<!-- Node14 -->
<g id="node14" class="node">
<title>Node14</title>
<g id="a_node14"><a xlink:href="structPlottingFramework_1_1Plot_1_1Pad_1_1data__defaults__t.html" target="_top" xlink:title=" ">
<polygon fill="white" stroke="black" points="516,-279 516,-309 643,-309 643,-279 516,-279"/>
<text text-anchor="start" x="524" y="-297" font-family="Helvetica,sans-Serif" font-size="10.00">PlottingFramework::</text>
<text text-anchor="middle" x="579.5" y="-286" font-family="Helvetica,sans-Serif" font-size="10.00">Plot::Pad::data_defaults_t</text>
</a>
</g>
</g>
<!-- Node14&#45;&gt;Node1 -->
<g id="edge16" class="edge">
<title>Node14&#45;&gt;Node1</title>
<path fill="none" stroke="#9a32cd" stroke-dasharray="5,2" d="M653.38,-296.64C690.71,-299.1 736.67,-303.85 777,-313 787.74,-315.44 799.09,-319.11 809.4,-322.89"/>
<polygon fill="#9a32cd" stroke="#9a32cd" points="653.29,-293.13 643.09,-296.01 652.86,-300.12 653.29,-293.13"/>
<text text-anchor="middle" x="721.5" y="-316" font-family="Helvetica,sans-Serif" font-size="10.00"> mDrawingOptionDefaults</text>
</g>
<!-- Node15 -->
<g id="node15" class="node">
<title>Node15</title>
<g id="a_node15"><a xlink:title=" ">
<polygon fill="white" stroke="black" points="210,-231.5 210,-250.5 356,-250.5 356,-231.5 210,-231.5"/>
<text text-anchor="middle" x="283" y="-238.5" font-family="Helvetica,sans-Serif" font-size="10.00">optional&lt; drawing_options_t &gt;</text>
</a>
</g>
</g>
<!-- Node15&#45;&gt;Node14 -->
<g id="edge17" class="edge">
<title>Node15&#45;&gt;Node14</title>
<path fill="none" stroke="#9a32cd" stroke-dasharray="5,2" d="M342.53,-230.14C386.25,-224.92 446.25,-224.02 493,-247 504.34,-252.57 500.72,-261.66 511,-269 516.29,-272.78 522.21,-276.05 528.3,-278.87"/>
<polygon fill="#9a32cd" stroke="#9a32cd" points="341.81,-226.71 332.35,-231.47 342.72,-233.65 341.81,-226.71"/>
<text text-anchor="middle" x="433.5" y="-272" font-family="Helvetica,sans-Serif" font-size="10.00"> graph</text>
<text text-anchor="middle" x="433.5" y="-261" font-family="Helvetica,sans-Serif" font-size="10.00">hist</text>
<text text-anchor="middle" x="433.5" y="-250" font-family="Helvetica,sans-Serif" font-size="10.00">hist2d</text>
</g>
<!-- Node16&#45;&gt;Node1 -->
<g id="edge18" class="edge">
<title>Node16&#45;&gt;Node1</title>
<path fill="none" stroke="#9a32cd" stroke-dasharray="5,2" d="M658.21,-618.76C698.38,-614.61 745.47,-602.88 777,-573 841.16,-512.2 846.28,-395.06 845.95,-353.27"/>
<polygon fill="#9a32cd" stroke="#9a32cd" points="657.81,-615.28 648.16,-619.66 658.43,-622.25 657.81,-615.28"/>
<text text-anchor="middle" x="721.5" y="-620" font-family="Helvetica,sans-Serif" font-size="10.00"> mCandleOptionDefaults</text>
</g>
<!-- Node17 -->
<g id="node17" class="node">
<title>Node17</title>
<g id="a_node17"><a xlink:title=" ">
<polygon fill="white" stroke="black" points="537,-240.5 537,-259.5 622,-259.5 622,-240.5 537,-240.5"/>
<text text-anchor="middle" x="579.5" y="-247.5" font-family="Helvetica,sans-Serif" font-size="10.00">optional&lt; bool &gt;</text>
</a>
</g>
</g>
<!-- Node17&#45;&gt;Node1 -->
<g id="edge21" class="edge">
<title>Node17&#45;&gt;Node1</title>
<path fill="none" stroke="#9a32cd" stroke-dasharray="5,2" d="M632.19,-251.13C673.09,-253.72 730.81,-261.19 777,-282 798.43,-291.66 818.71,-309.77 831.56,-322.79"/>
<polygon fill="#9a32cd" stroke="#9a32cd" points="632.35,-247.64 622.18,-250.58 631.97,-254.63 632.35,-247.64"/>
<text text-anchor="middle" x="721.5" y="-285" font-family="Helvetica,sans-Serif" font-size="10.00"> mRedrawAxes</text>
</g>
<!-- Node18 -->
<g id="node18" class="node">
<title>Node18</title>
<g id="a_node18"><a xlink:title=" ">
<polygon fill="white" stroke="black" points="520,-180.5 520,-221.5 639,-221.5 639,-180.5 520,-180.5"/>
<text text-anchor="start" x="528" y="-209.5" font-family="Helvetica,sans-Serif" font-size="10.00">std::map&lt; char, Plotting</text>
<text text-anchor="start" x="528" y="-198.5" font-family="Helvetica,sans-Serif" font-size="10.00">Framework::Plot::Pad::</text>
<text text-anchor="middle" x="579.5" y="-187.5" font-family="Helvetica,sans-Serif" font-size="10.00">Axis &gt;</text>
</a>
</g>
</g>
<!-- Node18&#45;&gt;Node1 -->
<g id="edge22" class="edge">
<title>Node18&#45;&gt;Node1</title>
<path fill="none" stroke="#9a32cd" stroke-dasharray="5,2" d="M649.65,-201.67C689.67,-205.01 739.39,-214.45 777,-239 808.68,-259.68 829.8,-300.6 839.46,-322.81"/>
<polygon fill="#9a32cd" stroke="#9a32cd" points="649.67,-198.16 639.44,-200.93 649.16,-205.14 649.67,-198.16"/>
<text text-anchor="middle" x="721.5" y="-242" font-family="Helvetica,sans-Serif" font-size="10.00"> mAxes</text>
</g>
<!-- Node19 -->
<g id="node19" class="node">
<title>Node19</title>
<g id="a_node19"><a xlink:title=" ">
<polygon fill="white" stroke="black" points="518,-120.5 518,-161.5 641,-161.5 641,-120.5 518,-120.5"/>
<text text-anchor="start" x="526" y="-149.5" font-family="Helvetica,sans-Serif" font-size="10.00">std::vector&lt; shared</text>
<text text-anchor="start" x="526" y="-138.5" font-family="Helvetica,sans-Serif" font-size="10.00">_ptr&lt; PlottingFramework</text>
<text text-anchor="middle" x="579.5" y="-127.5" font-family="Helvetica,sans-Serif" font-size="10.00">::Plot::Pad::Data &gt; &gt;</text>
</a>
</g>
</g>
<!-- Node19&#45;&gt;Node1 -->
<g id="edge23" class="edge">
<title>Node19&#45;&gt;Node1</title>
<path fill="none" stroke="#9a32cd" stroke-dasharray="5,2" d="M651.31,-142.94C692.04,-147.44 741.92,-159.13 777,-188 820.11,-223.47 837.29,-291.94 843.03,-322.55"/>
<polygon fill="#9a32cd" stroke="#9a32cd" points="651.46,-139.44 641.17,-141.94 650.78,-146.4 651.46,-139.44"/>
<text text-anchor="middle" x="721.5" y="-191" font-family="Helvetica,sans-Serif" font-size="10.00"> mData</text>
</g>
<!-- Node20 -->
<g id="node20" class="node">
<title>Node20</title>
<g id="a_node20"><a xlink:title=" ">
<polygon fill="white" stroke="black" points="514.5,-60.5 514.5,-101.5 644.5,-101.5 644.5,-60.5 514.5,-60.5"/>
<text text-anchor="start" x="522.5" y="-89.5" font-family="Helvetica,sans-Serif" font-size="10.00">std::vector&lt; shared</text>
<text text-anchor="start" x="522.5" y="-78.5" font-family="Helvetica,sans-Serif" font-size="10.00">_ptr&lt; PlottingFramework</text>
<text text-anchor="middle" x="579.5" y="-67.5" font-family="Helvetica,sans-Serif" font-size="10.00">::Plot::Pad::LegendBox &gt; &gt;</text>
</a>
</g>
</g>
<!-- Node20&#45;&gt;Node1 -->
<g id="edge24" class="edge">
<title>Node20&#45;&gt;Node1</title>
<path fill="none" stroke="#9a32cd" stroke-dasharray="5,2" d="M654.77,-82.61C695.5,-87.27 744.23,-99.56 777,-130 834.11,-183.04 843.68,-284.51 845.23,-322.84"/>
<polygon fill="#9a32cd" stroke="#9a32cd" points="654.9,-79.11 644.6,-81.59 654.2,-86.07 654.9,-79.11"/>
<text text-anchor="middle" x="721.5" y="-133" font-family="Helvetica,sans-Serif" font-size="10.00"> mLegendBoxes</text>
</g>
<!-- Node21 -->
<g id="node21" class="node">
<title>Node21</title>
<g id="a_node21"><a xlink:title=" ">
<polygon fill="white" stroke="black" points="518,-0.5 518,-41.5 641,-41.5 641,-0.5 518,-0.5"/>
<text text-anchor="start" x="526" y="-29.5" font-family="Helvetica,sans-Serif" font-size="10.00">std::vector&lt; shared</text>
<text text-anchor="start" x="526" y="-18.5" font-family="Helvetica,sans-Serif" font-size="10.00">_ptr&lt; PlottingFramework</text>
<text text-anchor="middle" x="579.5" y="-7.5" font-family="Helvetica,sans-Serif" font-size="10.00">::Plot::Pad::TextBox &gt; &gt;</text>
</a>
</g>
</g>
<!-- Node21&#45;&gt;Node1 -->
<g id="edge25" class="edge">
<title>Node21&#45;&gt;Node1</title>
<path fill="none" stroke="#9a32cd" stroke-dasharray="5,2" d="M651.3,-20.95C693.12,-24.7 744.15,-36.47 777,-69 813.9,-105.54 837.21,-271.18 843.67,-322.68"/>
<polygon fill="#9a32cd" stroke="#9a32cd" points="651.4,-17.44 641.16,-20.17 650.86,-24.42 651.4,-17.44"/>
<text text-anchor="middle" x="721.5" y="-72" font-family="Helvetica,sans-Serif" font-size="10.00"> mTextBoxes</text>
</g>
</g>
</svg>
