<?xml version="1.0" encoding="UTF-8" standalone="no"?>
<!DOCTYPE svg PUBLIC "-//W3C//DTD SVG 1.1//EN"
 "http://www.w3.org/Graphics/SVG/1.1/DTD/svg11.dtd">
<!-- Generated by graphviz version 3.0.0 (20220413.0242)
 -->
<!-- Title: PlottingFramework::Plot::Pad::TextBox Pages: 1 -->
<svg width="700pt" height="187pt"
 viewBox="0.00 0.00 700.00 186.50" xmlns="http://www.w3.org/2000/svg" xmlns:xlink="http://www.w3.org/1999/xlink">
<g id="graph0" class="graph" transform="scale(1 1) rotate(0) translate(4 182.5)">
<title>PlottingFramework::Plot::Pad::TextBox</title>
<polygon fill="white" stroke="transparent" points="-4,4 -4,-182.5 696,-182.5 696,4 -4,4"/>
<!-- Node1 -->
<g id="node1" class="node">
<title>Node1</title>
<g id="a_node1"><a xlink:title="Representation of a text box.">
<polygon fill="#bfbfbf" stroke="black" points="589,-52.5 589,-82.5 692,-82.5 692,-52.5 589,-52.5"/>
<text text-anchor="start" x="597" y="-70.5" font-family="Helvetica,sans-Serif" font-size="10.00">PlottingFramework::</text>
<text text-anchor="middle" x="640.5" y="-59.5" font-family="Helvetica,sans-Serif" font-size="10.00">Plot::Pad::TextBox</text>
</a>
</g>
</g>
<!-- Node2 -->
<g id="node2" class="node">
<title>Node2</title>
<g id="a_node2"><a xlink:href="classPlottingFramework_1_1Plot_1_1Pad_1_1Box.html" target="_top" xlink:title=" ">
<polygon fill="white" stroke="black" points="395,-76.5 395,-106.5 523,-106.5 523,-76.5 395,-76.5"/>
<text text-anchor="start" x="403" y="-94.5" font-family="Helvetica,sans-Serif" font-size="10.00">PlottingFramework::</text>
<text text-anchor="middle" x="459" y="-83.5" font-family="Helvetica,sans-Serif" font-size="10.00">Plot::Pad::Box&lt; TextBox &gt;</text>
</a>
</g>
</g>
<!-- Node2&#45;&gt;Node1 -->
<g id="edge1" class="edge">
<title>Node2&#45;&gt;Node1</title>
<path fill="none" stroke="midnightblue" d="M533,-81.74C551.71,-79.24 571.43,-76.6 588.75,-74.29"/>
<polygon fill="midnightblue" stroke="midnightblue" points="532.48,-78.28 523.03,-83.07 533.41,-85.22 532.48,-78.28"/>
</g>
<!-- Node3 -->
<g id="node3" class="node">
<title>Node3</title>
<g id="a_node3"><a xlink:href="classfriend.html" target="_top" xlink:title=" ">
<polygon fill="white" stroke="black" points="237.5,-159 237.5,-178 278.5,-178 278.5,-159 237.5,-159"/>
<text text-anchor="middle" x="258" y="-166" font-family="Helvetica,sans-Serif" font-size="10.00">friend</text>
</a>
</g>
</g>
<!-- Node3&#45;&gt;Node2 -->
<g id="edge2" class="edge">
<title>Node3&#45;&gt;Node2</title>
<path fill="none" stroke="#9a32cd" stroke-dasharray="5,2" d="M288.32,-159.78C298.14,-156.72 309.1,-153.12 319,-149.5 355.46,-136.15 396.4,-118.77 424.34,-106.53"/>
<polygon fill="#9a32cd" stroke="#9a32cd" points="287.13,-156.49 278.6,-162.77 289.19,-163.18 287.13,-156.49"/>
<text text-anchor="middle" x="357" y="-144.5" font-family="Helvetica,sans-Serif" font-size="10.00"> BoxType</text>
</g>
<!-- Node4 -->
<g id="node4" class="node">
<title>Node4</title>
<g id="a_node4"><a xlink:href="structPlottingFramework_1_1Plot_1_1Pad_1_1Box_1_1position__t.html" target="_top" xlink:title=" ">
<polygon fill="white" stroke="black" points="197,-99 197,-140 319,-140 319,-99 197,-99"/>
<text text-anchor="start" x="205" y="-128" font-family="Helvetica,sans-Serif" font-size="10.00">PlottingFramework::</text>
<text text-anchor="start" x="205" y="-117" font-family="Helvetica,sans-Serif" font-size="10.00">Plot::Pad::Box&lt; BoxType</text>
<text text-anchor="middle" x="258" y="-106" font-family="Helvetica,sans-Serif" font-size="10.00"> &gt;::position_t</text>
</a>
</g>
</g>
<!-- Node4&#45;&gt;Node2 -->
<g id="edge3" class="edge">
<title>Node4&#45;&gt;Node2</title>
<path fill="none" stroke="#9a32cd" stroke-dasharray="5,2" d="M329.24,-109.62C350.62,-106.61 373.97,-103.32 394.85,-100.39"/>
<polygon fill="#9a32cd" stroke="#9a32cd" points="328.66,-106.16 319.25,-111.02 329.64,-113.1 328.66,-106.16"/>
<text text-anchor="middle" x="357" y="-110.5" font-family="Helvetica,sans-Serif" font-size="10.00"> mPos</text>
</g>
<!-- Node5 -->
<g id="node5" class="node">
<title>Node5</title>
<g id="a_node5"><a xlink:title=" ">
<polygon fill="white" stroke="black" points="0,-145 0,-164 104,-164 104,-145 0,-145"/>
<text text-anchor="middle" x="52" y="-152" font-family="Helvetica,sans-Serif" font-size="10.00">optional&lt; double_t &gt;</text>
</a>
</g>
</g>
<!-- Node5&#45;&gt;Node4 -->
<g id="edge4" class="edge">
<title>Node5&#45;&gt;Node4</title>
<path fill="none" stroke="#9a32cd" stroke-dasharray="5,2" d="M114.35,-143.97C140.43,-139.5 170.74,-134.3 196.7,-129.85"/>
<polygon fill="#9a32cd" stroke="#9a32cd" points="113.48,-140.57 104.21,-145.71 114.66,-147.47 113.48,-140.57"/>
<text text-anchor="middle" x="150.5" y="-155.5" font-family="Helvetica,sans-Serif" font-size="10.00"> x</text>
<text text-anchor="middle" x="150.5" y="-144.5" font-family="Helvetica,sans-Serif" font-size="10.00">y</text>
</g>
<!-- Node6 -->
<g id="node6" class="node">
<title>Node6</title>
<g id="a_node6"><a xlink:title=" ">
<polygon fill="white" stroke="black" points="9.5,-107 9.5,-126 94.5,-126 94.5,-107 9.5,-107"/>
<text text-anchor="middle" x="52" y="-114" font-family="Helvetica,sans-Serif" font-size="10.00">optional&lt; bool &gt;</text>
</a>
</g>
</g>
<!-- Node6&#45;&gt;Node4 -->
<g id="edge5" class="edge">
<title>Node6&#45;&gt;Node4</title>
<path fill="none" stroke="#9a32cd" stroke-dasharray="5,2" d="M105.13,-117.27C133.07,-117.68 167.62,-118.19 196.71,-118.61"/>
<polygon fill="#9a32cd" stroke="#9a32cd" points="104.83,-113.76 94.77,-117.11 104.72,-120.76 104.83,-113.76"/>
<text text-anchor="middle" x="150.5" y="-120.5" font-family="Helvetica,sans-Serif" font-size="10.00"> isUserCoord</text>
</g>
<!-- Node7 -->
<g id="node7" class="node">
<title>Node7</title>
<g id="a_node7"><a xlink:href="structPlottingFramework_1_1Plot_1_1layout__t.html" target="_top" xlink:title=" ">
<polygon fill="white" stroke="black" points="206.5,-49.5 206.5,-79.5 309.5,-79.5 309.5,-49.5 206.5,-49.5"/>
<text text-anchor="start" x="214.5" y="-67.5" font-family="Helvetica,sans-Serif" font-size="10.00">PlottingFramework::</text>
<text text-anchor="middle" x="258" y="-56.5" font-family="Helvetica,sans-Serif" font-size="10.00">Plot::layout_t</text>
</a>
</g>
</g>
<!-- Node7&#45;&gt;Node2 -->
<g id="edge6" class="edge">
<title>Node7&#45;&gt;Node2</title>
<path fill="none" stroke="#9a32cd" stroke-dasharray="5,2" d="M319.6,-60.78C338.13,-60.64 358.49,-61.5 377,-64.5 391.78,-66.9 407.5,-71.61 421.13,-76.43"/>
<polygon fill="#9a32cd" stroke="#9a32cd" points="319.47,-57.28 309.53,-60.95 319.59,-64.28 319.47,-57.28"/>
<text text-anchor="middle" x="357" y="-89.5" font-family="Helvetica,sans-Serif" font-size="10.00"> mBorder</text>
<text text-anchor="middle" x="357" y="-78.5" font-family="Helvetica,sans-Serif" font-size="10.00">mFill</text>
<text text-anchor="middle" x="357" y="-67.5" font-family="Helvetica,sans-Serif" font-size="10.00">mText</text>
</g>
<!-- Node8 -->
<g id="node8" class="node">
<title>Node8</title>
<g id="a_node8"><a xlink:title=" ">
<polygon fill="white" stroke="black" points="4,-57 4,-76 100,-76 100,-57 4,-57"/>
<text text-anchor="middle" x="52" y="-64" font-family="Helvetica,sans-Serif" font-size="10.00">optional&lt; int16_t &gt;</text>
</a>
</g>
</g>
<!-- Node8&#45;&gt;Node7 -->
<g id="edge7" class="edge">
<title>Node8&#45;&gt;Node7</title>
<path fill="none" stroke="#9a32cd" stroke-dasharray="5,2" d="M110.43,-65.94C140.56,-65.64 177.16,-65.28 206.25,-65"/>
<polygon fill="#9a32cd" stroke="#9a32cd" points="110.02,-62.44 100.06,-66.04 110.09,-69.44 110.02,-62.44"/>
<text text-anchor="middle" x="150.5" y="-79.5" font-family="Helvetica,sans-Serif" font-size="10.00"> color</text>
<text text-anchor="middle" x="150.5" y="-68.5" font-family="Helvetica,sans-Serif" font-size="10.00">style</text>
</g>
<!-- Node9 -->
<g id="node9" class="node">
<title>Node9</title>
<g id="a_node9"><a xlink:title=" ">
<polygon fill="white" stroke="black" points="5.5,-19 5.5,-38 98.5,-38 98.5,-19 5.5,-19"/>
<text text-anchor="middle" x="52" y="-26" font-family="Helvetica,sans-Serif" font-size="10.00">optional&lt; float_t &gt;</text>
</a>
</g>
</g>
<!-- Node9&#45;&gt;Node7 -->
<g id="edge8" class="edge">
<title>Node9&#45;&gt;Node7</title>
<path fill="none" stroke="#9a32cd" stroke-dasharray="5,2" d="M108.68,-37.47C130.61,-41.09 156.01,-45.37 179,-49.5 187.82,-51.08 197.19,-52.83 206.27,-54.55"/>
<polygon fill="#9a32cd" stroke="#9a32cd" points="108.97,-33.98 98.54,-35.81 107.84,-40.88 108.97,-33.98"/>
<text text-anchor="middle" x="150.5" y="-52.5" font-family="Helvetica,sans-Serif" font-size="10.00"> scale</text>
</g>
<!-- Node10 -->
<g id="node10" class="node">
<title>Node10</title>
<g id="a_node10"><a xlink:title=" ">
<polygon fill="white" stroke="black" points="429.5,-36 429.5,-55 488.5,-55 488.5,-36 429.5,-36"/>
<text text-anchor="middle" x="459" y="-43" font-family="Helvetica,sans-Serif" font-size="10.00">std::string</text>
</a>
</g>
</g>
<!-- Node10&#45;&gt;Node1 -->
<g id="edge9" class="edge">
<title>Node10&#45;&gt;Node1</title>
<path fill="none" stroke="#9a32cd" stroke-dasharray="5,2" d="M498.85,-50.26C525.25,-53.5 560.42,-57.81 588.99,-61.31"/>
<polygon fill="#9a32cd" stroke="#9a32cd" points="499.19,-46.78 488.84,-49.03 498.34,-53.73 499.19,-46.78"/>
<text text-anchor="middle" x="556" y="-60.5" font-family="Helvetica,sans-Serif" font-size="10.00"> mText</text>
</g>
<!-- Node11 -->
<g id="node11" class="node">
<title>Node11</title>
<g id="a_node11"><a xlink:title=" ">
<polygon fill="white" stroke="black" points="211.5,-0.5 211.5,-30.5 304.5,-30.5 304.5,-0.5 211.5,-0.5"/>
<text text-anchor="start" x="219.5" y="-18.5" font-family="Helvetica,sans-Serif" font-size="10.00">std::basic_string&lt;</text>
<text text-anchor="middle" x="258" y="-7.5" font-family="Helvetica,sans-Serif" font-size="10.00"> char &gt;</text>
</a>
</g>
</g>
<!-- Node11&#45;&gt;Node10 -->
<g id="edge10" class="edge">
<title>Node11&#45;&gt;Node10</title>
<path fill="none" stroke="midnightblue" d="M314.88,-23.92C352.18,-29.55 399.68,-36.71 429.47,-41.2"/>
<polygon fill="midnightblue" stroke="midnightblue" points="315.06,-20.41 304.65,-22.38 314.02,-27.33 315.06,-20.41"/>
</g>
</g>
</svg>
