<?xml version="1.0" encoding="UTF-8" standalone="no"?>
<!DOCTYPE svg PUBLIC "-//W3C//DTD SVG 1.1//EN"
 "http://www.w3.org/Graphics/SVG/1.1/DTD/svg11.dtd">
<!-- Generated by graphviz version 3.0.0 (20220413.0242)
 -->
<!-- Title: /github/workspace/src/Helpers.cxx Pages: 1 -->
<svg width="574pt" height="218pt"
 viewBox="0.00 0.00 573.50 218.00" xmlns="http://www.w3.org/2000/svg" xmlns:xlink="http://www.w3.org/1999/xlink">
<g id="graph0" class="graph" transform="scale(1 1) rotate(0) translate(4 214)">
<title>/github/workspace/src/Helpers.cxx</title>
<polygon fill="white" stroke="transparent" points="-4,4 -4,-214 569.5,-214 569.5,4 -4,4"/>
<!-- Node1 -->
<g id="node1" class="node">
<title>Node1</title>
<g id="a_node1"><a xlink:title=" ">
<polygon fill="#bfbfbf" stroke="black" points="260.5,-179.5 260.5,-209.5 373.5,-209.5 373.5,-179.5 260.5,-179.5"/>
<text text-anchor="start" x="268.5" y="-197.5" font-family="Helvetica,sans-Serif" font-size="10.00">/github/workspace/src</text>
<text text-anchor="middle" x="317" y="-186.5" font-family="Helvetica,sans-Serif" font-size="10.00">/Helpers.cxx</text>
</a>
</g>
</g>
<!-- Node2 -->
<g id="node2" class="node">
<title>Node2</title>
<g id="a_node2"><a xlink:href="Helpers_8h.html" target="_top" xlink:title=" ">
<polygon fill="white" stroke="black" points="250,-123.5 250,-142.5 308,-142.5 308,-123.5 250,-123.5"/>
<text text-anchor="middle" x="279" y="-130.5" font-family="Helvetica,sans-Serif" font-size="10.00">Helpers.h</text>
</a>
</g>
</g>
<!-- Node1&#45;&gt;Node2 -->
<g id="edge1" class="edge">
<title>Node1&#45;&gt;Node2</title>
<path fill="none" stroke="midnightblue" d="M307.99,-179.4C302.59,-170.93 295.67,-160.1 289.95,-151.14"/>
<polygon fill="midnightblue" stroke="midnightblue" points="292.86,-149.2 284.53,-142.66 286.96,-152.97 292.86,-149.2"/>
</g>
<!-- Node13 -->
<g id="node13" class="node">
<title>Node13</title>
<g id="a_node13"><a xlink:title=" ">
<polygon fill="white" stroke="#bfbfbf" points="326.5,-123.5 326.5,-142.5 385.5,-142.5 385.5,-123.5 326.5,-123.5"/>
<text text-anchor="middle" x="356" y="-130.5" font-family="Helvetica,sans-Serif" font-size="10.00">sys/stat.h</text>
</a>
</g>
</g>
<!-- Node1&#45;&gt;Node13 -->
<g id="edge12" class="edge">
<title>Node1&#45;&gt;Node13</title>
<path fill="none" stroke="midnightblue" d="M326.24,-179.4C331.79,-170.93 338.89,-160.1 344.77,-151.14"/>
<polygon fill="midnightblue" stroke="midnightblue" points="347.77,-152.94 350.33,-142.66 341.92,-149.1 347.77,-152.94"/>
</g>
<!-- Node3 -->
<g id="node3" class="node">
<title>Node3</title>
<g id="a_node3"><a xlink:href="PlottingFramework_8h.html" target="_top" xlink:title=" ">
<polygon fill="white" stroke="black" points="175,-67.5 175,-86.5 281,-86.5 281,-67.5 175,-67.5"/>
<text text-anchor="middle" x="228" y="-74.5" font-family="Helvetica,sans-Serif" font-size="10.00">PlottingFramework.h</text>
</a>
</g>
</g>
<!-- Node2&#45;&gt;Node3 -->
<g id="edge2" class="edge">
<title>Node2&#45;&gt;Node3</title>
<path fill="none" stroke="midnightblue" d="M270.58,-123.08C263.15,-115.22 252.15,-103.57 243.19,-94.08"/>
<polygon fill="midnightblue" stroke="midnightblue" points="245.68,-91.62 236.26,-86.75 240.59,-96.42 245.68,-91.62"/>
</g>
<!-- Node12 -->
<g id="node12" class="node">
<title>Node12</title>
<g id="a_node12"><a xlink:title=" ">
<polygon fill="white" stroke="#bfbfbf" points="299.5,-67.5 299.5,-86.5 362.5,-86.5 362.5,-67.5 299.5,-67.5"/>
<text text-anchor="middle" x="331" y="-74.5" font-family="Helvetica,sans-Serif" font-size="10.00">TSystem.h</text>
</a>
</g>
</g>
<!-- Node2&#45;&gt;Node12 -->
<g id="edge11" class="edge">
<title>Node2&#45;&gt;Node12</title>
<path fill="none" stroke="midnightblue" d="M287.59,-123.08C295.16,-115.22 306.38,-103.57 315.51,-94.08"/>
<polygon fill="midnightblue" stroke="midnightblue" points="318.16,-96.38 322.57,-86.75 313.12,-91.53 318.16,-96.38"/>
</g>
<!-- Node4 -->
<g id="node4" class="node">
<title>Node4</title>
<g id="a_node4"><a xlink:title=" ">
<polygon fill="white" stroke="#bfbfbf" points="0,-6 0,-25 54,-25 54,-6 0,-6"/>
<text text-anchor="middle" x="27" y="-13" font-family="Helvetica,sans-Serif" font-size="10.00">iostream</text>
</a>
</g>
</g>
<!-- Node3&#45;&gt;Node4 -->
<g id="edge3" class="edge">
<title>Node3&#45;&gt;Node4</title>
<path fill="none" stroke="midnightblue" d="M191.91,-67.45C158.24,-59.16 106.76,-45.72 63,-31 60.87,-30.28 58.69,-29.51 56.5,-28.7"/>
<polygon fill="midnightblue" stroke="midnightblue" points="57.62,-25.38 47.03,-25.05 55.1,-31.91 57.62,-25.38"/>
</g>
<!-- Node5 -->
<g id="node5" class="node">
<title>Node5</title>
<g id="a_node5"><a xlink:title=" ">
<polygon fill="white" stroke="#bfbfbf" points="72.5,-6 72.5,-25 107.5,-25 107.5,-6 72.5,-6"/>
<text text-anchor="middle" x="90" y="-13" font-family="Helvetica,sans-Serif" font-size="10.00">map</text>
</a>
</g>
</g>
<!-- Node3&#45;&gt;Node5 -->
<g id="edge4" class="edge">
<title>Node3&#45;&gt;Node5</title>
<path fill="none" stroke="midnightblue" d="M204.73,-67.4C182.05,-58.83 146.74,-44.96 117,-31 116.16,-30.6 115.3,-30.19 114.44,-29.78"/>
<polygon fill="midnightblue" stroke="midnightblue" points="115.77,-26.52 105.27,-25.07 112.57,-32.75 115.77,-26.52"/>
</g>
<!-- Node6 -->
<g id="node6" class="node">
<title>Node6</title>
<g id="a_node6"><a xlink:title=" ">
<polygon fill="white" stroke="#bfbfbf" points="126,-6 126,-25 156,-25 156,-6 126,-6"/>
<text text-anchor="middle" x="141" y="-13" font-family="Helvetica,sans-Serif" font-size="10.00">set</text>
</a>
</g>
</g>
<!-- Node3&#45;&gt;Node6 -->
<g id="edge5" class="edge">
<title>Node3&#45;&gt;Node6</title>
<path fill="none" stroke="midnightblue" d="M215.54,-67.48C201.58,-57.93 178.74,-42.31 162.01,-30.87"/>
<polygon fill="midnightblue" stroke="midnightblue" points="163.67,-27.77 153.44,-25.01 159.72,-33.54 163.67,-27.77"/>
</g>
<!-- Node7 -->
<g id="node7" class="node">
<title>Node7</title>
<g id="a_node7"><a xlink:title=" ">
<polygon fill="white" stroke="#bfbfbf" points="174,-6 174,-25 220,-25 220,-6 174,-6"/>
<text text-anchor="middle" x="197" y="-13" font-family="Helvetica,sans-Serif" font-size="10.00">variant</text>
</a>
</g>
</g>
<!-- Node3&#45;&gt;Node7 -->
<g id="edge6" class="edge">
<title>Node3&#45;&gt;Node7</title>
<path fill="none" stroke="midnightblue" d="M223.56,-67.48C219.05,-58.82 211.93,-45.15 206.19,-34.15"/>
<polygon fill="midnightblue" stroke="midnightblue" points="209.16,-32.26 201.43,-25.01 202.95,-35.49 209.16,-32.26"/>
</g>
<!-- Node8 -->
<g id="node8" class="node">
<title>Node8</title>
<g id="a_node8"><a xlink:title=" ">
<polygon fill="white" stroke="#bfbfbf" points="238,-6 238,-25 282,-25 282,-6 238,-6"/>
<text text-anchor="middle" x="260" y="-13" font-family="Helvetica,sans-Serif" font-size="10.00">cmath</text>
</a>
</g>
</g>
<!-- Node3&#45;&gt;Node8 -->
<g id="edge7" class="edge">
<title>Node3&#45;&gt;Node8</title>
<path fill="none" stroke="midnightblue" d="M232.58,-67.48C237.24,-58.82 244.59,-45.15 250.51,-34.15"/>
<polygon fill="midnightblue" stroke="midnightblue" points="253.77,-35.47 255.42,-25.01 247.6,-32.16 253.77,-35.47"/>
</g>
<!-- Node9 -->
<g id="node9" class="node">
<title>Node9</title>
<g id="a_node9"><a xlink:title=" ">
<polygon fill="white" stroke="#bfbfbf" points="300,-6 300,-25 346,-25 346,-6 300,-6"/>
<text text-anchor="middle" x="323" y="-13" font-family="Helvetica,sans-Serif" font-size="10.00">cstdint</text>
</a>
</g>
</g>
<!-- Node3&#45;&gt;Node9 -->
<g id="edge8" class="edge">
<title>Node3&#45;&gt;Node9</title>
<path fill="none" stroke="midnightblue" d="M241.61,-67.48C257.06,-57.8 282.49,-41.87 300.82,-30.39"/>
<polygon fill="midnightblue" stroke="midnightblue" points="302.8,-33.28 309.41,-25.01 299.08,-27.35 302.8,-33.28"/>
</g>
<!-- Node10 -->
<g id="node10" class="node">
<title>Node10</title>
<g id="a_node10"><a xlink:title=" ">
<polygon fill="white" stroke="#bfbfbf" points="364,-0.5 364,-30.5 464,-30.5 464,-0.5 364,-0.5"/>
<text text-anchor="start" x="372" y="-18.5" font-family="Helvetica,sans-Serif" font-size="10.00">boost/property_tree</text>
<text text-anchor="middle" x="414" y="-7.5" font-family="Helvetica,sans-Serif" font-size="10.00">/ptree.hpp</text>
</a>
</g>
</g>
<!-- Node3&#45;&gt;Node10 -->
<g id="edge9" class="edge">
<title>Node3&#45;&gt;Node10</title>
<path fill="none" stroke="midnightblue" d="M254.65,-67.48C282.19,-58.66 325.94,-44.67 360.64,-33.57"/>
<polygon fill="midnightblue" stroke="midnightblue" points="361.71,-36.9 370.16,-30.52 359.57,-30.24 361.71,-36.9"/>
</g>
<!-- Node11 -->
<g id="node11" class="node">
<title>Node11</title>
<g id="a_node11"><a xlink:title=" ">
<polygon fill="white" stroke="#bfbfbf" points="482.5,-6 482.5,-25 565.5,-25 565.5,-6 482.5,-6"/>
<text text-anchor="middle" x="524" y="-13" font-family="Helvetica,sans-Serif" font-size="10.00">unordered_map</text>
</a>
</g>
</g>
<!-- Node3&#45;&gt;Node11 -->
<g id="edge10" class="edge">
<title>Node3&#45;&gt;Node11</title>
<path fill="none" stroke="midnightblue" d="M281.35,-67.71C331.19,-59.61 407.51,-46.29 473,-31 477.19,-30.02 481.54,-28.92 485.86,-27.77"/>
<polygon fill="midnightblue" stroke="midnightblue" points="487.09,-31.06 495.8,-25.04 485.23,-24.31 487.09,-31.06"/>
</g>
</g>
</svg>
