<?xml version="1.0" encoding="UTF-8" standalone="no"?>
<!DOCTYPE svg PUBLIC "-//W3C//DTD SVG 1.1//EN"
 "http://www.w3.org/Graphics/SVG/1.1/DTD/svg11.dtd">
<!-- Generated by graphviz version 3.0.0 (20220413.0242)
 -->
<!-- Title: Graphical Class Hierarchy Pages: 1 -->
<svg width="232pt" height="88pt"
 viewBox="0.00 0.00 232.00 88.00" xmlns="http://www.w3.org/2000/svg" xmlns:xlink="http://www.w3.org/1999/xlink">
<g id="graph0" class="graph" transform="scale(1 1) rotate(0) translate(4 84)">
<title>Graphical Class Hierarchy</title>
<polygon fill="white" stroke="transparent" points="-4,4 -4,-84 228,-84 228,4 -4,4"/>
<!-- Node0 -->
<g id="node1" class="node">
<title>Node0</title>
<g id="a_node1"><a xlink:title=" ">
<polygon fill="white" stroke="#bfbfbf" points="0,-30 0,-49 79,-49 79,-30 0,-30"/>
<text text-anchor="middle" x="39.5" y="-37" font-family="Helvetica,sans-Serif" font-size="10.00">std::false_type</text>
</a>
</g>
</g>
<!-- Node1 -->
<g id="node2" class="node">
<title>Node1</title>
<g id="a_node2"><a xlink:href="structPlottingFramework_1_1is__tuple.html" target="_top" xlink:title=" ">
<polygon fill="white" stroke="black" points="115,-49.5 115,-79.5 224,-79.5 224,-49.5 115,-49.5"/>
<text text-anchor="start" x="123" y="-67.5" font-family="Helvetica,sans-Serif" font-size="10.00">PlottingFramework::</text>
<text text-anchor="middle" x="169.5" y="-56.5" font-family="Helvetica,sans-Serif" font-size="10.00">is_tuple&lt; typename &gt;</text>
</a>
</g>
</g>
<!-- Node0&#45;&gt;Node1 -->
<g id="edge1" class="edge">
<title>Node0&#45;&gt;Node1</title>
<path fill="none" stroke="midnightblue" d="M89.22,-49.01C97.57,-50.65 106.29,-52.35 114.77,-54.01"/>
<polygon fill="midnightblue" stroke="midnightblue" points="89.74,-45.55 79.25,-47.07 88.4,-52.42 89.74,-45.55"/>
</g>
<!-- Node2 -->
<g id="node3" class="node">
<title>Node2</title>
<g id="a_node3"><a xlink:href="structPlottingFramework_1_1is__vector.html" target="_top" xlink:title=" ">
<polygon fill="white" stroke="black" points="118,-0.5 118,-30.5 221,-30.5 221,-0.5 118,-0.5"/>
<text text-anchor="start" x="126" y="-18.5" font-family="Helvetica,sans-Serif" font-size="10.00">PlottingFramework::</text>
<text text-anchor="middle" x="169.5" y="-7.5" font-family="Helvetica,sans-Serif" font-size="10.00">is_vector&lt; T &gt;</text>
</a>
</g>
</g>
<!-- Node0&#45;&gt;Node2 -->
<g id="edge2" class="edge">
<title>Node0&#45;&gt;Node2</title>
<path fill="none" stroke="midnightblue" d="M89.13,-30.38C98.44,-28.64 108.2,-26.81 117.58,-25.05"/>
<polygon fill="midnightblue" stroke="midnightblue" points="88.44,-26.95 79.25,-32.23 89.73,-33.83 88.44,-26.95"/>
</g>
</g>
</svg>
