<?xml version="1.0" encoding="UTF-8" standalone="no"?>
<!DOCTYPE svg PUBLIC "-//W3C//DTD SVG 1.1//EN"
 "http://www.w3.org/Graphics/SVG/1.1/DTD/svg11.dtd">
<!-- Generated by graphviz version 3.0.0 (20220413.0242)
 -->
<!-- Title: Graphical Class Hierarchy Pages: 1 -->
<svg width="295pt" height="39pt"
 viewBox="0.00 0.00 295.00 39.00" xmlns="http://www.w3.org/2000/svg" xmlns:xlink="http://www.w3.org/1999/xlink">
<g id="graph0" class="graph" transform="scale(1 1) rotate(0) translate(4 35)">
<title>Graphical Class Hierarchy</title>
<polygon fill="white" stroke="transparent" points="-4,4 -4,-35 291,-35 291,4 -4,4"/>
<!-- Node0 -->
<g id="node1" class="node">
<title>Node0</title>
<g id="a_node1"><a xlink:href="classPlottingFramework_1_1Plot_1_1Pad_1_1Box.html" target="_top" xlink:title=" ">
<polygon fill="white" stroke="black" points="0,-0.5 0,-30.5 142,-30.5 142,-0.5 0,-0.5"/>
<text text-anchor="start" x="8" y="-18.5" font-family="Helvetica,sans-Serif" font-size="10.00">PlottingFramework::</text>
<text text-anchor="middle" x="71" y="-7.5" font-family="Helvetica,sans-Serif" font-size="10.00">Plot::Pad::Box&lt; LegendBox &gt;</text>
</a>
</g>
</g>
<!-- Node1 -->
<g id="node2" class="node">
<title>Node1</title>
<g id="a_node2"><a xlink:href="classPlottingFramework_1_1Plot_1_1Pad_1_1LegendBox.html" target="_top" xlink:title="Representation of a legend box.">
<polygon fill="white" stroke="black" points="178,-0.5 178,-30.5 287,-30.5 287,-0.5 178,-0.5"/>
<text text-anchor="start" x="186" y="-18.5" font-family="Helvetica,sans-Serif" font-size="10.00">PlottingFramework::</text>
<text text-anchor="middle" x="232.5" y="-7.5" font-family="Helvetica,sans-Serif" font-size="10.00">Plot::Pad::LegendBox</text>
</a>
</g>
</g>
<!-- Node0&#45;&gt;Node1 -->
<g id="edge1" class="edge">
<title>Node0&#45;&gt;Node1</title>
<path fill="none" stroke="midnightblue" d="M152.46,-15.5C161.03,-15.5 169.59,-15.5 177.74,-15.5"/>
<polygon fill="midnightblue" stroke="midnightblue" points="152.42,-12 142.42,-15.5 152.42,-19 152.42,-12"/>
</g>
</g>
</svg>
