<?xml version="1.0" encoding="UTF-8" standalone="no"?>
<!DOCTYPE svg PUBLIC "-//W3C//DTD SVG 1.1//EN"
 "http://www.w3.org/Graphics/SVG/1.1/DTD/svg11.dtd">
<!-- Generated by graphviz version 3.0.0 (20220413.0242)
 -->
<!-- Title: /github/workspace/src/Plot.cxx Pages: 1 -->
<svg width="793pt" height="218pt"
 viewBox="0.00 0.00 793.00 218.00" xmlns="http://www.w3.org/2000/svg" xmlns:xlink="http://www.w3.org/1999/xlink">
<g id="graph0" class="graph" transform="scale(1 1) rotate(0) translate(4 214)">
<title>/github/workspace/src/Plot.cxx</title>
<polygon fill="white" stroke="transparent" points="-4,4 -4,-214 789,-214 789,4 -4,4"/>
<!-- Node1 -->
<g id="node1" class="node">
<title>Node1</title>
<g id="a_node1"><a xlink:title=" ">
<polygon fill="#bfbfbf" stroke="black" points="418,-179.5 418,-209.5 531,-209.5 531,-179.5 418,-179.5"/>
<text text-anchor="start" x="426" y="-197.5" font-family="Helvetica,sans-Serif" font-size="10.00">/github/workspace/src</text>
<text text-anchor="middle" x="474.5" y="-186.5" font-family="Helvetica,sans-Serif" font-size="10.00">/Plot.cxx</text>
</a>
</g>
</g>
<!-- Node2 -->
<g id="node2" class="node">
<title>Node2</title>
<g id="a_node2"><a xlink:href="Plot_8h.html" target="_top" xlink:title=" ">
<polygon fill="white" stroke="black" points="255,-123.5 255,-142.5 296,-142.5 296,-123.5 255,-123.5"/>
<text text-anchor="middle" x="275.5" y="-130.5" font-family="Helvetica,sans-Serif" font-size="10.00">Plot.h</text>
</a>
</g>
</g>
<!-- Node1&#45;&gt;Node2 -->
<g id="edge1" class="edge">
<title>Node1&#45;&gt;Node2</title>
<path fill="none" stroke="midnightblue" d="M427.59,-179.47C389.95,-168.22 338.23,-152.75 305.84,-143.07"/>
<polygon fill="midnightblue" stroke="midnightblue" points="306.63,-139.65 296.05,-140.14 304.63,-146.36 306.63,-139.65"/>
</g>
<!-- Node17 -->
<g id="node17" class="node">
<title>Node17</title>
<g id="a_node17"><a xlink:href="Helpers_8h.html" target="_top" xlink:title=" ">
<polygon fill="white" stroke="black" points="445.5,-123.5 445.5,-142.5 503.5,-142.5 503.5,-123.5 445.5,-123.5"/>
<text text-anchor="middle" x="474.5" y="-130.5" font-family="Helvetica,sans-Serif" font-size="10.00">Helpers.h</text>
</a>
</g>
</g>
<!-- Node1&#45;&gt;Node17 -->
<g id="edge16" class="edge">
<title>Node1&#45;&gt;Node17</title>
<path fill="none" stroke="midnightblue" d="M474.5,-179.4C474.5,-171.47 474.5,-161.46 474.5,-152.86"/>
<polygon fill="midnightblue" stroke="midnightblue" points="478,-152.66 474.5,-142.66 471,-152.66 478,-152.66"/>
</g>
<!-- Node19 -->
<g id="node19" class="node">
<title>Node19</title>
<g id="a_node19"><a xlink:href="Logging_8h.html" target="_top" xlink:title=" ">
<polygon fill="white" stroke="black" points="575,-123.5 575,-142.5 634,-142.5 634,-123.5 575,-123.5"/>
<text text-anchor="middle" x="604.5" y="-130.5" font-family="Helvetica,sans-Serif" font-size="10.00">Logging.h</text>
</a>
</g>
</g>
<!-- Node1&#45;&gt;Node19 -->
<g id="edge19" class="edge">
<title>Node1&#45;&gt;Node19</title>
<path fill="none" stroke="midnightblue" d="M505.31,-179.4C526.83,-169.55 555.34,-156.5 576.27,-146.92"/>
<polygon fill="midnightblue" stroke="midnightblue" points="577.95,-150 585.58,-142.66 575.03,-143.64 577.95,-150"/>
</g>
<!-- Node3 -->
<g id="node3" class="node">
<title>Node3</title>
<g id="a_node3"><a xlink:title=" ">
<polygon fill="white" stroke="#bfbfbf" points="0,-67.5 0,-86.5 73,-86.5 73,-67.5 0,-67.5"/>
<text text-anchor="middle" x="36.5" y="-74.5" font-family="Helvetica,sans-Serif" font-size="10.00">TAttMarker.h</text>
</a>
</g>
</g>
<!-- Node2&#45;&gt;Node3 -->
<g id="edge2" class="edge">
<title>Node2&#45;&gt;Node3</title>
<path fill="none" stroke="midnightblue" d="M254.71,-127.3C216.7,-118.71 135.14,-100.29 83.21,-88.55"/>
<polygon fill="midnightblue" stroke="midnightblue" points="83.76,-85.09 73.24,-86.3 82.22,-91.92 83.76,-85.09"/>
</g>
<!-- Node4 -->
<g id="node4" class="node">
<title>Node4</title>
<g id="a_node4"><a xlink:title=" ">
<polygon fill="white" stroke="#bfbfbf" points="91.5,-67.5 91.5,-86.5 153.5,-86.5 153.5,-67.5 91.5,-67.5"/>
<text text-anchor="middle" x="122.5" y="-74.5" font-family="Helvetica,sans-Serif" font-size="10.00">TAttLine.h</text>
</a>
</g>
</g>
<!-- Node2&#45;&gt;Node4 -->
<g id="edge3" class="edge">
<title>Node2&#45;&gt;Node4</title>
<path fill="none" stroke="midnightblue" d="M254.87,-124.72C229.66,-115.82 186.65,-100.64 156.52,-90.01"/>
<polygon fill="midnightblue" stroke="midnightblue" points="157.43,-86.62 146.84,-86.59 155.1,-93.22 157.43,-86.62"/>
</g>
<!-- Node5 -->
<g id="node5" class="node">
<title>Node5</title>
<g id="a_node5"><a xlink:title=" ">
<polygon fill="white" stroke="#bfbfbf" points="171.5,-67.5 171.5,-86.5 227.5,-86.5 227.5,-67.5 171.5,-67.5"/>
<text text-anchor="middle" x="199.5" y="-74.5" font-family="Helvetica,sans-Serif" font-size="10.00">TAttFill.h</text>
</a>
</g>
</g>
<!-- Node2&#45;&gt;Node5 -->
<g id="edge4" class="edge">
<title>Node2&#45;&gt;Node5</title>
<path fill="none" stroke="midnightblue" d="M263.29,-123.32C251.72,-115.11 234.12,-102.6 220.34,-92.81"/>
<polygon fill="midnightblue" stroke="midnightblue" points="222.11,-89.77 211.93,-86.83 218.06,-95.48 222.11,-89.77"/>
</g>
<!-- Node6 -->
<g id="node6" class="node">
<title>Node6</title>
<g id="a_node6"><a xlink:title=" ">
<polygon fill="white" stroke="#bfbfbf" points="245.5,-67.5 245.5,-86.5 305.5,-86.5 305.5,-67.5 245.5,-67.5"/>
<text text-anchor="middle" x="275.5" y="-74.5" font-family="Helvetica,sans-Serif" font-size="10.00">TCandle.h</text>
</a>
</g>
</g>
<!-- Node2&#45;&gt;Node6 -->
<g id="edge5" class="edge">
<title>Node2&#45;&gt;Node6</title>
<path fill="none" stroke="midnightblue" d="M275.5,-123.08C275.5,-116.01 275.5,-105.86 275.5,-96.99"/>
<polygon fill="midnightblue" stroke="midnightblue" points="279,-96.75 275.5,-86.75 272,-96.75 279,-96.75"/>
</g>
<!-- Node7 -->
<g id="node7" class="node">
<title>Node7</title>
<g id="a_node7"><a xlink:title=" ">
<polygon fill="white" stroke="#bfbfbf" points="323.5,-67.5 323.5,-86.5 377.5,-86.5 377.5,-67.5 323.5,-67.5"/>
<text text-anchor="middle" x="350.5" y="-74.5" font-family="Helvetica,sans-Serif" font-size="10.00">Rtypes.h</text>
</a>
</g>
</g>
<!-- Node2&#45;&gt;Node7 -->
<g id="edge6" class="edge">
<title>Node2&#45;&gt;Node7</title>
<path fill="none" stroke="midnightblue" d="M287.55,-123.32C298.96,-115.11 316.33,-102.6 329.93,-92.81"/>
<polygon fill="midnightblue" stroke="midnightblue" points="332.16,-95.52 338.23,-86.83 328.07,-89.84 332.16,-95.52"/>
</g>
<!-- Node8 -->
<g id="node8" class="node">
<title>Node8</title>
<g id="a_node8"><a xlink:href="PlottingFramework_8h.html" target="_top" xlink:title=" ">
<polygon fill="white" stroke="black" points="395.5,-67.5 395.5,-86.5 501.5,-86.5 501.5,-67.5 395.5,-67.5"/>
<text text-anchor="middle" x="448.5" y="-74.5" font-family="Helvetica,sans-Serif" font-size="10.00">PlottingFramework.h</text>
</a>
</g>
</g>
<!-- Node2&#45;&gt;Node8 -->
<g id="edge7" class="edge">
<title>Node2&#45;&gt;Node8</title>
<path fill="none" stroke="midnightblue" d="M296.02,-125.59C324.37,-116.74 376,-100.63 411.25,-89.63"/>
<polygon fill="midnightblue" stroke="midnightblue" points="412.67,-92.85 421.18,-86.53 410.59,-86.17 412.67,-92.85"/>
</g>
<!-- Node9 -->
<g id="node9" class="node">
<title>Node9</title>
<g id="a_node9"><a xlink:title=" ">
<polygon fill="white" stroke="#bfbfbf" points="219.5,-6 219.5,-25 273.5,-25 273.5,-6 219.5,-6"/>
<text text-anchor="middle" x="246.5" y="-13" font-family="Helvetica,sans-Serif" font-size="10.00">iostream</text>
</a>
</g>
</g>
<!-- Node8&#45;&gt;Node9 -->
<g id="edge8" class="edge">
<title>Node8&#45;&gt;Node9</title>
<path fill="none" stroke="midnightblue" d="M412.19,-67.47C378.31,-59.2 326.52,-45.77 282.5,-31 280.37,-30.29 278.19,-29.51 276,-28.71"/>
<polygon fill="midnightblue" stroke="midnightblue" points="277.12,-25.39 266.53,-25.05 274.6,-31.92 277.12,-25.39"/>
</g>
<!-- Node10 -->
<g id="node10" class="node">
<title>Node10</title>
<g id="a_node10"><a xlink:title=" ">
<polygon fill="white" stroke="#bfbfbf" points="292,-6 292,-25 327,-25 327,-6 292,-6"/>
<text text-anchor="middle" x="309.5" y="-13" font-family="Helvetica,sans-Serif" font-size="10.00">map</text>
</a>
</g>
</g>
<!-- Node8&#45;&gt;Node10 -->
<g id="edge9" class="edge">
<title>Node8&#45;&gt;Node10</title>
<path fill="none" stroke="midnightblue" d="M425.01,-67.43C402.13,-58.88 366.49,-45.03 336.5,-31 335.66,-30.61 334.8,-30.2 333.94,-29.78"/>
<polygon fill="midnightblue" stroke="midnightblue" points="335.27,-26.52 324.77,-25.08 332.07,-32.75 335.27,-26.52"/>
</g>
<!-- Node11 -->
<g id="node11" class="node">
<title>Node11</title>
<g id="a_node11"><a xlink:title=" ">
<polygon fill="white" stroke="#bfbfbf" points="345.5,-6 345.5,-25 375.5,-25 375.5,-6 345.5,-6"/>
<text text-anchor="middle" x="360.5" y="-13" font-family="Helvetica,sans-Serif" font-size="10.00">set</text>
</a>
</g>
</g>
<!-- Node8&#45;&gt;Node11 -->
<g id="edge10" class="edge">
<title>Node8&#45;&gt;Node11</title>
<path fill="none" stroke="midnightblue" d="M435.89,-67.48C421.78,-57.93 398.67,-42.31 381.75,-30.87"/>
<polygon fill="midnightblue" stroke="midnightblue" points="383.33,-27.71 373.08,-25.01 379.41,-33.51 383.33,-27.71"/>
</g>
<!-- Node12 -->
<g id="node12" class="node">
<title>Node12</title>
<g id="a_node12"><a xlink:title=" ">
<polygon fill="white" stroke="#bfbfbf" points="393.5,-6 393.5,-25 439.5,-25 439.5,-6 393.5,-6"/>
<text text-anchor="middle" x="416.5" y="-13" font-family="Helvetica,sans-Serif" font-size="10.00">variant</text>
</a>
</g>
</g>
<!-- Node8&#45;&gt;Node12 -->
<g id="edge11" class="edge">
<title>Node8&#45;&gt;Node12</title>
<path fill="none" stroke="midnightblue" d="M443.92,-67.48C439.26,-58.82 431.91,-45.15 425.99,-34.15"/>
<polygon fill="midnightblue" stroke="midnightblue" points="428.9,-32.16 421.08,-25.01 422.73,-35.47 428.9,-32.16"/>
</g>
<!-- Node13 -->
<g id="node13" class="node">
<title>Node13</title>
<g id="a_node13"><a xlink:title=" ">
<polygon fill="white" stroke="#bfbfbf" points="457.5,-6 457.5,-25 501.5,-25 501.5,-6 457.5,-6"/>
<text text-anchor="middle" x="479.5" y="-13" font-family="Helvetica,sans-Serif" font-size="10.00">cmath</text>
</a>
</g>
</g>
<!-- Node8&#45;&gt;Node13 -->
<g id="edge12" class="edge">
<title>Node8&#45;&gt;Node13</title>
<path fill="none" stroke="midnightblue" d="M452.94,-67.48C457.45,-58.82 464.57,-45.15 470.31,-34.15"/>
<polygon fill="midnightblue" stroke="midnightblue" points="473.55,-35.49 475.07,-25.01 467.34,-32.26 473.55,-35.49"/>
</g>
<!-- Node14 -->
<g id="node14" class="node">
<title>Node14</title>
<g id="a_node14"><a xlink:title=" ">
<polygon fill="white" stroke="#bfbfbf" points="519.5,-6 519.5,-25 565.5,-25 565.5,-6 519.5,-6"/>
<text text-anchor="middle" x="542.5" y="-13" font-family="Helvetica,sans-Serif" font-size="10.00">cstdint</text>
</a>
</g>
</g>
<!-- Node8&#45;&gt;Node14 -->
<g id="edge13" class="edge">
<title>Node8&#45;&gt;Node14</title>
<path fill="none" stroke="midnightblue" d="M461.97,-67.48C477.18,-57.84 502.19,-42.02 520.3,-30.55"/>
<polygon fill="midnightblue" stroke="midnightblue" points="522.48,-33.31 529.06,-25.01 518.74,-27.4 522.48,-33.31"/>
</g>
<!-- Node15 -->
<g id="node15" class="node">
<title>Node15</title>
<g id="a_node15"><a xlink:title=" ">
<polygon fill="white" stroke="#bfbfbf" points="583.5,-0.5 583.5,-30.5 683.5,-30.5 683.5,-0.5 583.5,-0.5"/>
<text text-anchor="start" x="591.5" y="-18.5" font-family="Helvetica,sans-Serif" font-size="10.00">boost/property_tree</text>
<text text-anchor="middle" x="633.5" y="-7.5" font-family="Helvetica,sans-Serif" font-size="10.00">/ptree.hpp</text>
</a>
</g>
</g>
<!-- Node8&#45;&gt;Node15 -->
<g id="edge14" class="edge">
<title>Node8&#45;&gt;Node15</title>
<path fill="none" stroke="midnightblue" d="M475.01,-67.48C502.29,-58.7 545.55,-44.79 579.98,-33.71"/>
<polygon fill="midnightblue" stroke="midnightblue" points="581.45,-36.92 589.9,-30.52 579.31,-30.25 581.45,-36.92"/>
</g>
<!-- Node16 -->
<g id="node16" class="node">
<title>Node16</title>
<g id="a_node16"><a xlink:title=" ">
<polygon fill="white" stroke="#bfbfbf" points="702,-6 702,-25 785,-25 785,-6 702,-6"/>
<text text-anchor="middle" x="743.5" y="-13" font-family="Helvetica,sans-Serif" font-size="10.00">unordered_map</text>
</a>
</g>
</g>
<!-- Node8&#45;&gt;Node16 -->
<g id="edge15" class="edge">
<title>Node8&#45;&gt;Node16</title>
<path fill="none" stroke="midnightblue" d="M501.63,-67.69C551.26,-59.58 627.28,-46.25 692.5,-31 696.68,-30.02 701.04,-28.92 705.36,-27.77"/>
<polygon fill="midnightblue" stroke="midnightblue" points="706.59,-31.06 715.3,-25.03 704.73,-24.31 706.59,-31.06"/>
</g>
<!-- Node17&#45;&gt;Node8 -->
<g id="edge17" class="edge">
<title>Node17&#45;&gt;Node8</title>
<path fill="none" stroke="midnightblue" d="M470.21,-123.08C466.65,-115.69 461.48,-104.95 457.08,-95.81"/>
<polygon fill="midnightblue" stroke="midnightblue" points="460.21,-94.24 452.71,-86.75 453.9,-97.28 460.21,-94.24"/>
</g>
<!-- Node18 -->
<g id="node18" class="node">
<title>Node18</title>
<g id="a_node18"><a xlink:title=" ">
<polygon fill="white" stroke="#bfbfbf" points="520,-67.5 520,-86.5 583,-86.5 583,-67.5 520,-67.5"/>
<text text-anchor="middle" x="551.5" y="-74.5" font-family="Helvetica,sans-Serif" font-size="10.00">TSystem.h</text>
</a>
</g>
</g>
<!-- Node17&#45;&gt;Node18 -->
<g id="edge18" class="edge">
<title>Node17&#45;&gt;Node18</title>
<path fill="none" stroke="midnightblue" d="M486.87,-123.32C498.66,-115.06 516.63,-102.45 530.64,-92.63"/>
<polygon fill="midnightblue" stroke="midnightblue" points="532.98,-95.26 539.16,-86.65 528.96,-89.53 532.98,-95.26"/>
</g>
<!-- Node20 -->
<g id="node20" class="node">
<title>Node20</title>
<g id="a_node20"><a xlink:title=" ">
<polygon fill="white" stroke="#bfbfbf" points="601.5,-67.5 601.5,-86.5 661.5,-86.5 661.5,-67.5 601.5,-67.5"/>
<text text-anchor="middle" x="631.5" y="-74.5" font-family="Helvetica,sans-Serif" font-size="10.00">fmt/core.h</text>
</a>
</g>
</g>
<!-- Node19&#45;&gt;Node20 -->
<g id="edge20" class="edge">
<title>Node19&#45;&gt;Node20</title>
<path fill="none" stroke="midnightblue" d="M608.96,-123.08C612.65,-115.69 618.02,-104.95 622.59,-95.81"/>
<polygon fill="midnightblue" stroke="midnightblue" points="625.78,-97.26 627.12,-86.75 619.52,-94.13 625.78,-97.26"/>
</g>
</g>
</svg>
