<?xml version="1.0" encoding="UTF-8" standalone="no"?>
<!DOCTYPE svg PUBLIC "-//W3C//DTD SVG 1.1//EN"
 "http://www.w3.org/Graphics/SVG/1.1/DTD/svg11.dtd">
<!-- Generated by graphviz version 3.0.0 (20220413.0242)
 -->
<!-- Title: /github/workspace/src/PlotPainter.cxx Pages: 1 -->
<!--zoomable 274 -->
<svg id="main" version="1.1" xmlns="http://www.w3.org/2000/svg" xmlns:xlink="http://www.w3.org/1999/xlink" xml:space="preserve" onload="init(evt)">
<style type="text/css"><![CDATA[
.edge:hover path { stroke: red; }
.edge:hover polygon { stroke: red; fill: red; }
]]></style>
<script type="text/javascript"><![CDATA[
var edges = document.getElementsByTagName('g');
if (edges && edges.length) {
  for (var i=0;i<edges.length;i++) {
    if (edges[i].id.substr(0,4)=='edge') {
      edges[i].setAttribute('class','edge');
    }
  }
}
]]></script>
        <defs>
                <circle id="rim" cx="0" cy="0" r="7"/>
                <circle id="rim2" cx="0" cy="0" r="3.5"/>
                <g id="zoomPlus">
                        <use xlink:href="#rim" fill="#404040">
                                <set attributeName="fill" to="#808080" begin="zoomplus.mouseover" end="zoomplus.mouseout"/>
                        </use>
                        <path d="M-4,0h8M0,-4v8" fill="none" stroke="white" stroke-width="1.5" pointer-events="none"/>
                </g>
                <g id="zoomMin">
                        <use xlink:href="#rim" fill="#404040">
                                <set attributeName="fill" to="#808080" begin="zoomminus.mouseover" end="zoomminus.mouseout"/>
                        </use>
                        <path d="M-4,0h8" fill="none" stroke="white" stroke-width="1.5" pointer-events="none"/>
                </g>
                <g id="dirArrow">
                        <path fill="none" stroke="white" stroke-width="1.5" d="M0,-3.0v7 M-2.5,-0.5L0,-3.0L2.5,-0.5"/>
                </g>
               <g id="resetDef">
                       <use xlink:href="#rim2" fill="#404040">
                               <set attributeName="fill" to="#808080" begin="reset.mouseover" end="reset.mouseout"/>
                       </use>
               </g>
        </defs>

<script type="text/javascript">
var viewWidth = 3401;
var viewHeight = 274;
var sectionId = 'dynsection-0';
</script>
<script xlink:href="svgpan.js"/>
<svg id="graph" class="graph">
<g id="viewport">
<title>/github/workspace/src/PlotPainter.cxx</title>
<polygon fill="white" stroke="transparent" points="-4,4 -4,-270 3397,-270 3397,4 -4,4"/>
<!-- Node1 -->
<g id="node1" class="node">
<title>Node1</title>
<g id="a_node1"><a xlink:title=" ">
<polygon fill="#bfbfbf" stroke="black" points="1674,-235.5 1674,-265.5 1787,-265.5 1787,-235.5 1674,-235.5"/>
<text text-anchor="start" x="1682" y="-253.5" font-family="Helvetica,sans-Serif" font-size="10.00">/github/workspace/src</text>
<text text-anchor="middle" x="1730.5" y="-242.5" font-family="Helvetica,sans-Serif" font-size="10.00">/PlotPainter.cxx</text>
</a>
</g>
</g>
<!-- Node2 -->
<g id="node2" class="node">
<title>Node2</title>
<g id="a_node2"><a xlink:href="PlotPainter_8h.html" target="_top" xlink:title=" ">
<polygon fill="white" stroke="black" points="231.5,-179.5 231.5,-198.5 303.5,-198.5 303.5,-179.5 231.5,-179.5"/>
<text text-anchor="middle" x="267.5" y="-186.5" font-family="Helvetica,sans-Serif" font-size="10.00">PlotPainter.h</text>
</a>
</g>
</g>
<!-- Node1&#45;&gt;Node2 -->
<g id="edge1" class="edge">
<title>Node1&#45;&gt;Node2</title>
<path fill="none" stroke="midnightblue" d="M1674,-248.56C1445.26,-244.57 587.35,-227.96 317.5,-199 316.24,-198.87 314.97,-198.72 313.68,-198.56"/>
<polygon fill="midnightblue" stroke="midnightblue" points="314.13,-195.09 303.73,-197.15 313.14,-202.02 314.13,-195.09"/>
</g>
<!-- Node9 -->
<g id="node9" class="node">
<title>Node9</title>
<g id="a_node9"><a xlink:href="PlottingFramework_8h.html" target="_top" xlink:title=" ">
<polygon fill="white" stroke="black" points="395.5,-67.5 395.5,-86.5 501.5,-86.5 501.5,-67.5 395.5,-67.5"/>
<text text-anchor="middle" x="448.5" y="-74.5" font-family="Helvetica,sans-Serif" font-size="10.00">PlottingFramework.h</text>
</a>
</g>
</g>
<!-- Node1&#45;&gt;Node9 -->
<g id="edge17" class="edge">
<title>Node1&#45;&gt;Node9</title>
<path fill="none" stroke="midnightblue" d="M1673.81,-249.6C1419.85,-249.75 397.12,-247.35 350.5,-199 327.06,-174.68 332.27,-151.43 350.5,-123 360.77,-106.98 378.35,-96.58 395.8,-89.87"/>
<polygon fill="midnightblue" stroke="midnightblue" points="397.14,-93.11 405.43,-86.51 394.84,-86.5 397.14,-93.11"/>
</g>
<!-- Node18 -->
<g id="node18" class="node">
<title>Node18</title>
<g id="a_node18"><a xlink:href="Logging_8h.html" target="_top" xlink:title=" ">
<polygon fill="white" stroke="black" points="360,-179.5 360,-198.5 419,-198.5 419,-179.5 360,-179.5"/>
<text text-anchor="middle" x="389.5" y="-186.5" font-family="Helvetica,sans-Serif" font-size="10.00">Logging.h</text>
</a>
</g>
</g>
<!-- Node1&#45;&gt;Node18 -->
<g id="edge18" class="edge">
<title>Node1&#45;&gt;Node18</title>
<path fill="none" stroke="midnightblue" d="M1673.65,-248.72C1458.63,-245.54 694.33,-232.21 429.18,-198.76"/>
<polygon fill="midnightblue" stroke="midnightblue" points="429.57,-195.28 419.2,-197.46 428.67,-202.22 429.57,-195.28"/>
</g>
<!-- Node20 -->
<g id="node20" class="node">
<title>Node20</title>
<g id="a_node20"><a xlink:href="Helpers_8h.html" target="_top" xlink:title=" ">
<polygon fill="white" stroke="black" points="437.5,-179.5 437.5,-198.5 495.5,-198.5 495.5,-179.5 437.5,-179.5"/>
<text text-anchor="middle" x="466.5" y="-186.5" font-family="Helvetica,sans-Serif" font-size="10.00">Helpers.h</text>
</a>
</g>
</g>
<!-- Node1&#45;&gt;Node20 -->
<g id="edge20" class="edge">
<title>Node1&#45;&gt;Node20</title>
<path fill="none" stroke="midnightblue" d="M1673.67,-248.39C1464.71,-244.14 739.25,-227.6 509.5,-199 508.22,-198.84 506.93,-198.66 505.62,-198.47"/>
<polygon fill="midnightblue" stroke="midnightblue" points="505.98,-194.98 495.54,-196.75 504.81,-201.88 505.98,-194.98"/>
</g>
<!-- Node21 -->
<g id="node21" class="node">
<title>Node21</title>
<g id="a_node21"><a xlink:title=" ">
<polygon fill="white" stroke="#bfbfbf" points="488,-123.5 488,-142.5 551,-142.5 551,-123.5 488,-123.5"/>
<text text-anchor="middle" x="519.5" y="-130.5" font-family="Helvetica,sans-Serif" font-size="10.00">TSystem.h</text>
</a>
</g>
</g>
<!-- Node1&#45;&gt;Node21 -->
<g id="edge26" class="edge">
<title>Node1&#45;&gt;Node21</title>
<path fill="none" stroke="midnightblue" d="M1673.7,-248.84C1443.3,-245.95 588.44,-232.96 542.5,-199 528.23,-188.45 522.78,-168.33 520.71,-153.25"/>
<polygon fill="midnightblue" stroke="midnightblue" points="524.16,-152.56 519.7,-142.95 517.19,-153.25 524.16,-152.56"/>
</g>
<!-- Node22 -->
<g id="node22" class="node">
<title>Node22</title>
<g id="a_node22"><a xlink:title=" ">
<polygon fill="white" stroke="#bfbfbf" points="551.5,-179.5 551.5,-198.5 591.5,-198.5 591.5,-179.5 551.5,-179.5"/>
<text text-anchor="middle" x="571.5" y="-186.5" font-family="Helvetica,sans-Serif" font-size="10.00">regex</text>
</a>
</g>
</g>
<!-- Node1&#45;&gt;Node22 -->
<g id="edge23" class="edge">
<title>Node1&#45;&gt;Node22</title>
<path fill="none" stroke="midnightblue" d="M1673.8,-248.81C1475.13,-246.11 811.14,-234.57 601.5,-199 601.4,-198.98 601.3,-198.97 601.2,-198.95"/>
<polygon fill="midnightblue" stroke="midnightblue" points="602.2,-195.59 591.67,-196.79 600.65,-202.41 602.2,-195.59"/>
</g>
<!-- Node23 -->
<g id="node23" class="node">
<title>Node23</title>
<g id="a_node23"><a xlink:title=" ">
<polygon fill="white" stroke="#bfbfbf" points="610,-179.5 610,-198.5 661,-198.5 661,-179.5 610,-179.5"/>
<text text-anchor="middle" x="635.5" y="-186.5" font-family="Helvetica,sans-Serif" font-size="10.00">numeric</text>
</a>
</g>
</g>
<!-- Node1&#45;&gt;Node23 -->
<g id="edge24" class="edge">
<title>Node1&#45;&gt;Node23</title>
<path fill="none" stroke="midnightblue" d="M1673.71,-248.32C1486.01,-244.2 885.84,-229.06 671.29,-198.74"/>
<polygon fill="midnightblue" stroke="midnightblue" points="671.77,-195.27 661.37,-197.28 670.76,-202.19 671.77,-195.27"/>
</g>
<!-- Node24 -->
<g id="node24" class="node">
<title>Node24</title>
<g id="a_node24"><a xlink:title=" ">
<polygon fill="white" stroke="#bfbfbf" points="679.5,-179.5 679.5,-198.5 737.5,-198.5 737.5,-179.5 679.5,-179.5"/>
<text text-anchor="middle" x="708.5" y="-186.5" font-family="Helvetica,sans-Serif" font-size="10.00">TROOT.h</text>
</a>
</g>
</g>
<!-- Node1&#45;&gt;Node24 -->
<g id="edge25" class="edge">
<title>Node1&#45;&gt;Node24</title>
<path fill="none" stroke="midnightblue" d="M1673.86,-250.17C1523.91,-251.17 1104.28,-249.03 747.85,-198.93"/>
<polygon fill="midnightblue" stroke="midnightblue" points="748.25,-195.45 737.86,-197.51 747.27,-202.38 748.25,-195.45"/>
</g>
<!-- Node25 -->
<g id="node25" class="node">
<title>Node25</title>
<g id="a_node25"><a xlink:title=" ">
<polygon fill="white" stroke="#bfbfbf" points="755.5,-179.5 755.5,-198.5 807.5,-198.5 807.5,-179.5 755.5,-179.5"/>
<text text-anchor="middle" x="781.5" y="-186.5" font-family="Helvetica,sans-Serif" font-size="10.00">TStyle.h</text>
</a>
</g>
</g>
<!-- Node1&#45;&gt;Node25 -->
<g id="edge27" class="edge">
<title>Node1&#45;&gt;Node25</title>
<path fill="none" stroke="midnightblue" d="M1673.75,-250.08C1531.21,-250.76 1146.68,-247.65 817.93,-198.7"/>
<polygon fill="midnightblue" stroke="midnightblue" points="818.14,-195.2 807.73,-197.17 817.1,-202.12 818.14,-195.2"/>
</g>
<!-- Node26 -->
<g id="node26" class="node">
<title>Node26</title>
<g id="a_node26"><a xlink:title=" ">
<polygon fill="white" stroke="#bfbfbf" points="826,-179.5 826,-198.5 889,-198.5 889,-179.5 826,-179.5"/>
<text text-anchor="middle" x="857.5" y="-186.5" font-family="Helvetica,sans-Serif" font-size="10.00">TCanvas.h</text>
</a>
</g>
</g>
<!-- Node1&#45;&gt;Node26 -->
<g id="edge28" class="edge">
<title>Node1&#45;&gt;Node26</title>
<path fill="none" stroke="midnightblue" d="M1673.71,-249.09C1540.18,-247.47 1195.87,-239.5 899.28,-198.86"/>
<polygon fill="midnightblue" stroke="midnightblue" points="899.58,-195.37 889.2,-197.47 898.62,-202.31 899.58,-195.37"/>
</g>
<!-- Node27 -->
<g id="node27" class="node">
<title>Node27</title>
<g id="a_node27"><a xlink:title=" ">
<polygon fill="white" stroke="#bfbfbf" points="907,-179.5 907,-198.5 950,-198.5 950,-179.5 907,-179.5"/>
<text text-anchor="middle" x="928.5" y="-186.5" font-family="Helvetica,sans-Serif" font-size="10.00">TH1.h</text>
</a>
</g>
</g>
<!-- Node1&#45;&gt;Node27 -->
<g id="edge29" class="edge">
<title>Node1&#45;&gt;Node27</title>
<path fill="none" stroke="midnightblue" d="M1673.89,-249.97C1547.25,-250.14 1231.56,-245.55 960.08,-198.66"/>
<polygon fill="midnightblue" stroke="midnightblue" points="960.49,-195.18 950.04,-196.9 959.29,-202.07 960.49,-195.18"/>
</g>
<!-- Node28 -->
<g id="node28" class="node">
<title>Node28</title>
<g id="a_node28"><a xlink:title=" ">
<polygon fill="white" stroke="#bfbfbf" points="968,-179.5 968,-198.5 1011,-198.5 1011,-179.5 968,-179.5"/>
<text text-anchor="middle" x="989.5" y="-186.5" font-family="Helvetica,sans-Serif" font-size="10.00">TH2.h</text>
</a>
</g>
</g>
<!-- Node1&#45;&gt;Node28 -->
<g id="edge30" class="edge">
<title>Node1&#45;&gt;Node28</title>
<path fill="none" stroke="midnightblue" d="M1673.86,-249.52C1554.48,-248.68 1268.43,-242.1 1020.94,-198.65"/>
<polygon fill="midnightblue" stroke="midnightblue" points="1021.5,-195.19 1011.04,-196.89 1020.27,-202.08 1021.5,-195.19"/>
</g>
<!-- Node29 -->
<g id="node29" class="node">
<title>Node29</title>
<g id="a_node29"><a xlink:title=" ">
<polygon fill="white" stroke="#bfbfbf" points="1029,-179.5 1029,-198.5 1072,-198.5 1072,-179.5 1029,-179.5"/>
<text text-anchor="middle" x="1050.5" y="-186.5" font-family="Helvetica,sans-Serif" font-size="10.00">TH3.h</text>
</a>
</g>
</g>
<!-- Node1&#45;&gt;Node29 -->
<g id="edge31" class="edge">
<title>Node1&#45;&gt;Node29</title>
<path fill="none" stroke="midnightblue" d="M1673.57,-248.97C1561.7,-247.1 1305.41,-238.63 1081.99,-198.67"/>
<polygon fill="midnightblue" stroke="midnightblue" points="1082.51,-195.21 1072.05,-196.87 1081.26,-202.1 1082.51,-195.21"/>
</g>
<!-- Node30 -->
<g id="node30" class="node">
<title>Node30</title>
<g id="a_node30"><a xlink:title=" ">
<polygon fill="white" stroke="#bfbfbf" points="1090,-179.5 1090,-198.5 1133,-198.5 1133,-179.5 1090,-179.5"/>
<text text-anchor="middle" x="1111.5" y="-186.5" font-family="Helvetica,sans-Serif" font-size="10.00">THn.h</text>
</a>
</g>
</g>
<!-- Node1&#45;&gt;Node30 -->
<g id="edge32" class="edge">
<title>Node1&#45;&gt;Node30</title>
<path fill="none" stroke="midnightblue" d="M1673.65,-248.33C1569.87,-245.38 1342.84,-235.22 1143.14,-198.72"/>
<polygon fill="midnightblue" stroke="midnightblue" points="1143.52,-195.23 1133.05,-196.84 1142.24,-202.11 1143.52,-195.23"/>
</g>
<!-- Node31 -->
<g id="node31" class="node">
<title>Node31</title>
<g id="a_node31"><a xlink:title=" ">
<polygon fill="white" stroke="#bfbfbf" points="1151,-179.5 1151,-198.5 1208,-198.5 1208,-179.5 1151,-179.5"/>
<text text-anchor="middle" x="1179.5" y="-186.5" font-family="Helvetica,sans-Serif" font-size="10.00">TProfile.h</text>
</a>
</g>
</g>
<!-- Node1&#45;&gt;Node31 -->
<g id="edge33" class="edge">
<title>Node1&#45;&gt;Node31</title>
<path fill="none" stroke="midnightblue" d="M1673.62,-246.41C1580.44,-240.79 1389.36,-226.97 1218.01,-198.85"/>
<polygon fill="midnightblue" stroke="midnightblue" points="1218.49,-195.38 1208.05,-197.2 1217.34,-202.29 1218.49,-195.38"/>
</g>
<!-- Node32 -->
<g id="node32" class="node">
<title>Node32</title>
<g id="a_node32"><a xlink:title=" ">
<polygon fill="white" stroke="#bfbfbf" points="1226,-179.5 1226,-198.5 1295,-198.5 1295,-179.5 1226,-179.5"/>
<text text-anchor="middle" x="1260.5" y="-186.5" font-family="Helvetica,sans-Serif" font-size="10.00">TProfile2D.h</text>
</a>
</g>
</g>
<!-- Node1&#45;&gt;Node32 -->
<g id="edge34" class="edge">
<title>Node1&#45;&gt;Node32</title>
<path fill="none" stroke="midnightblue" d="M1673.78,-244.3C1593.87,-236.64 1443.38,-220.98 1304.98,-198.95"/>
<polygon fill="midnightblue" stroke="midnightblue" points="1305.47,-195.48 1295.04,-197.35 1304.36,-202.39 1305.47,-195.48"/>
</g>
<!-- Node33 -->
<g id="node33" class="node">
<title>Node33</title>
<g id="a_node33"><a xlink:title=" ">
<polygon fill="white" stroke="#bfbfbf" points="1313.5,-179.5 1313.5,-198.5 1369.5,-198.5 1369.5,-179.5 1313.5,-179.5"/>
<text text-anchor="middle" x="1341.5" y="-186.5" font-family="Helvetica,sans-Serif" font-size="10.00">TGraph.h</text>
</a>
</g>
</g>
<!-- Node1&#45;&gt;Node33 -->
<g id="edge35" class="edge">
<title>Node1&#45;&gt;Node33</title>
<path fill="none" stroke="midnightblue" d="M1673.83,-243.07C1606.08,-235.01 1489.11,-219.89 1379.61,-199.06"/>
<polygon fill="midnightblue" stroke="midnightblue" points="1380.2,-195.61 1369.72,-197.16 1378.88,-202.48 1380.2,-195.61"/>
</g>
<!-- Node34 -->
<g id="node34" class="node">
<title>Node34</title>
<g id="a_node34"><a xlink:title=" ">
<polygon fill="white" stroke="#bfbfbf" points="1387.5,-179.5 1387.5,-198.5 1469.5,-198.5 1469.5,-179.5 1387.5,-179.5"/>
<text text-anchor="middle" x="1428.5" y="-186.5" font-family="Helvetica,sans-Serif" font-size="10.00">TGraphErrors.h</text>
</a>
</g>
</g>
<!-- Node1&#45;&gt;Node34 -->
<g id="edge36" class="edge">
<title>Node1&#45;&gt;Node34</title>
<path fill="none" stroke="midnightblue" d="M1673.7,-238.31C1617.84,-227.3 1533.34,-210.66 1479.55,-200.06"/>
<polygon fill="midnightblue" stroke="midnightblue" points="1480.04,-196.59 1469.55,-198.09 1478.69,-203.46 1480.04,-196.59"/>
</g>
<!-- Node35 -->
<g id="node35" class="node">
<title>Node35</title>
<g id="a_node35"><a xlink:title=" ">
<polygon fill="white" stroke="#bfbfbf" points="1487.5,-179.5 1487.5,-198.5 1555.5,-198.5 1555.5,-179.5 1487.5,-179.5"/>
<text text-anchor="middle" x="1521.5" y="-186.5" font-family="Helvetica,sans-Serif" font-size="10.00">TGraph2D.h</text>
</a>
</g>
</g>
<!-- Node1&#45;&gt;Node35 -->
<g id="edge37" class="edge">
<title>Node1&#45;&gt;Node35</title>
<path fill="none" stroke="midnightblue" d="M1681.23,-235.47C1644.55,-225.03 1595.12,-210.96 1561.01,-201.25"/>
<polygon fill="midnightblue" stroke="midnightblue" points="1561.96,-197.88 1551.38,-198.51 1560.04,-204.61 1561.96,-197.88"/>
</g>
<!-- Node36 -->
<g id="node36" class="node">
<title>Node36</title>
<g id="a_node36"><a xlink:title=" ">
<polygon fill="white" stroke="#bfbfbf" points="1573.5,-179.5 1573.5,-198.5 1667.5,-198.5 1667.5,-179.5 1573.5,-179.5"/>
<text text-anchor="middle" x="1620.5" y="-186.5" font-family="Helvetica,sans-Serif" font-size="10.00">TGraph2DErrors.h</text>
</a>
</g>
</g>
<!-- Node1&#45;&gt;Node36 -->
<g id="edge38" class="edge">
<title>Node1&#45;&gt;Node36</title>
<path fill="none" stroke="midnightblue" d="M1704.43,-235.4C1686.63,-225.77 1663.19,-213.09 1645.6,-203.58"/>
<polygon fill="midnightblue" stroke="midnightblue" points="1646.97,-200.34 1636.51,-198.66 1643.64,-206.49 1646.97,-200.34"/>
</g>
<!-- Node37 -->
<g id="node37" class="node">
<title>Node37</title>
<g id="a_node37"><a xlink:title=" ">
<polygon fill="white" stroke="#bfbfbf" points="1685.5,-179.5 1685.5,-198.5 1775.5,-198.5 1775.5,-179.5 1685.5,-179.5"/>
<text text-anchor="middle" x="1730.5" y="-186.5" font-family="Helvetica,sans-Serif" font-size="10.00">TGraphSmooth.h</text>
</a>
</g>
</g>
<!-- Node1&#45;&gt;Node37 -->
<g id="edge39" class="edge">
<title>Node1&#45;&gt;Node37</title>
<path fill="none" stroke="midnightblue" d="M1730.5,-235.4C1730.5,-227.47 1730.5,-217.46 1730.5,-208.86"/>
<polygon fill="midnightblue" stroke="midnightblue" points="1734,-208.66 1730.5,-198.66 1727,-208.66 1734,-208.66"/>
</g>
<!-- Node38 -->
<g id="node38" class="node">
<title>Node38</title>
<g id="a_node38"><a xlink:title=" ">
<polygon fill="white" stroke="#bfbfbf" points="1794,-179.5 1794,-198.5 1835,-198.5 1835,-179.5 1794,-179.5"/>
<text text-anchor="middle" x="1814.5" y="-186.5" font-family="Helvetica,sans-Serif" font-size="10.00">TF1.h</text>
</a>
</g>
</g>
<!-- Node1&#45;&gt;Node38 -->
<g id="edge40" class="edge">
<title>Node1&#45;&gt;Node38</title>
<path fill="none" stroke="midnightblue" d="M1750.41,-235.4C1763.49,-226.13 1780.58,-214.03 1793.82,-204.65"/>
<polygon fill="midnightblue" stroke="midnightblue" points="1796.14,-207.29 1802.28,-198.66 1792.09,-201.58 1796.14,-207.29"/>
</g>
<!-- Node39 -->
<g id="node39" class="node">
<title>Node39</title>
<g id="a_node39"><a xlink:title=" ">
<polygon fill="white" stroke="#bfbfbf" points="1853,-179.5 1853,-198.5 1894,-198.5 1894,-179.5 1853,-179.5"/>
<text text-anchor="middle" x="1873.5" y="-186.5" font-family="Helvetica,sans-Serif" font-size="10.00">TF2.h</text>
</a>
</g>
</g>
<!-- Node1&#45;&gt;Node39 -->
<g id="edge41" class="edge">
<title>Node1&#45;&gt;Node39</title>
<path fill="none" stroke="midnightblue" d="M1764.39,-235.4C1788.38,-225.42 1820.27,-212.15 1843.38,-202.53"/>
<polygon fill="midnightblue" stroke="midnightblue" points="1844.8,-205.73 1852.69,-198.66 1842.11,-199.27 1844.8,-205.73"/>
</g>
<!-- Node40 -->
<g id="node40" class="node">
<title>Node40</title>
<g id="a_node40"><a xlink:title=" ">
<polygon fill="white" stroke="#bfbfbf" points="1912.5,-179.5 1912.5,-198.5 1970.5,-198.5 1970.5,-179.5 1912.5,-179.5"/>
<text text-anchor="middle" x="1941.5" y="-186.5" font-family="Helvetica,sans-Serif" font-size="10.00">TFrame.h</text>
</a>
</g>
</g>
<!-- Node1&#45;&gt;Node40 -->
<g id="edge42" class="edge">
<title>Node1&#45;&gt;Node40</title>
<path fill="none" stroke="midnightblue" d="M1780.24,-235.47C1817.61,-224.94 1868.08,-210.7 1902.54,-200.99"/>
<polygon fill="midnightblue" stroke="midnightblue" points="1903.58,-204.33 1912.25,-198.25 1901.68,-197.59 1903.58,-204.33"/>
</g>
<!-- Node41 -->
<g id="node41" class="node">
<title>Node41</title>
<g id="a_node41"><a xlink:title=" ">
<polygon fill="white" stroke="#bfbfbf" points="1989,-179.5 1989,-198.5 2038,-198.5 2038,-179.5 1989,-179.5"/>
<text text-anchor="middle" x="2013.5" y="-186.5" font-family="Helvetica,sans-Serif" font-size="10.00">TLine.h</text>
</a>
</g>
</g>
<!-- Node1&#45;&gt;Node41 -->
<g id="edge43" class="edge">
<title>Node1&#45;&gt;Node41</title>
<path fill="none" stroke="midnightblue" d="M1787.07,-239.01C1835.4,-229.82 1907,-215.69 1978.56,-199.11"/>
<polygon fill="midnightblue" stroke="midnightblue" points="1979.72,-202.44 1988.66,-196.76 1978.13,-195.62 1979.72,-202.44"/>
</g>
<!-- Node42 -->
<g id="node42" class="node">
<title>Node42</title>
<g id="a_node42"><a xlink:title=" ">
<polygon fill="white" stroke="#bfbfbf" points="2055.5,-179.5 2055.5,-198.5 2139.5,-198.5 2139.5,-179.5 2055.5,-179.5"/>
<text text-anchor="middle" x="2097.5" y="-186.5" font-family="Helvetica,sans-Serif" font-size="10.00">TLegendEntry.h</text>
</a>
</g>
</g>
<!-- Node1&#45;&gt;Node42 -->
<g id="edge44" class="edge">
<title>Node1&#45;&gt;Node42</title>
<path fill="none" stroke="midnightblue" d="M1787.25,-240.81C1848.61,-231.34 1949.59,-215.52 2045.62,-199.3"/>
<polygon fill="midnightblue" stroke="midnightblue" points="2046.22,-202.74 2055.5,-197.62 2045.05,-195.84 2046.22,-202.74"/>
</g>
<!-- Node43 -->
<g id="node43" class="node">
<title>Node43</title>
<g id="a_node43"><a xlink:title=" ">
<polygon fill="white" stroke="#bfbfbf" points="2158,-179.5 2158,-198.5 2219,-198.5 2219,-179.5 2158,-179.5"/>
<text text-anchor="middle" x="2188.5" y="-186.5" font-family="Helvetica,sans-Serif" font-size="10.00">TIterator.h</text>
</a>
</g>
</g>
<!-- Node1&#45;&gt;Node43 -->
<g id="edge45" class="edge">
<title>Node1&#45;&gt;Node43</title>
<path fill="none" stroke="midnightblue" d="M1787.22,-244.48C1865.88,-237.12 2012.71,-221.91 2147.86,-198.94"/>
<polygon fill="midnightblue" stroke="midnightblue" points="2148.73,-202.34 2157.99,-197.2 2147.54,-195.44 2148.73,-202.34"/>
</g>
<!-- Node44 -->
<g id="node44" class="node">
<title>Node44</title>
<g id="a_node44"><a xlink:title=" ">
<polygon fill="white" stroke="#bfbfbf" points="2237.5,-179.5 2237.5,-198.5 2305.5,-198.5 2305.5,-179.5 2237.5,-179.5"/>
<text text-anchor="middle" x="2271.5" y="-186.5" font-family="Helvetica,sans-Serif" font-size="10.00">TObjArray.h</text>
</a>
</g>
</g>
<!-- Node1&#45;&gt;Node44 -->
<g id="edge46" class="edge">
<title>Node1&#45;&gt;Node44</title>
<path fill="none" stroke="midnightblue" d="M1787.13,-245.71C1877.89,-239.2 2061.68,-224.27 2226.94,-199.09"/>
<polygon fill="midnightblue" stroke="midnightblue" points="2227.94,-202.48 2237.29,-197.5 2226.88,-195.56 2227.94,-202.48"/>
</g>
<!-- Node45 -->
<g id="node45" class="node">
<title>Node45</title>
<g id="a_node45"><a xlink:title=" ">
<polygon fill="white" stroke="#bfbfbf" points="2324,-179.5 2324,-198.5 2383,-198.5 2383,-179.5 2324,-179.5"/>
<text text-anchor="middle" x="2353.5" y="-186.5" font-family="Helvetica,sans-Serif" font-size="10.00">TObject.h</text>
</a>
</g>
</g>
<!-- Node1&#45;&gt;Node45 -->
<g id="edge47" class="edge">
<title>Node1&#45;&gt;Node45</title>
<path fill="none" stroke="midnightblue" d="M1787.2,-247.25C1890.17,-242.58 2114.88,-229.74 2313.73,-198.89"/>
<polygon fill="midnightblue" stroke="midnightblue" points="2314.44,-202.32 2323.77,-197.31 2313.35,-195.41 2314.44,-202.32"/>
</g>
<!-- Node46 -->
<g id="node46" class="node">
<title>Node46</title>
<g id="a_node46"><a xlink:title=" ">
<polygon fill="white" stroke="#bfbfbf" points="2401,-179.5 2401,-198.5 2484,-198.5 2484,-179.5 2401,-179.5"/>
<text text-anchor="middle" x="2442.5" y="-186.5" font-family="Helvetica,sans-Serif" font-size="10.00">TObjectTable.h</text>
</a>
</g>
</g>
<!-- Node1&#45;&gt;Node46 -->
<g id="edge48" class="edge">
<title>Node1&#45;&gt;Node46</title>
<path fill="none" stroke="midnightblue" d="M1787.37,-247.12C1900.47,-241.96 2161.75,-227.91 2390.62,-199.13"/>
<polygon fill="midnightblue" stroke="midnightblue" points="2391.33,-202.56 2400.81,-197.83 2390.45,-195.62 2391.33,-202.56"/>
</g>
<!-- Node47 -->
<g id="node47" class="node">
<title>Node47</title>
<g id="a_node47"><a xlink:title=" ">
<polygon fill="white" stroke="#bfbfbf" points="2502,-179.5 2502,-198.5 2553,-198.5 2553,-179.5 2502,-179.5"/>
<text text-anchor="middle" x="2527.5" y="-186.5" font-family="Helvetica,sans-Serif" font-size="10.00">TExec.h</text>
</a>
</g>
</g>
<!-- Node1&#45;&gt;Node47 -->
<g id="edge49" class="edge">
<title>Node1&#45;&gt;Node47</title>
<path fill="none" stroke="midnightblue" d="M1787.4,-249.47C1913.21,-248.59 2224.42,-241.99 2492.09,-198.93"/>
<polygon fill="midnightblue" stroke="midnightblue" points="2492.69,-202.38 2501.99,-197.32 2491.56,-195.47 2492.69,-202.38"/>
</g>
<!-- Node48 -->
<g id="node48" class="node">
<title>Node48</title>
<g id="a_node48"><a xlink:title=" ">
<polygon fill="white" stroke="#bfbfbf" points="2571.5,-179.5 2571.5,-198.5 2651.5,-198.5 2651.5,-179.5 2571.5,-179.5"/>
<text text-anchor="middle" x="2611.5" y="-186.5" font-family="Helvetica,sans-Serif" font-size="10.00">TTimeStamp.h</text>
</a>
</g>
</g>
<!-- Node1&#45;&gt;Node48 -->
<g id="edge50" class="edge">
<title>Node1&#45;&gt;Node48</title>
<path fill="none" stroke="midnightblue" d="M1787.21,-248.42C1920.55,-245.38 2264.49,-234.57 2561.35,-198.99"/>
<polygon fill="midnightblue" stroke="midnightblue" points="2561.94,-202.44 2571.45,-197.76 2561.1,-195.49 2561.94,-202.44"/>
</g>
<!-- Node49 -->
<g id="node49" class="node">
<title>Node49</title>
<g id="a_node49"><a xlink:title=" ">
<polygon fill="white" stroke="#bfbfbf" points="2669.5,-179.5 2669.5,-198.5 2723.5,-198.5 2723.5,-179.5 2669.5,-179.5"/>
<text text-anchor="middle" x="2696.5" y="-186.5" font-family="Helvetica,sans-Serif" font-size="10.00">TLatex.h</text>
</a>
</g>
</g>
<!-- Node1&#45;&gt;Node49 -->
<g id="edge51" class="edge">
<title>Node1&#45;&gt;Node49</title>
<path fill="none" stroke="midnightblue" d="M1787.23,-250.17C1931.63,-251.06 2324.75,-248.49 2659.6,-198.82"/>
<polygon fill="midnightblue" stroke="midnightblue" points="2660.11,-202.29 2669.49,-197.34 2659.08,-195.36 2660.11,-202.29"/>
</g>
<!-- Node50 -->
<g id="node50" class="node">
<title>Node50</title>
<g id="a_node50"><a xlink:title=" ">
<polygon fill="white" stroke="#bfbfbf" points="2741.5,-179.5 2741.5,-198.5 2803.5,-198.5 2803.5,-179.5 2741.5,-179.5"/>
<text text-anchor="middle" x="2772.5" y="-186.5" font-family="Helvetica,sans-Serif" font-size="10.00">TLegend.h</text>
</a>
</g>
</g>
<!-- Node1&#45;&gt;Node50 -->
<g id="edge52" class="edge">
<title>Node1&#45;&gt;Node50</title>
<path fill="none" stroke="midnightblue" d="M1787.04,-250.02C1938.71,-250.71 2367.22,-247.91 2731.21,-198.94"/>
<polygon fill="midnightblue" stroke="midnightblue" points="2731.71,-202.4 2741.15,-197.59 2730.77,-195.46 2731.71,-202.4"/>
</g>
<!-- Node51 -->
<g id="node51" class="node">
<title>Node51</title>
<g id="a_node51"><a xlink:title=" ">
<polygon fill="white" stroke="#bfbfbf" points="2822,-179.5 2822,-198.5 2871,-198.5 2871,-179.5 2822,-179.5"/>
<text text-anchor="middle" x="2846.5" y="-186.5" font-family="Helvetica,sans-Serif" font-size="10.00">TText.h</text>
</a>
</g>
</g>
<!-- Node1&#45;&gt;Node51 -->
<g id="edge53" class="edge">
<title>Node1&#45;&gt;Node51</title>
<path fill="none" stroke="midnightblue" d="M1787.13,-248.44C1977.19,-244.65 2592.25,-230.33 2811.6,-198.72"/>
<polygon fill="midnightblue" stroke="midnightblue" points="2812.37,-202.14 2821.75,-197.2 2811.34,-195.22 2812.37,-202.14"/>
</g>
<!-- Node52 -->
<g id="node52" class="node">
<title>Node52</title>
<g id="a_node52"><a xlink:title=" ">
<polygon fill="white" stroke="#bfbfbf" points="2889,-179.5 2889,-198.5 2960,-198.5 2960,-179.5 2889,-179.5"/>
<text text-anchor="middle" x="2924.5" y="-186.5" font-family="Helvetica,sans-Serif" font-size="10.00">TPaveText.h</text>
</a>
</g>
</g>
<!-- Node1&#45;&gt;Node52 -->
<g id="edge54" class="edge">
<title>Node1&#45;&gt;Node52</title>
<path fill="none" stroke="midnightblue" d="M1787,-250.17C1953.24,-251.45 2455.07,-250.55 2878.57,-199.06"/>
<polygon fill="midnightblue" stroke="midnightblue" points="2879.06,-202.53 2888.56,-197.83 2878.21,-195.58 2879.06,-202.53"/>
</g>
<!-- Node53 -->
<g id="node53" class="node">
<title>Node53</title>
<g id="a_node53"><a xlink:title=" ">
<polygon fill="white" stroke="#bfbfbf" points="2978,-179.5 2978,-198.5 3035,-198.5 3035,-179.5 2978,-179.5"/>
<text text-anchor="middle" x="3006.5" y="-186.5" font-family="Helvetica,sans-Serif" font-size="10.00">TSpline.h</text>
</a>
</g>
</g>
<!-- Node1&#45;&gt;Node53 -->
<g id="edge55" class="edge">
<title>Node1&#45;&gt;Node53</title>
<path fill="none" stroke="midnightblue" d="M1787.11,-248.68C1994.94,-245.44 2716.36,-232.13 2967.75,-198.93"/>
<polygon fill="midnightblue" stroke="midnightblue" points="2968.49,-202.37 2977.93,-197.54 2967.54,-195.43 2968.49,-202.37"/>
</g>
<!-- Node54 -->
<g id="node54" class="node">
<title>Node54</title>
<g id="a_node54"><a xlink:title=" ">
<polygon fill="white" stroke="#bfbfbf" points="3053.5,-179.5 3053.5,-198.5 3105.5,-198.5 3105.5,-179.5 3053.5,-179.5"/>
<text text-anchor="middle" x="3079.5" y="-186.5" font-family="Helvetica,sans-Serif" font-size="10.00">TView.h</text>
</a>
</g>
</g>
<!-- Node1&#45;&gt;Node54 -->
<g id="edge56" class="edge">
<title>Node1&#45;&gt;Node54</title>
<path fill="none" stroke="midnightblue" d="M1787.15,-248.93C2003.21,-246.51 2776.32,-235.54 3043.21,-198.82"/>
<polygon fill="midnightblue" stroke="midnightblue" points="3043.84,-202.26 3053.25,-197.39 3042.86,-195.33 3043.84,-202.26"/>
</g>
<!-- Node55 -->
<g id="node55" class="node">
<title>Node55</title>
<g id="a_node55"><a xlink:title=" ">
<polygon fill="white" stroke="#bfbfbf" points="3123.5,-179.5 3123.5,-198.5 3201.5,-198.5 3201.5,-179.5 3123.5,-179.5"/>
<text text-anchor="middle" x="3162.5" y="-186.5" font-family="Helvetica,sans-Serif" font-size="10.00">TApplication.h</text>
</a>
</g>
</g>
<!-- Node1&#45;&gt;Node55 -->
<g id="edge57" class="edge">
<title>Node1&#45;&gt;Node55</title>
<path fill="none" stroke="midnightblue" d="M1787.38,-248.56C2010.95,-244.67 2830.55,-228.75 3113.05,-198.96"/>
<polygon fill="midnightblue" stroke="midnightblue" points="3113.72,-202.41 3123.28,-197.85 3112.96,-195.45 3113.72,-202.41"/>
</g>
<!-- Node56 -->
<g id="node56" class="node">
<title>Node56</title>
<g id="a_node56"><a xlink:title=" ">
<polygon fill="white" stroke="#bfbfbf" points="3219.5,-179.5 3219.5,-198.5 3291.5,-198.5 3291.5,-179.5 3219.5,-179.5"/>
<text text-anchor="middle" x="3255.5" y="-186.5" font-family="Helvetica,sans-Serif" font-size="10.00">TGWindow.h</text>
</a>
</g>
</g>
<!-- Node1&#45;&gt;Node56 -->
<g id="edge58" class="edge">
<title>Node1&#45;&gt;Node56</title>
<path fill="none" stroke="midnightblue" d="M1787.28,-248.8C2020.59,-245.75 2906.98,-232.25 3209.16,-198.93"/>
<polygon fill="midnightblue" stroke="midnightblue" points="3209.69,-202.39 3219.23,-197.78 3208.9,-195.43 3209.69,-202.39"/>
</g>
<!-- Node57 -->
<g id="node57" class="node">
<title>Node57</title>
<g id="a_node57"><a xlink:title=" ">
<polygon fill="white" stroke="#bfbfbf" points="3310,-179.5 3310,-198.5 3393,-198.5 3393,-179.5 3310,-179.5"/>
<text text-anchor="middle" x="3351.5" y="-186.5" font-family="Helvetica,sans-Serif" font-size="10.00">TRootCanvas.h</text>
</a>
</g>
</g>
<!-- Node1&#45;&gt;Node57 -->
<g id="edge59" class="edge">
<title>Node1&#45;&gt;Node57</title>
<path fill="none" stroke="midnightblue" d="M1787.37,-248.76C2029.66,-245.43 2977.55,-230.69 3299.55,-198.9"/>
<polygon fill="midnightblue" stroke="midnightblue" points="3300.22,-202.35 3309.82,-197.85 3299.52,-195.38 3300.22,-202.35"/>
</g>
<!-- Node3 -->
<g id="node3" class="node">
<title>Node3</title>
<g id="a_node3"><a xlink:href="Plot_8h.html" target="_top" xlink:title=" ">
<polygon fill="white" stroke="black" points="247,-123.5 247,-142.5 288,-142.5 288,-123.5 247,-123.5"/>
<text text-anchor="middle" x="267.5" y="-130.5" font-family="Helvetica,sans-Serif" font-size="10.00">Plot.h</text>
</a>
</g>
</g>
<!-- Node2&#45;&gt;Node3 -->
<g id="edge2" class="edge">
<title>Node2&#45;&gt;Node3</title>
<path fill="none" stroke="midnightblue" d="M267.5,-179.08C267.5,-172.01 267.5,-161.86 267.5,-152.99"/>
<polygon fill="midnightblue" stroke="midnightblue" points="271,-152.75 267.5,-142.75 264,-152.75 271,-152.75"/>
</g>
<!-- Node4 -->
<g id="node4" class="node">
<title>Node4</title>
<g id="a_node4"><a xlink:title=" ">
<polygon fill="white" stroke="#bfbfbf" points="0,-67.5 0,-86.5 73,-86.5 73,-67.5 0,-67.5"/>
<text text-anchor="middle" x="36.5" y="-74.5" font-family="Helvetica,sans-Serif" font-size="10.00">TAttMarker.h</text>
</a>
</g>
</g>
<!-- Node3&#45;&gt;Node4 -->
<g id="edge3" class="edge">
<title>Node3&#45;&gt;Node4</title>
<path fill="none" stroke="midnightblue" d="M246.59,-127.11C209.81,-118.51 132.71,-100.49 82.84,-88.83"/>
<polygon fill="midnightblue" stroke="midnightblue" points="83.48,-85.39 72.94,-86.52 81.88,-92.2 83.48,-85.39"/>
</g>
<!-- Node5 -->
<g id="node5" class="node">
<title>Node5</title>
<g id="a_node5"><a xlink:title=" ">
<polygon fill="white" stroke="#bfbfbf" points="91.5,-67.5 91.5,-86.5 153.5,-86.5 153.5,-67.5 91.5,-67.5"/>
<text text-anchor="middle" x="122.5" y="-74.5" font-family="Helvetica,sans-Serif" font-size="10.00">TAttLine.h</text>
</a>
</g>
</g>
<!-- Node3&#45;&gt;Node5 -->
<g id="edge4" class="edge">
<title>Node3&#45;&gt;Node5</title>
<path fill="none" stroke="midnightblue" d="M246.73,-124.26C222.77,-115.34 183.09,-100.56 155.03,-90.11"/>
<polygon fill="midnightblue" stroke="midnightblue" points="156.23,-86.83 145.63,-86.62 153.78,-93.39 156.23,-86.83"/>
</g>
<!-- Node6 -->
<g id="node6" class="node">
<title>Node6</title>
<g id="a_node6"><a xlink:title=" ">
<polygon fill="white" stroke="#bfbfbf" points="171.5,-67.5 171.5,-86.5 227.5,-86.5 227.5,-67.5 171.5,-67.5"/>
<text text-anchor="middle" x="199.5" y="-74.5" font-family="Helvetica,sans-Serif" font-size="10.00">TAttFill.h</text>
</a>
</g>
</g>
<!-- Node3&#45;&gt;Node6 -->
<g id="edge5" class="edge">
<title>Node3&#45;&gt;Node6</title>
<path fill="none" stroke="midnightblue" d="M256.57,-123.32C246.33,-115.18 230.78,-102.84 218.5,-93.09"/>
<polygon fill="midnightblue" stroke="midnightblue" points="220.63,-90.31 210.62,-86.83 216.28,-95.79 220.63,-90.31"/>
</g>
<!-- Node7 -->
<g id="node7" class="node">
<title>Node7</title>
<g id="a_node7"><a xlink:title=" ">
<polygon fill="white" stroke="#bfbfbf" points="245.5,-67.5 245.5,-86.5 305.5,-86.5 305.5,-67.5 245.5,-67.5"/>
<text text-anchor="middle" x="275.5" y="-74.5" font-family="Helvetica,sans-Serif" font-size="10.00">TCandle.h</text>
</a>
</g>
</g>
<!-- Node3&#45;&gt;Node7 -->
<g id="edge6" class="edge">
<title>Node3&#45;&gt;Node7</title>
<path fill="none" stroke="midnightblue" d="M268.82,-123.08C269.88,-115.93 271.41,-105.64 272.73,-96.69"/>
<polygon fill="midnightblue" stroke="midnightblue" points="276.2,-97.16 274.2,-86.75 269.28,-96.13 276.2,-97.16"/>
</g>
<!-- Node8 -->
<g id="node8" class="node">
<title>Node8</title>
<g id="a_node8"><a xlink:title=" ">
<polygon fill="white" stroke="#bfbfbf" points="323.5,-67.5 323.5,-86.5 377.5,-86.5 377.5,-67.5 323.5,-67.5"/>
<text text-anchor="middle" x="350.5" y="-74.5" font-family="Helvetica,sans-Serif" font-size="10.00">Rtypes.h</text>
</a>
</g>
</g>
<!-- Node3&#45;&gt;Node8 -->
<g id="edge7" class="edge">
<title>Node3&#45;&gt;Node8</title>
<path fill="none" stroke="midnightblue" d="M280.84,-123.32C293.66,-114.98 313.28,-102.21 328.44,-92.35"/>
<polygon fill="midnightblue" stroke="midnightblue" points="330.72,-95.04 337.2,-86.65 326.91,-89.17 330.72,-95.04"/>
</g>
<!-- Node3&#45;&gt;Node9 -->
<g id="edge8" class="edge">
<title>Node3&#45;&gt;Node9</title>
<path fill="none" stroke="midnightblue" d="M288.26,-125.81C317.89,-116.97 372.8,-100.58 409.99,-89.49"/>
<polygon fill="midnightblue" stroke="midnightblue" points="411.39,-92.72 419.97,-86.51 409.39,-86.02 411.39,-92.72"/>
</g>
<!-- Node10 -->
<g id="node10" class="node">
<title>Node10</title>
<g id="a_node10"><a xlink:title=" ">
<polygon fill="white" stroke="#bfbfbf" points="219.5,-6 219.5,-25 273.5,-25 273.5,-6 219.5,-6"/>
<text text-anchor="middle" x="246.5" y="-13" font-family="Helvetica,sans-Serif" font-size="10.00">iostream</text>
</a>
</g>
</g>
<!-- Node9&#45;&gt;Node10 -->
<g id="edge9" class="edge">
<title>Node9&#45;&gt;Node10</title>
<path fill="none" stroke="midnightblue" d="M412.19,-67.47C378.31,-59.2 326.52,-45.77 282.5,-31 280.37,-30.29 278.19,-29.51 276,-28.71"/>
<polygon fill="midnightblue" stroke="midnightblue" points="277.12,-25.39 266.53,-25.05 274.6,-31.92 277.12,-25.39"/>
</g>
<!-- Node11 -->
<g id="node11" class="node">
<title>Node11</title>
<g id="a_node11"><a xlink:title=" ">
<polygon fill="white" stroke="#bfbfbf" points="292,-6 292,-25 327,-25 327,-6 292,-6"/>
<text text-anchor="middle" x="309.5" y="-13" font-family="Helvetica,sans-Serif" font-size="10.00">map</text>
</a>
</g>
</g>
<!-- Node9&#45;&gt;Node11 -->
<g id="edge10" class="edge">
<title>Node9&#45;&gt;Node11</title>
<path fill="none" stroke="midnightblue" d="M425.01,-67.43C402.13,-58.88 366.49,-45.03 336.5,-31 335.66,-30.61 334.8,-30.2 333.94,-29.78"/>
<polygon fill="midnightblue" stroke="midnightblue" points="335.27,-26.52 324.77,-25.08 332.07,-32.75 335.27,-26.52"/>
</g>
<!-- Node12 -->
<g id="node12" class="node">
<title>Node12</title>
<g id="a_node12"><a xlink:title=" ">
<polygon fill="white" stroke="#bfbfbf" points="345.5,-6 345.5,-25 375.5,-25 375.5,-6 345.5,-6"/>
<text text-anchor="middle" x="360.5" y="-13" font-family="Helvetica,sans-Serif" font-size="10.00">set</text>
</a>
</g>
</g>
<!-- Node9&#45;&gt;Node12 -->
<g id="edge11" class="edge">
<title>Node9&#45;&gt;Node12</title>
<path fill="none" stroke="midnightblue" d="M435.89,-67.48C421.78,-57.93 398.67,-42.31 381.75,-30.87"/>
<polygon fill="midnightblue" stroke="midnightblue" points="383.33,-27.71 373.08,-25.01 379.41,-33.51 383.33,-27.71"/>
</g>
<!-- Node13 -->
<g id="node13" class="node">
<title>Node13</title>
<g id="a_node13"><a xlink:title=" ">
<polygon fill="white" stroke="#bfbfbf" points="393.5,-6 393.5,-25 439.5,-25 439.5,-6 393.5,-6"/>
<text text-anchor="middle" x="416.5" y="-13" font-family="Helvetica,sans-Serif" font-size="10.00">variant</text>
</a>
</g>
</g>
<!-- Node9&#45;&gt;Node13 -->
<g id="edge12" class="edge">
<title>Node9&#45;&gt;Node13</title>
<path fill="none" stroke="midnightblue" d="M443.92,-67.48C439.26,-58.82 431.91,-45.15 425.99,-34.15"/>
<polygon fill="midnightblue" stroke="midnightblue" points="428.9,-32.16 421.08,-25.01 422.73,-35.47 428.9,-32.16"/>
</g>
<!-- Node14 -->
<g id="node14" class="node">
<title>Node14</title>
<g id="a_node14"><a xlink:title=" ">
<polygon fill="white" stroke="#bfbfbf" points="457.5,-6 457.5,-25 501.5,-25 501.5,-6 457.5,-6"/>
<text text-anchor="middle" x="479.5" y="-13" font-family="Helvetica,sans-Serif" font-size="10.00">cmath</text>
</a>
</g>
</g>
<!-- Node9&#45;&gt;Node14 -->
<g id="edge13" class="edge">
<title>Node9&#45;&gt;Node14</title>
<path fill="none" stroke="midnightblue" d="M452.94,-67.48C457.45,-58.82 464.57,-45.15 470.31,-34.15"/>
<polygon fill="midnightblue" stroke="midnightblue" points="473.55,-35.49 475.07,-25.01 467.34,-32.26 473.55,-35.49"/>
</g>
<!-- Node15 -->
<g id="node15" class="node">
<title>Node15</title>
<g id="a_node15"><a xlink:title=" ">
<polygon fill="white" stroke="#bfbfbf" points="519.5,-6 519.5,-25 565.5,-25 565.5,-6 519.5,-6"/>
<text text-anchor="middle" x="542.5" y="-13" font-family="Helvetica,sans-Serif" font-size="10.00">cstdint</text>
</a>
</g>
</g>
<!-- Node9&#45;&gt;Node15 -->
<g id="edge14" class="edge">
<title>Node9&#45;&gt;Node15</title>
<path fill="none" stroke="midnightblue" d="M461.97,-67.48C477.18,-57.84 502.19,-42.02 520.3,-30.55"/>
<polygon fill="midnightblue" stroke="midnightblue" points="522.48,-33.31 529.06,-25.01 518.74,-27.4 522.48,-33.31"/>
</g>
<!-- Node16 -->
<g id="node16" class="node">
<title>Node16</title>
<g id="a_node16"><a xlink:title=" ">
<polygon fill="white" stroke="#bfbfbf" points="583.5,-0.5 583.5,-30.5 683.5,-30.5 683.5,-0.5 583.5,-0.5"/>
<text text-anchor="start" x="591.5" y="-18.5" font-family="Helvetica,sans-Serif" font-size="10.00">boost/property_tree</text>
<text text-anchor="middle" x="633.5" y="-7.5" font-family="Helvetica,sans-Serif" font-size="10.00">/ptree.hpp</text>
</a>
</g>
</g>
<!-- Node9&#45;&gt;Node16 -->
<g id="edge15" class="edge">
<title>Node9&#45;&gt;Node16</title>
<path fill="none" stroke="midnightblue" d="M475.01,-67.48C502.29,-58.7 545.55,-44.79 579.98,-33.71"/>
<polygon fill="midnightblue" stroke="midnightblue" points="581.45,-36.92 589.9,-30.52 579.31,-30.25 581.45,-36.92"/>
</g>
<!-- Node17 -->
<g id="node17" class="node">
<title>Node17</title>
<g id="a_node17"><a xlink:title=" ">
<polygon fill="white" stroke="#bfbfbf" points="702,-6 702,-25 785,-25 785,-6 702,-6"/>
<text text-anchor="middle" x="743.5" y="-13" font-family="Helvetica,sans-Serif" font-size="10.00">unordered_map</text>
</a>
</g>
</g>
<!-- Node9&#45;&gt;Node17 -->
<g id="edge16" class="edge">
<title>Node9&#45;&gt;Node17</title>
<path fill="none" stroke="midnightblue" d="M501.63,-67.69C551.26,-59.58 627.28,-46.25 692.5,-31 696.68,-30.02 701.04,-28.92 705.36,-27.77"/>
<polygon fill="midnightblue" stroke="midnightblue" points="706.59,-31.06 715.3,-25.03 704.73,-24.31 706.59,-31.06"/>
</g>
<!-- Node19 -->
<g id="node19" class="node">
<title>Node19</title>
<g id="a_node19"><a xlink:title=" ">
<polygon fill="white" stroke="#bfbfbf" points="359.5,-123.5 359.5,-142.5 419.5,-142.5 419.5,-123.5 359.5,-123.5"/>
<text text-anchor="middle" x="389.5" y="-130.5" font-family="Helvetica,sans-Serif" font-size="10.00">fmt/core.h</text>
</a>
</g>
</g>
<!-- Node18&#45;&gt;Node19 -->
<g id="edge19" class="edge">
<title>Node18&#45;&gt;Node19</title>
<path fill="none" stroke="midnightblue" d="M389.5,-179.08C389.5,-172.01 389.5,-161.86 389.5,-152.99"/>
<polygon fill="midnightblue" stroke="midnightblue" points="393,-152.75 389.5,-142.75 386,-152.75 393,-152.75"/>
</g>
<!-- Node20&#45;&gt;Node9 -->
<g id="edge21" class="edge">
<title>Node20&#45;&gt;Node9</title>
<path fill="none" stroke="midnightblue" d="M465.09,-179.37C462.18,-161.62 455.48,-120.67 451.54,-96.6"/>
<polygon fill="midnightblue" stroke="midnightblue" points="454.97,-95.89 449.91,-86.59 448.07,-97.03 454.97,-95.89"/>
</g>
<!-- Node20&#45;&gt;Node21 -->
<g id="edge22" class="edge">
<title>Node20&#45;&gt;Node21</title>
<path fill="none" stroke="midnightblue" d="M475.25,-179.08C482.97,-171.22 494.4,-159.57 503.72,-150.08"/>
<polygon fill="midnightblue" stroke="midnightblue" points="506.4,-152.34 510.91,-142.75 501.41,-147.44 506.4,-152.34"/>
</g>
</g>
</svg>
        <g id="navigator" transform="translate(0 0)" fill="#404254">
                <rect fill="#f2f5e9" fill-opacity="0.5" stroke="#606060" stroke-width=".5" x="0" y="0" width="60" height="60"/>
                <use id="zoomplus" xlink:href="#zoomPlus" x="17" y="9" onmousedown="handleZoom(evt,'in')"/>
                <use id="zoomminus" xlink:href="#zoomMin" x="42" y="9" onmousedown="handleZoom(evt,'out')"/>
                <use id="reset" xlink:href="#resetDef" x="30" y="36" onmousedown="handleReset()"/>
                <g id="arrowUp" xlink:href="#dirArrow" transform="translate(30 24)" onmousedown="handlePan(0,-1)">
                  <use xlink:href="#rim" fill="#404040">
                        <set attributeName="fill" to="#808080" begin="arrowUp.mouseover" end="arrowUp.mouseout"/>
                  </use>
                  <path fill="none" stroke="white" stroke-width="1.5" d="M0,-3.0v7 M-2.5,-0.5L0,-3.0L2.5,-0.5"/>
                </g>
                <g id="arrowRight" xlink:href="#dirArrow" transform="rotate(90) translate(36 -43)" onmousedown="handlePan(1,0)">
                  <use xlink:href="#rim" fill="#404040">
                        <set attributeName="fill" to="#808080" begin="arrowRight.mouseover" end="arrowRight.mouseout"/>
                  </use>
                  <path fill="none" stroke="white" stroke-width="1.5" d="M0,-3.0v7 M-2.5,-0.5L0,-3.0L2.5,-0.5"/>
                </g>
                <g id="arrowDown" xlink:href="#dirArrow" transform="rotate(180) translate(-30 -48)" onmousedown="handlePan(0,1)">
                  <use xlink:href="#rim" fill="#404040">
                        <set attributeName="fill" to="#808080" begin="arrowDown.mouseover" end="arrowDown.mouseout"/>
                  </use>
                  <path fill="none" stroke="white" stroke-width="1.5" d="M0,-3.0v7 M-2.5,-0.5L0,-3.0L2.5,-0.5"/>
                </g>
                <g id="arrowLeft" xlink:href="#dirArrow" transform="rotate(270) translate(-36 17)" onmousedown="handlePan(-1,0)">
                  <use xlink:href="#rim" fill="#404040">
                        <set attributeName="fill" to="#808080" begin="arrowLeft.mouseover" end="arrowLeft.mouseout"/>
                  </use>
                  <path fill="none" stroke="white" stroke-width="1.5" d="M0,-3.0v7 M-2.5,-0.5L0,-3.0L2.5,-0.5"/>
                </g>
        </g>
        <svg viewBox="0 0 15 15" width="100%" height="30px" preserveAspectRatio="xMaxYMin meet">
         <g id="arrow_out" transform="scale(0.3 0.3)">
          <a xlink:href="PlotPainter_8cxx__incl_org.svg" target="_base">
           <rect id="button" ry="5" rx="5" y="6" x="6" height="38" width="38"
                fill="#f2f5e9" fill-opacity="0.5" stroke="#606060" stroke-width="1.0"/>
           <path id="arrow"
             d="M 11.500037,31.436501 C 11.940474,20.09759 22.043105,11.32322 32.158766,21.979434 L 37.068811,17.246167 C 37.068811,17.246167 37.088388,32 37.088388,32 L 22.160133,31.978069 C 22.160133,31.978069 26.997745,27.140456 26.997745,27.140456 C 18.528582,18.264221 13.291696,25.230495 11.500037,31.436501 z"
             style="fill:#404040;"/>
          </a>
         </g>
        </svg>
</svg>
