<?xml version="1.0" encoding="UTF-8" standalone="no"?>
<!DOCTYPE svg PUBLIC "-//W3C//DTD SVG 1.1//EN"
 "http://www.w3.org/Graphics/SVG/1.1/DTD/svg11.dtd">
<!-- Generated by graphviz version 3.0.0 (20220413.0242)
 -->
<!-- Title: /github/workspace/src/PlotManager.cxx Pages: 1 -->
<svg width="1694pt" height="285pt"
 viewBox="0.00 0.00 1693.50 285.00" xmlns="http://www.w3.org/2000/svg" xmlns:xlink="http://www.w3.org/1999/xlink">
<g id="graph0" class="graph" transform="scale(1 1) rotate(0) translate(4 281)">
<title>/github/workspace/src/PlotManager.cxx</title>
<polygon fill="white" stroke="transparent" points="-4,4 -4,-281 1689.5,-281 1689.5,4 -4,4"/>
<!-- Node1 -->
<g id="node1" class="node">
<title>Node1</title>
<g id="a_node1"><a xlink:title=" ">
<polygon fill="#bfbfbf" stroke="black" points="912.5,-246.5 912.5,-276.5 1025.5,-276.5 1025.5,-246.5 912.5,-246.5"/>
<text text-anchor="start" x="920.5" y="-264.5" font-family="Helvetica,sans-Serif" font-size="10.00">/github/workspace/src</text>
<text text-anchor="middle" x="969" y="-253.5" font-family="Helvetica,sans-Serif" font-size="10.00">/PlotManager.cxx</text>
</a>
</g>
</g>
<!-- Node2 -->
<g id="node2" class="node">
<title>Node2</title>
<g id="a_node2"><a xlink:href="PlotManager_8h.html" target="_top" xlink:title=" ">
<polygon fill="white" stroke="black" points="211.5,-185 211.5,-204 290.5,-204 290.5,-185 211.5,-185"/>
<text text-anchor="middle" x="251" y="-192" font-family="Helvetica,sans-Serif" font-size="10.00">PlotManager.h</text>
</a>
</g>
</g>
<!-- Node1&#45;&gt;Node2 -->
<g id="edge1" class="edge">
<title>Node1&#45;&gt;Node2</title>
<path fill="none" stroke="midnightblue" d="M912.44,-260.38C796.4,-259.22 523.47,-251.85 299,-210 294.55,-209.17 289.92,-208.08 285.38,-206.87"/>
<polygon fill="midnightblue" stroke="midnightblue" points="286.24,-203.47 275.66,-204.07 284.3,-210.2 286.24,-203.47"/>
</g>
<!-- Node18 -->
<g id="node18" class="node">
<title>Node18</title>
<g id="a_node18"><a xlink:href="PlotPainter_8h.html" target="_top" xlink:title=" ">
<polygon fill="white" stroke="black" points="384,-185 384,-204 456,-204 456,-185 384,-185"/>
<text text-anchor="middle" x="420" y="-192" font-family="Helvetica,sans-Serif" font-size="10.00">PlotPainter.h</text>
</a>
</g>
</g>
<!-- Node1&#45;&gt;Node18 -->
<g id="edge18" class="edge">
<title>Node1&#45;&gt;Node18</title>
<path fill="none" stroke="midnightblue" d="M912.39,-258.12C819.34,-253.45 628.57,-240.75 470,-210 465.31,-209.09 460.43,-207.94 455.63,-206.68"/>
<polygon fill="midnightblue" stroke="midnightblue" points="456.56,-203.31 445.99,-204.01 454.69,-210.05 456.56,-203.31"/>
</g>
<!-- Node19 -->
<g id="node19" class="node">
<title>Node19</title>
<g id="a_node19"><a xlink:href="Logging_8h.html" target="_top" xlink:title=" ">
<polygon fill="white" stroke="black" points="512.5,-185 512.5,-204 571.5,-204 571.5,-185 512.5,-185"/>
<text text-anchor="middle" x="542" y="-192" font-family="Helvetica,sans-Serif" font-size="10.00">Logging.h</text>
</a>
</g>
</g>
<!-- Node1&#45;&gt;Node19 -->
<g id="edge20" class="edge">
<title>Node1&#45;&gt;Node19</title>
<path fill="none" stroke="midnightblue" d="M912.36,-257.16C836.13,-251.75 696.72,-238.65 581,-210 578.01,-209.26 574.94,-208.36 571.89,-207.39"/>
<polygon fill="midnightblue" stroke="midnightblue" points="572.97,-204.06 562.37,-204.06 570.66,-210.66 572.97,-204.06"/>
</g>
<!-- Node21 -->
<g id="node21" class="node">
<title>Node21</title>
<g id="a_node21"><a xlink:href="Helpers_8h.html" target="_top" xlink:title=" ">
<polygon fill="white" stroke="black" points="308,-185 308,-204 366,-204 366,-185 308,-185"/>
<text text-anchor="middle" x="337" y="-192" font-family="Helvetica,sans-Serif" font-size="10.00">Helpers.h</text>
</a>
</g>
</g>
<!-- Node1&#45;&gt;Node21 -->
<g id="edge22" class="edge">
<title>Node1&#45;&gt;Node21</title>
<path fill="none" stroke="midnightblue" d="M912.09,-260.91C805.37,-260.53 568.47,-254.21 375,-210 372,-209.31 368.92,-208.44 365.87,-207.47"/>
<polygon fill="midnightblue" stroke="midnightblue" points="366.99,-204.15 356.4,-204.1 364.65,-210.74 366.99,-204.15"/>
</g>
<!-- Node22 -->
<g id="node22" class="node">
<title>Node22</title>
<g id="a_node22"><a xlink:title=" ">
<polygon fill="white" stroke="#bfbfbf" points="452.5,-123.5 452.5,-142.5 515.5,-142.5 515.5,-123.5 452.5,-123.5"/>
<text text-anchor="middle" x="484" y="-130.5" font-family="Helvetica,sans-Serif" font-size="10.00">TSystem.h</text>
</a>
</g>
</g>
<!-- Node1&#45;&gt;Node22 -->
<g id="edge30" class="edge">
<title>Node1&#45;&gt;Node22</title>
<path fill="none" stroke="midnightblue" d="M912.46,-257.91C795.31,-252.05 534.42,-236.19 504,-210 487.72,-195.98 483.9,-170.44 483.37,-152.87"/>
<polygon fill="midnightblue" stroke="midnightblue" points="486.87,-152.68 483.4,-142.67 479.87,-152.66 486.87,-152.68"/>
</g>
<!-- Node23 -->
<g id="node23" class="node">
<title>Node23</title>
<g id="a_node23"><a xlink:title=" ">
<polygon fill="white" stroke="#bfbfbf" points="590,-185 590,-204 630,-204 630,-185 590,-185"/>
<text text-anchor="middle" x="610" y="-192" font-family="Helvetica,sans-Serif" font-size="10.00">regex</text>
</a>
</g>
</g>
<!-- Node1&#45;&gt;Node23 -->
<g id="edge25" class="edge">
<title>Node1&#45;&gt;Node23</title>
<path fill="none" stroke="midnightblue" d="M912.32,-257.2C845.59,-252.1 732.07,-239.58 639,-210 637.38,-209.48 635.73,-208.89 634.1,-208.24"/>
<polygon fill="midnightblue" stroke="midnightblue" points="635.53,-205.04 624.98,-204.1 632.64,-211.42 635.53,-205.04"/>
</g>
<!-- Node24 -->
<g id="node24" class="node">
<title>Node24</title>
<g id="a_node24"><a xlink:title=" ">
<polygon fill="white" stroke="#bfbfbf" points="648,-185 648,-204 708,-204 708,-185 648,-185"/>
<text text-anchor="middle" x="678" y="-192" font-family="Helvetica,sans-Serif" font-size="10.00">filesystem</text>
</a>
</g>
</g>
<!-- Node1&#45;&gt;Node24 -->
<g id="edge26" class="edge">
<title>Node1&#45;&gt;Node24</title>
<path fill="none" stroke="midnightblue" d="M912.34,-251.78C860.86,-243.24 783.1,-228.78 717,-210 714.36,-209.25 711.63,-208.4 708.92,-207.5"/>
<polygon fill="midnightblue" stroke="midnightblue" points="709.85,-204.12 699.25,-204.09 707.52,-210.72 709.85,-204.12"/>
</g>
<!-- Node25 -->
<g id="node25" class="node">
<title>Node25</title>
<g id="a_node25"><a xlink:title=" ">
<polygon fill="white" stroke="#bfbfbf" points="726,-179.5 726,-209.5 826,-209.5 826,-179.5 726,-179.5"/>
<text text-anchor="start" x="734" y="-197.5" font-family="Helvetica,sans-Serif" font-size="10.00">boost/property_tree</text>
<text text-anchor="middle" x="776" y="-186.5" font-family="Helvetica,sans-Serif" font-size="10.00">/xml_parser.hpp</text>
</a>
</g>
</g>
<!-- Node1&#45;&gt;Node25 -->
<g id="edge27" class="edge">
<title>Node1&#45;&gt;Node25</title>
<path fill="none" stroke="midnightblue" d="M927.12,-246.4C897.91,-236.56 858.74,-223.37 827.6,-212.88"/>
<polygon fill="midnightblue" stroke="midnightblue" points="828.39,-209.45 817.8,-209.58 826.16,-216.09 828.39,-209.45"/>
</g>
<!-- Node26 -->
<g id="node26" class="node">
<title>Node26</title>
<g id="a_node26"><a xlink:title=" ">
<polygon fill="white" stroke="#bfbfbf" points="844,-185 844,-204 922,-204 922,-185 844,-185"/>
<text text-anchor="middle" x="883" y="-192" font-family="Helvetica,sans-Serif" font-size="10.00">TApplication.h</text>
</a>
</g>
</g>
<!-- Node1&#45;&gt;Node26 -->
<g id="edge28" class="edge">
<title>Node1&#45;&gt;Node26</title>
<path fill="none" stroke="midnightblue" d="M950.34,-246.4C936.27,-235.76 917.01,-221.2 902.69,-210.38"/>
<polygon fill="midnightblue" stroke="midnightblue" points="904.59,-207.43 894.5,-204.19 900.37,-213.02 904.59,-207.43"/>
</g>
<!-- Node27 -->
<g id="node27" class="node">
<title>Node27</title>
<g id="a_node27"><a xlink:title=" ">
<polygon fill="white" stroke="#bfbfbf" points="940,-185 940,-204 998,-204 998,-185 940,-185"/>
<text text-anchor="middle" x="969" y="-192" font-family="Helvetica,sans-Serif" font-size="10.00">TROOT.h</text>
</a>
</g>
</g>
<!-- Node1&#45;&gt;Node27 -->
<g id="edge29" class="edge">
<title>Node1&#45;&gt;Node27</title>
<path fill="none" stroke="midnightblue" d="M969,-246.4C969,-237.06 969,-224.71 969,-214.52"/>
<polygon fill="midnightblue" stroke="midnightblue" points="972.5,-214.19 969,-204.19 965.5,-214.19 972.5,-214.19"/>
</g>
<!-- Node28 -->
<g id="node28" class="node">
<title>Node28</title>
<g id="a_node28"><a xlink:title=" ">
<polygon fill="white" stroke="#bfbfbf" points="1016,-185 1016,-204 1066,-204 1066,-185 1016,-185"/>
<text text-anchor="middle" x="1041" y="-192" font-family="Helvetica,sans-Serif" font-size="10.00">TError.h</text>
</a>
</g>
</g>
<!-- Node1&#45;&gt;Node28 -->
<g id="edge31" class="edge">
<title>Node1&#45;&gt;Node28</title>
<path fill="none" stroke="midnightblue" d="M984.62,-246.4C996.18,-235.96 1011.92,-221.75 1023.83,-211"/>
<polygon fill="midnightblue" stroke="midnightblue" points="1026.29,-213.49 1031.37,-204.19 1021.6,-208.3 1026.29,-213.49"/>
</g>
<!-- Node29 -->
<g id="node29" class="node">
<title>Node29</title>
<g id="a_node29"><a xlink:title=" ">
<polygon fill="white" stroke="#bfbfbf" points="1084,-185 1084,-204 1130,-204 1130,-185 1084,-185"/>
<text text-anchor="middle" x="1107" y="-192" font-family="Helvetica,sans-Serif" font-size="10.00">TFile.h</text>
</a>
</g>
</g>
<!-- Node1&#45;&gt;Node29 -->
<g id="edge32" class="edge">
<title>Node1&#45;&gt;Node29</title>
<path fill="none" stroke="midnightblue" d="M998.94,-246.4C1022.94,-235.09 1056.34,-219.36 1079.63,-208.39"/>
<polygon fill="midnightblue" stroke="midnightblue" points="1081.38,-211.43 1088.94,-204.01 1078.4,-205.1 1081.38,-211.43"/>
</g>
<!-- Node30 -->
<g id="node30" class="node">
<title>Node30</title>
<g id="a_node30"><a xlink:title=" ">
<polygon fill="white" stroke="#bfbfbf" points="1148.5,-185 1148.5,-204 1231.5,-204 1231.5,-185 1148.5,-185"/>
<text text-anchor="middle" x="1190" y="-192" font-family="Helvetica,sans-Serif" font-size="10.00">TRootCanvas.h</text>
</a>
</g>
</g>
<!-- Node1&#45;&gt;Node30 -->
<g id="edge33" class="edge">
<title>Node1&#45;&gt;Node30</title>
<path fill="none" stroke="midnightblue" d="M1016.68,-246.48C1056.81,-234.67 1113.5,-218 1150.97,-206.98"/>
<polygon fill="midnightblue" stroke="midnightblue" points="1152.4,-210.21 1161,-204.03 1150.42,-203.49 1152.4,-210.21"/>
</g>
<!-- Node31 -->
<g id="node31" class="node">
<title>Node31</title>
<g id="a_node31"><a xlink:title=" ">
<polygon fill="white" stroke="#bfbfbf" points="1249.5,-185 1249.5,-204 1312.5,-204 1312.5,-185 1249.5,-185"/>
<text text-anchor="middle" x="1281" y="-192" font-family="Helvetica,sans-Serif" font-size="10.00">TCanvas.h</text>
</a>
</g>
</g>
<!-- Node1&#45;&gt;Node31 -->
<g id="edge34" class="edge">
<title>Node1&#45;&gt;Node31</title>
<path fill="none" stroke="midnightblue" d="M1025.61,-252.76C1081.05,-244.54 1167.66,-229.96 1241,-210 1243.81,-209.24 1246.7,-208.36 1249.58,-207.44"/>
<polygon fill="midnightblue" stroke="midnightblue" points="1250.88,-210.69 1259.2,-204.13 1248.61,-204.07 1250.88,-210.69"/>
</g>
<!-- Node32 -->
<g id="node32" class="node">
<title>Node32</title>
<g id="a_node32"><a xlink:title=" ">
<polygon fill="white" stroke="#bfbfbf" points="1330.5,-185 1330.5,-204 1377.5,-204 1377.5,-185 1330.5,-185"/>
<text text-anchor="middle" x="1354" y="-192" font-family="Helvetica,sans-Serif" font-size="10.00">TKey.h</text>
</a>
</g>
</g>
<!-- Node1&#45;&gt;Node32 -->
<g id="edge35" class="edge">
<title>Node1&#45;&gt;Node32</title>
<path fill="none" stroke="midnightblue" d="M1025.67,-257.34C1096.29,-252.29 1220.07,-239.73 1322,-210 1323.93,-209.44 1325.9,-208.78 1327.86,-208.06"/>
<polygon fill="midnightblue" stroke="midnightblue" points="1329.51,-211.16 1337.4,-204.1 1326.82,-204.7 1329.51,-211.16"/>
</g>
<!-- Node33 -->
<g id="node33" class="node">
<title>Node33</title>
<g id="a_node33"><a xlink:title=" ">
<polygon fill="white" stroke="#bfbfbf" points="1395.5,-185 1395.5,-204 1438.5,-204 1438.5,-185 1395.5,-185"/>
<text text-anchor="middle" x="1417" y="-192" font-family="Helvetica,sans-Serif" font-size="10.00">TH1.h</text>
</a>
</g>
</g>
<!-- Node1&#45;&gt;Node33 -->
<g id="edge36" class="edge">
<title>Node1&#45;&gt;Node33</title>
<path fill="none" stroke="midnightblue" d="M1025.62,-259.53C1107.11,-256.84 1261.44,-246.82 1387,-210 1388.87,-209.45 1390.77,-208.79 1392.66,-208.07"/>
<polygon fill="midnightblue" stroke="midnightblue" points="1394.08,-211.27 1401.82,-204.04 1391.26,-204.86 1394.08,-211.27"/>
</g>
<!-- Node34 -->
<g id="node34" class="node">
<title>Node34</title>
<g id="a_node34"><a xlink:title=" ">
<polygon fill="white" stroke="#bfbfbf" points="1457,-185 1457,-204 1539,-204 1539,-185 1457,-185"/>
<text text-anchor="middle" x="1498" y="-192" font-family="Helvetica,sans-Serif" font-size="10.00">TGraphErrors.h</text>
</a>
</g>
</g>
<!-- Node1&#45;&gt;Node34 -->
<g id="edge37" class="edge">
<title>Node1&#45;&gt;Node34</title>
<path fill="none" stroke="midnightblue" d="M1025.53,-257.79C1115.62,-252.74 1297.01,-239.61 1448,-210 1452.51,-209.12 1457.21,-208.01 1461.83,-206.81"/>
<polygon fill="midnightblue" stroke="midnightblue" points="1463.04,-210.1 1471.75,-204.06 1461.18,-203.35 1463.04,-210.1"/>
</g>
<!-- Node35 -->
<g id="node35" class="node">
<title>Node35</title>
<g id="a_node35"><a xlink:title=" ">
<polygon fill="white" stroke="#bfbfbf" points="1557.5,-185 1557.5,-204 1614.5,-204 1614.5,-185 1557.5,-185"/>
<text text-anchor="middle" x="1586" y="-192" font-family="Helvetica,sans-Serif" font-size="10.00">TFolder.h</text>
</a>
</g>
</g>
<!-- Node1&#45;&gt;Node35 -->
<g id="edge38" class="edge">
<title>Node1&#45;&gt;Node35</title>
<path fill="none" stroke="midnightblue" d="M1025.7,-260.73C1130.31,-260.02 1360.17,-253.14 1548,-210 1551,-209.31 1554.08,-208.44 1557.13,-207.46"/>
<polygon fill="midnightblue" stroke="midnightblue" points="1558.35,-210.74 1566.6,-204.09 1556.01,-204.14 1558.35,-210.74"/>
</g>
<!-- Node36 -->
<g id="node36" class="node">
<title>Node36</title>
<g id="a_node36"><a xlink:title=" ">
<polygon fill="white" stroke="#bfbfbf" points="1632.5,-185 1632.5,-204 1685.5,-204 1685.5,-185 1632.5,-185"/>
<text text-anchor="middle" x="1659" y="-192" font-family="Helvetica,sans-Serif" font-size="10.00">TPave.h</text>
</a>
</g>
</g>
<!-- Node1&#45;&gt;Node36 -->
<g id="edge39" class="edge">
<title>Node1&#45;&gt;Node36</title>
<path fill="none" stroke="midnightblue" d="M1025.6,-258.43C1162.96,-253.03 1511,-237.04 1624,-210 1626.52,-209.4 1629.09,-208.64 1631.64,-207.78"/>
<polygon fill="midnightblue" stroke="midnightblue" points="1633.1,-210.97 1641.2,-204.15 1630.61,-204.43 1633.1,-210.97"/>
</g>
<!-- Node3 -->
<g id="node3" class="node">
<title>Node3</title>
<g id="a_node3"><a xlink:href="PlottingFramework_8h.html" target="_top" xlink:title=" ">
<polygon fill="white" stroke="black" points="175,-67.5 175,-86.5 281,-86.5 281,-67.5 175,-67.5"/>
<text text-anchor="middle" x="228" y="-74.5" font-family="Helvetica,sans-Serif" font-size="10.00">PlottingFramework.h</text>
</a>
</g>
</g>
<!-- Node2&#45;&gt;Node3 -->
<g id="edge2" class="edge">
<title>Node2&#45;&gt;Node3</title>
<path fill="none" stroke="midnightblue" d="M249.27,-184.82C245.56,-166.17 236.75,-121.94 231.71,-96.63"/>
<polygon fill="midnightblue" stroke="midnightblue" points="235.13,-95.91 229.75,-86.78 228.27,-97.27 235.13,-95.91"/>
</g>
<!-- Node12 -->
<g id="node12" class="node">
<title>Node12</title>
<g id="a_node12"><a xlink:href="Plot_8h.html" target="_top" xlink:title=" ">
<polygon fill="white" stroke="black" points="393.5,-123.5 393.5,-142.5 434.5,-142.5 434.5,-123.5 393.5,-123.5"/>
<text text-anchor="middle" x="414" y="-130.5" font-family="Helvetica,sans-Serif" font-size="10.00">Plot.h</text>
</a>
</g>
</g>
<!-- Node2&#45;&gt;Node12 -->
<g id="edge11" class="edge">
<title>Node2&#45;&gt;Node12</title>
<path fill="none" stroke="midnightblue" d="M274.35,-184.98C303.11,-174.48 352.01,-156.63 383.65,-145.08"/>
<polygon fill="midnightblue" stroke="midnightblue" points="385.08,-148.28 393.27,-141.57 382.68,-141.71 385.08,-148.28"/>
</g>
<!-- Node4 -->
<g id="node4" class="node">
<title>Node4</title>
<g id="a_node4"><a xlink:title=" ">
<polygon fill="white" stroke="#bfbfbf" points="0,-6 0,-25 54,-25 54,-6 0,-6"/>
<text text-anchor="middle" x="27" y="-13" font-family="Helvetica,sans-Serif" font-size="10.00">iostream</text>
</a>
</g>
</g>
<!-- Node3&#45;&gt;Node4 -->
<g id="edge3" class="edge">
<title>Node3&#45;&gt;Node4</title>
<path fill="none" stroke="midnightblue" d="M191.91,-67.45C158.24,-59.16 106.76,-45.72 63,-31 60.87,-30.28 58.69,-29.51 56.5,-28.7"/>
<polygon fill="midnightblue" stroke="midnightblue" points="57.62,-25.38 47.03,-25.05 55.1,-31.91 57.62,-25.38"/>
</g>
<!-- Node5 -->
<g id="node5" class="node">
<title>Node5</title>
<g id="a_node5"><a xlink:title=" ">
<polygon fill="white" stroke="#bfbfbf" points="72.5,-6 72.5,-25 107.5,-25 107.5,-6 72.5,-6"/>
<text text-anchor="middle" x="90" y="-13" font-family="Helvetica,sans-Serif" font-size="10.00">map</text>
</a>
</g>
</g>
<!-- Node3&#45;&gt;Node5 -->
<g id="edge4" class="edge">
<title>Node3&#45;&gt;Node5</title>
<path fill="none" stroke="midnightblue" d="M204.73,-67.4C182.05,-58.83 146.74,-44.96 117,-31 116.16,-30.6 115.3,-30.19 114.44,-29.78"/>
<polygon fill="midnightblue" stroke="midnightblue" points="115.77,-26.52 105.27,-25.07 112.57,-32.75 115.77,-26.52"/>
</g>
<!-- Node6 -->
<g id="node6" class="node">
<title>Node6</title>
<g id="a_node6"><a xlink:title=" ">
<polygon fill="white" stroke="#bfbfbf" points="126,-6 126,-25 156,-25 156,-6 126,-6"/>
<text text-anchor="middle" x="141" y="-13" font-family="Helvetica,sans-Serif" font-size="10.00">set</text>
</a>
</g>
</g>
<!-- Node3&#45;&gt;Node6 -->
<g id="edge5" class="edge">
<title>Node3&#45;&gt;Node6</title>
<path fill="none" stroke="midnightblue" d="M215.54,-67.48C201.58,-57.93 178.74,-42.31 162.01,-30.87"/>
<polygon fill="midnightblue" stroke="midnightblue" points="163.67,-27.77 153.44,-25.01 159.72,-33.54 163.67,-27.77"/>
</g>
<!-- Node7 -->
<g id="node7" class="node">
<title>Node7</title>
<g id="a_node7"><a xlink:title=" ">
<polygon fill="white" stroke="#bfbfbf" points="174,-6 174,-25 220,-25 220,-6 174,-6"/>
<text text-anchor="middle" x="197" y="-13" font-family="Helvetica,sans-Serif" font-size="10.00">variant</text>
</a>
</g>
</g>
<!-- Node3&#45;&gt;Node7 -->
<g id="edge6" class="edge">
<title>Node3&#45;&gt;Node7</title>
<path fill="none" stroke="midnightblue" d="M223.56,-67.48C219.05,-58.82 211.93,-45.15 206.19,-34.15"/>
<polygon fill="midnightblue" stroke="midnightblue" points="209.16,-32.26 201.43,-25.01 202.95,-35.49 209.16,-32.26"/>
</g>
<!-- Node8 -->
<g id="node8" class="node">
<title>Node8</title>
<g id="a_node8"><a xlink:title=" ">
<polygon fill="white" stroke="#bfbfbf" points="238,-6 238,-25 282,-25 282,-6 238,-6"/>
<text text-anchor="middle" x="260" y="-13" font-family="Helvetica,sans-Serif" font-size="10.00">cmath</text>
</a>
</g>
</g>
<!-- Node3&#45;&gt;Node8 -->
<g id="edge7" class="edge">
<title>Node3&#45;&gt;Node8</title>
<path fill="none" stroke="midnightblue" d="M232.58,-67.48C237.24,-58.82 244.59,-45.15 250.51,-34.15"/>
<polygon fill="midnightblue" stroke="midnightblue" points="253.77,-35.47 255.42,-25.01 247.6,-32.16 253.77,-35.47"/>
</g>
<!-- Node9 -->
<g id="node9" class="node">
<title>Node9</title>
<g id="a_node9"><a xlink:title=" ">
<polygon fill="white" stroke="#bfbfbf" points="300,-6 300,-25 346,-25 346,-6 300,-6"/>
<text text-anchor="middle" x="323" y="-13" font-family="Helvetica,sans-Serif" font-size="10.00">cstdint</text>
</a>
</g>
</g>
<!-- Node3&#45;&gt;Node9 -->
<g id="edge8" class="edge">
<title>Node3&#45;&gt;Node9</title>
<path fill="none" stroke="midnightblue" d="M241.61,-67.48C257.06,-57.8 282.49,-41.87 300.82,-30.39"/>
<polygon fill="midnightblue" stroke="midnightblue" points="302.8,-33.28 309.41,-25.01 299.08,-27.35 302.8,-33.28"/>
</g>
<!-- Node10 -->
<g id="node10" class="node">
<title>Node10</title>
<g id="a_node10"><a xlink:title=" ">
<polygon fill="white" stroke="#bfbfbf" points="364,-0.5 364,-30.5 464,-30.5 464,-0.5 364,-0.5"/>
<text text-anchor="start" x="372" y="-18.5" font-family="Helvetica,sans-Serif" font-size="10.00">boost/property_tree</text>
<text text-anchor="middle" x="414" y="-7.5" font-family="Helvetica,sans-Serif" font-size="10.00">/ptree.hpp</text>
</a>
</g>
</g>
<!-- Node3&#45;&gt;Node10 -->
<g id="edge9" class="edge">
<title>Node3&#45;&gt;Node10</title>
<path fill="none" stroke="midnightblue" d="M254.65,-67.48C282.19,-58.66 325.94,-44.67 360.64,-33.57"/>
<polygon fill="midnightblue" stroke="midnightblue" points="361.71,-36.9 370.16,-30.52 359.57,-30.24 361.71,-36.9"/>
</g>
<!-- Node11 -->
<g id="node11" class="node">
<title>Node11</title>
<g id="a_node11"><a xlink:title=" ">
<polygon fill="white" stroke="#bfbfbf" points="482.5,-6 482.5,-25 565.5,-25 565.5,-6 482.5,-6"/>
<text text-anchor="middle" x="524" y="-13" font-family="Helvetica,sans-Serif" font-size="10.00">unordered_map</text>
</a>
</g>
</g>
<!-- Node3&#45;&gt;Node11 -->
<g id="edge10" class="edge">
<title>Node3&#45;&gt;Node11</title>
<path fill="none" stroke="midnightblue" d="M281.35,-67.71C331.19,-59.61 407.51,-46.29 473,-31 477.19,-30.02 481.54,-28.92 485.86,-27.77"/>
<polygon fill="midnightblue" stroke="midnightblue" points="487.09,-31.06 495.8,-25.04 485.23,-24.31 487.09,-31.06"/>
</g>
<!-- Node12&#45;&gt;Node3 -->
<g id="edge17" class="edge">
<title>Node12&#45;&gt;Node3</title>
<path fill="none" stroke="midnightblue" d="M393.38,-126.01C363.08,-117.22 305.95,-100.63 267.43,-89.45"/>
<polygon fill="midnightblue" stroke="midnightblue" points="268.16,-86.01 257.58,-86.59 266.2,-92.74 268.16,-86.01"/>
</g>
<!-- Node13 -->
<g id="node13" class="node">
<title>Node13</title>
<g id="a_node13"><a xlink:title=" ">
<polygon fill="white" stroke="#bfbfbf" points="299.5,-67.5 299.5,-86.5 372.5,-86.5 372.5,-67.5 299.5,-67.5"/>
<text text-anchor="middle" x="336" y="-74.5" font-family="Helvetica,sans-Serif" font-size="10.00">TAttMarker.h</text>
</a>
</g>
</g>
<!-- Node12&#45;&gt;Node13 -->
<g id="edge12" class="edge">
<title>Node12&#45;&gt;Node13</title>
<path fill="none" stroke="midnightblue" d="M401.47,-123.32C389.41,-114.98 370.97,-102.21 356.73,-92.35"/>
<polygon fill="midnightblue" stroke="midnightblue" points="358.72,-89.47 348.5,-86.65 354.73,-95.22 358.72,-89.47"/>
</g>
<!-- Node14 -->
<g id="node14" class="node">
<title>Node14</title>
<g id="a_node14"><a xlink:title=" ">
<polygon fill="white" stroke="#bfbfbf" points="391,-67.5 391,-86.5 453,-86.5 453,-67.5 391,-67.5"/>
<text text-anchor="middle" x="422" y="-74.5" font-family="Helvetica,sans-Serif" font-size="10.00">TAttLine.h</text>
</a>
</g>
</g>
<!-- Node12&#45;&gt;Node14 -->
<g id="edge13" class="edge">
<title>Node12&#45;&gt;Node14</title>
<path fill="none" stroke="midnightblue" d="M415.32,-123.08C416.38,-115.93 417.91,-105.64 419.23,-96.69"/>
<polygon fill="midnightblue" stroke="midnightblue" points="422.7,-97.16 420.7,-86.75 415.78,-96.13 422.7,-97.16"/>
</g>
<!-- Node15 -->
<g id="node15" class="node">
<title>Node15</title>
<g id="a_node15"><a xlink:title=" ">
<polygon fill="white" stroke="#bfbfbf" points="471,-67.5 471,-86.5 527,-86.5 527,-67.5 471,-67.5"/>
<text text-anchor="middle" x="499" y="-74.5" font-family="Helvetica,sans-Serif" font-size="10.00">TAttFill.h</text>
</a>
</g>
</g>
<!-- Node12&#45;&gt;Node15 -->
<g id="edge14" class="edge">
<title>Node12&#45;&gt;Node15</title>
<path fill="none" stroke="midnightblue" d="M427.66,-123.32C440.92,-114.9 461.27,-101.97 476.85,-92.07"/>
<polygon fill="midnightblue" stroke="midnightblue" points="478.81,-94.97 485.38,-86.65 475.06,-89.06 478.81,-94.97"/>
</g>
<!-- Node16 -->
<g id="node16" class="node">
<title>Node16</title>
<g id="a_node16"><a xlink:title=" ">
<polygon fill="white" stroke="#bfbfbf" points="545,-67.5 545,-86.5 605,-86.5 605,-67.5 545,-67.5"/>
<text text-anchor="middle" x="575" y="-74.5" font-family="Helvetica,sans-Serif" font-size="10.00">TCandle.h</text>
</a>
</g>
</g>
<!-- Node12&#45;&gt;Node16 -->
<g id="edge15" class="edge">
<title>Node12&#45;&gt;Node16</title>
<path fill="none" stroke="midnightblue" d="M434.72,-125.05C461.23,-116.16 507.57,-100.61 539.7,-89.84"/>
<polygon fill="midnightblue" stroke="midnightblue" points="541.22,-93.02 549.59,-86.52 539,-86.38 541.22,-93.02"/>
</g>
<!-- Node17 -->
<g id="node17" class="node">
<title>Node17</title>
<g id="a_node17"><a xlink:title=" ">
<polygon fill="white" stroke="#bfbfbf" points="623,-67.5 623,-86.5 677,-86.5 677,-67.5 623,-67.5"/>
<text text-anchor="middle" x="650" y="-74.5" font-family="Helvetica,sans-Serif" font-size="10.00">Rtypes.h</text>
</a>
</g>
</g>
<!-- Node12&#45;&gt;Node17 -->
<g id="edge16" class="edge">
<title>Node12&#45;&gt;Node17</title>
<path fill="none" stroke="midnightblue" d="M434.53,-125.37C437.36,-124.53 440.24,-123.72 443,-123 515.09,-104.27 536.57,-104.38 612.81,-87.19"/>
<polygon fill="midnightblue" stroke="midnightblue" points="613.93,-90.53 622.9,-84.89 612.37,-83.7 613.93,-90.53"/>
</g>
<!-- Node18&#45;&gt;Node12 -->
<g id="edge19" class="edge">
<title>Node18&#45;&gt;Node12</title>
<path fill="none" stroke="midnightblue" d="M419.14,-184.98C418.29,-176.58 416.97,-163.48 415.88,-152.66"/>
<polygon fill="midnightblue" stroke="midnightblue" points="419.34,-152.11 414.86,-142.51 412.38,-152.81 419.34,-152.11"/>
</g>
<!-- Node20 -->
<g id="node20" class="node">
<title>Node20</title>
<g id="a_node20"><a xlink:title=" ">
<polygon fill="white" stroke="#bfbfbf" points="534,-123.5 534,-142.5 594,-142.5 594,-123.5 534,-123.5"/>
<text text-anchor="middle" x="564" y="-130.5" font-family="Helvetica,sans-Serif" font-size="10.00">fmt/core.h</text>
</a>
</g>
</g>
<!-- Node19&#45;&gt;Node20 -->
<g id="edge21" class="edge">
<title>Node19&#45;&gt;Node20</title>
<path fill="none" stroke="midnightblue" d="M545.15,-184.98C548.32,-176.4 553.3,-162.93 557.35,-151.98"/>
<polygon fill="midnightblue" stroke="midnightblue" points="560.67,-153.1 560.85,-142.51 554.1,-150.67 560.67,-153.1"/>
</g>
<!-- Node21&#45;&gt;Node3 -->
<g id="edge23" class="edge">
<title>Node21&#45;&gt;Node3</title>
<path fill="none" stroke="midnightblue" d="M328.81,-184.82C310.66,-165.59 266.83,-119.14 243.39,-94.31"/>
<polygon fill="midnightblue" stroke="midnightblue" points="245.7,-91.65 236.29,-86.78 240.61,-96.46 245.7,-91.65"/>
</g>
<!-- Node21&#45;&gt;Node22 -->
<g id="edge24" class="edge">
<title>Node21&#45;&gt;Node22</title>
<path fill="none" stroke="midnightblue" d="M358.06,-184.98C383.06,-174.86 424.94,-157.9 453.49,-146.35"/>
<polygon fill="midnightblue" stroke="midnightblue" points="455.02,-149.51 462.98,-142.51 452.39,-143.02 455.02,-149.51"/>
</g>
</g>
</svg>
