<?xml version="1.0" encoding="UTF-8" standalone="no"?>
<!DOCTYPE svg PUBLIC "-//W3C//DTD SVG 1.1//EN"
 "http://www.w3.org/Graphics/SVG/1.1/DTD/svg11.dtd">
<!-- Generated by graphviz version 3.0.0 (20220413.0242)
 -->
<!-- Title: /github/workspace/inc/PlottingFramework.h Pages: 1 -->
<svg width="637pt" height="240pt"
 viewBox="0.00 0.00 636.50 240.00" xmlns="http://www.w3.org/2000/svg" xmlns:xlink="http://www.w3.org/1999/xlink">
<g id="graph0" class="graph" transform="scale(1 1) rotate(0) translate(4 236)">
<title>/github/workspace/inc/PlottingFramework.h</title>
<polygon fill="white" stroke="transparent" points="-4,4 -4,-236 632.5,-236 632.5,4 -4,4"/>
<!-- Node1 -->
<g id="node1" class="node">
<title>Node1</title>
<g id="a_node1"><a xlink:title=" ">
<polygon fill="#bfbfbf" stroke="black" points="281,-201.5 281,-231.5 393,-231.5 393,-201.5 281,-201.5"/>
<text text-anchor="start" x="289" y="-219.5" font-family="Helvetica,sans-Serif" font-size="10.00">/github/workspace/inc</text>
<text text-anchor="middle" x="337" y="-208.5" font-family="Helvetica,sans-Serif" font-size="10.00">/PlottingFramework.h</text>
</a>
</g>
</g>
<!-- Node2 -->
<g id="node2" class="node">
<title>Node2</title>
<g id="a_node2"><a xlink:href="Helpers_8h.html" target="_top" xlink:title=" ">
<polygon fill="white" stroke="black" points="346,-134.5 346,-164.5 458,-164.5 458,-134.5 346,-134.5"/>
<text text-anchor="start" x="354" y="-152.5" font-family="Helvetica,sans-Serif" font-size="10.00">/github/workspace/inc</text>
<text text-anchor="middle" x="402" y="-141.5" font-family="Helvetica,sans-Serif" font-size="10.00">/Helpers.h</text>
</a>
</g>
</g>
<!-- Node1&#45;&gt;Node2 -->
<g id="edge1" class="edge">
<title>Node1&#45;&gt;Node2</title>
<path fill="none" stroke="midnightblue" d="M358.19,-194.31C367.94,-184.56 379.24,-173.26 387.92,-164.58"/>
<polygon fill="midnightblue" stroke="midnightblue" points="355.7,-191.85 351.1,-201.4 360.65,-196.8 355.7,-191.85"/>
</g>
<!-- Node6 -->
<g id="node6" class="node">
<title>Node6</title>
<g id="a_node6"><a xlink:href="PlotPainter_8cxx.html" target="_top" xlink:title=" ">
<polygon fill="white" stroke="black" points="515.5,-0.5 515.5,-30.5 628.5,-30.5 628.5,-0.5 515.5,-0.5"/>
<text text-anchor="start" x="523.5" y="-18.5" font-family="Helvetica,sans-Serif" font-size="10.00">/github/workspace/src</text>
<text text-anchor="middle" x="572" y="-7.5" font-family="Helvetica,sans-Serif" font-size="10.00">/PlotPainter.cxx</text>
</a>
</g>
</g>
<!-- Node1&#45;&gt;Node6 -->
<g id="edge14" class="edge">
<title>Node1&#45;&gt;Node6</title>
<path fill="none" stroke="midnightblue" d="M403.31,-203.94C460.69,-189.92 539.69,-159.97 574,-98 585.66,-76.95 580.95,-47.92 576.47,-30.79"/>
<polygon fill="midnightblue" stroke="midnightblue" points="402.16,-200.61 393.22,-206.29 403.75,-207.43 402.16,-200.61"/>
</g>
<!-- Node7 -->
<g id="node7" class="node">
<title>Node7</title>
<g id="a_node7"><a xlink:href="Plot_8h.html" target="_top" xlink:title=" ">
<polygon fill="white" stroke="black" points="173,-134.5 173,-164.5 285,-164.5 285,-134.5 173,-134.5"/>
<text text-anchor="start" x="181" y="-152.5" font-family="Helvetica,sans-Serif" font-size="10.00">/github/workspace/inc</text>
<text text-anchor="middle" x="229" y="-141.5" font-family="Helvetica,sans-Serif" font-size="10.00">/Plot.h</text>
</a>
</g>
</g>
<!-- Node1&#45;&gt;Node7 -->
<g id="edge6" class="edge">
<title>Node1&#45;&gt;Node7</title>
<path fill="none" stroke="midnightblue" d="M304.63,-196.02C287.82,-185.9 267.66,-173.77 252.39,-164.58"/>
<polygon fill="midnightblue" stroke="midnightblue" points="303.19,-199.24 313.57,-201.4 306.8,-193.24 303.19,-199.24"/>
</g>
<!-- Node8 -->
<g id="node8" class="node">
<title>Node8</title>
<g id="a_node8"><a xlink:href="PlotManager_8h.html" target="_top" xlink:title=" ">
<polygon fill="white" stroke="black" points="0,-67.5 0,-97.5 112,-97.5 112,-67.5 0,-67.5"/>
<text text-anchor="start" x="8" y="-85.5" font-family="Helvetica,sans-Serif" font-size="10.00">/github/workspace/inc</text>
<text text-anchor="middle" x="56" y="-74.5" font-family="Helvetica,sans-Serif" font-size="10.00">/PlotManager.h</text>
</a>
</g>
</g>
<!-- Node1&#45;&gt;Node8 -->
<g id="edge13" class="edge">
<title>Node1&#45;&gt;Node8</title>
<path fill="none" stroke="midnightblue" d="M270.88,-202.16C237.72,-194.01 197.58,-181.86 164,-165 127.47,-146.66 90.71,-115.6 70.9,-97.58"/>
<polygon fill="midnightblue" stroke="midnightblue" points="270.39,-205.65 280.93,-204.57 272.02,-198.84 270.39,-205.65"/>
</g>
<!-- Node3 -->
<g id="node3" class="node">
<title>Node3</title>
<g id="a_node3"><a xlink:href="Helpers_8cxx.html" target="_top" xlink:title=" ">
<polygon fill="white" stroke="black" points="430.5,-67.5 430.5,-97.5 543.5,-97.5 543.5,-67.5 430.5,-67.5"/>
<text text-anchor="start" x="438.5" y="-85.5" font-family="Helvetica,sans-Serif" font-size="10.00">/github/workspace/src</text>
<text text-anchor="middle" x="487" y="-74.5" font-family="Helvetica,sans-Serif" font-size="10.00">/Helpers.cxx</text>
</a>
</g>
</g>
<!-- Node2&#45;&gt;Node3 -->
<g id="edge2" class="edge">
<title>Node2&#45;&gt;Node3</title>
<path fill="none" stroke="midnightblue" d="M428.59,-128.17C441.59,-118.23 456.9,-106.51 468.59,-97.58"/>
<polygon fill="midnightblue" stroke="midnightblue" points="426.26,-125.54 420.44,-134.4 430.51,-131.1 426.26,-125.54"/>
</g>
<!-- Node4 -->
<g id="node4" class="node">
<title>Node4</title>
<g id="a_node4"><a xlink:href="Plot_8cxx.html" target="_top" xlink:title=" ">
<polygon fill="white" stroke="black" points="260.5,-67.5 260.5,-97.5 373.5,-97.5 373.5,-67.5 260.5,-67.5"/>
<text text-anchor="start" x="268.5" y="-85.5" font-family="Helvetica,sans-Serif" font-size="10.00">/github/workspace/src</text>
<text text-anchor="middle" x="317" y="-74.5" font-family="Helvetica,sans-Serif" font-size="10.00">/Plot.cxx</text>
</a>
</g>
</g>
<!-- Node2&#45;&gt;Node4 -->
<g id="edge3" class="edge">
<title>Node2&#45;&gt;Node4</title>
<path fill="none" stroke="midnightblue" d="M375.41,-128.17C362.41,-118.23 347.1,-106.51 335.41,-97.58"/>
<polygon fill="midnightblue" stroke="midnightblue" points="373.49,-131.1 383.56,-134.4 377.74,-125.54 373.49,-131.1"/>
</g>
<!-- Node5 -->
<g id="node5" class="node">
<title>Node5</title>
<g id="a_node5"><a xlink:href="PlotManager_8cxx.html" target="_top" xlink:title=" ">
<polygon fill="white" stroke="black" points="129.5,-0.5 129.5,-30.5 242.5,-30.5 242.5,-0.5 129.5,-0.5"/>
<text text-anchor="start" x="137.5" y="-18.5" font-family="Helvetica,sans-Serif" font-size="10.00">/github/workspace/src</text>
<text text-anchor="middle" x="186" y="-7.5" font-family="Helvetica,sans-Serif" font-size="10.00">/PlotManager.cxx</text>
</a>
</g>
</g>
<!-- Node2&#45;&gt;Node5 -->
<g id="edge4" class="edge">
<title>Node2&#45;&gt;Node5</title>
<path fill="none" stroke="midnightblue" d="M402.69,-124.23C401.86,-106.13 397.71,-82.04 383,-67 363.62,-47.19 293.91,-32.68 242.9,-24.43"/>
<polygon fill="midnightblue" stroke="midnightblue" points="399.19,-124.39 402.84,-134.33 406.19,-124.28 399.19,-124.39"/>
</g>
<!-- Node2&#45;&gt;Node6 -->
<g id="edge5" class="edge">
<title>Node2&#45;&gt;Node6</title>
<path fill="none" stroke="midnightblue" d="M468.11,-141.12C497.93,-134.47 531.26,-121.87 553,-98 569.92,-79.41 572.65,-48.73 572.64,-30.78"/>
<polygon fill="midnightblue" stroke="midnightblue" points="467.25,-137.72 458.15,-143.15 468.65,-144.58 467.25,-137.72"/>
</g>
<!-- Node7&#45;&gt;Node4 -->
<g id="edge12" class="edge">
<title>Node7&#45;&gt;Node4</title>
<path fill="none" stroke="midnightblue" d="M256.14,-128.45C269.68,-118.45 285.73,-106.6 297.94,-97.58"/>
<polygon fill="midnightblue" stroke="midnightblue" points="254.06,-125.64 248.09,-134.4 258.22,-131.27 254.06,-125.64"/>
</g>
<!-- Node7&#45;&gt;Node8 -->
<g id="edge7" class="edge">
<title>Node7&#45;&gt;Node8</title>
<path fill="none" stroke="midnightblue" d="M181.94,-130.82C154.13,-120.37 119.41,-107.32 93.47,-97.58"/>
<polygon fill="midnightblue" stroke="midnightblue" points="180.87,-134.16 191.46,-134.4 183.33,-127.6 180.87,-134.16"/>
</g>
<!-- Node9 -->
<g id="node9" class="node">
<title>Node9</title>
<g id="a_node9"><a xlink:href="PlotPainter_8h.html" target="_top" xlink:title=" ">
<polygon fill="white" stroke="black" points="130,-67.5 130,-97.5 242,-97.5 242,-67.5 130,-67.5"/>
<text text-anchor="start" x="138" y="-85.5" font-family="Helvetica,sans-Serif" font-size="10.00">/github/workspace/inc</text>
<text text-anchor="middle" x="186" y="-74.5" font-family="Helvetica,sans-Serif" font-size="10.00">/PlotPainter.h</text>
</a>
</g>
</g>
<!-- Node7&#45;&gt;Node9 -->
<g id="edge9" class="edge">
<title>Node7&#45;&gt;Node9</title>
<path fill="none" stroke="midnightblue" d="M214.03,-125.87C207.8,-116.46 200.77,-105.83 195.31,-97.58"/>
<polygon fill="midnightblue" stroke="midnightblue" points="211.23,-127.99 219.67,-134.4 217.07,-124.12 211.23,-127.99"/>
</g>
<!-- Node8&#45;&gt;Node5 -->
<g id="edge8" class="edge">
<title>Node8&#45;&gt;Node5</title>
<path fill="none" stroke="midnightblue" d="M93.29,-62.85C113.85,-52.58 138.95,-40.03 157.85,-30.58"/>
<polygon fill="midnightblue" stroke="midnightblue" points="91.59,-59.79 84.21,-67.4 94.72,-66.05 91.59,-59.79"/>
</g>
<!-- Node9&#45;&gt;Node5 -->
<g id="edge10" class="edge">
<title>Node9&#45;&gt;Node5</title>
<path fill="none" stroke="midnightblue" d="M186,-57.11C186,-48.15 186,-38.32 186,-30.58"/>
<polygon fill="midnightblue" stroke="midnightblue" points="182.5,-57.4 186,-67.4 189.5,-57.4 182.5,-57.4"/>
</g>
<!-- Node9&#45;&gt;Node6 -->
<g id="edge11" class="edge">
<title>Node9&#45;&gt;Node6</title>
<path fill="none" stroke="midnightblue" d="M251.7,-67.06C251.8,-67.04 251.9,-67.02 252,-67 343.88,-49.67 451.38,-33.55 515.46,-24.38"/>
<polygon fill="midnightblue" stroke="midnightblue" points="251.26,-63.58 242.12,-68.93 252.61,-70.45 251.26,-63.58"/>
</g>
</g>
</svg>
