<?xml version="1.0" encoding="UTF-8" standalone="no"?>
<!DOCTYPE svg PUBLIC "-//W3C//DTD SVG 1.1//EN"
 "http://www.w3.org/Graphics/SVG/1.1/DTD/svg11.dtd">
<!-- Generated by graphviz version 3.0.0 (20220413.0242)
 -->
<!-- Title: /github/workspace/inc/PlottingFramework.h Pages: 1 -->
<svg width="574pt" height="106pt"
 viewBox="0.00 0.00 573.50 106.00" xmlns="http://www.w3.org/2000/svg" xmlns:xlink="http://www.w3.org/1999/xlink">
<g id="graph0" class="graph" transform="scale(1 1) rotate(0) translate(4 102)">
<title>/github/workspace/inc/PlottingFramework.h</title>
<polygon fill="white" stroke="transparent" points="-4,4 -4,-102 569.5,-102 569.5,4 -4,4"/>
<!-- Node1 -->
<g id="node1" class="node">
<title>Node1</title>
<g id="a_node1"><a xlink:title=" ">
<polygon fill="#bfbfbf" stroke="black" points="172,-67.5 172,-97.5 284,-97.5 284,-67.5 172,-67.5"/>
<text text-anchor="start" x="180" y="-85.5" font-family="Helvetica,sans-Serif" font-size="10.00">/github/workspace/inc</text>
<text text-anchor="middle" x="228" y="-74.5" font-family="Helvetica,sans-Serif" font-size="10.00">/PlottingFramework.h</text>
</a>
</g>
</g>
<!-- Node2 -->
<g id="node2" class="node">
<title>Node2</title>
<g id="a_node2"><a xlink:title=" ">
<polygon fill="white" stroke="#bfbfbf" points="0,-6 0,-25 54,-25 54,-6 0,-6"/>
<text text-anchor="middle" x="27" y="-13" font-family="Helvetica,sans-Serif" font-size="10.00">iostream</text>
</a>
</g>
</g>
<!-- Node1&#45;&gt;Node2 -->
<g id="edge1" class="edge">
<title>Node1&#45;&gt;Node2</title>
<path fill="none" stroke="midnightblue" d="M178.18,-67.46C145.25,-57.89 101.27,-44.54 63,-31 61.09,-30.33 59.14,-29.61 57.18,-28.87"/>
<polygon fill="midnightblue" stroke="midnightblue" points="58.03,-25.45 47.44,-25.09 55.5,-31.98 58.03,-25.45"/>
</g>
<!-- Node3 -->
<g id="node3" class="node">
<title>Node3</title>
<g id="a_node3"><a xlink:title=" ">
<polygon fill="white" stroke="#bfbfbf" points="72.5,-6 72.5,-25 107.5,-25 107.5,-6 72.5,-6"/>
<text text-anchor="middle" x="90" y="-13" font-family="Helvetica,sans-Serif" font-size="10.00">map</text>
</a>
</g>
</g>
<!-- Node1&#45;&gt;Node3 -->
<g id="edge2" class="edge">
<title>Node1&#45;&gt;Node3</title>
<path fill="none" stroke="midnightblue" d="M195.68,-67.47C173.39,-57.63 143.18,-43.97 117,-31 116.19,-30.6 115.36,-30.18 114.53,-29.76"/>
<polygon fill="midnightblue" stroke="midnightblue" points="116.1,-26.63 105.61,-25.11 112.86,-32.84 116.1,-26.63"/>
</g>
<!-- Node4 -->
<g id="node4" class="node">
<title>Node4</title>
<g id="a_node4"><a xlink:title=" ">
<polygon fill="white" stroke="#bfbfbf" points="126,-6 126,-25 156,-25 156,-6 126,-6"/>
<text text-anchor="middle" x="141" y="-13" font-family="Helvetica,sans-Serif" font-size="10.00">set</text>
</a>
</g>
</g>
<!-- Node1&#45;&gt;Node4 -->
<g id="edge3" class="edge">
<title>Node1&#45;&gt;Node4</title>
<path fill="none" stroke="midnightblue" d="M209.12,-67.4C194.89,-56.76 175.4,-42.2 160.92,-31.38"/>
<polygon fill="midnightblue" stroke="midnightblue" points="162.74,-28.38 152.64,-25.19 158.55,-33.98 162.74,-28.38"/>
</g>
<!-- Node5 -->
<g id="node5" class="node">
<title>Node5</title>
<g id="a_node5"><a xlink:title=" ">
<polygon fill="white" stroke="#bfbfbf" points="174,-6 174,-25 220,-25 220,-6 174,-6"/>
<text text-anchor="middle" x="197" y="-13" font-family="Helvetica,sans-Serif" font-size="10.00">variant</text>
</a>
</g>
</g>
<!-- Node1&#45;&gt;Node5 -->
<g id="edge4" class="edge">
<title>Node1&#45;&gt;Node5</title>
<path fill="none" stroke="midnightblue" d="M221.27,-67.4C216.68,-57.76 210.55,-44.91 205.6,-34.54"/>
<polygon fill="midnightblue" stroke="midnightblue" points="208.61,-32.71 201.15,-25.19 202.29,-35.73 208.61,-32.71"/>
</g>
<!-- Node6 -->
<g id="node6" class="node">
<title>Node6</title>
<g id="a_node6"><a xlink:title=" ">
<polygon fill="white" stroke="#bfbfbf" points="238,-6 238,-25 282,-25 282,-6 238,-6"/>
<text text-anchor="middle" x="260" y="-13" font-family="Helvetica,sans-Serif" font-size="10.00">cmath</text>
</a>
</g>
</g>
<!-- Node1&#45;&gt;Node6 -->
<g id="edge5" class="edge">
<title>Node1&#45;&gt;Node6</title>
<path fill="none" stroke="midnightblue" d="M234.94,-67.4C239.74,-57.66 246.14,-44.65 251.28,-34.21"/>
<polygon fill="midnightblue" stroke="midnightblue" points="254.44,-35.71 255.72,-25.19 248.16,-32.62 254.44,-35.71"/>
</g>
<!-- Node7 -->
<g id="node7" class="node">
<title>Node7</title>
<g id="a_node7"><a xlink:title=" ">
<polygon fill="white" stroke="#bfbfbf" points="300,-6 300,-25 346,-25 346,-6 300,-6"/>
<text text-anchor="middle" x="323" y="-13" font-family="Helvetica,sans-Serif" font-size="10.00">cstdint</text>
</a>
</g>
</g>
<!-- Node1&#45;&gt;Node7 -->
<g id="edge6" class="edge">
<title>Node1&#45;&gt;Node7</title>
<path fill="none" stroke="midnightblue" d="M248.61,-67.4C264.4,-56.6 286.09,-41.76 301.97,-30.89"/>
<polygon fill="midnightblue" stroke="midnightblue" points="304.29,-33.54 310.57,-25.01 300.34,-27.77 304.29,-33.54"/>
</g>
<!-- Node8 -->
<g id="node8" class="node">
<title>Node8</title>
<g id="a_node8"><a xlink:title=" ">
<polygon fill="white" stroke="#bfbfbf" points="364,-0.5 364,-30.5 464,-30.5 464,-0.5 364,-0.5"/>
<text text-anchor="start" x="372" y="-18.5" font-family="Helvetica,sans-Serif" font-size="10.00">boost/property_tree</text>
<text text-anchor="middle" x="414" y="-7.5" font-family="Helvetica,sans-Serif" font-size="10.00">/ptree.hpp</text>
</a>
</g>
</g>
<!-- Node1&#45;&gt;Node8 -->
<g id="edge7" class="edge">
<title>Node1&#45;&gt;Node8</title>
<path fill="none" stroke="midnightblue" d="M268.36,-67.4C296.51,-57.56 334.26,-44.37 364.27,-33.88"/>
<polygon fill="midnightblue" stroke="midnightblue" points="365.43,-37.18 373.72,-30.58 363.12,-30.57 365.43,-37.18"/>
</g>
<!-- Node9 -->
<g id="node9" class="node">
<title>Node9</title>
<g id="a_node9"><a xlink:title=" ">
<polygon fill="white" stroke="#bfbfbf" points="482.5,-6 482.5,-25 565.5,-25 565.5,-6 482.5,-6"/>
<text text-anchor="middle" x="524" y="-13" font-family="Helvetica,sans-Serif" font-size="10.00">unordered_map</text>
</a>
</g>
</g>
<!-- Node1&#45;&gt;Node9 -->
<g id="edge8" class="edge">
<title>Node1&#45;&gt;Node9</title>
<path fill="none" stroke="midnightblue" d="M284.21,-71.14C334.04,-61.66 408.67,-46.75 473,-31 477.12,-29.99 481.42,-28.87 485.69,-27.72"/>
<polygon fill="midnightblue" stroke="midnightblue" points="486.8,-31.04 495.51,-25 484.94,-24.3 486.8,-31.04"/>
</g>
</g>
</svg>
