<?xml version="1.0" encoding="UTF-8" standalone="no"?>
<!DOCTYPE svg PUBLIC "-//W3C//DTD SVG 1.1//EN"
 "http://www.w3.org/Graphics/SVG/1.1/DTD/svg11.dtd">
<!-- Generated by graphviz version 3.0.0 (20220413.0242)
 -->
<!-- Title: /github/workspace/inc/PlotPainter.h Pages: 1 -->
<svg width="793pt" height="218pt"
 viewBox="0.00 0.00 793.00 218.00" xmlns="http://www.w3.org/2000/svg" xmlns:xlink="http://www.w3.org/1999/xlink">
<g id="graph0" class="graph" transform="scale(1 1) rotate(0) translate(4 214)">
<title>/github/workspace/inc/PlotPainter.h</title>
<polygon fill="white" stroke="transparent" points="-4,4 -4,-214 789,-214 789,4 -4,4"/>
<!-- Node1 -->
<g id="node1" class="node">
<title>Node1</title>
<g id="a_node1"><a xlink:title=" ">
<polygon fill="#bfbfbf" stroke="black" points="181.5,-179.5 181.5,-209.5 293.5,-209.5 293.5,-179.5 181.5,-179.5"/>
<text text-anchor="start" x="189.5" y="-197.5" font-family="Helvetica,sans-Serif" font-size="10.00">/github/workspace/inc</text>
<text text-anchor="middle" x="237.5" y="-186.5" font-family="Helvetica,sans-Serif" font-size="10.00">/PlotPainter.h</text>
</a>
</g>
</g>
<!-- Node2 -->
<g id="node2" class="node">
<title>Node2</title>
<g id="a_node2"><a xlink:href="Plot_8h.html" target="_top" xlink:title=" ">
<polygon fill="white" stroke="black" points="217,-123.5 217,-142.5 258,-142.5 258,-123.5 217,-123.5"/>
<text text-anchor="middle" x="237.5" y="-130.5" font-family="Helvetica,sans-Serif" font-size="10.00">Plot.h</text>
</a>
</g>
</g>
<!-- Node1&#45;&gt;Node2 -->
<g id="edge1" class="edge">
<title>Node1&#45;&gt;Node2</title>
<path fill="none" stroke="midnightblue" d="M237.5,-179.4C237.5,-171.47 237.5,-161.46 237.5,-152.86"/>
<polygon fill="midnightblue" stroke="midnightblue" points="241,-152.66 237.5,-142.66 234,-152.66 241,-152.66"/>
</g>
<!-- Node3 -->
<g id="node3" class="node">
<title>Node3</title>
<g id="a_node3"><a xlink:title=" ">
<polygon fill="white" stroke="#bfbfbf" points="0,-67.5 0,-86.5 73,-86.5 73,-67.5 0,-67.5"/>
<text text-anchor="middle" x="36.5" y="-74.5" font-family="Helvetica,sans-Serif" font-size="10.00">TAttMarker.h</text>
</a>
</g>
</g>
<!-- Node2&#45;&gt;Node3 -->
<g id="edge2" class="edge">
<title>Node2&#45;&gt;Node3</title>
<path fill="none" stroke="midnightblue" d="M216.75,-126.42C184.15,-117.67 120.33,-100.52 78.04,-89.16"/>
<polygon fill="midnightblue" stroke="midnightblue" points="78.88,-85.76 68.32,-86.55 77.07,-92.52 78.88,-85.76"/>
</g>
<!-- Node4 -->
<g id="node4" class="node">
<title>Node4</title>
<g id="a_node4"><a xlink:title=" ">
<polygon fill="white" stroke="#bfbfbf" points="91.5,-67.5 91.5,-86.5 153.5,-86.5 153.5,-67.5 91.5,-67.5"/>
<text text-anchor="middle" x="122.5" y="-74.5" font-family="Helvetica,sans-Serif" font-size="10.00">TAttLine.h</text>
</a>
</g>
</g>
<!-- Node2&#45;&gt;Node4 -->
<g id="edge3" class="edge">
<title>Node2&#45;&gt;Node4</title>
<path fill="none" stroke="midnightblue" d="M219.28,-123.44C200.6,-114.68 171.34,-100.94 149.88,-90.86"/>
<polygon fill="midnightblue" stroke="midnightblue" points="151.18,-87.6 140.64,-86.52 148.2,-93.93 151.18,-87.6"/>
</g>
<!-- Node5 -->
<g id="node5" class="node">
<title>Node5</title>
<g id="a_node5"><a xlink:title=" ">
<polygon fill="white" stroke="#bfbfbf" points="171.5,-67.5 171.5,-86.5 227.5,-86.5 227.5,-67.5 171.5,-67.5"/>
<text text-anchor="middle" x="199.5" y="-74.5" font-family="Helvetica,sans-Serif" font-size="10.00">TAttFill.h</text>
</a>
</g>
</g>
<!-- Node2&#45;&gt;Node5 -->
<g id="edge4" class="edge">
<title>Node2&#45;&gt;Node5</title>
<path fill="none" stroke="midnightblue" d="M231.23,-123.08C225.86,-115.46 217.98,-104.26 211.42,-94.94"/>
<polygon fill="midnightblue" stroke="midnightblue" points="214.28,-92.91 205.66,-86.75 208.55,-96.94 214.28,-92.91"/>
</g>
<!-- Node6 -->
<g id="node6" class="node">
<title>Node6</title>
<g id="a_node6"><a xlink:title=" ">
<polygon fill="white" stroke="#bfbfbf" points="245.5,-67.5 245.5,-86.5 305.5,-86.5 305.5,-67.5 245.5,-67.5"/>
<text text-anchor="middle" x="275.5" y="-74.5" font-family="Helvetica,sans-Serif" font-size="10.00">TCandle.h</text>
</a>
</g>
</g>
<!-- Node2&#45;&gt;Node6 -->
<g id="edge5" class="edge">
<title>Node2&#45;&gt;Node6</title>
<path fill="none" stroke="midnightblue" d="M243.77,-123.08C249.14,-115.46 257.02,-104.26 263.58,-94.94"/>
<polygon fill="midnightblue" stroke="midnightblue" points="266.45,-96.94 269.34,-86.75 260.72,-92.91 266.45,-96.94"/>
</g>
<!-- Node7 -->
<g id="node7" class="node">
<title>Node7</title>
<g id="a_node7"><a xlink:title=" ">
<polygon fill="white" stroke="#bfbfbf" points="323.5,-67.5 323.5,-86.5 377.5,-86.5 377.5,-67.5 323.5,-67.5"/>
<text text-anchor="middle" x="350.5" y="-74.5" font-family="Helvetica,sans-Serif" font-size="10.00">Rtypes.h</text>
</a>
</g>
</g>
<!-- Node2&#45;&gt;Node7 -->
<g id="edge6" class="edge">
<title>Node2&#45;&gt;Node7</title>
<path fill="none" stroke="midnightblue" d="M255.41,-123.44C273.75,-114.68 302.51,-100.94 323.59,-90.86"/>
<polygon fill="midnightblue" stroke="midnightblue" points="325.17,-93.99 332.68,-86.52 322.15,-87.67 325.17,-93.99"/>
</g>
<!-- Node8 -->
<g id="node8" class="node">
<title>Node8</title>
<g id="a_node8"><a xlink:href="PlottingFramework_8h.html" target="_top" xlink:title=" ">
<polygon fill="white" stroke="black" points="395.5,-67.5 395.5,-86.5 501.5,-86.5 501.5,-67.5 395.5,-67.5"/>
<text text-anchor="middle" x="448.5" y="-74.5" font-family="Helvetica,sans-Serif" font-size="10.00">PlottingFramework.h</text>
</a>
</g>
</g>
<!-- Node2&#45;&gt;Node8 -->
<g id="edge7" class="edge">
<title>Node2&#45;&gt;Node8</title>
<path fill="none" stroke="midnightblue" d="M258.12,-126.72C292.05,-118.04 360.38,-100.55 405.28,-89.06"/>
<polygon fill="midnightblue" stroke="midnightblue" points="406.22,-92.43 415.04,-86.56 404.48,-85.65 406.22,-92.43"/>
</g>
<!-- Node9 -->
<g id="node9" class="node">
<title>Node9</title>
<g id="a_node9"><a xlink:title=" ">
<polygon fill="white" stroke="#bfbfbf" points="219.5,-6 219.5,-25 273.5,-25 273.5,-6 219.5,-6"/>
<text text-anchor="middle" x="246.5" y="-13" font-family="Helvetica,sans-Serif" font-size="10.00">iostream</text>
</a>
</g>
</g>
<!-- Node8&#45;&gt;Node9 -->
<g id="edge8" class="edge">
<title>Node8&#45;&gt;Node9</title>
<path fill="none" stroke="midnightblue" d="M412.19,-67.47C378.31,-59.2 326.52,-45.77 282.5,-31 280.37,-30.29 278.19,-29.51 276,-28.71"/>
<polygon fill="midnightblue" stroke="midnightblue" points="277.12,-25.39 266.53,-25.05 274.6,-31.92 277.12,-25.39"/>
</g>
<!-- Node10 -->
<g id="node10" class="node">
<title>Node10</title>
<g id="a_node10"><a xlink:title=" ">
<polygon fill="white" stroke="#bfbfbf" points="292,-6 292,-25 327,-25 327,-6 292,-6"/>
<text text-anchor="middle" x="309.5" y="-13" font-family="Helvetica,sans-Serif" font-size="10.00">map</text>
</a>
</g>
</g>
<!-- Node8&#45;&gt;Node10 -->
<g id="edge9" class="edge">
<title>Node8&#45;&gt;Node10</title>
<path fill="none" stroke="midnightblue" d="M425.01,-67.43C402.13,-58.88 366.49,-45.03 336.5,-31 335.66,-30.61 334.8,-30.2 333.94,-29.78"/>
<polygon fill="midnightblue" stroke="midnightblue" points="335.27,-26.52 324.77,-25.08 332.07,-32.75 335.27,-26.52"/>
</g>
<!-- Node11 -->
<g id="node11" class="node">
<title>Node11</title>
<g id="a_node11"><a xlink:title=" ">
<polygon fill="white" stroke="#bfbfbf" points="345.5,-6 345.5,-25 375.5,-25 375.5,-6 345.5,-6"/>
<text text-anchor="middle" x="360.5" y="-13" font-family="Helvetica,sans-Serif" font-size="10.00">set</text>
</a>
</g>
</g>
<!-- Node8&#45;&gt;Node11 -->
<g id="edge10" class="edge">
<title>Node8&#45;&gt;Node11</title>
<path fill="none" stroke="midnightblue" d="M435.89,-67.48C421.78,-57.93 398.67,-42.31 381.75,-30.87"/>
<polygon fill="midnightblue" stroke="midnightblue" points="383.33,-27.71 373.08,-25.01 379.41,-33.51 383.33,-27.71"/>
</g>
<!-- Node12 -->
<g id="node12" class="node">
<title>Node12</title>
<g id="a_node12"><a xlink:title=" ">
<polygon fill="white" stroke="#bfbfbf" points="393.5,-6 393.5,-25 439.5,-25 439.5,-6 393.5,-6"/>
<text text-anchor="middle" x="416.5" y="-13" font-family="Helvetica,sans-Serif" font-size="10.00">variant</text>
</a>
</g>
</g>
<!-- Node8&#45;&gt;Node12 -->
<g id="edge11" class="edge">
<title>Node8&#45;&gt;Node12</title>
<path fill="none" stroke="midnightblue" d="M443.92,-67.48C439.26,-58.82 431.91,-45.15 425.99,-34.15"/>
<polygon fill="midnightblue" stroke="midnightblue" points="428.9,-32.16 421.08,-25.01 422.73,-35.47 428.9,-32.16"/>
</g>
<!-- Node13 -->
<g id="node13" class="node">
<title>Node13</title>
<g id="a_node13"><a xlink:title=" ">
<polygon fill="white" stroke="#bfbfbf" points="457.5,-6 457.5,-25 501.5,-25 501.5,-6 457.5,-6"/>
<text text-anchor="middle" x="479.5" y="-13" font-family="Helvetica,sans-Serif" font-size="10.00">cmath</text>
</a>
</g>
</g>
<!-- Node8&#45;&gt;Node13 -->
<g id="edge12" class="edge">
<title>Node8&#45;&gt;Node13</title>
<path fill="none" stroke="midnightblue" d="M452.94,-67.48C457.45,-58.82 464.57,-45.15 470.31,-34.15"/>
<polygon fill="midnightblue" stroke="midnightblue" points="473.55,-35.49 475.07,-25.01 467.34,-32.26 473.55,-35.49"/>
</g>
<!-- Node14 -->
<g id="node14" class="node">
<title>Node14</title>
<g id="a_node14"><a xlink:title=" ">
<polygon fill="white" stroke="#bfbfbf" points="519.5,-6 519.5,-25 565.5,-25 565.5,-6 519.5,-6"/>
<text text-anchor="middle" x="542.5" y="-13" font-family="Helvetica,sans-Serif" font-size="10.00">cstdint</text>
</a>
</g>
</g>
<!-- Node8&#45;&gt;Node14 -->
<g id="edge13" class="edge">
<title>Node8&#45;&gt;Node14</title>
<path fill="none" stroke="midnightblue" d="M461.97,-67.48C477.18,-57.84 502.19,-42.02 520.3,-30.55"/>
<polygon fill="midnightblue" stroke="midnightblue" points="522.48,-33.31 529.06,-25.01 518.74,-27.4 522.48,-33.31"/>
</g>
<!-- Node15 -->
<g id="node15" class="node">
<title>Node15</title>
<g id="a_node15"><a xlink:title=" ">
<polygon fill="white" stroke="#bfbfbf" points="583.5,-0.5 583.5,-30.5 683.5,-30.5 683.5,-0.5 583.5,-0.5"/>
<text text-anchor="start" x="591.5" y="-18.5" font-family="Helvetica,sans-Serif" font-size="10.00">boost/property_tree</text>
<text text-anchor="middle" x="633.5" y="-7.5" font-family="Helvetica,sans-Serif" font-size="10.00">/ptree.hpp</text>
</a>
</g>
</g>
<!-- Node8&#45;&gt;Node15 -->
<g id="edge14" class="edge">
<title>Node8&#45;&gt;Node15</title>
<path fill="none" stroke="midnightblue" d="M475.01,-67.48C502.29,-58.7 545.55,-44.79 579.98,-33.71"/>
<polygon fill="midnightblue" stroke="midnightblue" points="581.45,-36.92 589.9,-30.52 579.31,-30.25 581.45,-36.92"/>
</g>
<!-- Node16 -->
<g id="node16" class="node">
<title>Node16</title>
<g id="a_node16"><a xlink:title=" ">
<polygon fill="white" stroke="#bfbfbf" points="702,-6 702,-25 785,-25 785,-6 702,-6"/>
<text text-anchor="middle" x="743.5" y="-13" font-family="Helvetica,sans-Serif" font-size="10.00">unordered_map</text>
</a>
</g>
</g>
<!-- Node8&#45;&gt;Node16 -->
<g id="edge15" class="edge">
<title>Node8&#45;&gt;Node16</title>
<path fill="none" stroke="midnightblue" d="M501.63,-67.69C551.26,-59.58 627.28,-46.25 692.5,-31 696.68,-30.02 701.04,-28.92 705.36,-27.77"/>
<polygon fill="midnightblue" stroke="midnightblue" points="706.59,-31.06 715.3,-25.03 704.73,-24.31 706.59,-31.06"/>
</g>
</g>
</svg>
