<?xml version="1.0" encoding="UTF-8" standalone="no"?>
<!DOCTYPE svg PUBLIC "-//W3C//DTD SVG 1.1//EN"
 "http://www.w3.org/Graphics/SVG/1.1/DTD/svg11.dtd">
<!-- Generated by graphviz version 3.0.0 (20220413.0242)
 -->
<!-- Title: PlottingFramework::Plot::Pad::Box&lt; BoxType &gt;::position_t Pages: 1 -->
<svg width="216pt" height="128pt"
 viewBox="0.00 0.00 215.50 128.00" xmlns="http://www.w3.org/2000/svg" xmlns:xlink="http://www.w3.org/1999/xlink">
<g id="graph0" class="graph" transform="scale(1 1) rotate(0) translate(4 124)">
<title>PlottingFramework::Plot::Pad::Box&lt; BoxType &gt;::position_t</title>
<polygon fill="white" stroke="transparent" points="-4,4 -4,-124 211.5,-124 211.5,4 -4,4"/>
<!-- Node1 -->
<g id="node1" class="node">
<title>Node1</title>
<g id="a_node1"><a xlink:title=" ">
<polygon fill="#bfbfbf" stroke="black" points="47,-0.5 47,-41.5 169,-41.5 169,-0.5 47,-0.5"/>
<text text-anchor="start" x="55" y="-29.5" font-family="Helvetica,sans-Serif" font-size="10.00">PlottingFramework::</text>
<text text-anchor="start" x="55" y="-18.5" font-family="Helvetica,sans-Serif" font-size="10.00">Plot::Pad::Box&lt; BoxType</text>
<text text-anchor="middle" x="108" y="-7.5" font-family="Helvetica,sans-Serif" font-size="10.00"> &gt;::position_t</text>
</a>
</g>
</g>
<!-- Node2 -->
<g id="node2" class="node">
<title>Node2</title>
<g id="a_node2"><a xlink:title=" ">
<polygon fill="white" stroke="black" points="0,-100.5 0,-119.5 104,-119.5 104,-100.5 0,-100.5"/>
<text text-anchor="middle" x="52" y="-107.5" font-family="Helvetica,sans-Serif" font-size="10.00">optional&lt; double_t &gt;</text>
</a>
</g>
</g>
<!-- Node2&#45;&gt;Node1 -->
<g id="edge1" class="edge">
<title>Node2&#45;&gt;Node1</title>
<path fill="none" stroke="#9a32cd" stroke-dasharray="5,2" d="M63.02,-91.88C72.31,-77.44 85.61,-56.79 95.33,-41.68"/>
<polygon fill="#9a32cd" stroke="#9a32cd" points="60.04,-90.04 57.57,-100.34 65.93,-93.83 60.04,-90.04"/>
<text text-anchor="middle" x="87.5" y="-74" font-family="Helvetica,sans-Serif" font-size="10.00"> x</text>
<text text-anchor="middle" x="87.5" y="-63" font-family="Helvetica,sans-Serif" font-size="10.00">y</text>
</g>
<!-- Node3 -->
<g id="node3" class="node">
<title>Node3</title>
<g id="a_node3"><a xlink:title=" ">
<polygon fill="white" stroke="black" points="122.5,-100.5 122.5,-119.5 207.5,-119.5 207.5,-100.5 122.5,-100.5"/>
<text text-anchor="middle" x="165" y="-107.5" font-family="Helvetica,sans-Serif" font-size="10.00">optional&lt; bool &gt;</text>
</a>
</g>
</g>
<!-- Node3&#45;&gt;Node1 -->
<g id="edge2" class="edge">
<title>Node3&#45;&gt;Node1</title>
<path fill="none" stroke="#9a32cd" stroke-dasharray="5,2" d="M153.78,-91.88C144.33,-77.44 130.79,-56.79 120.89,-41.68"/>
<polygon fill="#9a32cd" stroke="#9a32cd" points="150.92,-93.89 159.33,-100.34 156.77,-90.06 150.92,-93.89"/>
<text text-anchor="middle" x="174.5" y="-68.5" font-family="Helvetica,sans-Serif" font-size="10.00"> isUserCoord</text>
</g>
</g>
</svg>
