<?xml version="1.0" encoding="UTF-8" standalone="no"?>
<!DOCTYPE svg PUBLIC "-//W3C//DTD SVG 1.1//EN"
 "http://www.w3.org/Graphics/SVG/1.1/DTD/svg11.dtd">
<!-- Generated by graphviz version 3.0.0 (20220413.0242)
 -->
<!-- Title: PlottingFramework::Plot::Pad::Data::dataRange_t Pages: 1 -->
<svg width="148pt" height="117pt"
 viewBox="0.00 0.00 148.00 117.00" xmlns="http://www.w3.org/2000/svg" xmlns:xlink="http://www.w3.org/1999/xlink">
<g id="graph0" class="graph" transform="scale(1 1) rotate(0) translate(4 113)">
<title>PlottingFramework::Plot::Pad::Data::dataRange_t</title>
<polygon fill="white" stroke="transparent" points="-4,4 -4,-113 144,-113 144,4 -4,4"/>
<!-- Node1 -->
<g id="node1" class="node">
<title>Node1</title>
<g id="a_node1"><a xlink:title=" ">
<polygon fill="#bfbfbf" stroke="black" points="0,-0.5 0,-30.5 140,-30.5 140,-0.5 0,-0.5"/>
<text text-anchor="start" x="8" y="-18.5" font-family="Helvetica,sans-Serif" font-size="10.00">PlottingFramework::</text>
<text text-anchor="middle" x="70" y="-7.5" font-family="Helvetica,sans-Serif" font-size="10.00">Plot::Pad::Data::dataRange_t</text>
</a>
</g>
</g>
<!-- Node2 -->
<g id="node2" class="node">
<title>Node2</title>
<g id="a_node2"><a xlink:title=" ">
<polygon fill="white" stroke="black" points="18,-89.5 18,-108.5 122,-108.5 122,-89.5 18,-89.5"/>
<text text-anchor="middle" x="70" y="-96.5" font-family="Helvetica,sans-Serif" font-size="10.00">optional&lt; double_t &gt;</text>
</a>
</g>
</g>
<!-- Node2&#45;&gt;Node1 -->
<g id="edge1" class="edge">
<title>Node2&#45;&gt;Node1</title>
<path fill="none" stroke="#9a32cd" stroke-dasharray="5,2" d="M70,-79.23C70,-64.41 70,-44.05 70,-30.6"/>
<polygon fill="#9a32cd" stroke="#9a32cd" points="66.5,-79.28 70,-89.28 73.5,-79.28 66.5,-79.28"/>
<text text-anchor="middle" x="80.5" y="-63" font-family="Helvetica,sans-Serif" font-size="10.00"> max</text>
<text text-anchor="middle" x="80.5" y="-52" font-family="Helvetica,sans-Serif" font-size="10.00">min</text>
</g>
</g>
</svg>
