<?xml version="1.0" encoding="UTF-8" standalone="no"?>
<!DOCTYPE svg PUBLIC "-//W3C//DTD SVG 1.1//EN"
 "http://www.w3.org/Graphics/SVG/1.1/DTD/svg11.dtd">
<!-- Generated by graphviz version 3.0.0 (20220413.0242)
 -->
<!-- Title: PlottingFramework::Plot::Pad::Data::proj_info_t Pages: 1 -->
<svg width="357pt" height="117pt"
 viewBox="0.00 0.00 357.00 117.00" xmlns="http://www.w3.org/2000/svg" xmlns:xlink="http://www.w3.org/1999/xlink">
<g id="graph0" class="graph" transform="scale(1 1) rotate(0) translate(4 113)">
<title>PlottingFramework::Plot::Pad::Data::proj_info_t</title>
<polygon fill="white" stroke="transparent" points="-4,4 -4,-113 353,-113 353,4 -4,4"/>
<!-- Node1 -->
<g id="node1" class="node">
<title>Node1</title>
<g id="a_node1"><a xlink:title=" ">
<polygon fill="#bfbfbf" stroke="black" points="246,-34.5 246,-75.5 349,-75.5 349,-34.5 246,-34.5"/>
<text text-anchor="start" x="254" y="-63.5" font-family="Helvetica,sans-Serif" font-size="10.00">PlottingFramework::</text>
<text text-anchor="start" x="254" y="-52.5" font-family="Helvetica,sans-Serif" font-size="10.00">Plot::Pad::Data::proj</text>
<text text-anchor="middle" x="297.5" y="-41.5" font-family="Helvetica,sans-Serif" font-size="10.00">_info_t</text>
</a>
</g>
</g>
<!-- Node2 -->
<g id="node2" class="node">
<title>Node2</title>
<g id="a_node2"><a xlink:title=" ">
<polygon fill="white" stroke="black" points="24,-89.5 24,-108.5 131,-108.5 131,-89.5 24,-89.5"/>
<text text-anchor="middle" x="77.5" y="-96.5" font-family="Helvetica,sans-Serif" font-size="10.00">std::vector&lt; uint8_t &gt;</text>
</a>
</g>
</g>
<!-- Node2&#45;&gt;Node1 -->
<g id="edge1" class="edge">
<title>Node2&#45;&gt;Node1</title>
<path fill="none" stroke="#9a32cd" stroke-dasharray="5,2" d="M139.54,-87.5C166.66,-82.31 198.96,-76 228,-70 233.72,-68.82 239.71,-67.55 245.66,-66.28"/>
<polygon fill="#9a32cd" stroke="#9a32cd" points="138.58,-84.12 129.42,-89.44 139.9,-91 138.58,-84.12"/>
<text text-anchor="middle" x="200.5" y="-83" font-family="Helvetica,sans-Serif" font-size="10.00"> dims</text>
</g>
<!-- Node3 -->
<g id="node3" class="node">
<title>Node3</title>
<g id="a_node3"><a xlink:title=" ">
<polygon fill="white" stroke="black" points="0,-40 0,-70 155,-70 155,-40 0,-40"/>
<text text-anchor="start" x="8" y="-58" font-family="Helvetica,sans-Serif" font-size="10.00">std::vector&lt; std::tuple</text>
<text text-anchor="middle" x="77.5" y="-47" font-family="Helvetica,sans-Serif" font-size="10.00">&lt; uint8_t, double_t, double_t &gt; &gt;</text>
</a>
</g>
</g>
<!-- Node3&#45;&gt;Node1 -->
<g id="edge2" class="edge">
<title>Node3&#45;&gt;Node1</title>
<path fill="none" stroke="#9a32cd" stroke-dasharray="5,2" d="M165.39,-55C192.65,-55 221.84,-55 245.74,-55"/>
<polygon fill="#9a32cd" stroke="#9a32cd" points="165.05,-51.5 155.05,-55 165.05,-58.5 165.05,-51.5"/>
<text text-anchor="middle" x="200.5" y="-58" font-family="Helvetica,sans-Serif" font-size="10.00"> ranges</text>
</g>
<!-- Node4 -->
<g id="node4" class="node">
<title>Node4</title>
<g id="a_node4"><a xlink:title=" ">
<polygon fill="white" stroke="black" points="35,-0.5 35,-19.5 120,-19.5 120,-0.5 35,-0.5"/>
<text text-anchor="middle" x="77.5" y="-7.5" font-family="Helvetica,sans-Serif" font-size="10.00">optional&lt; bool &gt;</text>
</a>
</g>
</g>
<!-- Node4&#45;&gt;Node1 -->
<g id="edge3" class="edge">
<title>Node4&#45;&gt;Node1</title>
<path fill="none" stroke="#9a32cd" stroke-dasharray="5,2" d="M130.55,-13.57C159.54,-16.32 196.12,-21.04 228,-29 234.05,-30.51 240.29,-32.39 246.43,-34.45"/>
<polygon fill="#9a32cd" stroke="#9a32cd" points="130.51,-10.06 120.23,-12.65 129.88,-17.03 130.51,-10.06"/>
<text text-anchor="middle" x="200.5" y="-43" font-family="Helvetica,sans-Serif" font-size="10.00"> isProfile</text>
<text text-anchor="middle" x="200.5" y="-32" font-family="Helvetica,sans-Serif" font-size="10.00">isUserCoord</text>
</g>
</g>
</svg>
