<?xml version="1.0" encoding="UTF-8" standalone="no"?>
<!DOCTYPE svg PUBLIC "-//W3C//DTD SVG 1.1//EN"
 "http://www.w3.org/Graphics/SVG/1.1/DTD/svg11.dtd">
<!-- Generated by graphviz version 3.0.0 (20220413.0242)
 -->
<!-- Title: PlottingFramework::Plot::Pad::Axis::axisTextProperties_t Pages: 1 -->
<svg width="319pt" height="117pt"
 viewBox="0.00 0.00 318.50 117.00" xmlns="http://www.w3.org/2000/svg" xmlns:xlink="http://www.w3.org/1999/xlink">
<g id="graph0" class="graph" transform="scale(1 1) rotate(0) translate(4 113)">
<title>PlottingFramework::Plot::Pad::Axis::axisTextProperties_t</title>
<polygon fill="white" stroke="transparent" points="-4,4 -4,-113 314.5,-113 314.5,4 -4,4"/>
<!-- Node1 -->
<g id="node1" class="node">
<title>Node1</title>
<g id="a_node1"><a xlink:title=" ">
<polygon fill="#bfbfbf" stroke="black" points="75,-0.5 75,-30.5 247,-30.5 247,-0.5 75,-0.5"/>
<text text-anchor="start" x="83" y="-18.5" font-family="Helvetica,sans-Serif" font-size="10.00">PlottingFramework::</text>
<text text-anchor="middle" x="161" y="-7.5" font-family="Helvetica,sans-Serif" font-size="10.00">Plot::Pad::Axis::axisTextProperties_t</text>
</a>
</g>
</g>
<!-- Node2 -->
<g id="node2" class="node">
<title>Node2</title>
<g id="a_node2"><a xlink:title=" ">
<polygon fill="white" stroke="black" points="0,-89.5 0,-108.5 96,-108.5 96,-89.5 0,-89.5"/>
<text text-anchor="middle" x="48" y="-96.5" font-family="Helvetica,sans-Serif" font-size="10.00">optional&lt; int16_t &gt;</text>
</a>
</g>
</g>
<!-- Node2&#45;&gt;Node1 -->
<g id="edge1" class="edge">
<title>Node2&#45;&gt;Node1</title>
<path fill="none" stroke="#9a32cd" stroke-dasharray="5,2" d="M68.22,-83.42C88.95,-68.47 120.97,-45.37 141.45,-30.6"/>
<polygon fill="#9a32cd" stroke="#9a32cd" points="66.16,-80.59 60.09,-89.28 70.25,-86.27 66.16,-80.59"/>
<text text-anchor="middle" x="127" y="-63" font-family="Helvetica,sans-Serif" font-size="10.00"> color</text>
<text text-anchor="middle" x="127" y="-52" font-family="Helvetica,sans-Serif" font-size="10.00">font</text>
</g>
<!-- Node3 -->
<g id="node3" class="node">
<title>Node3</title>
<g id="a_node3"><a xlink:title=" ">
<polygon fill="white" stroke="black" points="114.5,-89.5 114.5,-108.5 207.5,-108.5 207.5,-89.5 114.5,-89.5"/>
<text text-anchor="middle" x="161" y="-96.5" font-family="Helvetica,sans-Serif" font-size="10.00">optional&lt; float_t &gt;</text>
</a>
</g>
</g>
<!-- Node3&#45;&gt;Node1 -->
<g id="edge2" class="edge">
<title>Node3&#45;&gt;Node1</title>
<path fill="none" stroke="#9a32cd" stroke-dasharray="5,2" d="M161,-79.23C161,-64.41 161,-44.05 161,-30.6"/>
<polygon fill="#9a32cd" stroke="#9a32cd" points="157.5,-79.28 161,-89.28 164.5,-79.28 157.5,-79.28"/>
<text text-anchor="middle" x="174.5" y="-63" font-family="Helvetica,sans-Serif" font-size="10.00"> offset</text>
<text text-anchor="middle" x="174.5" y="-52" font-family="Helvetica,sans-Serif" font-size="10.00">size</text>
</g>
<!-- Node4 -->
<g id="node4" class="node">
<title>Node4</title>
<g id="a_node4"><a xlink:title=" ">
<polygon fill="white" stroke="black" points="225.5,-89.5 225.5,-108.5 310.5,-108.5 310.5,-89.5 225.5,-89.5"/>
<text text-anchor="middle" x="268" y="-96.5" font-family="Helvetica,sans-Serif" font-size="10.00">optional&lt; bool &gt;</text>
</a>
</g>
</g>
<!-- Node4&#45;&gt;Node1 -->
<g id="edge3" class="edge">
<title>Node4&#45;&gt;Node1</title>
<path fill="none" stroke="#9a32cd" stroke-dasharray="5,2" d="M248.59,-83.22C228.95,-68.26 198.82,-45.3 179.51,-30.6"/>
<polygon fill="#9a32cd" stroke="#9a32cd" points="246.47,-86 256.55,-89.28 250.71,-80.43 246.47,-86"/>
<text text-anchor="middle" x="245" y="-57.5" font-family="Helvetica,sans-Serif" font-size="10.00"> center</text>
</g>
</g>
</svg>
