<?xml version="1.0" encoding="UTF-8" standalone="no"?>
<!DOCTYPE svg PUBLIC "-//W3C//DTD SVG 1.1//EN"
 "http://www.w3.org/Graphics/SVG/1.1/DTD/svg11.dtd">
<!-- Generated by graphviz version 3.0.0 (20220413.0242)
 -->
<!-- Title: PlottingFramework::Plot::Pad::Data::legend_t Pages: 1 -->
<svg width="214pt" height="106pt"
 viewBox="0.00 0.00 213.50 106.00" xmlns="http://www.w3.org/2000/svg" xmlns:xlink="http://www.w3.org/1999/xlink">
<g id="graph0" class="graph" transform="scale(1 1) rotate(0) translate(4 102)">
<title>PlottingFramework::Plot::Pad::Data::legend_t</title>
<polygon fill="white" stroke="transparent" points="-4,4 -4,-102 209.5,-102 209.5,4 -4,4"/>
<!-- Node1 -->
<g id="node1" class="node">
<title>Node1</title>
<g id="a_node1"><a xlink:title=" ">
<polygon fill="#bfbfbf" stroke="black" points="40.5,-0.5 40.5,-30.5 162.5,-30.5 162.5,-0.5 40.5,-0.5"/>
<text text-anchor="start" x="48.5" y="-18.5" font-family="Helvetica,sans-Serif" font-size="10.00">PlottingFramework::</text>
<text text-anchor="middle" x="101.5" y="-7.5" font-family="Helvetica,sans-Serif" font-size="10.00">Plot::Pad::Data::legend_t</text>
</a>
</g>
</g>
<!-- Node2 -->
<g id="node2" class="node">
<title>Node2</title>
<g id="a_node2"><a xlink:title=" ">
<polygon fill="white" stroke="black" points="0,-78.5 0,-97.5 91,-97.5 91,-78.5 0,-78.5"/>
<text text-anchor="middle" x="45.5" y="-85.5" font-family="Helvetica,sans-Serif" font-size="10.00">optional&lt; string &gt;</text>
</a>
</g>
</g>
<!-- Node2&#45;&gt;Node1 -->
<g id="edge1" class="edge">
<title>Node2&#45;&gt;Node1</title>
<path fill="none" stroke="#9a32cd" stroke-dasharray="5,2" d="M58.69,-70.39C68.31,-58.28 81.2,-42.05 90.32,-30.58"/>
<polygon fill="#9a32cd" stroke="#9a32cd" points="55.85,-68.35 52.37,-78.36 61.33,-72.7 55.85,-68.35"/>
<text text-anchor="middle" x="87" y="-52" font-family="Helvetica,sans-Serif" font-size="10.00"> label</text>
</g>
<!-- Node3 -->
<g id="node3" class="node">
<title>Node3</title>
<g id="a_node3"><a xlink:title=" ">
<polygon fill="white" stroke="black" points="109.5,-78.5 109.5,-97.5 205.5,-97.5 205.5,-78.5 109.5,-78.5"/>
<text text-anchor="middle" x="157.5" y="-85.5" font-family="Helvetica,sans-Serif" font-size="10.00">optional&lt; uint8_t &gt;</text>
</a>
</g>
</g>
<!-- Node3&#45;&gt;Node1 -->
<g id="edge2" class="edge">
<title>Node3&#45;&gt;Node1</title>
<path fill="none" stroke="#9a32cd" stroke-dasharray="5,2" d="M144.31,-70.39C134.69,-58.28 121.8,-42.05 112.68,-30.58"/>
<polygon fill="#9a32cd" stroke="#9a32cd" points="141.67,-72.7 150.63,-78.36 147.15,-68.35 141.67,-72.7"/>
<text text-anchor="middle" x="154" y="-52" font-family="Helvetica,sans-Serif" font-size="10.00"> identifier</text>
</g>
</g>
</svg>
