<?xml version="1.0" encoding="UTF-8" standalone="no"?>
<!DOCTYPE svg PUBLIC "-//W3C//DTD SVG 1.1//EN"
 "http://www.w3.org/Graphics/SVG/1.1/DTD/svg11.dtd">
<!-- Generated by graphviz version 3.0.0 (20220413.0242)
 -->
<!-- Title: PlottingFramework::Plot::layout_t Pages: 1 -->
<svg width="216pt" height="117pt"
 viewBox="0.00 0.00 215.50 117.00" xmlns="http://www.w3.org/2000/svg" xmlns:xlink="http://www.w3.org/1999/xlink">
<g id="graph0" class="graph" transform="scale(1 1) rotate(0) translate(4 113)">
<title>PlottingFramework::Plot::layout_t</title>
<polygon fill="white" stroke="transparent" points="-4,4 -4,-113 211.5,-113 211.5,4 -4,4"/>
<!-- Node1 -->
<g id="node1" class="node">
<title>Node1</title>
<g id="a_node1"><a xlink:title=" ">
<polygon fill="#bfbfbf" stroke="black" points="52.5,-0.5 52.5,-30.5 155.5,-30.5 155.5,-0.5 52.5,-0.5"/>
<text text-anchor="start" x="60.5" y="-18.5" font-family="Helvetica,sans-Serif" font-size="10.00">PlottingFramework::</text>
<text text-anchor="middle" x="104" y="-7.5" font-family="Helvetica,sans-Serif" font-size="10.00">Plot::layout_t</text>
</a>
</g>
</g>
<!-- Node2 -->
<g id="node2" class="node">
<title>Node2</title>
<g id="a_node2"><a xlink:title=" ">
<polygon fill="white" stroke="black" points="0,-89.5 0,-108.5 96,-108.5 96,-89.5 0,-89.5"/>
<text text-anchor="middle" x="48" y="-96.5" font-family="Helvetica,sans-Serif" font-size="10.00">optional&lt; int16_t &gt;</text>
</a>
</g>
</g>
<!-- Node2&#45;&gt;Node1 -->
<g id="edge1" class="edge">
<title>Node2&#45;&gt;Node1</title>
<path fill="none" stroke="#9a32cd" stroke-dasharray="5,2" d="M59.72,-80.95C69.98,-66.01 84.71,-44.58 94.31,-30.6"/>
<polygon fill="#9a32cd" stroke="#9a32cd" points="56.77,-79.05 53.99,-89.28 62.54,-83.02 56.77,-79.05"/>
<text text-anchor="middle" x="94" y="-63" font-family="Helvetica,sans-Serif" font-size="10.00"> color</text>
<text text-anchor="middle" x="94" y="-52" font-family="Helvetica,sans-Serif" font-size="10.00">style</text>
</g>
<!-- Node3 -->
<g id="node3" class="node">
<title>Node3</title>
<g id="a_node3"><a xlink:title=" ">
<polygon fill="white" stroke="black" points="114.5,-89.5 114.5,-108.5 207.5,-108.5 207.5,-89.5 114.5,-89.5"/>
<text text-anchor="middle" x="161" y="-96.5" font-family="Helvetica,sans-Serif" font-size="10.00">optional&lt; float_t &gt;</text>
</a>
</g>
</g>
<!-- Node3&#45;&gt;Node1 -->
<g id="edge2" class="edge">
<title>Node3&#45;&gt;Node1</title>
<path fill="none" stroke="#9a32cd" stroke-dasharray="5,2" d="M149.07,-80.95C138.63,-66.01 123.64,-44.58 113.86,-30.6"/>
<polygon fill="#9a32cd" stroke="#9a32cd" points="146.3,-83.09 154.9,-89.28 152.04,-79.08 146.3,-83.09"/>
<text text-anchor="middle" x="153" y="-57.5" font-family="Helvetica,sans-Serif" font-size="10.00"> scale</text>
</g>
</g>
</svg>
