<?xml version="1.0" encoding="UTF-8" standalone="no"?>
<!DOCTYPE svg PUBLIC "-//W3C//DTD SVG 1.1//EN"
 "http://www.w3.org/Graphics/SVG/1.1/DTD/svg11.dtd">
<!-- Generated by graphviz version 3.0.0 (20220413.0242)
 -->
<!-- Title: PlottingFramework::Plot::Pad::Data::modify_t Pages: 1 -->
<svg width="226pt" height="106pt"
 viewBox="0.00 0.00 226.00 106.00" xmlns="http://www.w3.org/2000/svg" xmlns:xlink="http://www.w3.org/1999/xlink">
<g id="graph0" class="graph" transform="scale(1 1) rotate(0) translate(4 102)">
<title>PlottingFramework::Plot::Pad::Data::modify_t</title>
<polygon fill="white" stroke="transparent" points="-4,4 -4,-102 222,-102 222,4 -4,4"/>
<!-- Node1 -->
<g id="node1" class="node">
<title>Node1</title>
<g id="a_node1"><a xlink:title=" ">
<polygon fill="#bfbfbf" stroke="black" points="46,-0.5 46,-30.5 168,-30.5 168,-0.5 46,-0.5"/>
<text text-anchor="start" x="54" y="-18.5" font-family="Helvetica,sans-Serif" font-size="10.00">PlottingFramework::</text>
<text text-anchor="middle" x="107" y="-7.5" font-family="Helvetica,sans-Serif" font-size="10.00">Plot::Pad::Data::modify_t</text>
</a>
</g>
</g>
<!-- Node2 -->
<g id="node2" class="node">
<title>Node2</title>
<g id="a_node2"><a xlink:title=" ">
<polygon fill="white" stroke="black" points="0,-78.5 0,-97.5 96,-97.5 96,-78.5 0,-78.5"/>
<text text-anchor="middle" x="48" y="-85.5" font-family="Helvetica,sans-Serif" font-size="10.00">optional&lt; uint8_t &gt;</text>
</a>
</g>
</g>
<!-- Node2&#45;&gt;Node1 -->
<g id="edge1" class="edge">
<title>Node2&#45;&gt;Node1</title>
<path fill="none" stroke="#9a32cd" stroke-dasharray="5,2" d="M61.9,-70.39C72.03,-58.28 85.62,-42.05 95.22,-30.58"/>
<polygon fill="#9a32cd" stroke="#9a32cd" points="58.97,-68.44 55.23,-78.36 64.34,-72.93 58.97,-68.44"/>
<text text-anchor="middle" x="104.5" y="-52" font-family="Helvetica,sans-Serif" font-size="10.00"> normMode</text>
</g>
<!-- Node3 -->
<g id="node3" class="node">
<title>Node3</title>
<g id="a_node3"><a xlink:title=" ">
<polygon fill="white" stroke="black" points="114,-78.5 114,-97.5 218,-97.5 218,-78.5 114,-78.5"/>
<text text-anchor="middle" x="166" y="-85.5" font-family="Helvetica,sans-Serif" font-size="10.00">optional&lt; double_t &gt;</text>
</a>
</g>
</g>
<!-- Node3&#45;&gt;Node1 -->
<g id="edge2" class="edge">
<title>Node3&#45;&gt;Node1</title>
<path fill="none" stroke="#9a32cd" stroke-dasharray="5,2" d="M152.1,-70.39C141.97,-58.28 128.38,-42.05 118.78,-30.58"/>
<polygon fill="#9a32cd" stroke="#9a32cd" points="149.66,-72.93 158.77,-78.36 155.03,-68.44 149.66,-72.93"/>
<text text-anchor="middle" x="168" y="-52" font-family="Helvetica,sans-Serif" font-size="10.00"> scaleFactor</text>
</g>
</g>
</svg>
