<?xml version="1.0" encoding="UTF-8" standalone="no"?>
<!DOCTYPE svg PUBLIC "-//W3C//DTD SVG 1.1//EN"
 "http://www.w3.org/Graphics/SVG/1.1/DTD/svg11.dtd">
<!-- Generated by graphviz version 3.0.0 (20220413.0242)
 -->
<!-- Title: PlottingFramework::Plot::Pad::view_defaults_t Pages: 1 -->
<!--zoomable 141 -->
<svg id="main" version="1.1" xmlns="http://www.w3.org/2000/svg" xmlns:xlink="http://www.w3.org/1999/xlink" xml:space="preserve" onload="init(evt)">
<style type="text/css"><![CDATA[
.edge:hover path { stroke: red; }
.edge:hover polygon { stroke: red; fill: red; }
]]></style>
<script type="text/javascript"><![CDATA[
var edges = document.getElementsByTagName('g');
if (edges && edges.length) {
  for (var i=0;i<edges.length;i++) {
    if (edges[i].id.substr(0,4)=='edge') {
      edges[i].setAttribute('class','edge');
    }
  }
}
]]></script>
        <defs>
                <circle id="rim" cx="0" cy="0" r="7"/>
                <circle id="rim2" cx="0" cy="0" r="3.5"/>
                <g id="zoomPlus">
                        <use xlink:href="#rim" fill="#404040">
                                <set attributeName="fill" to="#808080" begin="zoomplus.mouseover" end="zoomplus.mouseout"/>
                        </use>
                        <path d="M-4,0h8M0,-4v8" fill="none" stroke="white" stroke-width="1.5" pointer-events="none"/>
                </g>
                <g id="zoomMin">
                        <use xlink:href="#rim" fill="#404040">
                                <set attributeName="fill" to="#808080" begin="zoomminus.mouseover" end="zoomminus.mouseout"/>
                        </use>
                        <path d="M-4,0h8" fill="none" stroke="white" stroke-width="1.5" pointer-events="none"/>
                </g>
                <g id="dirArrow">
                        <path fill="none" stroke="white" stroke-width="1.5" d="M0,-3.0v7 M-2.5,-0.5L0,-3.0L2.5,-0.5"/>
                </g>
               <g id="resetDef">
                       <use xlink:href="#rim2" fill="#404040">
                               <set attributeName="fill" to="#808080" begin="reset.mouseover" end="reset.mouseout"/>
                       </use>
               </g>
        </defs>

<script type="text/javascript">
var viewWidth = 558;
var viewHeight = 141;
var sectionId = 'dynsection-0';
</script>
<script xlink:href="svgpan.js"/>
<svg id="graph" class="graph">
<g id="viewport">
<title>PlottingFramework::Plot::Pad::view_defaults_t</title>
<polygon fill="white" stroke="transparent" points="-4,4 -4,-136.5 554,-136.5 554,4 -4,4"/>
<!-- Node1 -->
<g id="node1" class="node">
<title>Node1</title>
<g id="a_node1"><a xlink:title=" ">
<polygon fill="#bfbfbf" stroke="black" points="422,-54.5 422,-84.5 550,-84.5 550,-54.5 422,-54.5"/>
<text text-anchor="start" x="430" y="-72.5" font-family="Helvetica,sans-Serif" font-size="10.00">PlottingFramework::</text>
<text text-anchor="middle" x="486" y="-61.5" font-family="Helvetica,sans-Serif" font-size="10.00">Plot::Pad::view_defaults_t</text>
</a>
</g>
</g>
<!-- Node2 -->
<g id="node2" class="node">
<title>Node2</title>
<g id="a_node2"><a xlink:title=" ">
<polygon fill="white" stroke="black" points="11,-113 11,-132 104,-132 104,-113 11,-113"/>
<text text-anchor="middle" x="57.5" y="-120" font-family="Helvetica,sans-Serif" font-size="10.00">optional&lt; float_t &gt;</text>
</a>
</g>
</g>
<!-- Node2&#45;&gt;Node1 -->
<g id="edge1" class="edge">
<title>Node2&#45;&gt;Node1</title>
<path fill="none" stroke="#9a32cd" stroke-dasharray="5,2" d="M114.55,-119.19C138.44,-117.66 166.6,-115.69 192,-113.5 251.22,-108.39 266.19,-108.09 325,-99.5 357.02,-94.82 392.4,-88.33 421.74,-82.58"/>
<polygon fill="#9a32cd" stroke="#9a32cd" points="114.01,-115.72 104.25,-119.84 114.46,-122.7 114.01,-115.72"/>
<text text-anchor="middle" x="267.5" y="-114.5" font-family="Helvetica,sans-Serif" font-size="10.00"> scale</text>
</g>
<!-- Node4 -->
<g id="node4" class="node">
<title>Node4</title>
<g id="a_node4"><a xlink:href="structPlottingFramework_1_1Plot_1_1Pad_1_1gradient__color__t.html" target="_top" xlink:title=" ">
<polygon fill="white" stroke="black" points="216,-49 216,-90 319,-90 319,-49 216,-49"/>
<text text-anchor="start" x="224" y="-78" font-family="Helvetica,sans-Serif" font-size="10.00">PlottingFramework::</text>
<text text-anchor="start" x="224" y="-67" font-family="Helvetica,sans-Serif" font-size="10.00">Plot::Pad::gradient</text>
<text text-anchor="middle" x="267.5" y="-56" font-family="Helvetica,sans-Serif" font-size="10.00">_color_t</text>
</a>
</g>
</g>
<!-- Node2&#45;&gt;Node4 -->
<g id="edge5" class="edge">
<title>Node2&#45;&gt;Node4</title>
<path fill="none" stroke="#9a32cd" stroke-dasharray="5,2" d="M103.29,-110.32C113.07,-107.7 123.38,-104.98 133,-102.5 160.28,-95.47 190.78,-87.91 215.73,-81.8"/>
<polygon fill="#9a32cd" stroke="#9a32cd" points="102.08,-107.02 93.33,-113 103.9,-113.78 102.08,-107.02"/>
<text text-anchor="middle" x="162.5" y="-105.5" font-family="Helvetica,sans-Serif" font-size="10.00"> alpha</text>
</g>
<!-- Node3 -->
<g id="node3" class="node">
<title>Node3</title>
<g id="a_node3"><a xlink:title=" ">
<polygon fill="white" stroke="black" points="210,-0.5 210,-30.5 325,-30.5 325,-0.5 210,-0.5"/>
<text text-anchor="start" x="218" y="-18.5" font-family="Helvetica,sans-Serif" font-size="10.00">optional&lt; vector&lt; int16</text>
<text text-anchor="middle" x="267.5" y="-7.5" font-family="Helvetica,sans-Serif" font-size="10.00">_t &gt; &gt;</text>
</a>
</g>
</g>
<!-- Node3&#45;&gt;Node1 -->
<g id="edge2" class="edge">
<title>Node3&#45;&gt;Node1</title>
<path fill="none" stroke="#9a32cd" stroke-dasharray="5,2" d="M335.11,-27.79C357.16,-32.25 381.74,-37.65 404,-43.5 416.14,-46.69 429.15,-50.63 441.11,-54.47"/>
<polygon fill="#9a32cd" stroke="#9a32cd" points="335.67,-24.33 325.18,-25.81 334.3,-31.2 335.67,-24.33"/>
<text text-anchor="middle" x="373.5" y="-57.5" font-family="Helvetica,sans-Serif" font-size="10.00"> colors</text>
<text text-anchor="middle" x="373.5" y="-46.5" font-family="Helvetica,sans-Serif" font-size="10.00">styles</text>
</g>
<!-- Node4&#45;&gt;Node1 -->
<g id="edge3" class="edge">
<title>Node4&#45;&gt;Node1</title>
<path fill="none" stroke="#9a32cd" stroke-dasharray="5,2" d="M329.6,-69.5C358.39,-69.5 392.72,-69.5 421.77,-69.5"/>
<polygon fill="#9a32cd" stroke="#9a32cd" points="329.26,-66 319.26,-69.5 329.26,-73 329.26,-66"/>
<text text-anchor="middle" x="373.5" y="-72.5" font-family="Helvetica,sans-Serif" font-size="10.00"> colorGradient</text>
</g>
<!-- Node5 -->
<g id="node5" class="node">
<title>Node5</title>
<g id="a_node5"><a xlink:title=" ">
<polygon fill="white" stroke="black" points="0,-47 0,-88 115,-88 115,-47 0,-47"/>
<text text-anchor="start" x="8" y="-76" font-family="Helvetica,sans-Serif" font-size="10.00">optional&lt; vector&lt; tuple</text>
<text text-anchor="start" x="8" y="-65" font-family="Helvetica,sans-Serif" font-size="10.00">&lt; float_t, float_t, float</text>
<text text-anchor="middle" x="57.5" y="-54" font-family="Helvetica,sans-Serif" font-size="10.00">_t, float_t &gt; &gt; &gt;</text>
</a>
</g>
</g>
<!-- Node5&#45;&gt;Node4 -->
<g id="edge4" class="edge">
<title>Node5&#45;&gt;Node4</title>
<path fill="none" stroke="#9a32cd" stroke-dasharray="5,2" d="M125.27,-67.92C146.59,-68.08 170.29,-68.27 192,-68.5 199.63,-68.58 207.7,-68.68 215.6,-68.78"/>
<polygon fill="#9a32cd" stroke="#9a32cd" points="125.04,-64.42 115.01,-67.85 124.99,-71.42 125.04,-64.42"/>
<text text-anchor="middle" x="162.5" y="-71.5" font-family="Helvetica,sans-Serif" font-size="10.00"> rgbEndpoints</text>
</g>
<!-- Node6 -->
<g id="node6" class="node">
<title>Node6</title>
<g id="a_node6"><a xlink:title=" ">
<polygon fill="white" stroke="black" points="9.5,-9 9.5,-28 105.5,-28 105.5,-9 9.5,-9"/>
<text text-anchor="middle" x="57.5" y="-16" font-family="Helvetica,sans-Serif" font-size="10.00">optional&lt; int32_t &gt;</text>
</a>
</g>
</g>
<!-- Node6&#45;&gt;Node4 -->
<g id="edge6" class="edge">
<title>Node6&#45;&gt;Node4</title>
<path fill="none" stroke="#9a32cd" stroke-dasharray="5,2" d="M107.39,-30.49C140,-38.48 182.76,-48.97 215.74,-57.05"/>
<polygon fill="#9a32cd" stroke="#9a32cd" points="108.17,-27.07 97.62,-28.09 106.5,-33.87 108.17,-27.07"/>
<text text-anchor="middle" x="162.5" y="-52.5" font-family="Helvetica,sans-Serif" font-size="10.00"> nColors</text>
</g>
</g>
</svg>
        <g id="navigator" transform="translate(0 0)" fill="#404254">
                <rect fill="#f2f5e9" fill-opacity="0.5" stroke="#606060" stroke-width=".5" x="0" y="0" width="60" height="60"/>
                <use id="zoomplus" xlink:href="#zoomPlus" x="17" y="9" onmousedown="handleZoom(evt,'in')"/>
                <use id="zoomminus" xlink:href="#zoomMin" x="42" y="9" onmousedown="handleZoom(evt,'out')"/>
                <use id="reset" xlink:href="#resetDef" x="30" y="36" onmousedown="handleReset()"/>
                <g id="arrowUp" xlink:href="#dirArrow" transform="translate(30 24)" onmousedown="handlePan(0,-1)">
                  <use xlink:href="#rim" fill="#404040">
                        <set attributeName="fill" to="#808080" begin="arrowUp.mouseover" end="arrowUp.mouseout"/>
                  </use>
                  <path fill="none" stroke="white" stroke-width="1.5" d="M0,-3.0v7 M-2.5,-0.5L0,-3.0L2.5,-0.5"/>
                </g>
                <g id="arrowRight" xlink:href="#dirArrow" transform="rotate(90) translate(36 -43)" onmousedown="handlePan(1,0)">
                  <use xlink:href="#rim" fill="#404040">
                        <set attributeName="fill" to="#808080" begin="arrowRight.mouseover" end="arrowRight.mouseout"/>
                  </use>
                  <path fill="none" stroke="white" stroke-width="1.5" d="M0,-3.0v7 M-2.5,-0.5L0,-3.0L2.5,-0.5"/>
                </g>
                <g id="arrowDown" xlink:href="#dirArrow" transform="rotate(180) translate(-30 -48)" onmousedown="handlePan(0,1)">
                  <use xlink:href="#rim" fill="#404040">
                        <set attributeName="fill" to="#808080" begin="arrowDown.mouseover" end="arrowDown.mouseout"/>
                  </use>
                  <path fill="none" stroke="white" stroke-width="1.5" d="M0,-3.0v7 M-2.5,-0.5L0,-3.0L2.5,-0.5"/>
                </g>
                <g id="arrowLeft" xlink:href="#dirArrow" transform="rotate(270) translate(-36 17)" onmousedown="handlePan(-1,0)">
                  <use xlink:href="#rim" fill="#404040">
                        <set attributeName="fill" to="#808080" begin="arrowLeft.mouseover" end="arrowLeft.mouseout"/>
                  </use>
                  <path fill="none" stroke="white" stroke-width="1.5" d="M0,-3.0v7 M-2.5,-0.5L0,-3.0L2.5,-0.5"/>
                </g>
        </g>
        <svg viewBox="0 0 15 15" width="100%" height="30px" preserveAspectRatio="xMaxYMin meet">
         <g id="arrow_out" transform="scale(0.3 0.3)">
          <a xlink:href="structPlottingFramework_1_1Plot_1_1Pad_1_1view__defaults__t__coll__graph_org.svg" target="_base">
           <rect id="button" ry="5" rx="5" y="6" x="6" height="38" width="38"
                fill="#f2f5e9" fill-opacity="0.5" stroke="#606060" stroke-width="1.0"/>
           <path id="arrow"
             d="M 11.500037,31.436501 C 11.940474,20.09759 22.043105,11.32322 32.158766,21.979434 L 37.068811,17.246167 C 37.068811,17.246167 37.088388,32 37.088388,32 L 22.160133,31.978069 C 22.160133,31.978069 26.997745,27.140456 26.997745,27.140456 C 18.528582,18.264221 13.291696,25.230495 11.500037,31.436501 z"
             style="fill:#404040;"/>
          </a>
         </g>
        </svg>
</svg>
