<?xml version="1.0" encoding="UTF-8" standalone="no"?>
<!DOCTYPE svg PUBLIC "-//W3C//DTD SVG 1.1//EN"
 "http://www.w3.org/Graphics/SVG/1.1/DTD/svg11.dtd">
<!-- Generated by graphviz version 3.0.0 (20220413.0242)
 -->
<!-- Title: PlottingFramework::Plot::dimension_t Pages: 1 -->
<svg width="210pt" height="117pt"
 viewBox="0.00 0.00 210.00 117.00" xmlns="http://www.w3.org/2000/svg" xmlns:xlink="http://www.w3.org/1999/xlink">
<g id="graph0" class="graph" transform="scale(1 1) rotate(0) translate(4 113)">
<title>PlottingFramework::Plot::dimension_t</title>
<polygon fill="white" stroke="transparent" points="-4,4 -4,-113 206,-113 206,4 -4,4"/>
<!-- Node1 -->
<g id="node1" class="node">
<title>Node1</title>
<g id="a_node1"><a xlink:title=" ">
<polygon fill="#bfbfbf" stroke="black" points="50.5,-0.5 50.5,-30.5 153.5,-30.5 153.5,-0.5 50.5,-0.5"/>
<text text-anchor="start" x="58.5" y="-18.5" font-family="Helvetica,sans-Serif" font-size="10.00">PlottingFramework::</text>
<text text-anchor="middle" x="102" y="-7.5" font-family="Helvetica,sans-Serif" font-size="10.00">Plot::dimension_t</text>
</a>
</g>
</g>
<!-- Node2 -->
<g id="node2" class="node">
<title>Node2</title>
<g id="a_node2"><a xlink:title=" ">
<polygon fill="white" stroke="black" points="0,-89.5 0,-108.5 96,-108.5 96,-89.5 0,-89.5"/>
<text text-anchor="middle" x="48" y="-96.5" font-family="Helvetica,sans-Serif" font-size="10.00">optional&lt; int32_t &gt;</text>
</a>
</g>
</g>
<!-- Node2&#45;&gt;Node1 -->
<g id="edge1" class="edge">
<title>Node2&#45;&gt;Node1</title>
<path fill="none" stroke="#9a32cd" stroke-dasharray="5,2" d="M59.58,-80.52C69.46,-65.61 83.48,-44.45 92.66,-30.6"/>
<polygon fill="#9a32cd" stroke="#9a32cd" points="56.38,-79.01 53.78,-89.28 62.22,-82.88 56.38,-79.01"/>
<text text-anchor="middle" x="94.5" y="-63" font-family="Helvetica,sans-Serif" font-size="10.00"> height</text>
<text text-anchor="middle" x="94.5" y="-52" font-family="Helvetica,sans-Serif" font-size="10.00">width</text>
</g>
<!-- Node3 -->
<g id="node3" class="node">
<title>Node3</title>
<g id="a_node3"><a xlink:title=" ">
<polygon fill="white" stroke="black" points="114.5,-89.5 114.5,-108.5 199.5,-108.5 199.5,-89.5 114.5,-89.5"/>
<text text-anchor="middle" x="157" y="-96.5" font-family="Helvetica,sans-Serif" font-size="10.00">optional&lt; bool &gt;</text>
</a>
</g>
</g>
<!-- Node3&#45;&gt;Node1 -->
<g id="edge2" class="edge">
<title>Node3&#45;&gt;Node1</title>
<path fill="none" stroke="#9a32cd" stroke-dasharray="5,2" d="M145.49,-80.95C135.41,-66.01 120.95,-44.58 111.51,-30.6"/>
<polygon fill="#9a32cd" stroke="#9a32cd" points="142.62,-82.95 151.11,-89.28 148.42,-79.03 142.62,-82.95"/>
<text text-anchor="middle" x="169.5" y="-57.5" font-family="Helvetica,sans-Serif" font-size="10.00"> fixAspectRatio</text>
</g>
</g>
</svg>
