<?xml version="1.0" encoding="UTF-8" standalone="no"?>
<!DOCTYPE svg PUBLIC "-//W3C//DTD SVG 1.1//EN"
 "http://www.w3.org/Graphics/SVG/1.1/DTD/svg11.dtd">
<!-- Generated by graphviz version 3.0.0 (20220413.0242)
 -->
<!-- Title: PlottingFramework::Plot::Pad::gradient_color_t Pages: 1 -->
<svg width="321pt" height="126pt"
 viewBox="0.00 0.00 321.00 126.00" xmlns="http://www.w3.org/2000/svg" xmlns:xlink="http://www.w3.org/1999/xlink">
<g id="graph0" class="graph" transform="scale(1 1) rotate(0) translate(4 122)">
<title>PlottingFramework::Plot::Pad::gradient_color_t</title>
<polygon fill="white" stroke="transparent" points="-4,4 -4,-122 317,-122 317,4 -4,4"/>
<!-- Node1 -->
<g id="node1" class="node">
<title>Node1</title>
<g id="a_node1"><a xlink:title=" ">
<polygon fill="#bfbfbf" stroke="black" points="210,-27.5 210,-68.5 313,-68.5 313,-27.5 210,-27.5"/>
<text text-anchor="start" x="218" y="-56.5" font-family="Helvetica,sans-Serif" font-size="10.00">PlottingFramework::</text>
<text text-anchor="start" x="218" y="-45.5" font-family="Helvetica,sans-Serif" font-size="10.00">Plot::Pad::gradient</text>
<text text-anchor="middle" x="261.5" y="-34.5" font-family="Helvetica,sans-Serif" font-size="10.00">_color_t</text>
</a>
</g>
</g>
<!-- Node2 -->
<g id="node2" class="node">
<title>Node2</title>
<g id="a_node2"><a xlink:title=" ">
<polygon fill="white" stroke="black" points="0,-76.5 0,-117.5 115,-117.5 115,-76.5 0,-76.5"/>
<text text-anchor="start" x="8" y="-105.5" font-family="Helvetica,sans-Serif" font-size="10.00">optional&lt; vector&lt; tuple</text>
<text text-anchor="start" x="8" y="-94.5" font-family="Helvetica,sans-Serif" font-size="10.00">&lt; float_t, float_t, float</text>
<text text-anchor="middle" x="57.5" y="-83.5" font-family="Helvetica,sans-Serif" font-size="10.00">_t, float_t &gt; &gt; &gt;</text>
</a>
</g>
</g>
<!-- Node2&#45;&gt;Node1 -->
<g id="edge1" class="edge">
<title>Node2&#45;&gt;Node1</title>
<path fill="none" stroke="#9a32cd" stroke-dasharray="5,2" d="M125.02,-80.87C152.63,-74.17 184.15,-66.52 209.84,-60.29"/>
<polygon fill="#9a32cd" stroke="#9a32cd" points="123.93,-77.53 115.04,-83.29 125.58,-84.33 123.93,-77.53"/>
<text text-anchor="middle" x="162.5" y="-81" font-family="Helvetica,sans-Serif" font-size="10.00"> rgbEndpoints</text>
</g>
<!-- Node3 -->
<g id="node3" class="node">
<title>Node3</title>
<g id="a_node3"><a xlink:title=" ">
<polygon fill="white" stroke="black" points="11,-38.5 11,-57.5 104,-57.5 104,-38.5 11,-38.5"/>
<text text-anchor="middle" x="57.5" y="-45.5" font-family="Helvetica,sans-Serif" font-size="10.00">optional&lt; float_t &gt;</text>
</a>
</g>
</g>
<!-- Node3&#45;&gt;Node1 -->
<g id="edge2" class="edge">
<title>Node3&#45;&gt;Node1</title>
<path fill="none" stroke="#9a32cd" stroke-dasharray="5,2" d="M114.35,-48C144.21,-48 180.71,-48 209.76,-48"/>
<polygon fill="#9a32cd" stroke="#9a32cd" points="114.08,-44.5 104.08,-48 114.08,-51.5 114.08,-44.5"/>
<text text-anchor="middle" x="162.5" y="-51" font-family="Helvetica,sans-Serif" font-size="10.00"> alpha</text>
</g>
<!-- Node4 -->
<g id="node4" class="node">
<title>Node4</title>
<g id="a_node4"><a xlink:title=" ">
<polygon fill="white" stroke="black" points="9.5,-0.5 9.5,-19.5 105.5,-19.5 105.5,-0.5 9.5,-0.5"/>
<text text-anchor="middle" x="57.5" y="-7.5" font-family="Helvetica,sans-Serif" font-size="10.00">optional&lt; int32_t &gt;</text>
</a>
</g>
</g>
<!-- Node4&#45;&gt;Node1 -->
<g id="edge3" class="edge">
<title>Node4&#45;&gt;Node1</title>
<path fill="none" stroke="#9a32cd" stroke-dasharray="5,2" d="M115.44,-19.23C139.16,-23.23 166.96,-28.1 192,-33 197.73,-34.12 203.73,-35.35 209.68,-36.61"/>
<polygon fill="#9a32cd" stroke="#9a32cd" points="115.99,-15.77 105.55,-17.58 114.83,-22.68 115.99,-15.77"/>
<text text-anchor="middle" x="162.5" y="-36" font-family="Helvetica,sans-Serif" font-size="10.00"> nColors</text>
</g>
</g>
</svg>
